%TF.GenerationSoftware,KiCad,Pcbnew,7.0.2*%
%TF.CreationDate,2024-04-03T12:52:24+03:00*%
%TF.ProjectId,gps_tracer,6770735f-7472-4616-9365-722e6b696361,rev?*%
%TF.SameCoordinates,Original*%
%TF.FileFunction,Legend,Top*%
%TF.FilePolarity,Positive*%
%FSLAX46Y46*%
G04 Gerber Fmt 4.6, Leading zero omitted, Abs format (unit mm)*
G04 Created by KiCad (PCBNEW 7.0.2) date 2024-04-03 12:52:24*
%MOMM*%
%LPD*%
G01*
G04 APERTURE LIST*
%ADD10C,0.200000*%
%ADD11C,0.150000*%
%ADD12C,0.300000*%
%ADD13C,0.254000*%
%ADD14C,0.100000*%
%ADD15C,0.120000*%
G04 APERTURE END LIST*
D10*
X73645238Y-39545952D02*
X73645238Y-40212619D01*
X73407143Y-39165000D02*
X73169048Y-39879285D01*
X73169048Y-39879285D02*
X73788095Y-39879285D01*
X74169048Y-40117380D02*
X74216667Y-40165000D01*
X74216667Y-40165000D02*
X74169048Y-40212619D01*
X74169048Y-40212619D02*
X74121429Y-40165000D01*
X74121429Y-40165000D02*
X74169048Y-40117380D01*
X74169048Y-40117380D02*
X74169048Y-40212619D01*
X74597619Y-39307857D02*
X74645238Y-39260238D01*
X74645238Y-39260238D02*
X74740476Y-39212619D01*
X74740476Y-39212619D02*
X74978571Y-39212619D01*
X74978571Y-39212619D02*
X75073809Y-39260238D01*
X75073809Y-39260238D02*
X75121428Y-39307857D01*
X75121428Y-39307857D02*
X75169047Y-39403095D01*
X75169047Y-39403095D02*
X75169047Y-39498333D01*
X75169047Y-39498333D02*
X75121428Y-39641190D01*
X75121428Y-39641190D02*
X74550000Y-40212619D01*
X74550000Y-40212619D02*
X75169047Y-40212619D01*
X75788095Y-39212619D02*
X75883333Y-39212619D01*
X75883333Y-39212619D02*
X75978571Y-39260238D01*
X75978571Y-39260238D02*
X76026190Y-39307857D01*
X76026190Y-39307857D02*
X76073809Y-39403095D01*
X76073809Y-39403095D02*
X76121428Y-39593571D01*
X76121428Y-39593571D02*
X76121428Y-39831666D01*
X76121428Y-39831666D02*
X76073809Y-40022142D01*
X76073809Y-40022142D02*
X76026190Y-40117380D01*
X76026190Y-40117380D02*
X75978571Y-40165000D01*
X75978571Y-40165000D02*
X75883333Y-40212619D01*
X75883333Y-40212619D02*
X75788095Y-40212619D01*
X75788095Y-40212619D02*
X75692857Y-40165000D01*
X75692857Y-40165000D02*
X75645238Y-40117380D01*
X75645238Y-40117380D02*
X75597619Y-40022142D01*
X75597619Y-40022142D02*
X75550000Y-39831666D01*
X75550000Y-39831666D02*
X75550000Y-39593571D01*
X75550000Y-39593571D02*
X75597619Y-39403095D01*
X75597619Y-39403095D02*
X75645238Y-39307857D01*
X75645238Y-39307857D02*
X75692857Y-39260238D01*
X75692857Y-39260238D02*
X75788095Y-39212619D01*
X76502381Y-39307857D02*
X76550000Y-39260238D01*
X76550000Y-39260238D02*
X76645238Y-39212619D01*
X76645238Y-39212619D02*
X76883333Y-39212619D01*
X76883333Y-39212619D02*
X76978571Y-39260238D01*
X76978571Y-39260238D02*
X77026190Y-39307857D01*
X77026190Y-39307857D02*
X77073809Y-39403095D01*
X77073809Y-39403095D02*
X77073809Y-39498333D01*
X77073809Y-39498333D02*
X77026190Y-39641190D01*
X77026190Y-39641190D02*
X76454762Y-40212619D01*
X76454762Y-40212619D02*
X77073809Y-40212619D01*
X77930952Y-39545952D02*
X77930952Y-40212619D01*
X77692857Y-39165000D02*
X77454762Y-39879285D01*
X77454762Y-39879285D02*
X78073809Y-39879285D01*
X79121429Y-39545952D02*
X79359524Y-40212619D01*
X79359524Y-40212619D02*
X79597619Y-39545952D01*
X79883334Y-39212619D02*
X80502381Y-39212619D01*
X80502381Y-39212619D02*
X80169048Y-39593571D01*
X80169048Y-39593571D02*
X80311905Y-39593571D01*
X80311905Y-39593571D02*
X80407143Y-39641190D01*
X80407143Y-39641190D02*
X80454762Y-39688809D01*
X80454762Y-39688809D02*
X80502381Y-39784047D01*
X80502381Y-39784047D02*
X80502381Y-40022142D01*
X80502381Y-40022142D02*
X80454762Y-40117380D01*
X80454762Y-40117380D02*
X80407143Y-40165000D01*
X80407143Y-40165000D02*
X80311905Y-40212619D01*
X80311905Y-40212619D02*
X80026191Y-40212619D01*
X80026191Y-40212619D02*
X79930953Y-40165000D01*
X79930953Y-40165000D02*
X79883334Y-40117380D01*
X80930953Y-40117380D02*
X80978572Y-40165000D01*
X80978572Y-40165000D02*
X80930953Y-40212619D01*
X80930953Y-40212619D02*
X80883334Y-40165000D01*
X80883334Y-40165000D02*
X80930953Y-40117380D01*
X80930953Y-40117380D02*
X80930953Y-40212619D01*
X81597619Y-39212619D02*
X81692857Y-39212619D01*
X81692857Y-39212619D02*
X81788095Y-39260238D01*
X81788095Y-39260238D02*
X81835714Y-39307857D01*
X81835714Y-39307857D02*
X81883333Y-39403095D01*
X81883333Y-39403095D02*
X81930952Y-39593571D01*
X81930952Y-39593571D02*
X81930952Y-39831666D01*
X81930952Y-39831666D02*
X81883333Y-40022142D01*
X81883333Y-40022142D02*
X81835714Y-40117380D01*
X81835714Y-40117380D02*
X81788095Y-40165000D01*
X81788095Y-40165000D02*
X81692857Y-40212619D01*
X81692857Y-40212619D02*
X81597619Y-40212619D01*
X81597619Y-40212619D02*
X81502381Y-40165000D01*
X81502381Y-40165000D02*
X81454762Y-40117380D01*
X81454762Y-40117380D02*
X81407143Y-40022142D01*
X81407143Y-40022142D02*
X81359524Y-39831666D01*
X81359524Y-39831666D02*
X81359524Y-39593571D01*
X81359524Y-39593571D02*
X81407143Y-39403095D01*
X81407143Y-39403095D02*
X81454762Y-39307857D01*
X81454762Y-39307857D02*
X81502381Y-39260238D01*
X81502381Y-39260238D02*
X81597619Y-39212619D01*
X53869047Y-63488809D02*
X54011904Y-63536428D01*
X54011904Y-63536428D02*
X54059523Y-63584047D01*
X54059523Y-63584047D02*
X54107142Y-63679285D01*
X54107142Y-63679285D02*
X54107142Y-63822142D01*
X54107142Y-63822142D02*
X54059523Y-63917380D01*
X54059523Y-63917380D02*
X54011904Y-63965000D01*
X54011904Y-63965000D02*
X53916666Y-64012619D01*
X53916666Y-64012619D02*
X53535714Y-64012619D01*
X53535714Y-64012619D02*
X53535714Y-63012619D01*
X53535714Y-63012619D02*
X53869047Y-63012619D01*
X53869047Y-63012619D02*
X53964285Y-63060238D01*
X53964285Y-63060238D02*
X54011904Y-63107857D01*
X54011904Y-63107857D02*
X54059523Y-63203095D01*
X54059523Y-63203095D02*
X54059523Y-63298333D01*
X54059523Y-63298333D02*
X54011904Y-63393571D01*
X54011904Y-63393571D02*
X53964285Y-63441190D01*
X53964285Y-63441190D02*
X53869047Y-63488809D01*
X53869047Y-63488809D02*
X53535714Y-63488809D01*
X54535714Y-64012619D02*
X54535714Y-63012619D01*
X54535714Y-63012619D02*
X54869047Y-63726904D01*
X54869047Y-63726904D02*
X55202380Y-63012619D01*
X55202380Y-63012619D02*
X55202380Y-64012619D01*
X55678571Y-63488809D02*
X56011904Y-63488809D01*
X56154761Y-64012619D02*
X55678571Y-64012619D01*
X55678571Y-64012619D02*
X55678571Y-63012619D01*
X55678571Y-63012619D02*
X56154761Y-63012619D01*
X56535714Y-63107857D02*
X56583333Y-63060238D01*
X56583333Y-63060238D02*
X56678571Y-63012619D01*
X56678571Y-63012619D02*
X56916666Y-63012619D01*
X56916666Y-63012619D02*
X57011904Y-63060238D01*
X57011904Y-63060238D02*
X57059523Y-63107857D01*
X57059523Y-63107857D02*
X57107142Y-63203095D01*
X57107142Y-63203095D02*
X57107142Y-63298333D01*
X57107142Y-63298333D02*
X57059523Y-63441190D01*
X57059523Y-63441190D02*
X56488095Y-64012619D01*
X56488095Y-64012619D02*
X57107142Y-64012619D01*
X57678571Y-63441190D02*
X57583333Y-63393571D01*
X57583333Y-63393571D02*
X57535714Y-63345952D01*
X57535714Y-63345952D02*
X57488095Y-63250714D01*
X57488095Y-63250714D02*
X57488095Y-63203095D01*
X57488095Y-63203095D02*
X57535714Y-63107857D01*
X57535714Y-63107857D02*
X57583333Y-63060238D01*
X57583333Y-63060238D02*
X57678571Y-63012619D01*
X57678571Y-63012619D02*
X57869047Y-63012619D01*
X57869047Y-63012619D02*
X57964285Y-63060238D01*
X57964285Y-63060238D02*
X58011904Y-63107857D01*
X58011904Y-63107857D02*
X58059523Y-63203095D01*
X58059523Y-63203095D02*
X58059523Y-63250714D01*
X58059523Y-63250714D02*
X58011904Y-63345952D01*
X58011904Y-63345952D02*
X57964285Y-63393571D01*
X57964285Y-63393571D02*
X57869047Y-63441190D01*
X57869047Y-63441190D02*
X57678571Y-63441190D01*
X57678571Y-63441190D02*
X57583333Y-63488809D01*
X57583333Y-63488809D02*
X57535714Y-63536428D01*
X57535714Y-63536428D02*
X57488095Y-63631666D01*
X57488095Y-63631666D02*
X57488095Y-63822142D01*
X57488095Y-63822142D02*
X57535714Y-63917380D01*
X57535714Y-63917380D02*
X57583333Y-63965000D01*
X57583333Y-63965000D02*
X57678571Y-64012619D01*
X57678571Y-64012619D02*
X57869047Y-64012619D01*
X57869047Y-64012619D02*
X57964285Y-63965000D01*
X57964285Y-63965000D02*
X58011904Y-63917380D01*
X58011904Y-63917380D02*
X58059523Y-63822142D01*
X58059523Y-63822142D02*
X58059523Y-63631666D01*
X58059523Y-63631666D02*
X58011904Y-63536428D01*
X58011904Y-63536428D02*
X57964285Y-63488809D01*
X57964285Y-63488809D02*
X57869047Y-63441190D01*
X58678571Y-63012619D02*
X58773809Y-63012619D01*
X58773809Y-63012619D02*
X58869047Y-63060238D01*
X58869047Y-63060238D02*
X58916666Y-63107857D01*
X58916666Y-63107857D02*
X58964285Y-63203095D01*
X58964285Y-63203095D02*
X59011904Y-63393571D01*
X59011904Y-63393571D02*
X59011904Y-63631666D01*
X59011904Y-63631666D02*
X58964285Y-63822142D01*
X58964285Y-63822142D02*
X58916666Y-63917380D01*
X58916666Y-63917380D02*
X58869047Y-63965000D01*
X58869047Y-63965000D02*
X58773809Y-64012619D01*
X58773809Y-64012619D02*
X58678571Y-64012619D01*
X58678571Y-64012619D02*
X58583333Y-63965000D01*
X58583333Y-63965000D02*
X58535714Y-63917380D01*
X58535714Y-63917380D02*
X58488095Y-63822142D01*
X58488095Y-63822142D02*
X58440476Y-63631666D01*
X58440476Y-63631666D02*
X58440476Y-63393571D01*
X58440476Y-63393571D02*
X58488095Y-63203095D01*
X58488095Y-63203095D02*
X58535714Y-63107857D01*
X58535714Y-63107857D02*
X58583333Y-63060238D01*
X58583333Y-63060238D02*
X58678571Y-63012619D01*
D11*
X72902380Y-66274000D02*
X73016666Y-66312095D01*
X73016666Y-66312095D02*
X73207142Y-66312095D01*
X73207142Y-66312095D02*
X73283333Y-66274000D01*
X73283333Y-66274000D02*
X73321428Y-66235904D01*
X73321428Y-66235904D02*
X73359523Y-66159714D01*
X73359523Y-66159714D02*
X73359523Y-66083523D01*
X73359523Y-66083523D02*
X73321428Y-66007333D01*
X73321428Y-66007333D02*
X73283333Y-65969238D01*
X73283333Y-65969238D02*
X73207142Y-65931142D01*
X73207142Y-65931142D02*
X73054761Y-65893047D01*
X73054761Y-65893047D02*
X72978571Y-65854952D01*
X72978571Y-65854952D02*
X72940476Y-65816857D01*
X72940476Y-65816857D02*
X72902380Y-65740666D01*
X72902380Y-65740666D02*
X72902380Y-65664476D01*
X72902380Y-65664476D02*
X72940476Y-65588285D01*
X72940476Y-65588285D02*
X72978571Y-65550190D01*
X72978571Y-65550190D02*
X73054761Y-65512095D01*
X73054761Y-65512095D02*
X73245238Y-65512095D01*
X73245238Y-65512095D02*
X73359523Y-65550190D01*
X73702381Y-66312095D02*
X73702381Y-65512095D01*
X73702381Y-65512095D02*
X74007143Y-65512095D01*
X74007143Y-65512095D02*
X74083333Y-65550190D01*
X74083333Y-65550190D02*
X74121428Y-65588285D01*
X74121428Y-65588285D02*
X74159524Y-65664476D01*
X74159524Y-65664476D02*
X74159524Y-65778761D01*
X74159524Y-65778761D02*
X74121428Y-65854952D01*
X74121428Y-65854952D02*
X74083333Y-65893047D01*
X74083333Y-65893047D02*
X74007143Y-65931142D01*
X74007143Y-65931142D02*
X73702381Y-65931142D01*
X74502381Y-66312095D02*
X74502381Y-65512095D01*
X74959524Y-66312095D02*
X74616666Y-65854952D01*
X74959524Y-65512095D02*
X74502381Y-65969238D01*
X68500476Y-66212095D02*
X68500476Y-65412095D01*
X68500476Y-65412095D02*
X68957619Y-66212095D01*
X68957619Y-66212095D02*
X68957619Y-65412095D01*
X70070476Y-66222095D02*
X70070476Y-65422095D01*
X70070476Y-65422095D02*
X70375238Y-65422095D01*
X70375238Y-65422095D02*
X70451428Y-65460190D01*
X70451428Y-65460190D02*
X70489523Y-65498285D01*
X70489523Y-65498285D02*
X70527619Y-65574476D01*
X70527619Y-65574476D02*
X70527619Y-65688761D01*
X70527619Y-65688761D02*
X70489523Y-65764952D01*
X70489523Y-65764952D02*
X70451428Y-65803047D01*
X70451428Y-65803047D02*
X70375238Y-65841142D01*
X70375238Y-65841142D02*
X70070476Y-65841142D01*
D12*
X51247142Y-46385000D02*
X52390000Y-46385000D01*
X51187142Y-40835000D02*
X52330000Y-40835000D01*
X51758571Y-41406428D02*
X51758571Y-40263571D01*
D11*
X64800000Y-65885000D02*
X59680000Y-65885000D01*
X64800000Y-62955000D02*
X59670000Y-62955000D01*
X63480000Y-63010000D02*
X63480000Y-65820000D01*
X62180000Y-62990000D02*
X62180000Y-65800000D01*
X64800000Y-65885000D02*
X64800000Y-62955000D01*
X59680000Y-65885000D02*
X59680000Y-62885000D01*
X60900000Y-62965000D02*
X60900000Y-65775000D01*
X63720190Y-65215476D02*
X63682095Y-65291666D01*
X63682095Y-65291666D02*
X63682095Y-65405952D01*
X63682095Y-65405952D02*
X63720190Y-65520238D01*
X63720190Y-65520238D02*
X63796380Y-65596428D01*
X63796380Y-65596428D02*
X63872571Y-65634523D01*
X63872571Y-65634523D02*
X64024952Y-65672619D01*
X64024952Y-65672619D02*
X64139238Y-65672619D01*
X64139238Y-65672619D02*
X64291619Y-65634523D01*
X64291619Y-65634523D02*
X64367809Y-65596428D01*
X64367809Y-65596428D02*
X64444000Y-65520238D01*
X64444000Y-65520238D02*
X64482095Y-65405952D01*
X64482095Y-65405952D02*
X64482095Y-65329761D01*
X64482095Y-65329761D02*
X64444000Y-65215476D01*
X64444000Y-65215476D02*
X64405904Y-65177380D01*
X64405904Y-65177380D02*
X64139238Y-65177380D01*
X64139238Y-65177380D02*
X64139238Y-65329761D01*
X64482095Y-64834523D02*
X63682095Y-64834523D01*
X63682095Y-64834523D02*
X64482095Y-64377380D01*
X64482095Y-64377380D02*
X63682095Y-64377380D01*
X64482095Y-63996428D02*
X63682095Y-63996428D01*
X63682095Y-63996428D02*
X63682095Y-63805952D01*
X63682095Y-63805952D02*
X63720190Y-63691666D01*
X63720190Y-63691666D02*
X63796380Y-63615476D01*
X63796380Y-63615476D02*
X63872571Y-63577381D01*
X63872571Y-63577381D02*
X64024952Y-63539285D01*
X64024952Y-63539285D02*
X64139238Y-63539285D01*
X64139238Y-63539285D02*
X64291619Y-63577381D01*
X64291619Y-63577381D02*
X64367809Y-63615476D01*
X64367809Y-63615476D02*
X64444000Y-63691666D01*
X64444000Y-63691666D02*
X64482095Y-63805952D01*
X64482095Y-63805952D02*
X64482095Y-63996428D01*
X62412095Y-65650714D02*
X62412095Y-65155476D01*
X62412095Y-65155476D02*
X62716857Y-65422142D01*
X62716857Y-65422142D02*
X62716857Y-65307857D01*
X62716857Y-65307857D02*
X62754952Y-65231666D01*
X62754952Y-65231666D02*
X62793047Y-65193571D01*
X62793047Y-65193571D02*
X62869238Y-65155476D01*
X62869238Y-65155476D02*
X63059714Y-65155476D01*
X63059714Y-65155476D02*
X63135904Y-65193571D01*
X63135904Y-65193571D02*
X63174000Y-65231666D01*
X63174000Y-65231666D02*
X63212095Y-65307857D01*
X63212095Y-65307857D02*
X63212095Y-65536428D01*
X63212095Y-65536428D02*
X63174000Y-65612619D01*
X63174000Y-65612619D02*
X63135904Y-65650714D01*
X63135904Y-64812618D02*
X63174000Y-64774523D01*
X63174000Y-64774523D02*
X63212095Y-64812618D01*
X63212095Y-64812618D02*
X63174000Y-64850714D01*
X63174000Y-64850714D02*
X63135904Y-64812618D01*
X63135904Y-64812618D02*
X63212095Y-64812618D01*
X62412095Y-64507857D02*
X62412095Y-64012619D01*
X62412095Y-64012619D02*
X62716857Y-64279285D01*
X62716857Y-64279285D02*
X62716857Y-64165000D01*
X62716857Y-64165000D02*
X62754952Y-64088809D01*
X62754952Y-64088809D02*
X62793047Y-64050714D01*
X62793047Y-64050714D02*
X62869238Y-64012619D01*
X62869238Y-64012619D02*
X63059714Y-64012619D01*
X63059714Y-64012619D02*
X63135904Y-64050714D01*
X63135904Y-64050714D02*
X63174000Y-64088809D01*
X63174000Y-64088809D02*
X63212095Y-64165000D01*
X63212095Y-64165000D02*
X63212095Y-64393571D01*
X63212095Y-64393571D02*
X63174000Y-64469762D01*
X63174000Y-64469762D02*
X63135904Y-64507857D01*
X62412095Y-63784047D02*
X63212095Y-63517380D01*
X63212095Y-63517380D02*
X62412095Y-63250714D01*
X61924000Y-65622619D02*
X61962095Y-65508333D01*
X61962095Y-65508333D02*
X61962095Y-65317857D01*
X61962095Y-65317857D02*
X61924000Y-65241666D01*
X61924000Y-65241666D02*
X61885904Y-65203571D01*
X61885904Y-65203571D02*
X61809714Y-65165476D01*
X61809714Y-65165476D02*
X61733523Y-65165476D01*
X61733523Y-65165476D02*
X61657333Y-65203571D01*
X61657333Y-65203571D02*
X61619238Y-65241666D01*
X61619238Y-65241666D02*
X61581142Y-65317857D01*
X61581142Y-65317857D02*
X61543047Y-65470238D01*
X61543047Y-65470238D02*
X61504952Y-65546428D01*
X61504952Y-65546428D02*
X61466857Y-65584523D01*
X61466857Y-65584523D02*
X61390666Y-65622619D01*
X61390666Y-65622619D02*
X61314476Y-65622619D01*
X61314476Y-65622619D02*
X61238285Y-65584523D01*
X61238285Y-65584523D02*
X61200190Y-65546428D01*
X61200190Y-65546428D02*
X61162095Y-65470238D01*
X61162095Y-65470238D02*
X61162095Y-65279761D01*
X61162095Y-65279761D02*
X61200190Y-65165476D01*
X61885904Y-64365475D02*
X61924000Y-64403571D01*
X61924000Y-64403571D02*
X61962095Y-64517856D01*
X61962095Y-64517856D02*
X61962095Y-64594047D01*
X61962095Y-64594047D02*
X61924000Y-64708333D01*
X61924000Y-64708333D02*
X61847809Y-64784523D01*
X61847809Y-64784523D02*
X61771619Y-64822618D01*
X61771619Y-64822618D02*
X61619238Y-64860714D01*
X61619238Y-64860714D02*
X61504952Y-64860714D01*
X61504952Y-64860714D02*
X61352571Y-64822618D01*
X61352571Y-64822618D02*
X61276380Y-64784523D01*
X61276380Y-64784523D02*
X61200190Y-64708333D01*
X61200190Y-64708333D02*
X61162095Y-64594047D01*
X61162095Y-64594047D02*
X61162095Y-64517856D01*
X61162095Y-64517856D02*
X61200190Y-64403571D01*
X61200190Y-64403571D02*
X61238285Y-64365475D01*
X61962095Y-63641666D02*
X61962095Y-64022618D01*
X61962095Y-64022618D02*
X61162095Y-64022618D01*
X60684000Y-65642619D02*
X60722095Y-65528333D01*
X60722095Y-65528333D02*
X60722095Y-65337857D01*
X60722095Y-65337857D02*
X60684000Y-65261666D01*
X60684000Y-65261666D02*
X60645904Y-65223571D01*
X60645904Y-65223571D02*
X60569714Y-65185476D01*
X60569714Y-65185476D02*
X60493523Y-65185476D01*
X60493523Y-65185476D02*
X60417333Y-65223571D01*
X60417333Y-65223571D02*
X60379238Y-65261666D01*
X60379238Y-65261666D02*
X60341142Y-65337857D01*
X60341142Y-65337857D02*
X60303047Y-65490238D01*
X60303047Y-65490238D02*
X60264952Y-65566428D01*
X60264952Y-65566428D02*
X60226857Y-65604523D01*
X60226857Y-65604523D02*
X60150666Y-65642619D01*
X60150666Y-65642619D02*
X60074476Y-65642619D01*
X60074476Y-65642619D02*
X59998285Y-65604523D01*
X59998285Y-65604523D02*
X59960190Y-65566428D01*
X59960190Y-65566428D02*
X59922095Y-65490238D01*
X59922095Y-65490238D02*
X59922095Y-65299761D01*
X59922095Y-65299761D02*
X59960190Y-65185476D01*
X60722095Y-64842618D02*
X59922095Y-64842618D01*
X59922095Y-64842618D02*
X59922095Y-64652142D01*
X59922095Y-64652142D02*
X59960190Y-64537856D01*
X59960190Y-64537856D02*
X60036380Y-64461666D01*
X60036380Y-64461666D02*
X60112571Y-64423571D01*
X60112571Y-64423571D02*
X60264952Y-64385475D01*
X60264952Y-64385475D02*
X60379238Y-64385475D01*
X60379238Y-64385475D02*
X60531619Y-64423571D01*
X60531619Y-64423571D02*
X60607809Y-64461666D01*
X60607809Y-64461666D02*
X60684000Y-64537856D01*
X60684000Y-64537856D02*
X60722095Y-64652142D01*
X60722095Y-64652142D02*
X60722095Y-64842618D01*
X60493523Y-64080714D02*
X60493523Y-63699761D01*
X60722095Y-64156904D02*
X59922095Y-63890237D01*
X59922095Y-63890237D02*
X60722095Y-63623571D01*
D10*
X68701428Y-71073142D02*
X69501428Y-71073142D01*
X69501428Y-71073142D02*
X68701428Y-72273142D01*
X68701428Y-72273142D02*
X69501428Y-72273142D01*
X72651428Y-70898142D02*
X73451428Y-72098142D01*
X73451428Y-70898142D02*
X72651428Y-72098142D01*
X68105000Y-72795000D02*
X68105000Y-67445000D01*
X68105000Y-67445000D02*
X67605000Y-69195000D01*
X68105000Y-67445000D02*
X68605000Y-69195000D01*
X69219285Y-67526714D02*
X69219285Y-68098142D01*
X68819285Y-66898142D02*
X69219285Y-67526714D01*
X69219285Y-67526714D02*
X69619285Y-66898142D01*
X68458553Y-72795000D02*
G75*
G03*
X68458553Y-72795000I-353553J0D01*
G01*
X73455000Y-72795000D02*
X71705000Y-73295000D01*
X73455000Y-72795000D02*
X71705000Y-72295000D01*
X68105000Y-72795000D02*
X73455000Y-72795000D01*
D13*
%TO.C,IC1*%
X67981037Y-46993326D02*
X67981037Y-45723326D01*
X69311514Y-46872373D02*
X69251038Y-46932850D01*
X69251038Y-46932850D02*
X69069609Y-46993326D01*
X69069609Y-46993326D02*
X68948657Y-46993326D01*
X68948657Y-46993326D02*
X68767228Y-46932850D01*
X68767228Y-46932850D02*
X68646276Y-46811897D01*
X68646276Y-46811897D02*
X68585799Y-46690945D01*
X68585799Y-46690945D02*
X68525323Y-46449040D01*
X68525323Y-46449040D02*
X68525323Y-46267611D01*
X68525323Y-46267611D02*
X68585799Y-46025707D01*
X68585799Y-46025707D02*
X68646276Y-45904754D01*
X68646276Y-45904754D02*
X68767228Y-45783802D01*
X68767228Y-45783802D02*
X68948657Y-45723326D01*
X68948657Y-45723326D02*
X69069609Y-45723326D01*
X69069609Y-45723326D02*
X69251038Y-45783802D01*
X69251038Y-45783802D02*
X69311514Y-45844278D01*
X70521038Y-46993326D02*
X69795323Y-46993326D01*
X70158180Y-46993326D02*
X70158180Y-45723326D01*
X70158180Y-45723326D02*
X70037228Y-45904754D01*
X70037228Y-45904754D02*
X69916276Y-46025707D01*
X69916276Y-46025707D02*
X69795323Y-46086183D01*
D11*
%TO.C,U7*%
X53858095Y-35002619D02*
X53858095Y-35812142D01*
X53858095Y-35812142D02*
X53905714Y-35907380D01*
X53905714Y-35907380D02*
X53953333Y-35955000D01*
X53953333Y-35955000D02*
X54048571Y-36002619D01*
X54048571Y-36002619D02*
X54239047Y-36002619D01*
X54239047Y-36002619D02*
X54334285Y-35955000D01*
X54334285Y-35955000D02*
X54381904Y-35907380D01*
X54381904Y-35907380D02*
X54429523Y-35812142D01*
X54429523Y-35812142D02*
X54429523Y-35002619D01*
X54810476Y-35002619D02*
X55477142Y-35002619D01*
X55477142Y-35002619D02*
X55048571Y-36002619D01*
%TO.C,D9*%
X51864505Y-58812619D02*
X51864505Y-57812619D01*
X51864505Y-57812619D02*
X52102600Y-57812619D01*
X52102600Y-57812619D02*
X52245457Y-57860238D01*
X52245457Y-57860238D02*
X52340695Y-57955476D01*
X52340695Y-57955476D02*
X52388314Y-58050714D01*
X52388314Y-58050714D02*
X52435933Y-58241190D01*
X52435933Y-58241190D02*
X52435933Y-58384047D01*
X52435933Y-58384047D02*
X52388314Y-58574523D01*
X52388314Y-58574523D02*
X52340695Y-58669761D01*
X52340695Y-58669761D02*
X52245457Y-58765000D01*
X52245457Y-58765000D02*
X52102600Y-58812619D01*
X52102600Y-58812619D02*
X51864505Y-58812619D01*
X52912124Y-58812619D02*
X53102600Y-58812619D01*
X53102600Y-58812619D02*
X53197838Y-58765000D01*
X53197838Y-58765000D02*
X53245457Y-58717380D01*
X53245457Y-58717380D02*
X53340695Y-58574523D01*
X53340695Y-58574523D02*
X53388314Y-58384047D01*
X53388314Y-58384047D02*
X53388314Y-58003095D01*
X53388314Y-58003095D02*
X53340695Y-57907857D01*
X53340695Y-57907857D02*
X53293076Y-57860238D01*
X53293076Y-57860238D02*
X53197838Y-57812619D01*
X53197838Y-57812619D02*
X53007362Y-57812619D01*
X53007362Y-57812619D02*
X52912124Y-57860238D01*
X52912124Y-57860238D02*
X52864505Y-57907857D01*
X52864505Y-57907857D02*
X52816886Y-58003095D01*
X52816886Y-58003095D02*
X52816886Y-58241190D01*
X52816886Y-58241190D02*
X52864505Y-58336428D01*
X52864505Y-58336428D02*
X52912124Y-58384047D01*
X52912124Y-58384047D02*
X53007362Y-58431666D01*
X53007362Y-58431666D02*
X53197838Y-58431666D01*
X53197838Y-58431666D02*
X53293076Y-58384047D01*
X53293076Y-58384047D02*
X53340695Y-58336428D01*
X53340695Y-58336428D02*
X53388314Y-58241190D01*
%TO.C,D8*%
X51924505Y-56006419D02*
X51924505Y-55006419D01*
X51924505Y-55006419D02*
X52162600Y-55006419D01*
X52162600Y-55006419D02*
X52305457Y-55054038D01*
X52305457Y-55054038D02*
X52400695Y-55149276D01*
X52400695Y-55149276D02*
X52448314Y-55244514D01*
X52448314Y-55244514D02*
X52495933Y-55434990D01*
X52495933Y-55434990D02*
X52495933Y-55577847D01*
X52495933Y-55577847D02*
X52448314Y-55768323D01*
X52448314Y-55768323D02*
X52400695Y-55863561D01*
X52400695Y-55863561D02*
X52305457Y-55958800D01*
X52305457Y-55958800D02*
X52162600Y-56006419D01*
X52162600Y-56006419D02*
X51924505Y-56006419D01*
X53067362Y-55434990D02*
X52972124Y-55387371D01*
X52972124Y-55387371D02*
X52924505Y-55339752D01*
X52924505Y-55339752D02*
X52876886Y-55244514D01*
X52876886Y-55244514D02*
X52876886Y-55196895D01*
X52876886Y-55196895D02*
X52924505Y-55101657D01*
X52924505Y-55101657D02*
X52972124Y-55054038D01*
X52972124Y-55054038D02*
X53067362Y-55006419D01*
X53067362Y-55006419D02*
X53257838Y-55006419D01*
X53257838Y-55006419D02*
X53353076Y-55054038D01*
X53353076Y-55054038D02*
X53400695Y-55101657D01*
X53400695Y-55101657D02*
X53448314Y-55196895D01*
X53448314Y-55196895D02*
X53448314Y-55244514D01*
X53448314Y-55244514D02*
X53400695Y-55339752D01*
X53400695Y-55339752D02*
X53353076Y-55387371D01*
X53353076Y-55387371D02*
X53257838Y-55434990D01*
X53257838Y-55434990D02*
X53067362Y-55434990D01*
X53067362Y-55434990D02*
X52972124Y-55482609D01*
X52972124Y-55482609D02*
X52924505Y-55530228D01*
X52924505Y-55530228D02*
X52876886Y-55625466D01*
X52876886Y-55625466D02*
X52876886Y-55815942D01*
X52876886Y-55815942D02*
X52924505Y-55911180D01*
X52924505Y-55911180D02*
X52972124Y-55958800D01*
X52972124Y-55958800D02*
X53067362Y-56006419D01*
X53067362Y-56006419D02*
X53257838Y-56006419D01*
X53257838Y-56006419D02*
X53353076Y-55958800D01*
X53353076Y-55958800D02*
X53400695Y-55911180D01*
X53400695Y-55911180D02*
X53448314Y-55815942D01*
X53448314Y-55815942D02*
X53448314Y-55625466D01*
X53448314Y-55625466D02*
X53400695Y-55530228D01*
X53400695Y-55530228D02*
X53353076Y-55482609D01*
X53353076Y-55482609D02*
X53257838Y-55434990D01*
%TO.C,D7*%
X51791905Y-49872619D02*
X51791905Y-48872619D01*
X51791905Y-48872619D02*
X52030000Y-48872619D01*
X52030000Y-48872619D02*
X52172857Y-48920238D01*
X52172857Y-48920238D02*
X52268095Y-49015476D01*
X52268095Y-49015476D02*
X52315714Y-49110714D01*
X52315714Y-49110714D02*
X52363333Y-49301190D01*
X52363333Y-49301190D02*
X52363333Y-49444047D01*
X52363333Y-49444047D02*
X52315714Y-49634523D01*
X52315714Y-49634523D02*
X52268095Y-49729761D01*
X52268095Y-49729761D02*
X52172857Y-49825000D01*
X52172857Y-49825000D02*
X52030000Y-49872619D01*
X52030000Y-49872619D02*
X51791905Y-49872619D01*
X52696667Y-48872619D02*
X53363333Y-48872619D01*
X53363333Y-48872619D02*
X52934762Y-49872619D01*
%TO.C,D6*%
X51731905Y-48132619D02*
X51731905Y-47132619D01*
X51731905Y-47132619D02*
X51970000Y-47132619D01*
X51970000Y-47132619D02*
X52112857Y-47180238D01*
X52112857Y-47180238D02*
X52208095Y-47275476D01*
X52208095Y-47275476D02*
X52255714Y-47370714D01*
X52255714Y-47370714D02*
X52303333Y-47561190D01*
X52303333Y-47561190D02*
X52303333Y-47704047D01*
X52303333Y-47704047D02*
X52255714Y-47894523D01*
X52255714Y-47894523D02*
X52208095Y-47989761D01*
X52208095Y-47989761D02*
X52112857Y-48085000D01*
X52112857Y-48085000D02*
X51970000Y-48132619D01*
X51970000Y-48132619D02*
X51731905Y-48132619D01*
X53160476Y-47132619D02*
X52970000Y-47132619D01*
X52970000Y-47132619D02*
X52874762Y-47180238D01*
X52874762Y-47180238D02*
X52827143Y-47227857D01*
X52827143Y-47227857D02*
X52731905Y-47370714D01*
X52731905Y-47370714D02*
X52684286Y-47561190D01*
X52684286Y-47561190D02*
X52684286Y-47942142D01*
X52684286Y-47942142D02*
X52731905Y-48037380D01*
X52731905Y-48037380D02*
X52779524Y-48085000D01*
X52779524Y-48085000D02*
X52874762Y-48132619D01*
X52874762Y-48132619D02*
X53065238Y-48132619D01*
X53065238Y-48132619D02*
X53160476Y-48085000D01*
X53160476Y-48085000D02*
X53208095Y-48037380D01*
X53208095Y-48037380D02*
X53255714Y-47942142D01*
X53255714Y-47942142D02*
X53255714Y-47704047D01*
X53255714Y-47704047D02*
X53208095Y-47608809D01*
X53208095Y-47608809D02*
X53160476Y-47561190D01*
X53160476Y-47561190D02*
X53065238Y-47513571D01*
X53065238Y-47513571D02*
X52874762Y-47513571D01*
X52874762Y-47513571D02*
X52779524Y-47561190D01*
X52779524Y-47561190D02*
X52731905Y-47608809D01*
X52731905Y-47608809D02*
X52684286Y-47704047D01*
%TO.C,D2*%
X51931905Y-53242619D02*
X51931905Y-52242619D01*
X51931905Y-52242619D02*
X52170000Y-52242619D01*
X52170000Y-52242619D02*
X52312857Y-52290238D01*
X52312857Y-52290238D02*
X52408095Y-52385476D01*
X52408095Y-52385476D02*
X52455714Y-52480714D01*
X52455714Y-52480714D02*
X52503333Y-52671190D01*
X52503333Y-52671190D02*
X52503333Y-52814047D01*
X52503333Y-52814047D02*
X52455714Y-53004523D01*
X52455714Y-53004523D02*
X52408095Y-53099761D01*
X52408095Y-53099761D02*
X52312857Y-53195000D01*
X52312857Y-53195000D02*
X52170000Y-53242619D01*
X52170000Y-53242619D02*
X51931905Y-53242619D01*
X52884286Y-52337857D02*
X52931905Y-52290238D01*
X52931905Y-52290238D02*
X53027143Y-52242619D01*
X53027143Y-52242619D02*
X53265238Y-52242619D01*
X53265238Y-52242619D02*
X53360476Y-52290238D01*
X53360476Y-52290238D02*
X53408095Y-52337857D01*
X53408095Y-52337857D02*
X53455714Y-52433095D01*
X53455714Y-52433095D02*
X53455714Y-52528333D01*
X53455714Y-52528333D02*
X53408095Y-52671190D01*
X53408095Y-52671190D02*
X52836667Y-53242619D01*
X52836667Y-53242619D02*
X53455714Y-53242619D01*
%TO.C,L1*%
X75333333Y-68512619D02*
X74857143Y-68512619D01*
X74857143Y-68512619D02*
X74857143Y-67512619D01*
X76190476Y-68512619D02*
X75619048Y-68512619D01*
X75904762Y-68512619D02*
X75904762Y-67512619D01*
X75904762Y-67512619D02*
X75809524Y-67655476D01*
X75809524Y-67655476D02*
X75714286Y-67750714D01*
X75714286Y-67750714D02*
X75619048Y-67798333D01*
%TO.C,R19*%
X57460742Y-59817219D02*
X57127409Y-59341028D01*
X56889314Y-59817219D02*
X56889314Y-58817219D01*
X56889314Y-58817219D02*
X57270266Y-58817219D01*
X57270266Y-58817219D02*
X57365504Y-58864838D01*
X57365504Y-58864838D02*
X57413123Y-58912457D01*
X57413123Y-58912457D02*
X57460742Y-59007695D01*
X57460742Y-59007695D02*
X57460742Y-59150552D01*
X57460742Y-59150552D02*
X57413123Y-59245790D01*
X57413123Y-59245790D02*
X57365504Y-59293409D01*
X57365504Y-59293409D02*
X57270266Y-59341028D01*
X57270266Y-59341028D02*
X56889314Y-59341028D01*
X58413123Y-59817219D02*
X57841695Y-59817219D01*
X58127409Y-59817219D02*
X58127409Y-58817219D01*
X58127409Y-58817219D02*
X58032171Y-58960076D01*
X58032171Y-58960076D02*
X57936933Y-59055314D01*
X57936933Y-59055314D02*
X57841695Y-59102933D01*
X58889314Y-59817219D02*
X59079790Y-59817219D01*
X59079790Y-59817219D02*
X59175028Y-59769600D01*
X59175028Y-59769600D02*
X59222647Y-59721980D01*
X59222647Y-59721980D02*
X59317885Y-59579123D01*
X59317885Y-59579123D02*
X59365504Y-59388647D01*
X59365504Y-59388647D02*
X59365504Y-59007695D01*
X59365504Y-59007695D02*
X59317885Y-58912457D01*
X59317885Y-58912457D02*
X59270266Y-58864838D01*
X59270266Y-58864838D02*
X59175028Y-58817219D01*
X59175028Y-58817219D02*
X58984552Y-58817219D01*
X58984552Y-58817219D02*
X58889314Y-58864838D01*
X58889314Y-58864838D02*
X58841695Y-58912457D01*
X58841695Y-58912457D02*
X58794076Y-59007695D01*
X58794076Y-59007695D02*
X58794076Y-59245790D01*
X58794076Y-59245790D02*
X58841695Y-59341028D01*
X58841695Y-59341028D02*
X58889314Y-59388647D01*
X58889314Y-59388647D02*
X58984552Y-59436266D01*
X58984552Y-59436266D02*
X59175028Y-59436266D01*
X59175028Y-59436266D02*
X59270266Y-59388647D01*
X59270266Y-59388647D02*
X59317885Y-59341028D01*
X59317885Y-59341028D02*
X59365504Y-59245790D01*
%TO.C,C20*%
X60162142Y-68817380D02*
X60114523Y-68865000D01*
X60114523Y-68865000D02*
X59971666Y-68912619D01*
X59971666Y-68912619D02*
X59876428Y-68912619D01*
X59876428Y-68912619D02*
X59733571Y-68865000D01*
X59733571Y-68865000D02*
X59638333Y-68769761D01*
X59638333Y-68769761D02*
X59590714Y-68674523D01*
X59590714Y-68674523D02*
X59543095Y-68484047D01*
X59543095Y-68484047D02*
X59543095Y-68341190D01*
X59543095Y-68341190D02*
X59590714Y-68150714D01*
X59590714Y-68150714D02*
X59638333Y-68055476D01*
X59638333Y-68055476D02*
X59733571Y-67960238D01*
X59733571Y-67960238D02*
X59876428Y-67912619D01*
X59876428Y-67912619D02*
X59971666Y-67912619D01*
X59971666Y-67912619D02*
X60114523Y-67960238D01*
X60114523Y-67960238D02*
X60162142Y-68007857D01*
X60543095Y-68007857D02*
X60590714Y-67960238D01*
X60590714Y-67960238D02*
X60685952Y-67912619D01*
X60685952Y-67912619D02*
X60924047Y-67912619D01*
X60924047Y-67912619D02*
X61019285Y-67960238D01*
X61019285Y-67960238D02*
X61066904Y-68007857D01*
X61066904Y-68007857D02*
X61114523Y-68103095D01*
X61114523Y-68103095D02*
X61114523Y-68198333D01*
X61114523Y-68198333D02*
X61066904Y-68341190D01*
X61066904Y-68341190D02*
X60495476Y-68912619D01*
X60495476Y-68912619D02*
X61114523Y-68912619D01*
X61733571Y-67912619D02*
X61828809Y-67912619D01*
X61828809Y-67912619D02*
X61924047Y-67960238D01*
X61924047Y-67960238D02*
X61971666Y-68007857D01*
X61971666Y-68007857D02*
X62019285Y-68103095D01*
X62019285Y-68103095D02*
X62066904Y-68293571D01*
X62066904Y-68293571D02*
X62066904Y-68531666D01*
X62066904Y-68531666D02*
X62019285Y-68722142D01*
X62019285Y-68722142D02*
X61971666Y-68817380D01*
X61971666Y-68817380D02*
X61924047Y-68865000D01*
X61924047Y-68865000D02*
X61828809Y-68912619D01*
X61828809Y-68912619D02*
X61733571Y-68912619D01*
X61733571Y-68912619D02*
X61638333Y-68865000D01*
X61638333Y-68865000D02*
X61590714Y-68817380D01*
X61590714Y-68817380D02*
X61543095Y-68722142D01*
X61543095Y-68722142D02*
X61495476Y-68531666D01*
X61495476Y-68531666D02*
X61495476Y-68293571D01*
X61495476Y-68293571D02*
X61543095Y-68103095D01*
X61543095Y-68103095D02*
X61590714Y-68007857D01*
X61590714Y-68007857D02*
X61638333Y-67960238D01*
X61638333Y-67960238D02*
X61733571Y-67912619D01*
%TO.C,U10*%
X68199219Y-60584294D02*
X69008742Y-60584294D01*
X69008742Y-60584294D02*
X69103980Y-60536675D01*
X69103980Y-60536675D02*
X69151600Y-60489056D01*
X69151600Y-60489056D02*
X69199219Y-60393818D01*
X69199219Y-60393818D02*
X69199219Y-60203342D01*
X69199219Y-60203342D02*
X69151600Y-60108104D01*
X69151600Y-60108104D02*
X69103980Y-60060485D01*
X69103980Y-60060485D02*
X69008742Y-60012866D01*
X69008742Y-60012866D02*
X68199219Y-60012866D01*
X69199219Y-59012866D02*
X69199219Y-59584294D01*
X69199219Y-59298580D02*
X68199219Y-59298580D01*
X68199219Y-59298580D02*
X68342076Y-59393818D01*
X68342076Y-59393818D02*
X68437314Y-59489056D01*
X68437314Y-59489056D02*
X68484933Y-59584294D01*
X68199219Y-58393818D02*
X68199219Y-58298580D01*
X68199219Y-58298580D02*
X68246838Y-58203342D01*
X68246838Y-58203342D02*
X68294457Y-58155723D01*
X68294457Y-58155723D02*
X68389695Y-58108104D01*
X68389695Y-58108104D02*
X68580171Y-58060485D01*
X68580171Y-58060485D02*
X68818266Y-58060485D01*
X68818266Y-58060485D02*
X69008742Y-58108104D01*
X69008742Y-58108104D02*
X69103980Y-58155723D01*
X69103980Y-58155723D02*
X69151600Y-58203342D01*
X69151600Y-58203342D02*
X69199219Y-58298580D01*
X69199219Y-58298580D02*
X69199219Y-58393818D01*
X69199219Y-58393818D02*
X69151600Y-58489056D01*
X69151600Y-58489056D02*
X69103980Y-58536675D01*
X69103980Y-58536675D02*
X69008742Y-58584294D01*
X69008742Y-58584294D02*
X68818266Y-58631913D01*
X68818266Y-58631913D02*
X68580171Y-58631913D01*
X68580171Y-58631913D02*
X68389695Y-58584294D01*
X68389695Y-58584294D02*
X68294457Y-58536675D01*
X68294457Y-58536675D02*
X68246838Y-58489056D01*
X68246838Y-58489056D02*
X68199219Y-58393818D01*
%TO.C,R27*%
X65042619Y-57742857D02*
X64566428Y-58076190D01*
X65042619Y-58314285D02*
X64042619Y-58314285D01*
X64042619Y-58314285D02*
X64042619Y-57933333D01*
X64042619Y-57933333D02*
X64090238Y-57838095D01*
X64090238Y-57838095D02*
X64137857Y-57790476D01*
X64137857Y-57790476D02*
X64233095Y-57742857D01*
X64233095Y-57742857D02*
X64375952Y-57742857D01*
X64375952Y-57742857D02*
X64471190Y-57790476D01*
X64471190Y-57790476D02*
X64518809Y-57838095D01*
X64518809Y-57838095D02*
X64566428Y-57933333D01*
X64566428Y-57933333D02*
X64566428Y-58314285D01*
X64137857Y-57361904D02*
X64090238Y-57314285D01*
X64090238Y-57314285D02*
X64042619Y-57219047D01*
X64042619Y-57219047D02*
X64042619Y-56980952D01*
X64042619Y-56980952D02*
X64090238Y-56885714D01*
X64090238Y-56885714D02*
X64137857Y-56838095D01*
X64137857Y-56838095D02*
X64233095Y-56790476D01*
X64233095Y-56790476D02*
X64328333Y-56790476D01*
X64328333Y-56790476D02*
X64471190Y-56838095D01*
X64471190Y-56838095D02*
X65042619Y-57409523D01*
X65042619Y-57409523D02*
X65042619Y-56790476D01*
X64042619Y-56457142D02*
X64042619Y-55790476D01*
X64042619Y-55790476D02*
X65042619Y-56219047D01*
%TO.C,Q1*%
X109800361Y-43003557D02*
X109705123Y-42955938D01*
X109705123Y-42955938D02*
X109609885Y-42860700D01*
X109609885Y-42860700D02*
X109467028Y-42717842D01*
X109467028Y-42717842D02*
X109371790Y-42670223D01*
X109371790Y-42670223D02*
X109276552Y-42670223D01*
X109324171Y-42908319D02*
X109228933Y-42860700D01*
X109228933Y-42860700D02*
X109133695Y-42765461D01*
X109133695Y-42765461D02*
X109086076Y-42574985D01*
X109086076Y-42574985D02*
X109086076Y-42241652D01*
X109086076Y-42241652D02*
X109133695Y-42051176D01*
X109133695Y-42051176D02*
X109228933Y-41955938D01*
X109228933Y-41955938D02*
X109324171Y-41908319D01*
X109324171Y-41908319D02*
X109514647Y-41908319D01*
X109514647Y-41908319D02*
X109609885Y-41955938D01*
X109609885Y-41955938D02*
X109705123Y-42051176D01*
X109705123Y-42051176D02*
X109752742Y-42241652D01*
X109752742Y-42241652D02*
X109752742Y-42574985D01*
X109752742Y-42574985D02*
X109705123Y-42765461D01*
X109705123Y-42765461D02*
X109609885Y-42860700D01*
X109609885Y-42860700D02*
X109514647Y-42908319D01*
X109514647Y-42908319D02*
X109324171Y-42908319D01*
X110705123Y-42908319D02*
X110133695Y-42908319D01*
X110419409Y-42908319D02*
X110419409Y-41908319D01*
X110419409Y-41908319D02*
X110324171Y-42051176D01*
X110324171Y-42051176D02*
X110228933Y-42146414D01*
X110228933Y-42146414D02*
X110133695Y-42194033D01*
%TO.C,C4*%
X104760733Y-67118580D02*
X104713114Y-67166200D01*
X104713114Y-67166200D02*
X104570257Y-67213819D01*
X104570257Y-67213819D02*
X104475019Y-67213819D01*
X104475019Y-67213819D02*
X104332162Y-67166200D01*
X104332162Y-67166200D02*
X104236924Y-67070961D01*
X104236924Y-67070961D02*
X104189305Y-66975723D01*
X104189305Y-66975723D02*
X104141686Y-66785247D01*
X104141686Y-66785247D02*
X104141686Y-66642390D01*
X104141686Y-66642390D02*
X104189305Y-66451914D01*
X104189305Y-66451914D02*
X104236924Y-66356676D01*
X104236924Y-66356676D02*
X104332162Y-66261438D01*
X104332162Y-66261438D02*
X104475019Y-66213819D01*
X104475019Y-66213819D02*
X104570257Y-66213819D01*
X104570257Y-66213819D02*
X104713114Y-66261438D01*
X104713114Y-66261438D02*
X104760733Y-66309057D01*
X105617876Y-66547152D02*
X105617876Y-67213819D01*
X105379781Y-66166200D02*
X105141686Y-66880485D01*
X105141686Y-66880485D02*
X105760733Y-66880485D01*
%TO.C,R20*%
X83837542Y-74732219D02*
X83504209Y-74256028D01*
X83266114Y-74732219D02*
X83266114Y-73732219D01*
X83266114Y-73732219D02*
X83647066Y-73732219D01*
X83647066Y-73732219D02*
X83742304Y-73779838D01*
X83742304Y-73779838D02*
X83789923Y-73827457D01*
X83789923Y-73827457D02*
X83837542Y-73922695D01*
X83837542Y-73922695D02*
X83837542Y-74065552D01*
X83837542Y-74065552D02*
X83789923Y-74160790D01*
X83789923Y-74160790D02*
X83742304Y-74208409D01*
X83742304Y-74208409D02*
X83647066Y-74256028D01*
X83647066Y-74256028D02*
X83266114Y-74256028D01*
X84218495Y-73827457D02*
X84266114Y-73779838D01*
X84266114Y-73779838D02*
X84361352Y-73732219D01*
X84361352Y-73732219D02*
X84599447Y-73732219D01*
X84599447Y-73732219D02*
X84694685Y-73779838D01*
X84694685Y-73779838D02*
X84742304Y-73827457D01*
X84742304Y-73827457D02*
X84789923Y-73922695D01*
X84789923Y-73922695D02*
X84789923Y-74017933D01*
X84789923Y-74017933D02*
X84742304Y-74160790D01*
X84742304Y-74160790D02*
X84170876Y-74732219D01*
X84170876Y-74732219D02*
X84789923Y-74732219D01*
X85408971Y-73732219D02*
X85504209Y-73732219D01*
X85504209Y-73732219D02*
X85599447Y-73779838D01*
X85599447Y-73779838D02*
X85647066Y-73827457D01*
X85647066Y-73827457D02*
X85694685Y-73922695D01*
X85694685Y-73922695D02*
X85742304Y-74113171D01*
X85742304Y-74113171D02*
X85742304Y-74351266D01*
X85742304Y-74351266D02*
X85694685Y-74541742D01*
X85694685Y-74541742D02*
X85647066Y-74636980D01*
X85647066Y-74636980D02*
X85599447Y-74684600D01*
X85599447Y-74684600D02*
X85504209Y-74732219D01*
X85504209Y-74732219D02*
X85408971Y-74732219D01*
X85408971Y-74732219D02*
X85313733Y-74684600D01*
X85313733Y-74684600D02*
X85266114Y-74636980D01*
X85266114Y-74636980D02*
X85218495Y-74541742D01*
X85218495Y-74541742D02*
X85170876Y-74351266D01*
X85170876Y-74351266D02*
X85170876Y-74113171D01*
X85170876Y-74113171D02*
X85218495Y-73922695D01*
X85218495Y-73922695D02*
X85266114Y-73827457D01*
X85266114Y-73827457D02*
X85313733Y-73779838D01*
X85313733Y-73779838D02*
X85408971Y-73732219D01*
%TO.C,C25*%
X66657380Y-65352857D02*
X66705000Y-65400476D01*
X66705000Y-65400476D02*
X66752619Y-65543333D01*
X66752619Y-65543333D02*
X66752619Y-65638571D01*
X66752619Y-65638571D02*
X66705000Y-65781428D01*
X66705000Y-65781428D02*
X66609761Y-65876666D01*
X66609761Y-65876666D02*
X66514523Y-65924285D01*
X66514523Y-65924285D02*
X66324047Y-65971904D01*
X66324047Y-65971904D02*
X66181190Y-65971904D01*
X66181190Y-65971904D02*
X65990714Y-65924285D01*
X65990714Y-65924285D02*
X65895476Y-65876666D01*
X65895476Y-65876666D02*
X65800238Y-65781428D01*
X65800238Y-65781428D02*
X65752619Y-65638571D01*
X65752619Y-65638571D02*
X65752619Y-65543333D01*
X65752619Y-65543333D02*
X65800238Y-65400476D01*
X65800238Y-65400476D02*
X65847857Y-65352857D01*
X65847857Y-64971904D02*
X65800238Y-64924285D01*
X65800238Y-64924285D02*
X65752619Y-64829047D01*
X65752619Y-64829047D02*
X65752619Y-64590952D01*
X65752619Y-64590952D02*
X65800238Y-64495714D01*
X65800238Y-64495714D02*
X65847857Y-64448095D01*
X65847857Y-64448095D02*
X65943095Y-64400476D01*
X65943095Y-64400476D02*
X66038333Y-64400476D01*
X66038333Y-64400476D02*
X66181190Y-64448095D01*
X66181190Y-64448095D02*
X66752619Y-65019523D01*
X66752619Y-65019523D02*
X66752619Y-64400476D01*
X65752619Y-63495714D02*
X65752619Y-63971904D01*
X65752619Y-63971904D02*
X66228809Y-64019523D01*
X66228809Y-64019523D02*
X66181190Y-63971904D01*
X66181190Y-63971904D02*
X66133571Y-63876666D01*
X66133571Y-63876666D02*
X66133571Y-63638571D01*
X66133571Y-63638571D02*
X66181190Y-63543333D01*
X66181190Y-63543333D02*
X66228809Y-63495714D01*
X66228809Y-63495714D02*
X66324047Y-63448095D01*
X66324047Y-63448095D02*
X66562142Y-63448095D01*
X66562142Y-63448095D02*
X66657380Y-63495714D01*
X66657380Y-63495714D02*
X66705000Y-63543333D01*
X66705000Y-63543333D02*
X66752619Y-63638571D01*
X66752619Y-63638571D02*
X66752619Y-63876666D01*
X66752619Y-63876666D02*
X66705000Y-63971904D01*
X66705000Y-63971904D02*
X66657380Y-64019523D01*
%TO.C,U12*%
X61386905Y-71302619D02*
X61386905Y-72112142D01*
X61386905Y-72112142D02*
X61434524Y-72207380D01*
X61434524Y-72207380D02*
X61482143Y-72255000D01*
X61482143Y-72255000D02*
X61577381Y-72302619D01*
X61577381Y-72302619D02*
X61767857Y-72302619D01*
X61767857Y-72302619D02*
X61863095Y-72255000D01*
X61863095Y-72255000D02*
X61910714Y-72207380D01*
X61910714Y-72207380D02*
X61958333Y-72112142D01*
X61958333Y-72112142D02*
X61958333Y-71302619D01*
X62958333Y-72302619D02*
X62386905Y-72302619D01*
X62672619Y-72302619D02*
X62672619Y-71302619D01*
X62672619Y-71302619D02*
X62577381Y-71445476D01*
X62577381Y-71445476D02*
X62482143Y-71540714D01*
X62482143Y-71540714D02*
X62386905Y-71588333D01*
X63339286Y-71397857D02*
X63386905Y-71350238D01*
X63386905Y-71350238D02*
X63482143Y-71302619D01*
X63482143Y-71302619D02*
X63720238Y-71302619D01*
X63720238Y-71302619D02*
X63815476Y-71350238D01*
X63815476Y-71350238D02*
X63863095Y-71397857D01*
X63863095Y-71397857D02*
X63910714Y-71493095D01*
X63910714Y-71493095D02*
X63910714Y-71588333D01*
X63910714Y-71588333D02*
X63863095Y-71731190D01*
X63863095Y-71731190D02*
X63291667Y-72302619D01*
X63291667Y-72302619D02*
X63910714Y-72302619D01*
D10*
X65749048Y-74592619D02*
X65749048Y-73592619D01*
X65749048Y-73592619D02*
X66082381Y-74306904D01*
X66082381Y-74306904D02*
X66415714Y-73592619D01*
X66415714Y-73592619D02*
X66415714Y-74592619D01*
X66891905Y-74592619D02*
X66891905Y-73592619D01*
X66891905Y-73592619D02*
X67272857Y-73592619D01*
X67272857Y-73592619D02*
X67368095Y-73640238D01*
X67368095Y-73640238D02*
X67415714Y-73687857D01*
X67415714Y-73687857D02*
X67463333Y-73783095D01*
X67463333Y-73783095D02*
X67463333Y-73925952D01*
X67463333Y-73925952D02*
X67415714Y-74021190D01*
X67415714Y-74021190D02*
X67368095Y-74068809D01*
X67368095Y-74068809D02*
X67272857Y-74116428D01*
X67272857Y-74116428D02*
X66891905Y-74116428D01*
X67891905Y-73592619D02*
X67891905Y-74402142D01*
X67891905Y-74402142D02*
X67939524Y-74497380D01*
X67939524Y-74497380D02*
X67987143Y-74545000D01*
X67987143Y-74545000D02*
X68082381Y-74592619D01*
X68082381Y-74592619D02*
X68272857Y-74592619D01*
X68272857Y-74592619D02*
X68368095Y-74545000D01*
X68368095Y-74545000D02*
X68415714Y-74497380D01*
X68415714Y-74497380D02*
X68463333Y-74402142D01*
X68463333Y-74402142D02*
X68463333Y-73592619D01*
X68939524Y-74211666D02*
X69701429Y-74211666D01*
X70606190Y-73592619D02*
X70415714Y-73592619D01*
X70415714Y-73592619D02*
X70320476Y-73640238D01*
X70320476Y-73640238D02*
X70272857Y-73687857D01*
X70272857Y-73687857D02*
X70177619Y-73830714D01*
X70177619Y-73830714D02*
X70130000Y-74021190D01*
X70130000Y-74021190D02*
X70130000Y-74402142D01*
X70130000Y-74402142D02*
X70177619Y-74497380D01*
X70177619Y-74497380D02*
X70225238Y-74545000D01*
X70225238Y-74545000D02*
X70320476Y-74592619D01*
X70320476Y-74592619D02*
X70510952Y-74592619D01*
X70510952Y-74592619D02*
X70606190Y-74545000D01*
X70606190Y-74545000D02*
X70653809Y-74497380D01*
X70653809Y-74497380D02*
X70701428Y-74402142D01*
X70701428Y-74402142D02*
X70701428Y-74164047D01*
X70701428Y-74164047D02*
X70653809Y-74068809D01*
X70653809Y-74068809D02*
X70606190Y-74021190D01*
X70606190Y-74021190D02*
X70510952Y-73973571D01*
X70510952Y-73973571D02*
X70320476Y-73973571D01*
X70320476Y-73973571D02*
X70225238Y-74021190D01*
X70225238Y-74021190D02*
X70177619Y-74068809D01*
X70177619Y-74068809D02*
X70130000Y-74164047D01*
X71320476Y-73592619D02*
X71415714Y-73592619D01*
X71415714Y-73592619D02*
X71510952Y-73640238D01*
X71510952Y-73640238D02*
X71558571Y-73687857D01*
X71558571Y-73687857D02*
X71606190Y-73783095D01*
X71606190Y-73783095D02*
X71653809Y-73973571D01*
X71653809Y-73973571D02*
X71653809Y-74211666D01*
X71653809Y-74211666D02*
X71606190Y-74402142D01*
X71606190Y-74402142D02*
X71558571Y-74497380D01*
X71558571Y-74497380D02*
X71510952Y-74545000D01*
X71510952Y-74545000D02*
X71415714Y-74592619D01*
X71415714Y-74592619D02*
X71320476Y-74592619D01*
X71320476Y-74592619D02*
X71225238Y-74545000D01*
X71225238Y-74545000D02*
X71177619Y-74497380D01*
X71177619Y-74497380D02*
X71130000Y-74402142D01*
X71130000Y-74402142D02*
X71082381Y-74211666D01*
X71082381Y-74211666D02*
X71082381Y-73973571D01*
X71082381Y-73973571D02*
X71130000Y-73783095D01*
X71130000Y-73783095D02*
X71177619Y-73687857D01*
X71177619Y-73687857D02*
X71225238Y-73640238D01*
X71225238Y-73640238D02*
X71320476Y-73592619D01*
X72558571Y-73592619D02*
X72082381Y-73592619D01*
X72082381Y-73592619D02*
X72034762Y-74068809D01*
X72034762Y-74068809D02*
X72082381Y-74021190D01*
X72082381Y-74021190D02*
X72177619Y-73973571D01*
X72177619Y-73973571D02*
X72415714Y-73973571D01*
X72415714Y-73973571D02*
X72510952Y-74021190D01*
X72510952Y-74021190D02*
X72558571Y-74068809D01*
X72558571Y-74068809D02*
X72606190Y-74164047D01*
X72606190Y-74164047D02*
X72606190Y-74402142D01*
X72606190Y-74402142D02*
X72558571Y-74497380D01*
X72558571Y-74497380D02*
X72510952Y-74545000D01*
X72510952Y-74545000D02*
X72415714Y-74592619D01*
X72415714Y-74592619D02*
X72177619Y-74592619D01*
X72177619Y-74592619D02*
X72082381Y-74545000D01*
X72082381Y-74545000D02*
X72034762Y-74497380D01*
X73225238Y-73592619D02*
X73320476Y-73592619D01*
X73320476Y-73592619D02*
X73415714Y-73640238D01*
X73415714Y-73640238D02*
X73463333Y-73687857D01*
X73463333Y-73687857D02*
X73510952Y-73783095D01*
X73510952Y-73783095D02*
X73558571Y-73973571D01*
X73558571Y-73973571D02*
X73558571Y-74211666D01*
X73558571Y-74211666D02*
X73510952Y-74402142D01*
X73510952Y-74402142D02*
X73463333Y-74497380D01*
X73463333Y-74497380D02*
X73415714Y-74545000D01*
X73415714Y-74545000D02*
X73320476Y-74592619D01*
X73320476Y-74592619D02*
X73225238Y-74592619D01*
X73225238Y-74592619D02*
X73130000Y-74545000D01*
X73130000Y-74545000D02*
X73082381Y-74497380D01*
X73082381Y-74497380D02*
X73034762Y-74402142D01*
X73034762Y-74402142D02*
X72987143Y-74211666D01*
X72987143Y-74211666D02*
X72987143Y-73973571D01*
X72987143Y-73973571D02*
X73034762Y-73783095D01*
X73034762Y-73783095D02*
X73082381Y-73687857D01*
X73082381Y-73687857D02*
X73130000Y-73640238D01*
X73130000Y-73640238D02*
X73225238Y-73592619D01*
D11*
%TO.C,SW1*%
X50835000Y-69293332D02*
X50882619Y-69150475D01*
X50882619Y-69150475D02*
X50882619Y-68912380D01*
X50882619Y-68912380D02*
X50835000Y-68817142D01*
X50835000Y-68817142D02*
X50787380Y-68769523D01*
X50787380Y-68769523D02*
X50692142Y-68721904D01*
X50692142Y-68721904D02*
X50596904Y-68721904D01*
X50596904Y-68721904D02*
X50501666Y-68769523D01*
X50501666Y-68769523D02*
X50454047Y-68817142D01*
X50454047Y-68817142D02*
X50406428Y-68912380D01*
X50406428Y-68912380D02*
X50358809Y-69102856D01*
X50358809Y-69102856D02*
X50311190Y-69198094D01*
X50311190Y-69198094D02*
X50263571Y-69245713D01*
X50263571Y-69245713D02*
X50168333Y-69293332D01*
X50168333Y-69293332D02*
X50073095Y-69293332D01*
X50073095Y-69293332D02*
X49977857Y-69245713D01*
X49977857Y-69245713D02*
X49930238Y-69198094D01*
X49930238Y-69198094D02*
X49882619Y-69102856D01*
X49882619Y-69102856D02*
X49882619Y-68864761D01*
X49882619Y-68864761D02*
X49930238Y-68721904D01*
X49882619Y-68388570D02*
X50882619Y-68150475D01*
X50882619Y-68150475D02*
X50168333Y-67959999D01*
X50168333Y-67959999D02*
X50882619Y-67769523D01*
X50882619Y-67769523D02*
X49882619Y-67531428D01*
X50882619Y-66626666D02*
X50882619Y-67198094D01*
X50882619Y-66912380D02*
X49882619Y-66912380D01*
X49882619Y-66912380D02*
X50025476Y-67007618D01*
X50025476Y-67007618D02*
X50120714Y-67102856D01*
X50120714Y-67102856D02*
X50168333Y-67198094D01*
%TO.C,U2*%
X103558095Y-59472619D02*
X103558095Y-60282142D01*
X103558095Y-60282142D02*
X103605714Y-60377380D01*
X103605714Y-60377380D02*
X103653333Y-60425000D01*
X103653333Y-60425000D02*
X103748571Y-60472619D01*
X103748571Y-60472619D02*
X103939047Y-60472619D01*
X103939047Y-60472619D02*
X104034285Y-60425000D01*
X104034285Y-60425000D02*
X104081904Y-60377380D01*
X104081904Y-60377380D02*
X104129523Y-60282142D01*
X104129523Y-60282142D02*
X104129523Y-59472619D01*
X104558095Y-59567857D02*
X104605714Y-59520238D01*
X104605714Y-59520238D02*
X104700952Y-59472619D01*
X104700952Y-59472619D02*
X104939047Y-59472619D01*
X104939047Y-59472619D02*
X105034285Y-59520238D01*
X105034285Y-59520238D02*
X105081904Y-59567857D01*
X105081904Y-59567857D02*
X105129523Y-59663095D01*
X105129523Y-59663095D02*
X105129523Y-59758333D01*
X105129523Y-59758333D02*
X105081904Y-59901190D01*
X105081904Y-59901190D02*
X104510476Y-60472619D01*
X104510476Y-60472619D02*
X105129523Y-60472619D01*
%TO.C,R8*%
X103897133Y-65512019D02*
X103563800Y-65035828D01*
X103325705Y-65512019D02*
X103325705Y-64512019D01*
X103325705Y-64512019D02*
X103706657Y-64512019D01*
X103706657Y-64512019D02*
X103801895Y-64559638D01*
X103801895Y-64559638D02*
X103849514Y-64607257D01*
X103849514Y-64607257D02*
X103897133Y-64702495D01*
X103897133Y-64702495D02*
X103897133Y-64845352D01*
X103897133Y-64845352D02*
X103849514Y-64940590D01*
X103849514Y-64940590D02*
X103801895Y-64988209D01*
X103801895Y-64988209D02*
X103706657Y-65035828D01*
X103706657Y-65035828D02*
X103325705Y-65035828D01*
X104468562Y-64940590D02*
X104373324Y-64892971D01*
X104373324Y-64892971D02*
X104325705Y-64845352D01*
X104325705Y-64845352D02*
X104278086Y-64750114D01*
X104278086Y-64750114D02*
X104278086Y-64702495D01*
X104278086Y-64702495D02*
X104325705Y-64607257D01*
X104325705Y-64607257D02*
X104373324Y-64559638D01*
X104373324Y-64559638D02*
X104468562Y-64512019D01*
X104468562Y-64512019D02*
X104659038Y-64512019D01*
X104659038Y-64512019D02*
X104754276Y-64559638D01*
X104754276Y-64559638D02*
X104801895Y-64607257D01*
X104801895Y-64607257D02*
X104849514Y-64702495D01*
X104849514Y-64702495D02*
X104849514Y-64750114D01*
X104849514Y-64750114D02*
X104801895Y-64845352D01*
X104801895Y-64845352D02*
X104754276Y-64892971D01*
X104754276Y-64892971D02*
X104659038Y-64940590D01*
X104659038Y-64940590D02*
X104468562Y-64940590D01*
X104468562Y-64940590D02*
X104373324Y-64988209D01*
X104373324Y-64988209D02*
X104325705Y-65035828D01*
X104325705Y-65035828D02*
X104278086Y-65131066D01*
X104278086Y-65131066D02*
X104278086Y-65321542D01*
X104278086Y-65321542D02*
X104325705Y-65416780D01*
X104325705Y-65416780D02*
X104373324Y-65464400D01*
X104373324Y-65464400D02*
X104468562Y-65512019D01*
X104468562Y-65512019D02*
X104659038Y-65512019D01*
X104659038Y-65512019D02*
X104754276Y-65464400D01*
X104754276Y-65464400D02*
X104801895Y-65416780D01*
X104801895Y-65416780D02*
X104849514Y-65321542D01*
X104849514Y-65321542D02*
X104849514Y-65131066D01*
X104849514Y-65131066D02*
X104801895Y-65035828D01*
X104801895Y-65035828D02*
X104754276Y-64988209D01*
X104754276Y-64988209D02*
X104659038Y-64940590D01*
%TO.C,C21*%
X77617380Y-74142857D02*
X77665000Y-74190476D01*
X77665000Y-74190476D02*
X77712619Y-74333333D01*
X77712619Y-74333333D02*
X77712619Y-74428571D01*
X77712619Y-74428571D02*
X77665000Y-74571428D01*
X77665000Y-74571428D02*
X77569761Y-74666666D01*
X77569761Y-74666666D02*
X77474523Y-74714285D01*
X77474523Y-74714285D02*
X77284047Y-74761904D01*
X77284047Y-74761904D02*
X77141190Y-74761904D01*
X77141190Y-74761904D02*
X76950714Y-74714285D01*
X76950714Y-74714285D02*
X76855476Y-74666666D01*
X76855476Y-74666666D02*
X76760238Y-74571428D01*
X76760238Y-74571428D02*
X76712619Y-74428571D01*
X76712619Y-74428571D02*
X76712619Y-74333333D01*
X76712619Y-74333333D02*
X76760238Y-74190476D01*
X76760238Y-74190476D02*
X76807857Y-74142857D01*
X76807857Y-73761904D02*
X76760238Y-73714285D01*
X76760238Y-73714285D02*
X76712619Y-73619047D01*
X76712619Y-73619047D02*
X76712619Y-73380952D01*
X76712619Y-73380952D02*
X76760238Y-73285714D01*
X76760238Y-73285714D02*
X76807857Y-73238095D01*
X76807857Y-73238095D02*
X76903095Y-73190476D01*
X76903095Y-73190476D02*
X76998333Y-73190476D01*
X76998333Y-73190476D02*
X77141190Y-73238095D01*
X77141190Y-73238095D02*
X77712619Y-73809523D01*
X77712619Y-73809523D02*
X77712619Y-73190476D01*
X77712619Y-72238095D02*
X77712619Y-72809523D01*
X77712619Y-72523809D02*
X76712619Y-72523809D01*
X76712619Y-72523809D02*
X76855476Y-72619047D01*
X76855476Y-72619047D02*
X76950714Y-72714285D01*
X76950714Y-72714285D02*
X76998333Y-72809523D01*
%TO.C,C19*%
X73656742Y-43242580D02*
X73609123Y-43290200D01*
X73609123Y-43290200D02*
X73466266Y-43337819D01*
X73466266Y-43337819D02*
X73371028Y-43337819D01*
X73371028Y-43337819D02*
X73228171Y-43290200D01*
X73228171Y-43290200D02*
X73132933Y-43194961D01*
X73132933Y-43194961D02*
X73085314Y-43099723D01*
X73085314Y-43099723D02*
X73037695Y-42909247D01*
X73037695Y-42909247D02*
X73037695Y-42766390D01*
X73037695Y-42766390D02*
X73085314Y-42575914D01*
X73085314Y-42575914D02*
X73132933Y-42480676D01*
X73132933Y-42480676D02*
X73228171Y-42385438D01*
X73228171Y-42385438D02*
X73371028Y-42337819D01*
X73371028Y-42337819D02*
X73466266Y-42337819D01*
X73466266Y-42337819D02*
X73609123Y-42385438D01*
X73609123Y-42385438D02*
X73656742Y-42433057D01*
X74609123Y-43337819D02*
X74037695Y-43337819D01*
X74323409Y-43337819D02*
X74323409Y-42337819D01*
X74323409Y-42337819D02*
X74228171Y-42480676D01*
X74228171Y-42480676D02*
X74132933Y-42575914D01*
X74132933Y-42575914D02*
X74037695Y-42623533D01*
X75085314Y-43337819D02*
X75275790Y-43337819D01*
X75275790Y-43337819D02*
X75371028Y-43290200D01*
X75371028Y-43290200D02*
X75418647Y-43242580D01*
X75418647Y-43242580D02*
X75513885Y-43099723D01*
X75513885Y-43099723D02*
X75561504Y-42909247D01*
X75561504Y-42909247D02*
X75561504Y-42528295D01*
X75561504Y-42528295D02*
X75513885Y-42433057D01*
X75513885Y-42433057D02*
X75466266Y-42385438D01*
X75466266Y-42385438D02*
X75371028Y-42337819D01*
X75371028Y-42337819D02*
X75180552Y-42337819D01*
X75180552Y-42337819D02*
X75085314Y-42385438D01*
X75085314Y-42385438D02*
X75037695Y-42433057D01*
X75037695Y-42433057D02*
X74990076Y-42528295D01*
X74990076Y-42528295D02*
X74990076Y-42766390D01*
X74990076Y-42766390D02*
X75037695Y-42861628D01*
X75037695Y-42861628D02*
X75085314Y-42909247D01*
X75085314Y-42909247D02*
X75180552Y-42956866D01*
X75180552Y-42956866D02*
X75371028Y-42956866D01*
X75371028Y-42956866D02*
X75466266Y-42909247D01*
X75466266Y-42909247D02*
X75513885Y-42861628D01*
X75513885Y-42861628D02*
X75561504Y-42766390D01*
%TO.C,SW2*%
X50905000Y-63743332D02*
X50952619Y-63600475D01*
X50952619Y-63600475D02*
X50952619Y-63362380D01*
X50952619Y-63362380D02*
X50905000Y-63267142D01*
X50905000Y-63267142D02*
X50857380Y-63219523D01*
X50857380Y-63219523D02*
X50762142Y-63171904D01*
X50762142Y-63171904D02*
X50666904Y-63171904D01*
X50666904Y-63171904D02*
X50571666Y-63219523D01*
X50571666Y-63219523D02*
X50524047Y-63267142D01*
X50524047Y-63267142D02*
X50476428Y-63362380D01*
X50476428Y-63362380D02*
X50428809Y-63552856D01*
X50428809Y-63552856D02*
X50381190Y-63648094D01*
X50381190Y-63648094D02*
X50333571Y-63695713D01*
X50333571Y-63695713D02*
X50238333Y-63743332D01*
X50238333Y-63743332D02*
X50143095Y-63743332D01*
X50143095Y-63743332D02*
X50047857Y-63695713D01*
X50047857Y-63695713D02*
X50000238Y-63648094D01*
X50000238Y-63648094D02*
X49952619Y-63552856D01*
X49952619Y-63552856D02*
X49952619Y-63314761D01*
X49952619Y-63314761D02*
X50000238Y-63171904D01*
X49952619Y-62838570D02*
X50952619Y-62600475D01*
X50952619Y-62600475D02*
X50238333Y-62409999D01*
X50238333Y-62409999D02*
X50952619Y-62219523D01*
X50952619Y-62219523D02*
X49952619Y-61981428D01*
X50047857Y-61648094D02*
X50000238Y-61600475D01*
X50000238Y-61600475D02*
X49952619Y-61505237D01*
X49952619Y-61505237D02*
X49952619Y-61267142D01*
X49952619Y-61267142D02*
X50000238Y-61171904D01*
X50000238Y-61171904D02*
X50047857Y-61124285D01*
X50047857Y-61124285D02*
X50143095Y-61076666D01*
X50143095Y-61076666D02*
X50238333Y-61076666D01*
X50238333Y-61076666D02*
X50381190Y-61124285D01*
X50381190Y-61124285D02*
X50952619Y-61695713D01*
X50952619Y-61695713D02*
X50952619Y-61076666D01*
%TO.C,U5*%
X55403095Y-71075119D02*
X55403095Y-71884642D01*
X55403095Y-71884642D02*
X55450714Y-71979880D01*
X55450714Y-71979880D02*
X55498333Y-72027500D01*
X55498333Y-72027500D02*
X55593571Y-72075119D01*
X55593571Y-72075119D02*
X55784047Y-72075119D01*
X55784047Y-72075119D02*
X55879285Y-72027500D01*
X55879285Y-72027500D02*
X55926904Y-71979880D01*
X55926904Y-71979880D02*
X55974523Y-71884642D01*
X55974523Y-71884642D02*
X55974523Y-71075119D01*
X56926904Y-71075119D02*
X56450714Y-71075119D01*
X56450714Y-71075119D02*
X56403095Y-71551309D01*
X56403095Y-71551309D02*
X56450714Y-71503690D01*
X56450714Y-71503690D02*
X56545952Y-71456071D01*
X56545952Y-71456071D02*
X56784047Y-71456071D01*
X56784047Y-71456071D02*
X56879285Y-71503690D01*
X56879285Y-71503690D02*
X56926904Y-71551309D01*
X56926904Y-71551309D02*
X56974523Y-71646547D01*
X56974523Y-71646547D02*
X56974523Y-71884642D01*
X56974523Y-71884642D02*
X56926904Y-71979880D01*
X56926904Y-71979880D02*
X56879285Y-72027500D01*
X56879285Y-72027500D02*
X56784047Y-72075119D01*
X56784047Y-72075119D02*
X56545952Y-72075119D01*
X56545952Y-72075119D02*
X56450714Y-72027500D01*
X56450714Y-72027500D02*
X56403095Y-71979880D01*
%TO.C,C13*%
X55412142Y-65467380D02*
X55364523Y-65515000D01*
X55364523Y-65515000D02*
X55221666Y-65562619D01*
X55221666Y-65562619D02*
X55126428Y-65562619D01*
X55126428Y-65562619D02*
X54983571Y-65515000D01*
X54983571Y-65515000D02*
X54888333Y-65419761D01*
X54888333Y-65419761D02*
X54840714Y-65324523D01*
X54840714Y-65324523D02*
X54793095Y-65134047D01*
X54793095Y-65134047D02*
X54793095Y-64991190D01*
X54793095Y-64991190D02*
X54840714Y-64800714D01*
X54840714Y-64800714D02*
X54888333Y-64705476D01*
X54888333Y-64705476D02*
X54983571Y-64610238D01*
X54983571Y-64610238D02*
X55126428Y-64562619D01*
X55126428Y-64562619D02*
X55221666Y-64562619D01*
X55221666Y-64562619D02*
X55364523Y-64610238D01*
X55364523Y-64610238D02*
X55412142Y-64657857D01*
X56364523Y-65562619D02*
X55793095Y-65562619D01*
X56078809Y-65562619D02*
X56078809Y-64562619D01*
X56078809Y-64562619D02*
X55983571Y-64705476D01*
X55983571Y-64705476D02*
X55888333Y-64800714D01*
X55888333Y-64800714D02*
X55793095Y-64848333D01*
X56697857Y-64562619D02*
X57316904Y-64562619D01*
X57316904Y-64562619D02*
X56983571Y-64943571D01*
X56983571Y-64943571D02*
X57126428Y-64943571D01*
X57126428Y-64943571D02*
X57221666Y-64991190D01*
X57221666Y-64991190D02*
X57269285Y-65038809D01*
X57269285Y-65038809D02*
X57316904Y-65134047D01*
X57316904Y-65134047D02*
X57316904Y-65372142D01*
X57316904Y-65372142D02*
X57269285Y-65467380D01*
X57269285Y-65467380D02*
X57221666Y-65515000D01*
X57221666Y-65515000D02*
X57126428Y-65562619D01*
X57126428Y-65562619D02*
X56840714Y-65562619D01*
X56840714Y-65562619D02*
X56745476Y-65515000D01*
X56745476Y-65515000D02*
X56697857Y-65467380D01*
%TO.C,R26*%
X53757142Y-43512619D02*
X53423809Y-43036428D01*
X53185714Y-43512619D02*
X53185714Y-42512619D01*
X53185714Y-42512619D02*
X53566666Y-42512619D01*
X53566666Y-42512619D02*
X53661904Y-42560238D01*
X53661904Y-42560238D02*
X53709523Y-42607857D01*
X53709523Y-42607857D02*
X53757142Y-42703095D01*
X53757142Y-42703095D02*
X53757142Y-42845952D01*
X53757142Y-42845952D02*
X53709523Y-42941190D01*
X53709523Y-42941190D02*
X53661904Y-42988809D01*
X53661904Y-42988809D02*
X53566666Y-43036428D01*
X53566666Y-43036428D02*
X53185714Y-43036428D01*
X54138095Y-42607857D02*
X54185714Y-42560238D01*
X54185714Y-42560238D02*
X54280952Y-42512619D01*
X54280952Y-42512619D02*
X54519047Y-42512619D01*
X54519047Y-42512619D02*
X54614285Y-42560238D01*
X54614285Y-42560238D02*
X54661904Y-42607857D01*
X54661904Y-42607857D02*
X54709523Y-42703095D01*
X54709523Y-42703095D02*
X54709523Y-42798333D01*
X54709523Y-42798333D02*
X54661904Y-42941190D01*
X54661904Y-42941190D02*
X54090476Y-43512619D01*
X54090476Y-43512619D02*
X54709523Y-43512619D01*
X55566666Y-42512619D02*
X55376190Y-42512619D01*
X55376190Y-42512619D02*
X55280952Y-42560238D01*
X55280952Y-42560238D02*
X55233333Y-42607857D01*
X55233333Y-42607857D02*
X55138095Y-42750714D01*
X55138095Y-42750714D02*
X55090476Y-42941190D01*
X55090476Y-42941190D02*
X55090476Y-43322142D01*
X55090476Y-43322142D02*
X55138095Y-43417380D01*
X55138095Y-43417380D02*
X55185714Y-43465000D01*
X55185714Y-43465000D02*
X55280952Y-43512619D01*
X55280952Y-43512619D02*
X55471428Y-43512619D01*
X55471428Y-43512619D02*
X55566666Y-43465000D01*
X55566666Y-43465000D02*
X55614285Y-43417380D01*
X55614285Y-43417380D02*
X55661904Y-43322142D01*
X55661904Y-43322142D02*
X55661904Y-43084047D01*
X55661904Y-43084047D02*
X55614285Y-42988809D01*
X55614285Y-42988809D02*
X55566666Y-42941190D01*
X55566666Y-42941190D02*
X55471428Y-42893571D01*
X55471428Y-42893571D02*
X55280952Y-42893571D01*
X55280952Y-42893571D02*
X55185714Y-42941190D01*
X55185714Y-42941190D02*
X55138095Y-42988809D01*
X55138095Y-42988809D02*
X55090476Y-43084047D01*
%TO.C,D5*%
X76303405Y-62954219D02*
X76303405Y-61954219D01*
X76303405Y-61954219D02*
X76541500Y-61954219D01*
X76541500Y-61954219D02*
X76684357Y-62001838D01*
X76684357Y-62001838D02*
X76779595Y-62097076D01*
X76779595Y-62097076D02*
X76827214Y-62192314D01*
X76827214Y-62192314D02*
X76874833Y-62382790D01*
X76874833Y-62382790D02*
X76874833Y-62525647D01*
X76874833Y-62525647D02*
X76827214Y-62716123D01*
X76827214Y-62716123D02*
X76779595Y-62811361D01*
X76779595Y-62811361D02*
X76684357Y-62906600D01*
X76684357Y-62906600D02*
X76541500Y-62954219D01*
X76541500Y-62954219D02*
X76303405Y-62954219D01*
X77779595Y-61954219D02*
X77303405Y-61954219D01*
X77303405Y-61954219D02*
X77255786Y-62430409D01*
X77255786Y-62430409D02*
X77303405Y-62382790D01*
X77303405Y-62382790D02*
X77398643Y-62335171D01*
X77398643Y-62335171D02*
X77636738Y-62335171D01*
X77636738Y-62335171D02*
X77731976Y-62382790D01*
X77731976Y-62382790D02*
X77779595Y-62430409D01*
X77779595Y-62430409D02*
X77827214Y-62525647D01*
X77827214Y-62525647D02*
X77827214Y-62763742D01*
X77827214Y-62763742D02*
X77779595Y-62858980D01*
X77779595Y-62858980D02*
X77731976Y-62906600D01*
X77731976Y-62906600D02*
X77636738Y-62954219D01*
X77636738Y-62954219D02*
X77398643Y-62954219D01*
X77398643Y-62954219D02*
X77303405Y-62906600D01*
X77303405Y-62906600D02*
X77255786Y-62858980D01*
%TO.C,P1*%
X109802705Y-62108419D02*
X109802705Y-61108419D01*
X109802705Y-61108419D02*
X110183657Y-61108419D01*
X110183657Y-61108419D02*
X110278895Y-61156038D01*
X110278895Y-61156038D02*
X110326514Y-61203657D01*
X110326514Y-61203657D02*
X110374133Y-61298895D01*
X110374133Y-61298895D02*
X110374133Y-61441752D01*
X110374133Y-61441752D02*
X110326514Y-61536990D01*
X110326514Y-61536990D02*
X110278895Y-61584609D01*
X110278895Y-61584609D02*
X110183657Y-61632228D01*
X110183657Y-61632228D02*
X109802705Y-61632228D01*
X111326514Y-62108419D02*
X110755086Y-62108419D01*
X111040800Y-62108419D02*
X111040800Y-61108419D01*
X111040800Y-61108419D02*
X110945562Y-61251276D01*
X110945562Y-61251276D02*
X110850324Y-61346514D01*
X110850324Y-61346514D02*
X110755086Y-61394133D01*
%TO.C,R6*%
X78903533Y-49992619D02*
X78570200Y-49516428D01*
X78332105Y-49992619D02*
X78332105Y-48992619D01*
X78332105Y-48992619D02*
X78713057Y-48992619D01*
X78713057Y-48992619D02*
X78808295Y-49040238D01*
X78808295Y-49040238D02*
X78855914Y-49087857D01*
X78855914Y-49087857D02*
X78903533Y-49183095D01*
X78903533Y-49183095D02*
X78903533Y-49325952D01*
X78903533Y-49325952D02*
X78855914Y-49421190D01*
X78855914Y-49421190D02*
X78808295Y-49468809D01*
X78808295Y-49468809D02*
X78713057Y-49516428D01*
X78713057Y-49516428D02*
X78332105Y-49516428D01*
X79760676Y-48992619D02*
X79570200Y-48992619D01*
X79570200Y-48992619D02*
X79474962Y-49040238D01*
X79474962Y-49040238D02*
X79427343Y-49087857D01*
X79427343Y-49087857D02*
X79332105Y-49230714D01*
X79332105Y-49230714D02*
X79284486Y-49421190D01*
X79284486Y-49421190D02*
X79284486Y-49802142D01*
X79284486Y-49802142D02*
X79332105Y-49897380D01*
X79332105Y-49897380D02*
X79379724Y-49945000D01*
X79379724Y-49945000D02*
X79474962Y-49992619D01*
X79474962Y-49992619D02*
X79665438Y-49992619D01*
X79665438Y-49992619D02*
X79760676Y-49945000D01*
X79760676Y-49945000D02*
X79808295Y-49897380D01*
X79808295Y-49897380D02*
X79855914Y-49802142D01*
X79855914Y-49802142D02*
X79855914Y-49564047D01*
X79855914Y-49564047D02*
X79808295Y-49468809D01*
X79808295Y-49468809D02*
X79760676Y-49421190D01*
X79760676Y-49421190D02*
X79665438Y-49373571D01*
X79665438Y-49373571D02*
X79474962Y-49373571D01*
X79474962Y-49373571D02*
X79379724Y-49421190D01*
X79379724Y-49421190D02*
X79332105Y-49468809D01*
X79332105Y-49468809D02*
X79284486Y-49564047D01*
%TO.C,D1*%
X69361905Y-52638019D02*
X69361905Y-51638019D01*
X69361905Y-51638019D02*
X69600000Y-51638019D01*
X69600000Y-51638019D02*
X69742857Y-51685638D01*
X69742857Y-51685638D02*
X69838095Y-51780876D01*
X69838095Y-51780876D02*
X69885714Y-51876114D01*
X69885714Y-51876114D02*
X69933333Y-52066590D01*
X69933333Y-52066590D02*
X69933333Y-52209447D01*
X69933333Y-52209447D02*
X69885714Y-52399923D01*
X69885714Y-52399923D02*
X69838095Y-52495161D01*
X69838095Y-52495161D02*
X69742857Y-52590400D01*
X69742857Y-52590400D02*
X69600000Y-52638019D01*
X69600000Y-52638019D02*
X69361905Y-52638019D01*
X70885714Y-52638019D02*
X70314286Y-52638019D01*
X70600000Y-52638019D02*
X70600000Y-51638019D01*
X70600000Y-51638019D02*
X70504762Y-51780876D01*
X70504762Y-51780876D02*
X70409524Y-51876114D01*
X70409524Y-51876114D02*
X70314286Y-51923733D01*
%TO.C,C6*%
X111093333Y-56447380D02*
X111045714Y-56495000D01*
X111045714Y-56495000D02*
X110902857Y-56542619D01*
X110902857Y-56542619D02*
X110807619Y-56542619D01*
X110807619Y-56542619D02*
X110664762Y-56495000D01*
X110664762Y-56495000D02*
X110569524Y-56399761D01*
X110569524Y-56399761D02*
X110521905Y-56304523D01*
X110521905Y-56304523D02*
X110474286Y-56114047D01*
X110474286Y-56114047D02*
X110474286Y-55971190D01*
X110474286Y-55971190D02*
X110521905Y-55780714D01*
X110521905Y-55780714D02*
X110569524Y-55685476D01*
X110569524Y-55685476D02*
X110664762Y-55590238D01*
X110664762Y-55590238D02*
X110807619Y-55542619D01*
X110807619Y-55542619D02*
X110902857Y-55542619D01*
X110902857Y-55542619D02*
X111045714Y-55590238D01*
X111045714Y-55590238D02*
X111093333Y-55637857D01*
X111950476Y-55542619D02*
X111760000Y-55542619D01*
X111760000Y-55542619D02*
X111664762Y-55590238D01*
X111664762Y-55590238D02*
X111617143Y-55637857D01*
X111617143Y-55637857D02*
X111521905Y-55780714D01*
X111521905Y-55780714D02*
X111474286Y-55971190D01*
X111474286Y-55971190D02*
X111474286Y-56352142D01*
X111474286Y-56352142D02*
X111521905Y-56447380D01*
X111521905Y-56447380D02*
X111569524Y-56495000D01*
X111569524Y-56495000D02*
X111664762Y-56542619D01*
X111664762Y-56542619D02*
X111855238Y-56542619D01*
X111855238Y-56542619D02*
X111950476Y-56495000D01*
X111950476Y-56495000D02*
X111998095Y-56447380D01*
X111998095Y-56447380D02*
X112045714Y-56352142D01*
X112045714Y-56352142D02*
X112045714Y-56114047D01*
X112045714Y-56114047D02*
X111998095Y-56018809D01*
X111998095Y-56018809D02*
X111950476Y-55971190D01*
X111950476Y-55971190D02*
X111855238Y-55923571D01*
X111855238Y-55923571D02*
X111664762Y-55923571D01*
X111664762Y-55923571D02*
X111569524Y-55971190D01*
X111569524Y-55971190D02*
X111521905Y-56018809D01*
X111521905Y-56018809D02*
X111474286Y-56114047D01*
%TO.C,U3*%
X105562495Y-47925819D02*
X105562495Y-48735342D01*
X105562495Y-48735342D02*
X105610114Y-48830580D01*
X105610114Y-48830580D02*
X105657733Y-48878200D01*
X105657733Y-48878200D02*
X105752971Y-48925819D01*
X105752971Y-48925819D02*
X105943447Y-48925819D01*
X105943447Y-48925819D02*
X106038685Y-48878200D01*
X106038685Y-48878200D02*
X106086304Y-48830580D01*
X106086304Y-48830580D02*
X106133923Y-48735342D01*
X106133923Y-48735342D02*
X106133923Y-47925819D01*
X106514876Y-47925819D02*
X107133923Y-47925819D01*
X107133923Y-47925819D02*
X106800590Y-48306771D01*
X106800590Y-48306771D02*
X106943447Y-48306771D01*
X106943447Y-48306771D02*
X107038685Y-48354390D01*
X107038685Y-48354390D02*
X107086304Y-48402009D01*
X107086304Y-48402009D02*
X107133923Y-48497247D01*
X107133923Y-48497247D02*
X107133923Y-48735342D01*
X107133923Y-48735342D02*
X107086304Y-48830580D01*
X107086304Y-48830580D02*
X107038685Y-48878200D01*
X107038685Y-48878200D02*
X106943447Y-48925819D01*
X106943447Y-48925819D02*
X106657733Y-48925819D01*
X106657733Y-48925819D02*
X106562495Y-48878200D01*
X106562495Y-48878200D02*
X106514876Y-48830580D01*
%TO.C,R9*%
X78903533Y-54996419D02*
X78570200Y-54520228D01*
X78332105Y-54996419D02*
X78332105Y-53996419D01*
X78332105Y-53996419D02*
X78713057Y-53996419D01*
X78713057Y-53996419D02*
X78808295Y-54044038D01*
X78808295Y-54044038D02*
X78855914Y-54091657D01*
X78855914Y-54091657D02*
X78903533Y-54186895D01*
X78903533Y-54186895D02*
X78903533Y-54329752D01*
X78903533Y-54329752D02*
X78855914Y-54424990D01*
X78855914Y-54424990D02*
X78808295Y-54472609D01*
X78808295Y-54472609D02*
X78713057Y-54520228D01*
X78713057Y-54520228D02*
X78332105Y-54520228D01*
X79379724Y-54996419D02*
X79570200Y-54996419D01*
X79570200Y-54996419D02*
X79665438Y-54948800D01*
X79665438Y-54948800D02*
X79713057Y-54901180D01*
X79713057Y-54901180D02*
X79808295Y-54758323D01*
X79808295Y-54758323D02*
X79855914Y-54567847D01*
X79855914Y-54567847D02*
X79855914Y-54186895D01*
X79855914Y-54186895D02*
X79808295Y-54091657D01*
X79808295Y-54091657D02*
X79760676Y-54044038D01*
X79760676Y-54044038D02*
X79665438Y-53996419D01*
X79665438Y-53996419D02*
X79474962Y-53996419D01*
X79474962Y-53996419D02*
X79379724Y-54044038D01*
X79379724Y-54044038D02*
X79332105Y-54091657D01*
X79332105Y-54091657D02*
X79284486Y-54186895D01*
X79284486Y-54186895D02*
X79284486Y-54424990D01*
X79284486Y-54424990D02*
X79332105Y-54520228D01*
X79332105Y-54520228D02*
X79379724Y-54567847D01*
X79379724Y-54567847D02*
X79474962Y-54615466D01*
X79474962Y-54615466D02*
X79665438Y-54615466D01*
X79665438Y-54615466D02*
X79760676Y-54567847D01*
X79760676Y-54567847D02*
X79808295Y-54520228D01*
X79808295Y-54520228D02*
X79855914Y-54424990D01*
%TO.C,J3*%
X61856666Y-59352619D02*
X61856666Y-60066904D01*
X61856666Y-60066904D02*
X61809047Y-60209761D01*
X61809047Y-60209761D02*
X61713809Y-60305000D01*
X61713809Y-60305000D02*
X61570952Y-60352619D01*
X61570952Y-60352619D02*
X61475714Y-60352619D01*
X62237619Y-59352619D02*
X62856666Y-59352619D01*
X62856666Y-59352619D02*
X62523333Y-59733571D01*
X62523333Y-59733571D02*
X62666190Y-59733571D01*
X62666190Y-59733571D02*
X62761428Y-59781190D01*
X62761428Y-59781190D02*
X62809047Y-59828809D01*
X62809047Y-59828809D02*
X62856666Y-59924047D01*
X62856666Y-59924047D02*
X62856666Y-60162142D01*
X62856666Y-60162142D02*
X62809047Y-60257380D01*
X62809047Y-60257380D02*
X62761428Y-60305000D01*
X62761428Y-60305000D02*
X62666190Y-60352619D01*
X62666190Y-60352619D02*
X62380476Y-60352619D01*
X62380476Y-60352619D02*
X62285238Y-60305000D01*
X62285238Y-60305000D02*
X62237619Y-60257380D01*
%TO.C,R23*%
X57457142Y-61482619D02*
X57123809Y-61006428D01*
X56885714Y-61482619D02*
X56885714Y-60482619D01*
X56885714Y-60482619D02*
X57266666Y-60482619D01*
X57266666Y-60482619D02*
X57361904Y-60530238D01*
X57361904Y-60530238D02*
X57409523Y-60577857D01*
X57409523Y-60577857D02*
X57457142Y-60673095D01*
X57457142Y-60673095D02*
X57457142Y-60815952D01*
X57457142Y-60815952D02*
X57409523Y-60911190D01*
X57409523Y-60911190D02*
X57361904Y-60958809D01*
X57361904Y-60958809D02*
X57266666Y-61006428D01*
X57266666Y-61006428D02*
X56885714Y-61006428D01*
X57838095Y-60577857D02*
X57885714Y-60530238D01*
X57885714Y-60530238D02*
X57980952Y-60482619D01*
X57980952Y-60482619D02*
X58219047Y-60482619D01*
X58219047Y-60482619D02*
X58314285Y-60530238D01*
X58314285Y-60530238D02*
X58361904Y-60577857D01*
X58361904Y-60577857D02*
X58409523Y-60673095D01*
X58409523Y-60673095D02*
X58409523Y-60768333D01*
X58409523Y-60768333D02*
X58361904Y-60911190D01*
X58361904Y-60911190D02*
X57790476Y-61482619D01*
X57790476Y-61482619D02*
X58409523Y-61482619D01*
X58742857Y-60482619D02*
X59361904Y-60482619D01*
X59361904Y-60482619D02*
X59028571Y-60863571D01*
X59028571Y-60863571D02*
X59171428Y-60863571D01*
X59171428Y-60863571D02*
X59266666Y-60911190D01*
X59266666Y-60911190D02*
X59314285Y-60958809D01*
X59314285Y-60958809D02*
X59361904Y-61054047D01*
X59361904Y-61054047D02*
X59361904Y-61292142D01*
X59361904Y-61292142D02*
X59314285Y-61387380D01*
X59314285Y-61387380D02*
X59266666Y-61435000D01*
X59266666Y-61435000D02*
X59171428Y-61482619D01*
X59171428Y-61482619D02*
X58885714Y-61482619D01*
X58885714Y-61482619D02*
X58790476Y-61435000D01*
X58790476Y-61435000D02*
X58742857Y-61387380D01*
%TO.C,C22*%
X81383942Y-56554280D02*
X81336323Y-56601900D01*
X81336323Y-56601900D02*
X81193466Y-56649519D01*
X81193466Y-56649519D02*
X81098228Y-56649519D01*
X81098228Y-56649519D02*
X80955371Y-56601900D01*
X80955371Y-56601900D02*
X80860133Y-56506661D01*
X80860133Y-56506661D02*
X80812514Y-56411423D01*
X80812514Y-56411423D02*
X80764895Y-56220947D01*
X80764895Y-56220947D02*
X80764895Y-56078090D01*
X80764895Y-56078090D02*
X80812514Y-55887614D01*
X80812514Y-55887614D02*
X80860133Y-55792376D01*
X80860133Y-55792376D02*
X80955371Y-55697138D01*
X80955371Y-55697138D02*
X81098228Y-55649519D01*
X81098228Y-55649519D02*
X81193466Y-55649519D01*
X81193466Y-55649519D02*
X81336323Y-55697138D01*
X81336323Y-55697138D02*
X81383942Y-55744757D01*
X81764895Y-55744757D02*
X81812514Y-55697138D01*
X81812514Y-55697138D02*
X81907752Y-55649519D01*
X81907752Y-55649519D02*
X82145847Y-55649519D01*
X82145847Y-55649519D02*
X82241085Y-55697138D01*
X82241085Y-55697138D02*
X82288704Y-55744757D01*
X82288704Y-55744757D02*
X82336323Y-55839995D01*
X82336323Y-55839995D02*
X82336323Y-55935233D01*
X82336323Y-55935233D02*
X82288704Y-56078090D01*
X82288704Y-56078090D02*
X81717276Y-56649519D01*
X81717276Y-56649519D02*
X82336323Y-56649519D01*
X82717276Y-55744757D02*
X82764895Y-55697138D01*
X82764895Y-55697138D02*
X82860133Y-55649519D01*
X82860133Y-55649519D02*
X83098228Y-55649519D01*
X83098228Y-55649519D02*
X83193466Y-55697138D01*
X83193466Y-55697138D02*
X83241085Y-55744757D01*
X83241085Y-55744757D02*
X83288704Y-55839995D01*
X83288704Y-55839995D02*
X83288704Y-55935233D01*
X83288704Y-55935233D02*
X83241085Y-56078090D01*
X83241085Y-56078090D02*
X82669657Y-56649519D01*
X82669657Y-56649519D02*
X83288704Y-56649519D01*
%TO.C,C23*%
X79180380Y-59492857D02*
X79228000Y-59540476D01*
X79228000Y-59540476D02*
X79275619Y-59683333D01*
X79275619Y-59683333D02*
X79275619Y-59778571D01*
X79275619Y-59778571D02*
X79228000Y-59921428D01*
X79228000Y-59921428D02*
X79132761Y-60016666D01*
X79132761Y-60016666D02*
X79037523Y-60064285D01*
X79037523Y-60064285D02*
X78847047Y-60111904D01*
X78847047Y-60111904D02*
X78704190Y-60111904D01*
X78704190Y-60111904D02*
X78513714Y-60064285D01*
X78513714Y-60064285D02*
X78418476Y-60016666D01*
X78418476Y-60016666D02*
X78323238Y-59921428D01*
X78323238Y-59921428D02*
X78275619Y-59778571D01*
X78275619Y-59778571D02*
X78275619Y-59683333D01*
X78275619Y-59683333D02*
X78323238Y-59540476D01*
X78323238Y-59540476D02*
X78370857Y-59492857D01*
X78370857Y-59111904D02*
X78323238Y-59064285D01*
X78323238Y-59064285D02*
X78275619Y-58969047D01*
X78275619Y-58969047D02*
X78275619Y-58730952D01*
X78275619Y-58730952D02*
X78323238Y-58635714D01*
X78323238Y-58635714D02*
X78370857Y-58588095D01*
X78370857Y-58588095D02*
X78466095Y-58540476D01*
X78466095Y-58540476D02*
X78561333Y-58540476D01*
X78561333Y-58540476D02*
X78704190Y-58588095D01*
X78704190Y-58588095D02*
X79275619Y-59159523D01*
X79275619Y-59159523D02*
X79275619Y-58540476D01*
X78275619Y-58207142D02*
X78275619Y-57588095D01*
X78275619Y-57588095D02*
X78656571Y-57921428D01*
X78656571Y-57921428D02*
X78656571Y-57778571D01*
X78656571Y-57778571D02*
X78704190Y-57683333D01*
X78704190Y-57683333D02*
X78751809Y-57635714D01*
X78751809Y-57635714D02*
X78847047Y-57588095D01*
X78847047Y-57588095D02*
X79085142Y-57588095D01*
X79085142Y-57588095D02*
X79180380Y-57635714D01*
X79180380Y-57635714D02*
X79228000Y-57683333D01*
X79228000Y-57683333D02*
X79275619Y-57778571D01*
X79275619Y-57778571D02*
X79275619Y-58064285D01*
X79275619Y-58064285D02*
X79228000Y-58159523D01*
X79228000Y-58159523D02*
X79180380Y-58207142D01*
D14*
%TO.C,AE1*%
X11711133Y-30436304D02*
X12187323Y-30436304D01*
X11615895Y-30722019D02*
X11949228Y-29722019D01*
X11949228Y-29722019D02*
X12282561Y-30722019D01*
X12615895Y-30198209D02*
X12949228Y-30198209D01*
X13092085Y-30722019D02*
X12615895Y-30722019D01*
X12615895Y-30722019D02*
X12615895Y-29722019D01*
X12615895Y-29722019D02*
X13092085Y-29722019D01*
X14044466Y-30722019D02*
X13473038Y-30722019D01*
X13758752Y-30722019D02*
X13758752Y-29722019D01*
X13758752Y-29722019D02*
X13663514Y-29864876D01*
X13663514Y-29864876D02*
X13568276Y-29960114D01*
X13568276Y-29960114D02*
X13473038Y-30007733D01*
X10068276Y-41351304D02*
X10544466Y-41351304D01*
X9973038Y-41637019D02*
X10306371Y-40637019D01*
X10306371Y-40637019D02*
X10639704Y-41637019D01*
X10973038Y-41637019D02*
X10973038Y-40637019D01*
X10973038Y-40637019D02*
X11544466Y-41637019D01*
X11544466Y-41637019D02*
X11544466Y-40637019D01*
X11877800Y-40637019D02*
X12449228Y-40637019D01*
X12163514Y-41637019D02*
X12163514Y-40637019D01*
X12782562Y-41113209D02*
X13115895Y-41113209D01*
X13258752Y-41637019D02*
X12782562Y-41637019D01*
X12782562Y-41637019D02*
X12782562Y-40637019D01*
X12782562Y-40637019D02*
X13258752Y-40637019D01*
X13687324Y-41637019D02*
X13687324Y-40637019D01*
X13687324Y-40637019D02*
X14258752Y-41637019D01*
X14258752Y-41637019D02*
X14258752Y-40637019D01*
X14734943Y-41637019D02*
X14734943Y-40637019D01*
X14734943Y-40637019D02*
X15306371Y-41637019D01*
X15306371Y-41637019D02*
X15306371Y-40637019D01*
X15734943Y-41351304D02*
X16211133Y-41351304D01*
X15639705Y-41637019D02*
X15973038Y-40637019D01*
X15973038Y-40637019D02*
X16306371Y-41637019D01*
D11*
%TO.C,Q4*%
X72074761Y-57717857D02*
X71979523Y-57670238D01*
X71979523Y-57670238D02*
X71884285Y-57575000D01*
X71884285Y-57575000D02*
X71741428Y-57432142D01*
X71741428Y-57432142D02*
X71646190Y-57384523D01*
X71646190Y-57384523D02*
X71550952Y-57384523D01*
X71598571Y-57622619D02*
X71503333Y-57575000D01*
X71503333Y-57575000D02*
X71408095Y-57479761D01*
X71408095Y-57479761D02*
X71360476Y-57289285D01*
X71360476Y-57289285D02*
X71360476Y-56955952D01*
X71360476Y-56955952D02*
X71408095Y-56765476D01*
X71408095Y-56765476D02*
X71503333Y-56670238D01*
X71503333Y-56670238D02*
X71598571Y-56622619D01*
X71598571Y-56622619D02*
X71789047Y-56622619D01*
X71789047Y-56622619D02*
X71884285Y-56670238D01*
X71884285Y-56670238D02*
X71979523Y-56765476D01*
X71979523Y-56765476D02*
X72027142Y-56955952D01*
X72027142Y-56955952D02*
X72027142Y-57289285D01*
X72027142Y-57289285D02*
X71979523Y-57479761D01*
X71979523Y-57479761D02*
X71884285Y-57575000D01*
X71884285Y-57575000D02*
X71789047Y-57622619D01*
X71789047Y-57622619D02*
X71598571Y-57622619D01*
X72884285Y-56955952D02*
X72884285Y-57622619D01*
X72646190Y-56575000D02*
X72408095Y-57289285D01*
X72408095Y-57289285D02*
X73027142Y-57289285D01*
%TO.C,R11*%
X94457142Y-64412619D02*
X94123809Y-63936428D01*
X93885714Y-64412619D02*
X93885714Y-63412619D01*
X93885714Y-63412619D02*
X94266666Y-63412619D01*
X94266666Y-63412619D02*
X94361904Y-63460238D01*
X94361904Y-63460238D02*
X94409523Y-63507857D01*
X94409523Y-63507857D02*
X94457142Y-63603095D01*
X94457142Y-63603095D02*
X94457142Y-63745952D01*
X94457142Y-63745952D02*
X94409523Y-63841190D01*
X94409523Y-63841190D02*
X94361904Y-63888809D01*
X94361904Y-63888809D02*
X94266666Y-63936428D01*
X94266666Y-63936428D02*
X93885714Y-63936428D01*
X95409523Y-64412619D02*
X94838095Y-64412619D01*
X95123809Y-64412619D02*
X95123809Y-63412619D01*
X95123809Y-63412619D02*
X95028571Y-63555476D01*
X95028571Y-63555476D02*
X94933333Y-63650714D01*
X94933333Y-63650714D02*
X94838095Y-63698333D01*
X96361904Y-64412619D02*
X95790476Y-64412619D01*
X96076190Y-64412619D02*
X96076190Y-63412619D01*
X96076190Y-63412619D02*
X95980952Y-63555476D01*
X95980952Y-63555476D02*
X95885714Y-63650714D01*
X95885714Y-63650714D02*
X95790476Y-63698333D01*
%TO.C,R16*%
X69237142Y-40442619D02*
X68903809Y-39966428D01*
X68665714Y-40442619D02*
X68665714Y-39442619D01*
X68665714Y-39442619D02*
X69046666Y-39442619D01*
X69046666Y-39442619D02*
X69141904Y-39490238D01*
X69141904Y-39490238D02*
X69189523Y-39537857D01*
X69189523Y-39537857D02*
X69237142Y-39633095D01*
X69237142Y-39633095D02*
X69237142Y-39775952D01*
X69237142Y-39775952D02*
X69189523Y-39871190D01*
X69189523Y-39871190D02*
X69141904Y-39918809D01*
X69141904Y-39918809D02*
X69046666Y-39966428D01*
X69046666Y-39966428D02*
X68665714Y-39966428D01*
X70189523Y-40442619D02*
X69618095Y-40442619D01*
X69903809Y-40442619D02*
X69903809Y-39442619D01*
X69903809Y-39442619D02*
X69808571Y-39585476D01*
X69808571Y-39585476D02*
X69713333Y-39680714D01*
X69713333Y-39680714D02*
X69618095Y-39728333D01*
X71046666Y-39442619D02*
X70856190Y-39442619D01*
X70856190Y-39442619D02*
X70760952Y-39490238D01*
X70760952Y-39490238D02*
X70713333Y-39537857D01*
X70713333Y-39537857D02*
X70618095Y-39680714D01*
X70618095Y-39680714D02*
X70570476Y-39871190D01*
X70570476Y-39871190D02*
X70570476Y-40252142D01*
X70570476Y-40252142D02*
X70618095Y-40347380D01*
X70618095Y-40347380D02*
X70665714Y-40395000D01*
X70665714Y-40395000D02*
X70760952Y-40442619D01*
X70760952Y-40442619D02*
X70951428Y-40442619D01*
X70951428Y-40442619D02*
X71046666Y-40395000D01*
X71046666Y-40395000D02*
X71094285Y-40347380D01*
X71094285Y-40347380D02*
X71141904Y-40252142D01*
X71141904Y-40252142D02*
X71141904Y-40014047D01*
X71141904Y-40014047D02*
X71094285Y-39918809D01*
X71094285Y-39918809D02*
X71046666Y-39871190D01*
X71046666Y-39871190D02*
X70951428Y-39823571D01*
X70951428Y-39823571D02*
X70760952Y-39823571D01*
X70760952Y-39823571D02*
X70665714Y-39871190D01*
X70665714Y-39871190D02*
X70618095Y-39918809D01*
X70618095Y-39918809D02*
X70570476Y-40014047D01*
%TO.C,C3*%
X94983333Y-69817380D02*
X94935714Y-69865000D01*
X94935714Y-69865000D02*
X94792857Y-69912619D01*
X94792857Y-69912619D02*
X94697619Y-69912619D01*
X94697619Y-69912619D02*
X94554762Y-69865000D01*
X94554762Y-69865000D02*
X94459524Y-69769761D01*
X94459524Y-69769761D02*
X94411905Y-69674523D01*
X94411905Y-69674523D02*
X94364286Y-69484047D01*
X94364286Y-69484047D02*
X94364286Y-69341190D01*
X94364286Y-69341190D02*
X94411905Y-69150714D01*
X94411905Y-69150714D02*
X94459524Y-69055476D01*
X94459524Y-69055476D02*
X94554762Y-68960238D01*
X94554762Y-68960238D02*
X94697619Y-68912619D01*
X94697619Y-68912619D02*
X94792857Y-68912619D01*
X94792857Y-68912619D02*
X94935714Y-68960238D01*
X94935714Y-68960238D02*
X94983333Y-69007857D01*
X95316667Y-68912619D02*
X95935714Y-68912619D01*
X95935714Y-68912619D02*
X95602381Y-69293571D01*
X95602381Y-69293571D02*
X95745238Y-69293571D01*
X95745238Y-69293571D02*
X95840476Y-69341190D01*
X95840476Y-69341190D02*
X95888095Y-69388809D01*
X95888095Y-69388809D02*
X95935714Y-69484047D01*
X95935714Y-69484047D02*
X95935714Y-69722142D01*
X95935714Y-69722142D02*
X95888095Y-69817380D01*
X95888095Y-69817380D02*
X95840476Y-69865000D01*
X95840476Y-69865000D02*
X95745238Y-69912619D01*
X95745238Y-69912619D02*
X95459524Y-69912619D01*
X95459524Y-69912619D02*
X95364286Y-69865000D01*
X95364286Y-69865000D02*
X95316667Y-69817380D01*
%TO.C,C12*%
X55422142Y-66717380D02*
X55374523Y-66765000D01*
X55374523Y-66765000D02*
X55231666Y-66812619D01*
X55231666Y-66812619D02*
X55136428Y-66812619D01*
X55136428Y-66812619D02*
X54993571Y-66765000D01*
X54993571Y-66765000D02*
X54898333Y-66669761D01*
X54898333Y-66669761D02*
X54850714Y-66574523D01*
X54850714Y-66574523D02*
X54803095Y-66384047D01*
X54803095Y-66384047D02*
X54803095Y-66241190D01*
X54803095Y-66241190D02*
X54850714Y-66050714D01*
X54850714Y-66050714D02*
X54898333Y-65955476D01*
X54898333Y-65955476D02*
X54993571Y-65860238D01*
X54993571Y-65860238D02*
X55136428Y-65812619D01*
X55136428Y-65812619D02*
X55231666Y-65812619D01*
X55231666Y-65812619D02*
X55374523Y-65860238D01*
X55374523Y-65860238D02*
X55422142Y-65907857D01*
X56374523Y-66812619D02*
X55803095Y-66812619D01*
X56088809Y-66812619D02*
X56088809Y-65812619D01*
X56088809Y-65812619D02*
X55993571Y-65955476D01*
X55993571Y-65955476D02*
X55898333Y-66050714D01*
X55898333Y-66050714D02*
X55803095Y-66098333D01*
X56755476Y-65907857D02*
X56803095Y-65860238D01*
X56803095Y-65860238D02*
X56898333Y-65812619D01*
X56898333Y-65812619D02*
X57136428Y-65812619D01*
X57136428Y-65812619D02*
X57231666Y-65860238D01*
X57231666Y-65860238D02*
X57279285Y-65907857D01*
X57279285Y-65907857D02*
X57326904Y-66003095D01*
X57326904Y-66003095D02*
X57326904Y-66098333D01*
X57326904Y-66098333D02*
X57279285Y-66241190D01*
X57279285Y-66241190D02*
X56707857Y-66812619D01*
X56707857Y-66812619D02*
X57326904Y-66812619D01*
%TO.C,Q8*%
X52854761Y-38657857D02*
X52759523Y-38610238D01*
X52759523Y-38610238D02*
X52664285Y-38515000D01*
X52664285Y-38515000D02*
X52521428Y-38372142D01*
X52521428Y-38372142D02*
X52426190Y-38324523D01*
X52426190Y-38324523D02*
X52330952Y-38324523D01*
X52378571Y-38562619D02*
X52283333Y-38515000D01*
X52283333Y-38515000D02*
X52188095Y-38419761D01*
X52188095Y-38419761D02*
X52140476Y-38229285D01*
X52140476Y-38229285D02*
X52140476Y-37895952D01*
X52140476Y-37895952D02*
X52188095Y-37705476D01*
X52188095Y-37705476D02*
X52283333Y-37610238D01*
X52283333Y-37610238D02*
X52378571Y-37562619D01*
X52378571Y-37562619D02*
X52569047Y-37562619D01*
X52569047Y-37562619D02*
X52664285Y-37610238D01*
X52664285Y-37610238D02*
X52759523Y-37705476D01*
X52759523Y-37705476D02*
X52807142Y-37895952D01*
X52807142Y-37895952D02*
X52807142Y-38229285D01*
X52807142Y-38229285D02*
X52759523Y-38419761D01*
X52759523Y-38419761D02*
X52664285Y-38515000D01*
X52664285Y-38515000D02*
X52569047Y-38562619D01*
X52569047Y-38562619D02*
X52378571Y-38562619D01*
X53378571Y-37991190D02*
X53283333Y-37943571D01*
X53283333Y-37943571D02*
X53235714Y-37895952D01*
X53235714Y-37895952D02*
X53188095Y-37800714D01*
X53188095Y-37800714D02*
X53188095Y-37753095D01*
X53188095Y-37753095D02*
X53235714Y-37657857D01*
X53235714Y-37657857D02*
X53283333Y-37610238D01*
X53283333Y-37610238D02*
X53378571Y-37562619D01*
X53378571Y-37562619D02*
X53569047Y-37562619D01*
X53569047Y-37562619D02*
X53664285Y-37610238D01*
X53664285Y-37610238D02*
X53711904Y-37657857D01*
X53711904Y-37657857D02*
X53759523Y-37753095D01*
X53759523Y-37753095D02*
X53759523Y-37800714D01*
X53759523Y-37800714D02*
X53711904Y-37895952D01*
X53711904Y-37895952D02*
X53664285Y-37943571D01*
X53664285Y-37943571D02*
X53569047Y-37991190D01*
X53569047Y-37991190D02*
X53378571Y-37991190D01*
X53378571Y-37991190D02*
X53283333Y-38038809D01*
X53283333Y-38038809D02*
X53235714Y-38086428D01*
X53235714Y-38086428D02*
X53188095Y-38181666D01*
X53188095Y-38181666D02*
X53188095Y-38372142D01*
X53188095Y-38372142D02*
X53235714Y-38467380D01*
X53235714Y-38467380D02*
X53283333Y-38515000D01*
X53283333Y-38515000D02*
X53378571Y-38562619D01*
X53378571Y-38562619D02*
X53569047Y-38562619D01*
X53569047Y-38562619D02*
X53664285Y-38515000D01*
X53664285Y-38515000D02*
X53711904Y-38467380D01*
X53711904Y-38467380D02*
X53759523Y-38372142D01*
X53759523Y-38372142D02*
X53759523Y-38181666D01*
X53759523Y-38181666D02*
X53711904Y-38086428D01*
X53711904Y-38086428D02*
X53664285Y-38038809D01*
X53664285Y-38038809D02*
X53569047Y-37991190D01*
%TO.C,C14*%
X60012342Y-45274580D02*
X59964723Y-45322200D01*
X59964723Y-45322200D02*
X59821866Y-45369819D01*
X59821866Y-45369819D02*
X59726628Y-45369819D01*
X59726628Y-45369819D02*
X59583771Y-45322200D01*
X59583771Y-45322200D02*
X59488533Y-45226961D01*
X59488533Y-45226961D02*
X59440914Y-45131723D01*
X59440914Y-45131723D02*
X59393295Y-44941247D01*
X59393295Y-44941247D02*
X59393295Y-44798390D01*
X59393295Y-44798390D02*
X59440914Y-44607914D01*
X59440914Y-44607914D02*
X59488533Y-44512676D01*
X59488533Y-44512676D02*
X59583771Y-44417438D01*
X59583771Y-44417438D02*
X59726628Y-44369819D01*
X59726628Y-44369819D02*
X59821866Y-44369819D01*
X59821866Y-44369819D02*
X59964723Y-44417438D01*
X59964723Y-44417438D02*
X60012342Y-44465057D01*
X60964723Y-45369819D02*
X60393295Y-45369819D01*
X60679009Y-45369819D02*
X60679009Y-44369819D01*
X60679009Y-44369819D02*
X60583771Y-44512676D01*
X60583771Y-44512676D02*
X60488533Y-44607914D01*
X60488533Y-44607914D02*
X60393295Y-44655533D01*
X61821866Y-44703152D02*
X61821866Y-45369819D01*
X61583771Y-44322200D02*
X61345676Y-45036485D01*
X61345676Y-45036485D02*
X61964723Y-45036485D01*
%TO.C,R13*%
X69267142Y-38882619D02*
X68933809Y-38406428D01*
X68695714Y-38882619D02*
X68695714Y-37882619D01*
X68695714Y-37882619D02*
X69076666Y-37882619D01*
X69076666Y-37882619D02*
X69171904Y-37930238D01*
X69171904Y-37930238D02*
X69219523Y-37977857D01*
X69219523Y-37977857D02*
X69267142Y-38073095D01*
X69267142Y-38073095D02*
X69267142Y-38215952D01*
X69267142Y-38215952D02*
X69219523Y-38311190D01*
X69219523Y-38311190D02*
X69171904Y-38358809D01*
X69171904Y-38358809D02*
X69076666Y-38406428D01*
X69076666Y-38406428D02*
X68695714Y-38406428D01*
X70219523Y-38882619D02*
X69648095Y-38882619D01*
X69933809Y-38882619D02*
X69933809Y-37882619D01*
X69933809Y-37882619D02*
X69838571Y-38025476D01*
X69838571Y-38025476D02*
X69743333Y-38120714D01*
X69743333Y-38120714D02*
X69648095Y-38168333D01*
X70552857Y-37882619D02*
X71171904Y-37882619D01*
X71171904Y-37882619D02*
X70838571Y-38263571D01*
X70838571Y-38263571D02*
X70981428Y-38263571D01*
X70981428Y-38263571D02*
X71076666Y-38311190D01*
X71076666Y-38311190D02*
X71124285Y-38358809D01*
X71124285Y-38358809D02*
X71171904Y-38454047D01*
X71171904Y-38454047D02*
X71171904Y-38692142D01*
X71171904Y-38692142D02*
X71124285Y-38787380D01*
X71124285Y-38787380D02*
X71076666Y-38835000D01*
X71076666Y-38835000D02*
X70981428Y-38882619D01*
X70981428Y-38882619D02*
X70695714Y-38882619D01*
X70695714Y-38882619D02*
X70600476Y-38835000D01*
X70600476Y-38835000D02*
X70552857Y-38787380D01*
%TO.C,C8*%
X78903533Y-51421380D02*
X78855914Y-51469000D01*
X78855914Y-51469000D02*
X78713057Y-51516619D01*
X78713057Y-51516619D02*
X78617819Y-51516619D01*
X78617819Y-51516619D02*
X78474962Y-51469000D01*
X78474962Y-51469000D02*
X78379724Y-51373761D01*
X78379724Y-51373761D02*
X78332105Y-51278523D01*
X78332105Y-51278523D02*
X78284486Y-51088047D01*
X78284486Y-51088047D02*
X78284486Y-50945190D01*
X78284486Y-50945190D02*
X78332105Y-50754714D01*
X78332105Y-50754714D02*
X78379724Y-50659476D01*
X78379724Y-50659476D02*
X78474962Y-50564238D01*
X78474962Y-50564238D02*
X78617819Y-50516619D01*
X78617819Y-50516619D02*
X78713057Y-50516619D01*
X78713057Y-50516619D02*
X78855914Y-50564238D01*
X78855914Y-50564238D02*
X78903533Y-50611857D01*
X79474962Y-50945190D02*
X79379724Y-50897571D01*
X79379724Y-50897571D02*
X79332105Y-50849952D01*
X79332105Y-50849952D02*
X79284486Y-50754714D01*
X79284486Y-50754714D02*
X79284486Y-50707095D01*
X79284486Y-50707095D02*
X79332105Y-50611857D01*
X79332105Y-50611857D02*
X79379724Y-50564238D01*
X79379724Y-50564238D02*
X79474962Y-50516619D01*
X79474962Y-50516619D02*
X79665438Y-50516619D01*
X79665438Y-50516619D02*
X79760676Y-50564238D01*
X79760676Y-50564238D02*
X79808295Y-50611857D01*
X79808295Y-50611857D02*
X79855914Y-50707095D01*
X79855914Y-50707095D02*
X79855914Y-50754714D01*
X79855914Y-50754714D02*
X79808295Y-50849952D01*
X79808295Y-50849952D02*
X79760676Y-50897571D01*
X79760676Y-50897571D02*
X79665438Y-50945190D01*
X79665438Y-50945190D02*
X79474962Y-50945190D01*
X79474962Y-50945190D02*
X79379724Y-50992809D01*
X79379724Y-50992809D02*
X79332105Y-51040428D01*
X79332105Y-51040428D02*
X79284486Y-51135666D01*
X79284486Y-51135666D02*
X79284486Y-51326142D01*
X79284486Y-51326142D02*
X79332105Y-51421380D01*
X79332105Y-51421380D02*
X79379724Y-51469000D01*
X79379724Y-51469000D02*
X79474962Y-51516619D01*
X79474962Y-51516619D02*
X79665438Y-51516619D01*
X79665438Y-51516619D02*
X79760676Y-51469000D01*
X79760676Y-51469000D02*
X79808295Y-51421380D01*
X79808295Y-51421380D02*
X79855914Y-51326142D01*
X79855914Y-51326142D02*
X79855914Y-51135666D01*
X79855914Y-51135666D02*
X79808295Y-51040428D01*
X79808295Y-51040428D02*
X79760676Y-50992809D01*
X79760676Y-50992809D02*
X79665438Y-50945190D01*
%TO.C,C15*%
X72607142Y-51617380D02*
X72559523Y-51665000D01*
X72559523Y-51665000D02*
X72416666Y-51712619D01*
X72416666Y-51712619D02*
X72321428Y-51712619D01*
X72321428Y-51712619D02*
X72178571Y-51665000D01*
X72178571Y-51665000D02*
X72083333Y-51569761D01*
X72083333Y-51569761D02*
X72035714Y-51474523D01*
X72035714Y-51474523D02*
X71988095Y-51284047D01*
X71988095Y-51284047D02*
X71988095Y-51141190D01*
X71988095Y-51141190D02*
X72035714Y-50950714D01*
X72035714Y-50950714D02*
X72083333Y-50855476D01*
X72083333Y-50855476D02*
X72178571Y-50760238D01*
X72178571Y-50760238D02*
X72321428Y-50712619D01*
X72321428Y-50712619D02*
X72416666Y-50712619D01*
X72416666Y-50712619D02*
X72559523Y-50760238D01*
X72559523Y-50760238D02*
X72607142Y-50807857D01*
X73559523Y-51712619D02*
X72988095Y-51712619D01*
X73273809Y-51712619D02*
X73273809Y-50712619D01*
X73273809Y-50712619D02*
X73178571Y-50855476D01*
X73178571Y-50855476D02*
X73083333Y-50950714D01*
X73083333Y-50950714D02*
X72988095Y-50998333D01*
X74464285Y-50712619D02*
X73988095Y-50712619D01*
X73988095Y-50712619D02*
X73940476Y-51188809D01*
X73940476Y-51188809D02*
X73988095Y-51141190D01*
X73988095Y-51141190D02*
X74083333Y-51093571D01*
X74083333Y-51093571D02*
X74321428Y-51093571D01*
X74321428Y-51093571D02*
X74416666Y-51141190D01*
X74416666Y-51141190D02*
X74464285Y-51188809D01*
X74464285Y-51188809D02*
X74511904Y-51284047D01*
X74511904Y-51284047D02*
X74511904Y-51522142D01*
X74511904Y-51522142D02*
X74464285Y-51617380D01*
X74464285Y-51617380D02*
X74416666Y-51665000D01*
X74416666Y-51665000D02*
X74321428Y-51712619D01*
X74321428Y-51712619D02*
X74083333Y-51712619D01*
X74083333Y-51712619D02*
X73988095Y-51665000D01*
X73988095Y-51665000D02*
X73940476Y-51617380D01*
D14*
%TO.C,J2*%
X73466666Y-64242619D02*
X73466666Y-64956904D01*
X73466666Y-64956904D02*
X73419047Y-65099761D01*
X73419047Y-65099761D02*
X73323809Y-65195000D01*
X73323809Y-65195000D02*
X73180952Y-65242619D01*
X73180952Y-65242619D02*
X73085714Y-65242619D01*
X73895238Y-64337857D02*
X73942857Y-64290238D01*
X73942857Y-64290238D02*
X74038095Y-64242619D01*
X74038095Y-64242619D02*
X74276190Y-64242619D01*
X74276190Y-64242619D02*
X74371428Y-64290238D01*
X74371428Y-64290238D02*
X74419047Y-64337857D01*
X74419047Y-64337857D02*
X74466666Y-64433095D01*
X74466666Y-64433095D02*
X74466666Y-64528333D01*
X74466666Y-64528333D02*
X74419047Y-64671190D01*
X74419047Y-64671190D02*
X73847619Y-65242619D01*
X73847619Y-65242619D02*
X74466666Y-65242619D01*
D11*
%TO.C,R5*%
X111733333Y-43512619D02*
X111400000Y-43036428D01*
X111161905Y-43512619D02*
X111161905Y-42512619D01*
X111161905Y-42512619D02*
X111542857Y-42512619D01*
X111542857Y-42512619D02*
X111638095Y-42560238D01*
X111638095Y-42560238D02*
X111685714Y-42607857D01*
X111685714Y-42607857D02*
X111733333Y-42703095D01*
X111733333Y-42703095D02*
X111733333Y-42845952D01*
X111733333Y-42845952D02*
X111685714Y-42941190D01*
X111685714Y-42941190D02*
X111638095Y-42988809D01*
X111638095Y-42988809D02*
X111542857Y-43036428D01*
X111542857Y-43036428D02*
X111161905Y-43036428D01*
X112638095Y-42512619D02*
X112161905Y-42512619D01*
X112161905Y-42512619D02*
X112114286Y-42988809D01*
X112114286Y-42988809D02*
X112161905Y-42941190D01*
X112161905Y-42941190D02*
X112257143Y-42893571D01*
X112257143Y-42893571D02*
X112495238Y-42893571D01*
X112495238Y-42893571D02*
X112590476Y-42941190D01*
X112590476Y-42941190D02*
X112638095Y-42988809D01*
X112638095Y-42988809D02*
X112685714Y-43084047D01*
X112685714Y-43084047D02*
X112685714Y-43322142D01*
X112685714Y-43322142D02*
X112638095Y-43417380D01*
X112638095Y-43417380D02*
X112590476Y-43465000D01*
X112590476Y-43465000D02*
X112495238Y-43512619D01*
X112495238Y-43512619D02*
X112257143Y-43512619D01*
X112257143Y-43512619D02*
X112161905Y-43465000D01*
X112161905Y-43465000D02*
X112114286Y-43417380D01*
%TO.C,R2*%
X107393333Y-56552619D02*
X107060000Y-56076428D01*
X106821905Y-56552619D02*
X106821905Y-55552619D01*
X106821905Y-55552619D02*
X107202857Y-55552619D01*
X107202857Y-55552619D02*
X107298095Y-55600238D01*
X107298095Y-55600238D02*
X107345714Y-55647857D01*
X107345714Y-55647857D02*
X107393333Y-55743095D01*
X107393333Y-55743095D02*
X107393333Y-55885952D01*
X107393333Y-55885952D02*
X107345714Y-55981190D01*
X107345714Y-55981190D02*
X107298095Y-56028809D01*
X107298095Y-56028809D02*
X107202857Y-56076428D01*
X107202857Y-56076428D02*
X106821905Y-56076428D01*
X107774286Y-55647857D02*
X107821905Y-55600238D01*
X107821905Y-55600238D02*
X107917143Y-55552619D01*
X107917143Y-55552619D02*
X108155238Y-55552619D01*
X108155238Y-55552619D02*
X108250476Y-55600238D01*
X108250476Y-55600238D02*
X108298095Y-55647857D01*
X108298095Y-55647857D02*
X108345714Y-55743095D01*
X108345714Y-55743095D02*
X108345714Y-55838333D01*
X108345714Y-55838333D02*
X108298095Y-55981190D01*
X108298095Y-55981190D02*
X107726667Y-56552619D01*
X107726667Y-56552619D02*
X108345714Y-56552619D01*
%TO.C,U9*%
X57425695Y-52472419D02*
X57425695Y-53281942D01*
X57425695Y-53281942D02*
X57473314Y-53377180D01*
X57473314Y-53377180D02*
X57520933Y-53424800D01*
X57520933Y-53424800D02*
X57616171Y-53472419D01*
X57616171Y-53472419D02*
X57806647Y-53472419D01*
X57806647Y-53472419D02*
X57901885Y-53424800D01*
X57901885Y-53424800D02*
X57949504Y-53377180D01*
X57949504Y-53377180D02*
X57997123Y-53281942D01*
X57997123Y-53281942D02*
X57997123Y-52472419D01*
X58520933Y-53472419D02*
X58711409Y-53472419D01*
X58711409Y-53472419D02*
X58806647Y-53424800D01*
X58806647Y-53424800D02*
X58854266Y-53377180D01*
X58854266Y-53377180D02*
X58949504Y-53234323D01*
X58949504Y-53234323D02*
X58997123Y-53043847D01*
X58997123Y-53043847D02*
X58997123Y-52662895D01*
X58997123Y-52662895D02*
X58949504Y-52567657D01*
X58949504Y-52567657D02*
X58901885Y-52520038D01*
X58901885Y-52520038D02*
X58806647Y-52472419D01*
X58806647Y-52472419D02*
X58616171Y-52472419D01*
X58616171Y-52472419D02*
X58520933Y-52520038D01*
X58520933Y-52520038D02*
X58473314Y-52567657D01*
X58473314Y-52567657D02*
X58425695Y-52662895D01*
X58425695Y-52662895D02*
X58425695Y-52900990D01*
X58425695Y-52900990D02*
X58473314Y-52996228D01*
X58473314Y-52996228D02*
X58520933Y-53043847D01*
X58520933Y-53043847D02*
X58616171Y-53091466D01*
X58616171Y-53091466D02*
X58806647Y-53091466D01*
X58806647Y-53091466D02*
X58901885Y-53043847D01*
X58901885Y-53043847D02*
X58949504Y-52996228D01*
X58949504Y-52996228D02*
X58997123Y-52900990D01*
%TO.C,C10*%
X81881742Y-42836180D02*
X81834123Y-42883800D01*
X81834123Y-42883800D02*
X81691266Y-42931419D01*
X81691266Y-42931419D02*
X81596028Y-42931419D01*
X81596028Y-42931419D02*
X81453171Y-42883800D01*
X81453171Y-42883800D02*
X81357933Y-42788561D01*
X81357933Y-42788561D02*
X81310314Y-42693323D01*
X81310314Y-42693323D02*
X81262695Y-42502847D01*
X81262695Y-42502847D02*
X81262695Y-42359990D01*
X81262695Y-42359990D02*
X81310314Y-42169514D01*
X81310314Y-42169514D02*
X81357933Y-42074276D01*
X81357933Y-42074276D02*
X81453171Y-41979038D01*
X81453171Y-41979038D02*
X81596028Y-41931419D01*
X81596028Y-41931419D02*
X81691266Y-41931419D01*
X81691266Y-41931419D02*
X81834123Y-41979038D01*
X81834123Y-41979038D02*
X81881742Y-42026657D01*
X82834123Y-42931419D02*
X82262695Y-42931419D01*
X82548409Y-42931419D02*
X82548409Y-41931419D01*
X82548409Y-41931419D02*
X82453171Y-42074276D01*
X82453171Y-42074276D02*
X82357933Y-42169514D01*
X82357933Y-42169514D02*
X82262695Y-42217133D01*
X83453171Y-41931419D02*
X83548409Y-41931419D01*
X83548409Y-41931419D02*
X83643647Y-41979038D01*
X83643647Y-41979038D02*
X83691266Y-42026657D01*
X83691266Y-42026657D02*
X83738885Y-42121895D01*
X83738885Y-42121895D02*
X83786504Y-42312371D01*
X83786504Y-42312371D02*
X83786504Y-42550466D01*
X83786504Y-42550466D02*
X83738885Y-42740942D01*
X83738885Y-42740942D02*
X83691266Y-42836180D01*
X83691266Y-42836180D02*
X83643647Y-42883800D01*
X83643647Y-42883800D02*
X83548409Y-42931419D01*
X83548409Y-42931419D02*
X83453171Y-42931419D01*
X83453171Y-42931419D02*
X83357933Y-42883800D01*
X83357933Y-42883800D02*
X83310314Y-42836180D01*
X83310314Y-42836180D02*
X83262695Y-42740942D01*
X83262695Y-42740942D02*
X83215076Y-42550466D01*
X83215076Y-42550466D02*
X83215076Y-42312371D01*
X83215076Y-42312371D02*
X83262695Y-42121895D01*
X83262695Y-42121895D02*
X83310314Y-42026657D01*
X83310314Y-42026657D02*
X83357933Y-41979038D01*
X83357933Y-41979038D02*
X83453171Y-41931419D01*
%TO.C,R4*%
X107173733Y-43537219D02*
X106840400Y-43061028D01*
X106602305Y-43537219D02*
X106602305Y-42537219D01*
X106602305Y-42537219D02*
X106983257Y-42537219D01*
X106983257Y-42537219D02*
X107078495Y-42584838D01*
X107078495Y-42584838D02*
X107126114Y-42632457D01*
X107126114Y-42632457D02*
X107173733Y-42727695D01*
X107173733Y-42727695D02*
X107173733Y-42870552D01*
X107173733Y-42870552D02*
X107126114Y-42965790D01*
X107126114Y-42965790D02*
X107078495Y-43013409D01*
X107078495Y-43013409D02*
X106983257Y-43061028D01*
X106983257Y-43061028D02*
X106602305Y-43061028D01*
X108030876Y-42870552D02*
X108030876Y-43537219D01*
X107792781Y-42489600D02*
X107554686Y-43203885D01*
X107554686Y-43203885D02*
X108173733Y-43203885D01*
%TO.C,C17*%
X69689742Y-43013980D02*
X69642123Y-43061600D01*
X69642123Y-43061600D02*
X69499266Y-43109219D01*
X69499266Y-43109219D02*
X69404028Y-43109219D01*
X69404028Y-43109219D02*
X69261171Y-43061600D01*
X69261171Y-43061600D02*
X69165933Y-42966361D01*
X69165933Y-42966361D02*
X69118314Y-42871123D01*
X69118314Y-42871123D02*
X69070695Y-42680647D01*
X69070695Y-42680647D02*
X69070695Y-42537790D01*
X69070695Y-42537790D02*
X69118314Y-42347314D01*
X69118314Y-42347314D02*
X69165933Y-42252076D01*
X69165933Y-42252076D02*
X69261171Y-42156838D01*
X69261171Y-42156838D02*
X69404028Y-42109219D01*
X69404028Y-42109219D02*
X69499266Y-42109219D01*
X69499266Y-42109219D02*
X69642123Y-42156838D01*
X69642123Y-42156838D02*
X69689742Y-42204457D01*
X70642123Y-43109219D02*
X70070695Y-43109219D01*
X70356409Y-43109219D02*
X70356409Y-42109219D01*
X70356409Y-42109219D02*
X70261171Y-42252076D01*
X70261171Y-42252076D02*
X70165933Y-42347314D01*
X70165933Y-42347314D02*
X70070695Y-42394933D01*
X70975457Y-42109219D02*
X71642123Y-42109219D01*
X71642123Y-42109219D02*
X71213552Y-43109219D01*
%TO.C,R14*%
X62957142Y-49062619D02*
X62623809Y-48586428D01*
X62385714Y-49062619D02*
X62385714Y-48062619D01*
X62385714Y-48062619D02*
X62766666Y-48062619D01*
X62766666Y-48062619D02*
X62861904Y-48110238D01*
X62861904Y-48110238D02*
X62909523Y-48157857D01*
X62909523Y-48157857D02*
X62957142Y-48253095D01*
X62957142Y-48253095D02*
X62957142Y-48395952D01*
X62957142Y-48395952D02*
X62909523Y-48491190D01*
X62909523Y-48491190D02*
X62861904Y-48538809D01*
X62861904Y-48538809D02*
X62766666Y-48586428D01*
X62766666Y-48586428D02*
X62385714Y-48586428D01*
X63909523Y-49062619D02*
X63338095Y-49062619D01*
X63623809Y-49062619D02*
X63623809Y-48062619D01*
X63623809Y-48062619D02*
X63528571Y-48205476D01*
X63528571Y-48205476D02*
X63433333Y-48300714D01*
X63433333Y-48300714D02*
X63338095Y-48348333D01*
X64766666Y-48395952D02*
X64766666Y-49062619D01*
X64528571Y-48015000D02*
X64290476Y-48729285D01*
X64290476Y-48729285D02*
X64909523Y-48729285D01*
%TO.C,U1*%
X107645295Y-67687019D02*
X107645295Y-68496542D01*
X107645295Y-68496542D02*
X107692914Y-68591780D01*
X107692914Y-68591780D02*
X107740533Y-68639400D01*
X107740533Y-68639400D02*
X107835771Y-68687019D01*
X107835771Y-68687019D02*
X108026247Y-68687019D01*
X108026247Y-68687019D02*
X108121485Y-68639400D01*
X108121485Y-68639400D02*
X108169104Y-68591780D01*
X108169104Y-68591780D02*
X108216723Y-68496542D01*
X108216723Y-68496542D02*
X108216723Y-67687019D01*
X109216723Y-68687019D02*
X108645295Y-68687019D01*
X108931009Y-68687019D02*
X108931009Y-67687019D01*
X108931009Y-67687019D02*
X108835771Y-67829876D01*
X108835771Y-67829876D02*
X108740533Y-67925114D01*
X108740533Y-67925114D02*
X108645295Y-67972733D01*
%TO.C,Q3*%
X92164761Y-69027857D02*
X92069523Y-68980238D01*
X92069523Y-68980238D02*
X91974285Y-68885000D01*
X91974285Y-68885000D02*
X91831428Y-68742142D01*
X91831428Y-68742142D02*
X91736190Y-68694523D01*
X91736190Y-68694523D02*
X91640952Y-68694523D01*
X91688571Y-68932619D02*
X91593333Y-68885000D01*
X91593333Y-68885000D02*
X91498095Y-68789761D01*
X91498095Y-68789761D02*
X91450476Y-68599285D01*
X91450476Y-68599285D02*
X91450476Y-68265952D01*
X91450476Y-68265952D02*
X91498095Y-68075476D01*
X91498095Y-68075476D02*
X91593333Y-67980238D01*
X91593333Y-67980238D02*
X91688571Y-67932619D01*
X91688571Y-67932619D02*
X91879047Y-67932619D01*
X91879047Y-67932619D02*
X91974285Y-67980238D01*
X91974285Y-67980238D02*
X92069523Y-68075476D01*
X92069523Y-68075476D02*
X92117142Y-68265952D01*
X92117142Y-68265952D02*
X92117142Y-68599285D01*
X92117142Y-68599285D02*
X92069523Y-68789761D01*
X92069523Y-68789761D02*
X91974285Y-68885000D01*
X91974285Y-68885000D02*
X91879047Y-68932619D01*
X91879047Y-68932619D02*
X91688571Y-68932619D01*
X92450476Y-67932619D02*
X93069523Y-67932619D01*
X93069523Y-67932619D02*
X92736190Y-68313571D01*
X92736190Y-68313571D02*
X92879047Y-68313571D01*
X92879047Y-68313571D02*
X92974285Y-68361190D01*
X92974285Y-68361190D02*
X93021904Y-68408809D01*
X93021904Y-68408809D02*
X93069523Y-68504047D01*
X93069523Y-68504047D02*
X93069523Y-68742142D01*
X93069523Y-68742142D02*
X93021904Y-68837380D01*
X93021904Y-68837380D02*
X92974285Y-68885000D01*
X92974285Y-68885000D02*
X92879047Y-68932619D01*
X92879047Y-68932619D02*
X92593333Y-68932619D01*
X92593333Y-68932619D02*
X92498095Y-68885000D01*
X92498095Y-68885000D02*
X92450476Y-68837380D01*
%TO.C,R15*%
X75757142Y-60362619D02*
X75423809Y-59886428D01*
X75185714Y-60362619D02*
X75185714Y-59362619D01*
X75185714Y-59362619D02*
X75566666Y-59362619D01*
X75566666Y-59362619D02*
X75661904Y-59410238D01*
X75661904Y-59410238D02*
X75709523Y-59457857D01*
X75709523Y-59457857D02*
X75757142Y-59553095D01*
X75757142Y-59553095D02*
X75757142Y-59695952D01*
X75757142Y-59695952D02*
X75709523Y-59791190D01*
X75709523Y-59791190D02*
X75661904Y-59838809D01*
X75661904Y-59838809D02*
X75566666Y-59886428D01*
X75566666Y-59886428D02*
X75185714Y-59886428D01*
X76709523Y-60362619D02*
X76138095Y-60362619D01*
X76423809Y-60362619D02*
X76423809Y-59362619D01*
X76423809Y-59362619D02*
X76328571Y-59505476D01*
X76328571Y-59505476D02*
X76233333Y-59600714D01*
X76233333Y-59600714D02*
X76138095Y-59648333D01*
X77614285Y-59362619D02*
X77138095Y-59362619D01*
X77138095Y-59362619D02*
X77090476Y-59838809D01*
X77090476Y-59838809D02*
X77138095Y-59791190D01*
X77138095Y-59791190D02*
X77233333Y-59743571D01*
X77233333Y-59743571D02*
X77471428Y-59743571D01*
X77471428Y-59743571D02*
X77566666Y-59791190D01*
X77566666Y-59791190D02*
X77614285Y-59838809D01*
X77614285Y-59838809D02*
X77661904Y-59934047D01*
X77661904Y-59934047D02*
X77661904Y-60172142D01*
X77661904Y-60172142D02*
X77614285Y-60267380D01*
X77614285Y-60267380D02*
X77566666Y-60315000D01*
X77566666Y-60315000D02*
X77471428Y-60362619D01*
X77471428Y-60362619D02*
X77233333Y-60362619D01*
X77233333Y-60362619D02*
X77138095Y-60315000D01*
X77138095Y-60315000D02*
X77090476Y-60267380D01*
%TO.C,C9*%
X78863333Y-45477380D02*
X78815714Y-45525000D01*
X78815714Y-45525000D02*
X78672857Y-45572619D01*
X78672857Y-45572619D02*
X78577619Y-45572619D01*
X78577619Y-45572619D02*
X78434762Y-45525000D01*
X78434762Y-45525000D02*
X78339524Y-45429761D01*
X78339524Y-45429761D02*
X78291905Y-45334523D01*
X78291905Y-45334523D02*
X78244286Y-45144047D01*
X78244286Y-45144047D02*
X78244286Y-45001190D01*
X78244286Y-45001190D02*
X78291905Y-44810714D01*
X78291905Y-44810714D02*
X78339524Y-44715476D01*
X78339524Y-44715476D02*
X78434762Y-44620238D01*
X78434762Y-44620238D02*
X78577619Y-44572619D01*
X78577619Y-44572619D02*
X78672857Y-44572619D01*
X78672857Y-44572619D02*
X78815714Y-44620238D01*
X78815714Y-44620238D02*
X78863333Y-44667857D01*
X79339524Y-45572619D02*
X79530000Y-45572619D01*
X79530000Y-45572619D02*
X79625238Y-45525000D01*
X79625238Y-45525000D02*
X79672857Y-45477380D01*
X79672857Y-45477380D02*
X79768095Y-45334523D01*
X79768095Y-45334523D02*
X79815714Y-45144047D01*
X79815714Y-45144047D02*
X79815714Y-44763095D01*
X79815714Y-44763095D02*
X79768095Y-44667857D01*
X79768095Y-44667857D02*
X79720476Y-44620238D01*
X79720476Y-44620238D02*
X79625238Y-44572619D01*
X79625238Y-44572619D02*
X79434762Y-44572619D01*
X79434762Y-44572619D02*
X79339524Y-44620238D01*
X79339524Y-44620238D02*
X79291905Y-44667857D01*
X79291905Y-44667857D02*
X79244286Y-44763095D01*
X79244286Y-44763095D02*
X79244286Y-45001190D01*
X79244286Y-45001190D02*
X79291905Y-45096428D01*
X79291905Y-45096428D02*
X79339524Y-45144047D01*
X79339524Y-45144047D02*
X79434762Y-45191666D01*
X79434762Y-45191666D02*
X79625238Y-45191666D01*
X79625238Y-45191666D02*
X79720476Y-45144047D01*
X79720476Y-45144047D02*
X79768095Y-45096428D01*
X79768095Y-45096428D02*
X79815714Y-45001190D01*
%TO.C,R17*%
X71807142Y-50312619D02*
X71473809Y-49836428D01*
X71235714Y-50312619D02*
X71235714Y-49312619D01*
X71235714Y-49312619D02*
X71616666Y-49312619D01*
X71616666Y-49312619D02*
X71711904Y-49360238D01*
X71711904Y-49360238D02*
X71759523Y-49407857D01*
X71759523Y-49407857D02*
X71807142Y-49503095D01*
X71807142Y-49503095D02*
X71807142Y-49645952D01*
X71807142Y-49645952D02*
X71759523Y-49741190D01*
X71759523Y-49741190D02*
X71711904Y-49788809D01*
X71711904Y-49788809D02*
X71616666Y-49836428D01*
X71616666Y-49836428D02*
X71235714Y-49836428D01*
X72759523Y-50312619D02*
X72188095Y-50312619D01*
X72473809Y-50312619D02*
X72473809Y-49312619D01*
X72473809Y-49312619D02*
X72378571Y-49455476D01*
X72378571Y-49455476D02*
X72283333Y-49550714D01*
X72283333Y-49550714D02*
X72188095Y-49598333D01*
X73092857Y-49312619D02*
X73759523Y-49312619D01*
X73759523Y-49312619D02*
X73330952Y-50312619D01*
%TO.C,C26*%
X65351142Y-50284780D02*
X65303523Y-50332400D01*
X65303523Y-50332400D02*
X65160666Y-50380019D01*
X65160666Y-50380019D02*
X65065428Y-50380019D01*
X65065428Y-50380019D02*
X64922571Y-50332400D01*
X64922571Y-50332400D02*
X64827333Y-50237161D01*
X64827333Y-50237161D02*
X64779714Y-50141923D01*
X64779714Y-50141923D02*
X64732095Y-49951447D01*
X64732095Y-49951447D02*
X64732095Y-49808590D01*
X64732095Y-49808590D02*
X64779714Y-49618114D01*
X64779714Y-49618114D02*
X64827333Y-49522876D01*
X64827333Y-49522876D02*
X64922571Y-49427638D01*
X64922571Y-49427638D02*
X65065428Y-49380019D01*
X65065428Y-49380019D02*
X65160666Y-49380019D01*
X65160666Y-49380019D02*
X65303523Y-49427638D01*
X65303523Y-49427638D02*
X65351142Y-49475257D01*
X65732095Y-49475257D02*
X65779714Y-49427638D01*
X65779714Y-49427638D02*
X65874952Y-49380019D01*
X65874952Y-49380019D02*
X66113047Y-49380019D01*
X66113047Y-49380019D02*
X66208285Y-49427638D01*
X66208285Y-49427638D02*
X66255904Y-49475257D01*
X66255904Y-49475257D02*
X66303523Y-49570495D01*
X66303523Y-49570495D02*
X66303523Y-49665733D01*
X66303523Y-49665733D02*
X66255904Y-49808590D01*
X66255904Y-49808590D02*
X65684476Y-50380019D01*
X65684476Y-50380019D02*
X66303523Y-50380019D01*
X67160666Y-49380019D02*
X66970190Y-49380019D01*
X66970190Y-49380019D02*
X66874952Y-49427638D01*
X66874952Y-49427638D02*
X66827333Y-49475257D01*
X66827333Y-49475257D02*
X66732095Y-49618114D01*
X66732095Y-49618114D02*
X66684476Y-49808590D01*
X66684476Y-49808590D02*
X66684476Y-50189542D01*
X66684476Y-50189542D02*
X66732095Y-50284780D01*
X66732095Y-50284780D02*
X66779714Y-50332400D01*
X66779714Y-50332400D02*
X66874952Y-50380019D01*
X66874952Y-50380019D02*
X67065428Y-50380019D01*
X67065428Y-50380019D02*
X67160666Y-50332400D01*
X67160666Y-50332400D02*
X67208285Y-50284780D01*
X67208285Y-50284780D02*
X67255904Y-50189542D01*
X67255904Y-50189542D02*
X67255904Y-49951447D01*
X67255904Y-49951447D02*
X67208285Y-49856209D01*
X67208285Y-49856209D02*
X67160666Y-49808590D01*
X67160666Y-49808590D02*
X67065428Y-49760971D01*
X67065428Y-49760971D02*
X66874952Y-49760971D01*
X66874952Y-49760971D02*
X66779714Y-49808590D01*
X66779714Y-49808590D02*
X66732095Y-49856209D01*
X66732095Y-49856209D02*
X66684476Y-49951447D01*
%TO.C,R7*%
X78903533Y-53472419D02*
X78570200Y-52996228D01*
X78332105Y-53472419D02*
X78332105Y-52472419D01*
X78332105Y-52472419D02*
X78713057Y-52472419D01*
X78713057Y-52472419D02*
X78808295Y-52520038D01*
X78808295Y-52520038D02*
X78855914Y-52567657D01*
X78855914Y-52567657D02*
X78903533Y-52662895D01*
X78903533Y-52662895D02*
X78903533Y-52805752D01*
X78903533Y-52805752D02*
X78855914Y-52900990D01*
X78855914Y-52900990D02*
X78808295Y-52948609D01*
X78808295Y-52948609D02*
X78713057Y-52996228D01*
X78713057Y-52996228D02*
X78332105Y-52996228D01*
X79236867Y-52472419D02*
X79903533Y-52472419D01*
X79903533Y-52472419D02*
X79474962Y-53472419D01*
%TO.C,C11*%
X97502742Y-64273780D02*
X97455123Y-64321400D01*
X97455123Y-64321400D02*
X97312266Y-64369019D01*
X97312266Y-64369019D02*
X97217028Y-64369019D01*
X97217028Y-64369019D02*
X97074171Y-64321400D01*
X97074171Y-64321400D02*
X96978933Y-64226161D01*
X96978933Y-64226161D02*
X96931314Y-64130923D01*
X96931314Y-64130923D02*
X96883695Y-63940447D01*
X96883695Y-63940447D02*
X96883695Y-63797590D01*
X96883695Y-63797590D02*
X96931314Y-63607114D01*
X96931314Y-63607114D02*
X96978933Y-63511876D01*
X96978933Y-63511876D02*
X97074171Y-63416638D01*
X97074171Y-63416638D02*
X97217028Y-63369019D01*
X97217028Y-63369019D02*
X97312266Y-63369019D01*
X97312266Y-63369019D02*
X97455123Y-63416638D01*
X97455123Y-63416638D02*
X97502742Y-63464257D01*
X98455123Y-64369019D02*
X97883695Y-64369019D01*
X98169409Y-64369019D02*
X98169409Y-63369019D01*
X98169409Y-63369019D02*
X98074171Y-63511876D01*
X98074171Y-63511876D02*
X97978933Y-63607114D01*
X97978933Y-63607114D02*
X97883695Y-63654733D01*
X99407504Y-64369019D02*
X98836076Y-64369019D01*
X99121790Y-64369019D02*
X99121790Y-63369019D01*
X99121790Y-63369019D02*
X99026552Y-63511876D01*
X99026552Y-63511876D02*
X98931314Y-63607114D01*
X98931314Y-63607114D02*
X98836076Y-63654733D01*
%TO.C,R21*%
X91857142Y-71142619D02*
X91523809Y-70666428D01*
X91285714Y-71142619D02*
X91285714Y-70142619D01*
X91285714Y-70142619D02*
X91666666Y-70142619D01*
X91666666Y-70142619D02*
X91761904Y-70190238D01*
X91761904Y-70190238D02*
X91809523Y-70237857D01*
X91809523Y-70237857D02*
X91857142Y-70333095D01*
X91857142Y-70333095D02*
X91857142Y-70475952D01*
X91857142Y-70475952D02*
X91809523Y-70571190D01*
X91809523Y-70571190D02*
X91761904Y-70618809D01*
X91761904Y-70618809D02*
X91666666Y-70666428D01*
X91666666Y-70666428D02*
X91285714Y-70666428D01*
X92238095Y-70237857D02*
X92285714Y-70190238D01*
X92285714Y-70190238D02*
X92380952Y-70142619D01*
X92380952Y-70142619D02*
X92619047Y-70142619D01*
X92619047Y-70142619D02*
X92714285Y-70190238D01*
X92714285Y-70190238D02*
X92761904Y-70237857D01*
X92761904Y-70237857D02*
X92809523Y-70333095D01*
X92809523Y-70333095D02*
X92809523Y-70428333D01*
X92809523Y-70428333D02*
X92761904Y-70571190D01*
X92761904Y-70571190D02*
X92190476Y-71142619D01*
X92190476Y-71142619D02*
X92809523Y-71142619D01*
X93761904Y-71142619D02*
X93190476Y-71142619D01*
X93476190Y-71142619D02*
X93476190Y-70142619D01*
X93476190Y-70142619D02*
X93380952Y-70285476D01*
X93380952Y-70285476D02*
X93285714Y-70380714D01*
X93285714Y-70380714D02*
X93190476Y-70428333D01*
%TO.C,C24*%
X60107142Y-67417380D02*
X60059523Y-67465000D01*
X60059523Y-67465000D02*
X59916666Y-67512619D01*
X59916666Y-67512619D02*
X59821428Y-67512619D01*
X59821428Y-67512619D02*
X59678571Y-67465000D01*
X59678571Y-67465000D02*
X59583333Y-67369761D01*
X59583333Y-67369761D02*
X59535714Y-67274523D01*
X59535714Y-67274523D02*
X59488095Y-67084047D01*
X59488095Y-67084047D02*
X59488095Y-66941190D01*
X59488095Y-66941190D02*
X59535714Y-66750714D01*
X59535714Y-66750714D02*
X59583333Y-66655476D01*
X59583333Y-66655476D02*
X59678571Y-66560238D01*
X59678571Y-66560238D02*
X59821428Y-66512619D01*
X59821428Y-66512619D02*
X59916666Y-66512619D01*
X59916666Y-66512619D02*
X60059523Y-66560238D01*
X60059523Y-66560238D02*
X60107142Y-66607857D01*
X60488095Y-66607857D02*
X60535714Y-66560238D01*
X60535714Y-66560238D02*
X60630952Y-66512619D01*
X60630952Y-66512619D02*
X60869047Y-66512619D01*
X60869047Y-66512619D02*
X60964285Y-66560238D01*
X60964285Y-66560238D02*
X61011904Y-66607857D01*
X61011904Y-66607857D02*
X61059523Y-66703095D01*
X61059523Y-66703095D02*
X61059523Y-66798333D01*
X61059523Y-66798333D02*
X61011904Y-66941190D01*
X61011904Y-66941190D02*
X60440476Y-67512619D01*
X60440476Y-67512619D02*
X61059523Y-67512619D01*
X61916666Y-66845952D02*
X61916666Y-67512619D01*
X61678571Y-66465000D02*
X61440476Y-67179285D01*
X61440476Y-67179285D02*
X62059523Y-67179285D01*
%TO.C,C2*%
X60107533Y-40194580D02*
X60059914Y-40242200D01*
X60059914Y-40242200D02*
X59917057Y-40289819D01*
X59917057Y-40289819D02*
X59821819Y-40289819D01*
X59821819Y-40289819D02*
X59678962Y-40242200D01*
X59678962Y-40242200D02*
X59583724Y-40146961D01*
X59583724Y-40146961D02*
X59536105Y-40051723D01*
X59536105Y-40051723D02*
X59488486Y-39861247D01*
X59488486Y-39861247D02*
X59488486Y-39718390D01*
X59488486Y-39718390D02*
X59536105Y-39527914D01*
X59536105Y-39527914D02*
X59583724Y-39432676D01*
X59583724Y-39432676D02*
X59678962Y-39337438D01*
X59678962Y-39337438D02*
X59821819Y-39289819D01*
X59821819Y-39289819D02*
X59917057Y-39289819D01*
X59917057Y-39289819D02*
X60059914Y-39337438D01*
X60059914Y-39337438D02*
X60107533Y-39385057D01*
X60488486Y-39385057D02*
X60536105Y-39337438D01*
X60536105Y-39337438D02*
X60631343Y-39289819D01*
X60631343Y-39289819D02*
X60869438Y-39289819D01*
X60869438Y-39289819D02*
X60964676Y-39337438D01*
X60964676Y-39337438D02*
X61012295Y-39385057D01*
X61012295Y-39385057D02*
X61059914Y-39480295D01*
X61059914Y-39480295D02*
X61059914Y-39575533D01*
X61059914Y-39575533D02*
X61012295Y-39718390D01*
X61012295Y-39718390D02*
X60440867Y-40289819D01*
X60440867Y-40289819D02*
X61059914Y-40289819D01*
%TO.C,R18*%
X60270742Y-48472619D02*
X59937409Y-47996428D01*
X59699314Y-48472619D02*
X59699314Y-47472619D01*
X59699314Y-47472619D02*
X60080266Y-47472619D01*
X60080266Y-47472619D02*
X60175504Y-47520238D01*
X60175504Y-47520238D02*
X60223123Y-47567857D01*
X60223123Y-47567857D02*
X60270742Y-47663095D01*
X60270742Y-47663095D02*
X60270742Y-47805952D01*
X60270742Y-47805952D02*
X60223123Y-47901190D01*
X60223123Y-47901190D02*
X60175504Y-47948809D01*
X60175504Y-47948809D02*
X60080266Y-47996428D01*
X60080266Y-47996428D02*
X59699314Y-47996428D01*
X61223123Y-48472619D02*
X60651695Y-48472619D01*
X60937409Y-48472619D02*
X60937409Y-47472619D01*
X60937409Y-47472619D02*
X60842171Y-47615476D01*
X60842171Y-47615476D02*
X60746933Y-47710714D01*
X60746933Y-47710714D02*
X60651695Y-47758333D01*
X61794552Y-47901190D02*
X61699314Y-47853571D01*
X61699314Y-47853571D02*
X61651695Y-47805952D01*
X61651695Y-47805952D02*
X61604076Y-47710714D01*
X61604076Y-47710714D02*
X61604076Y-47663095D01*
X61604076Y-47663095D02*
X61651695Y-47567857D01*
X61651695Y-47567857D02*
X61699314Y-47520238D01*
X61699314Y-47520238D02*
X61794552Y-47472619D01*
X61794552Y-47472619D02*
X61985028Y-47472619D01*
X61985028Y-47472619D02*
X62080266Y-47520238D01*
X62080266Y-47520238D02*
X62127885Y-47567857D01*
X62127885Y-47567857D02*
X62175504Y-47663095D01*
X62175504Y-47663095D02*
X62175504Y-47710714D01*
X62175504Y-47710714D02*
X62127885Y-47805952D01*
X62127885Y-47805952D02*
X62080266Y-47853571D01*
X62080266Y-47853571D02*
X61985028Y-47901190D01*
X61985028Y-47901190D02*
X61794552Y-47901190D01*
X61794552Y-47901190D02*
X61699314Y-47948809D01*
X61699314Y-47948809D02*
X61651695Y-47996428D01*
X61651695Y-47996428D02*
X61604076Y-48091666D01*
X61604076Y-48091666D02*
X61604076Y-48282142D01*
X61604076Y-48282142D02*
X61651695Y-48377380D01*
X61651695Y-48377380D02*
X61699314Y-48425000D01*
X61699314Y-48425000D02*
X61794552Y-48472619D01*
X61794552Y-48472619D02*
X61985028Y-48472619D01*
X61985028Y-48472619D02*
X62080266Y-48425000D01*
X62080266Y-48425000D02*
X62127885Y-48377380D01*
X62127885Y-48377380D02*
X62175504Y-48282142D01*
X62175504Y-48282142D02*
X62175504Y-48091666D01*
X62175504Y-48091666D02*
X62127885Y-47996428D01*
X62127885Y-47996428D02*
X62080266Y-47948809D01*
X62080266Y-47948809D02*
X61985028Y-47901190D01*
%TO.C,U8*%
X60498095Y-57252619D02*
X60498095Y-58062142D01*
X60498095Y-58062142D02*
X60545714Y-58157380D01*
X60545714Y-58157380D02*
X60593333Y-58205000D01*
X60593333Y-58205000D02*
X60688571Y-58252619D01*
X60688571Y-58252619D02*
X60879047Y-58252619D01*
X60879047Y-58252619D02*
X60974285Y-58205000D01*
X60974285Y-58205000D02*
X61021904Y-58157380D01*
X61021904Y-58157380D02*
X61069523Y-58062142D01*
X61069523Y-58062142D02*
X61069523Y-57252619D01*
X61688571Y-57681190D02*
X61593333Y-57633571D01*
X61593333Y-57633571D02*
X61545714Y-57585952D01*
X61545714Y-57585952D02*
X61498095Y-57490714D01*
X61498095Y-57490714D02*
X61498095Y-57443095D01*
X61498095Y-57443095D02*
X61545714Y-57347857D01*
X61545714Y-57347857D02*
X61593333Y-57300238D01*
X61593333Y-57300238D02*
X61688571Y-57252619D01*
X61688571Y-57252619D02*
X61879047Y-57252619D01*
X61879047Y-57252619D02*
X61974285Y-57300238D01*
X61974285Y-57300238D02*
X62021904Y-57347857D01*
X62021904Y-57347857D02*
X62069523Y-57443095D01*
X62069523Y-57443095D02*
X62069523Y-57490714D01*
X62069523Y-57490714D02*
X62021904Y-57585952D01*
X62021904Y-57585952D02*
X61974285Y-57633571D01*
X61974285Y-57633571D02*
X61879047Y-57681190D01*
X61879047Y-57681190D02*
X61688571Y-57681190D01*
X61688571Y-57681190D02*
X61593333Y-57728809D01*
X61593333Y-57728809D02*
X61545714Y-57776428D01*
X61545714Y-57776428D02*
X61498095Y-57871666D01*
X61498095Y-57871666D02*
X61498095Y-58062142D01*
X61498095Y-58062142D02*
X61545714Y-58157380D01*
X61545714Y-58157380D02*
X61593333Y-58205000D01*
X61593333Y-58205000D02*
X61688571Y-58252619D01*
X61688571Y-58252619D02*
X61879047Y-58252619D01*
X61879047Y-58252619D02*
X61974285Y-58205000D01*
X61974285Y-58205000D02*
X62021904Y-58157380D01*
X62021904Y-58157380D02*
X62069523Y-58062142D01*
X62069523Y-58062142D02*
X62069523Y-57871666D01*
X62069523Y-57871666D02*
X62021904Y-57776428D01*
X62021904Y-57776428D02*
X61974285Y-57728809D01*
X61974285Y-57728809D02*
X61879047Y-57681190D01*
%TO.C,R3*%
X78878133Y-48417819D02*
X78544800Y-47941628D01*
X78306705Y-48417819D02*
X78306705Y-47417819D01*
X78306705Y-47417819D02*
X78687657Y-47417819D01*
X78687657Y-47417819D02*
X78782895Y-47465438D01*
X78782895Y-47465438D02*
X78830514Y-47513057D01*
X78830514Y-47513057D02*
X78878133Y-47608295D01*
X78878133Y-47608295D02*
X78878133Y-47751152D01*
X78878133Y-47751152D02*
X78830514Y-47846390D01*
X78830514Y-47846390D02*
X78782895Y-47894009D01*
X78782895Y-47894009D02*
X78687657Y-47941628D01*
X78687657Y-47941628D02*
X78306705Y-47941628D01*
X79211467Y-47417819D02*
X79830514Y-47417819D01*
X79830514Y-47417819D02*
X79497181Y-47798771D01*
X79497181Y-47798771D02*
X79640038Y-47798771D01*
X79640038Y-47798771D02*
X79735276Y-47846390D01*
X79735276Y-47846390D02*
X79782895Y-47894009D01*
X79782895Y-47894009D02*
X79830514Y-47989247D01*
X79830514Y-47989247D02*
X79830514Y-48227342D01*
X79830514Y-48227342D02*
X79782895Y-48322580D01*
X79782895Y-48322580D02*
X79735276Y-48370200D01*
X79735276Y-48370200D02*
X79640038Y-48417819D01*
X79640038Y-48417819D02*
X79354324Y-48417819D01*
X79354324Y-48417819D02*
X79259086Y-48370200D01*
X79259086Y-48370200D02*
X79211467Y-48322580D01*
%TO.C,R1*%
X57408933Y-58383419D02*
X57075600Y-57907228D01*
X56837505Y-58383419D02*
X56837505Y-57383419D01*
X56837505Y-57383419D02*
X57218457Y-57383419D01*
X57218457Y-57383419D02*
X57313695Y-57431038D01*
X57313695Y-57431038D02*
X57361314Y-57478657D01*
X57361314Y-57478657D02*
X57408933Y-57573895D01*
X57408933Y-57573895D02*
X57408933Y-57716752D01*
X57408933Y-57716752D02*
X57361314Y-57811990D01*
X57361314Y-57811990D02*
X57313695Y-57859609D01*
X57313695Y-57859609D02*
X57218457Y-57907228D01*
X57218457Y-57907228D02*
X56837505Y-57907228D01*
X58361314Y-58383419D02*
X57789886Y-58383419D01*
X58075600Y-58383419D02*
X58075600Y-57383419D01*
X58075600Y-57383419D02*
X57980362Y-57526276D01*
X57980362Y-57526276D02*
X57885124Y-57621514D01*
X57885124Y-57621514D02*
X57789886Y-57669133D01*
%TO.C,R22*%
X91757142Y-66562619D02*
X91423809Y-66086428D01*
X91185714Y-66562619D02*
X91185714Y-65562619D01*
X91185714Y-65562619D02*
X91566666Y-65562619D01*
X91566666Y-65562619D02*
X91661904Y-65610238D01*
X91661904Y-65610238D02*
X91709523Y-65657857D01*
X91709523Y-65657857D02*
X91757142Y-65753095D01*
X91757142Y-65753095D02*
X91757142Y-65895952D01*
X91757142Y-65895952D02*
X91709523Y-65991190D01*
X91709523Y-65991190D02*
X91661904Y-66038809D01*
X91661904Y-66038809D02*
X91566666Y-66086428D01*
X91566666Y-66086428D02*
X91185714Y-66086428D01*
X92138095Y-65657857D02*
X92185714Y-65610238D01*
X92185714Y-65610238D02*
X92280952Y-65562619D01*
X92280952Y-65562619D02*
X92519047Y-65562619D01*
X92519047Y-65562619D02*
X92614285Y-65610238D01*
X92614285Y-65610238D02*
X92661904Y-65657857D01*
X92661904Y-65657857D02*
X92709523Y-65753095D01*
X92709523Y-65753095D02*
X92709523Y-65848333D01*
X92709523Y-65848333D02*
X92661904Y-65991190D01*
X92661904Y-65991190D02*
X92090476Y-66562619D01*
X92090476Y-66562619D02*
X92709523Y-66562619D01*
X93090476Y-65657857D02*
X93138095Y-65610238D01*
X93138095Y-65610238D02*
X93233333Y-65562619D01*
X93233333Y-65562619D02*
X93471428Y-65562619D01*
X93471428Y-65562619D02*
X93566666Y-65610238D01*
X93566666Y-65610238D02*
X93614285Y-65657857D01*
X93614285Y-65657857D02*
X93661904Y-65753095D01*
X93661904Y-65753095D02*
X93661904Y-65848333D01*
X93661904Y-65848333D02*
X93614285Y-65991190D01*
X93614285Y-65991190D02*
X93042857Y-66562619D01*
X93042857Y-66562619D02*
X93661904Y-66562619D01*
%TO.C,Q2*%
X104796561Y-43054357D02*
X104701323Y-43006738D01*
X104701323Y-43006738D02*
X104606085Y-42911500D01*
X104606085Y-42911500D02*
X104463228Y-42768642D01*
X104463228Y-42768642D02*
X104367990Y-42721023D01*
X104367990Y-42721023D02*
X104272752Y-42721023D01*
X104320371Y-42959119D02*
X104225133Y-42911500D01*
X104225133Y-42911500D02*
X104129895Y-42816261D01*
X104129895Y-42816261D02*
X104082276Y-42625785D01*
X104082276Y-42625785D02*
X104082276Y-42292452D01*
X104082276Y-42292452D02*
X104129895Y-42101976D01*
X104129895Y-42101976D02*
X104225133Y-42006738D01*
X104225133Y-42006738D02*
X104320371Y-41959119D01*
X104320371Y-41959119D02*
X104510847Y-41959119D01*
X104510847Y-41959119D02*
X104606085Y-42006738D01*
X104606085Y-42006738D02*
X104701323Y-42101976D01*
X104701323Y-42101976D02*
X104748942Y-42292452D01*
X104748942Y-42292452D02*
X104748942Y-42625785D01*
X104748942Y-42625785D02*
X104701323Y-42816261D01*
X104701323Y-42816261D02*
X104606085Y-42911500D01*
X104606085Y-42911500D02*
X104510847Y-42959119D01*
X104510847Y-42959119D02*
X104320371Y-42959119D01*
X105129895Y-42054357D02*
X105177514Y-42006738D01*
X105177514Y-42006738D02*
X105272752Y-41959119D01*
X105272752Y-41959119D02*
X105510847Y-41959119D01*
X105510847Y-41959119D02*
X105606085Y-42006738D01*
X105606085Y-42006738D02*
X105653704Y-42054357D01*
X105653704Y-42054357D02*
X105701323Y-42149595D01*
X105701323Y-42149595D02*
X105701323Y-42244833D01*
X105701323Y-42244833D02*
X105653704Y-42387690D01*
X105653704Y-42387690D02*
X105082276Y-42959119D01*
X105082276Y-42959119D02*
X105701323Y-42959119D01*
%TO.C,C7*%
X104049533Y-48398780D02*
X104001914Y-48446400D01*
X104001914Y-48446400D02*
X103859057Y-48494019D01*
X103859057Y-48494019D02*
X103763819Y-48494019D01*
X103763819Y-48494019D02*
X103620962Y-48446400D01*
X103620962Y-48446400D02*
X103525724Y-48351161D01*
X103525724Y-48351161D02*
X103478105Y-48255923D01*
X103478105Y-48255923D02*
X103430486Y-48065447D01*
X103430486Y-48065447D02*
X103430486Y-47922590D01*
X103430486Y-47922590D02*
X103478105Y-47732114D01*
X103478105Y-47732114D02*
X103525724Y-47636876D01*
X103525724Y-47636876D02*
X103620962Y-47541638D01*
X103620962Y-47541638D02*
X103763819Y-47494019D01*
X103763819Y-47494019D02*
X103859057Y-47494019D01*
X103859057Y-47494019D02*
X104001914Y-47541638D01*
X104001914Y-47541638D02*
X104049533Y-47589257D01*
X104382867Y-47494019D02*
X105049533Y-47494019D01*
X105049533Y-47494019D02*
X104620962Y-48494019D01*
D14*
%TO.C,J4*%
X48846666Y-40562619D02*
X48846666Y-41276904D01*
X48846666Y-41276904D02*
X48799047Y-41419761D01*
X48799047Y-41419761D02*
X48703809Y-41515000D01*
X48703809Y-41515000D02*
X48560952Y-41562619D01*
X48560952Y-41562619D02*
X48465714Y-41562619D01*
X49751428Y-40895952D02*
X49751428Y-41562619D01*
X49513333Y-40515000D02*
X49275238Y-41229285D01*
X49275238Y-41229285D02*
X49894285Y-41229285D01*
%TO.C,J1*%
X69036666Y-64112619D02*
X69036666Y-64826904D01*
X69036666Y-64826904D02*
X68989047Y-64969761D01*
X68989047Y-64969761D02*
X68893809Y-65065000D01*
X68893809Y-65065000D02*
X68750952Y-65112619D01*
X68750952Y-65112619D02*
X68655714Y-65112619D01*
X70036666Y-65112619D02*
X69465238Y-65112619D01*
X69750952Y-65112619D02*
X69750952Y-64112619D01*
X69750952Y-64112619D02*
X69655714Y-64255476D01*
X69655714Y-64255476D02*
X69560476Y-64350714D01*
X69560476Y-64350714D02*
X69465238Y-64398333D01*
D11*
%TO.C,C5*%
X105333333Y-53667380D02*
X105285714Y-53715000D01*
X105285714Y-53715000D02*
X105142857Y-53762619D01*
X105142857Y-53762619D02*
X105047619Y-53762619D01*
X105047619Y-53762619D02*
X104904762Y-53715000D01*
X104904762Y-53715000D02*
X104809524Y-53619761D01*
X104809524Y-53619761D02*
X104761905Y-53524523D01*
X104761905Y-53524523D02*
X104714286Y-53334047D01*
X104714286Y-53334047D02*
X104714286Y-53191190D01*
X104714286Y-53191190D02*
X104761905Y-53000714D01*
X104761905Y-53000714D02*
X104809524Y-52905476D01*
X104809524Y-52905476D02*
X104904762Y-52810238D01*
X104904762Y-52810238D02*
X105047619Y-52762619D01*
X105047619Y-52762619D02*
X105142857Y-52762619D01*
X105142857Y-52762619D02*
X105285714Y-52810238D01*
X105285714Y-52810238D02*
X105333333Y-52857857D01*
X106238095Y-52762619D02*
X105761905Y-52762619D01*
X105761905Y-52762619D02*
X105714286Y-53238809D01*
X105714286Y-53238809D02*
X105761905Y-53191190D01*
X105761905Y-53191190D02*
X105857143Y-53143571D01*
X105857143Y-53143571D02*
X106095238Y-53143571D01*
X106095238Y-53143571D02*
X106190476Y-53191190D01*
X106190476Y-53191190D02*
X106238095Y-53238809D01*
X106238095Y-53238809D02*
X106285714Y-53334047D01*
X106285714Y-53334047D02*
X106285714Y-53572142D01*
X106285714Y-53572142D02*
X106238095Y-53667380D01*
X106238095Y-53667380D02*
X106190476Y-53715000D01*
X106190476Y-53715000D02*
X106095238Y-53762619D01*
X106095238Y-53762619D02*
X105857143Y-53762619D01*
X105857143Y-53762619D02*
X105761905Y-53715000D01*
X105761905Y-53715000D02*
X105714286Y-53667380D01*
%TO.C,U11*%
X84211905Y-62912619D02*
X84211905Y-63722142D01*
X84211905Y-63722142D02*
X84259524Y-63817380D01*
X84259524Y-63817380D02*
X84307143Y-63865000D01*
X84307143Y-63865000D02*
X84402381Y-63912619D01*
X84402381Y-63912619D02*
X84592857Y-63912619D01*
X84592857Y-63912619D02*
X84688095Y-63865000D01*
X84688095Y-63865000D02*
X84735714Y-63817380D01*
X84735714Y-63817380D02*
X84783333Y-63722142D01*
X84783333Y-63722142D02*
X84783333Y-62912619D01*
X85783333Y-63912619D02*
X85211905Y-63912619D01*
X85497619Y-63912619D02*
X85497619Y-62912619D01*
X85497619Y-62912619D02*
X85402381Y-63055476D01*
X85402381Y-63055476D02*
X85307143Y-63150714D01*
X85307143Y-63150714D02*
X85211905Y-63198333D01*
X86735714Y-63912619D02*
X86164286Y-63912619D01*
X86450000Y-63912619D02*
X86450000Y-62912619D01*
X86450000Y-62912619D02*
X86354762Y-63055476D01*
X86354762Y-63055476D02*
X86259524Y-63150714D01*
X86259524Y-63150714D02*
X86164286Y-63198333D01*
%TO.C,C18*%
X60698142Y-53402580D02*
X60650523Y-53450200D01*
X60650523Y-53450200D02*
X60507666Y-53497819D01*
X60507666Y-53497819D02*
X60412428Y-53497819D01*
X60412428Y-53497819D02*
X60269571Y-53450200D01*
X60269571Y-53450200D02*
X60174333Y-53354961D01*
X60174333Y-53354961D02*
X60126714Y-53259723D01*
X60126714Y-53259723D02*
X60079095Y-53069247D01*
X60079095Y-53069247D02*
X60079095Y-52926390D01*
X60079095Y-52926390D02*
X60126714Y-52735914D01*
X60126714Y-52735914D02*
X60174333Y-52640676D01*
X60174333Y-52640676D02*
X60269571Y-52545438D01*
X60269571Y-52545438D02*
X60412428Y-52497819D01*
X60412428Y-52497819D02*
X60507666Y-52497819D01*
X60507666Y-52497819D02*
X60650523Y-52545438D01*
X60650523Y-52545438D02*
X60698142Y-52593057D01*
X61650523Y-53497819D02*
X61079095Y-53497819D01*
X61364809Y-53497819D02*
X61364809Y-52497819D01*
X61364809Y-52497819D02*
X61269571Y-52640676D01*
X61269571Y-52640676D02*
X61174333Y-52735914D01*
X61174333Y-52735914D02*
X61079095Y-52783533D01*
X62221952Y-52926390D02*
X62126714Y-52878771D01*
X62126714Y-52878771D02*
X62079095Y-52831152D01*
X62079095Y-52831152D02*
X62031476Y-52735914D01*
X62031476Y-52735914D02*
X62031476Y-52688295D01*
X62031476Y-52688295D02*
X62079095Y-52593057D01*
X62079095Y-52593057D02*
X62126714Y-52545438D01*
X62126714Y-52545438D02*
X62221952Y-52497819D01*
X62221952Y-52497819D02*
X62412428Y-52497819D01*
X62412428Y-52497819D02*
X62507666Y-52545438D01*
X62507666Y-52545438D02*
X62555285Y-52593057D01*
X62555285Y-52593057D02*
X62602904Y-52688295D01*
X62602904Y-52688295D02*
X62602904Y-52735914D01*
X62602904Y-52735914D02*
X62555285Y-52831152D01*
X62555285Y-52831152D02*
X62507666Y-52878771D01*
X62507666Y-52878771D02*
X62412428Y-52926390D01*
X62412428Y-52926390D02*
X62221952Y-52926390D01*
X62221952Y-52926390D02*
X62126714Y-52974009D01*
X62126714Y-52974009D02*
X62079095Y-53021628D01*
X62079095Y-53021628D02*
X62031476Y-53116866D01*
X62031476Y-53116866D02*
X62031476Y-53307342D01*
X62031476Y-53307342D02*
X62079095Y-53402580D01*
X62079095Y-53402580D02*
X62126714Y-53450200D01*
X62126714Y-53450200D02*
X62221952Y-53497819D01*
X62221952Y-53497819D02*
X62412428Y-53497819D01*
X62412428Y-53497819D02*
X62507666Y-53450200D01*
X62507666Y-53450200D02*
X62555285Y-53402580D01*
X62555285Y-53402580D02*
X62602904Y-53307342D01*
X62602904Y-53307342D02*
X62602904Y-53116866D01*
X62602904Y-53116866D02*
X62555285Y-53021628D01*
X62555285Y-53021628D02*
X62507666Y-52974009D01*
X62507666Y-52974009D02*
X62412428Y-52926390D01*
%TO.C,R25*%
X66462619Y-57742857D02*
X65986428Y-58076190D01*
X66462619Y-58314285D02*
X65462619Y-58314285D01*
X65462619Y-58314285D02*
X65462619Y-57933333D01*
X65462619Y-57933333D02*
X65510238Y-57838095D01*
X65510238Y-57838095D02*
X65557857Y-57790476D01*
X65557857Y-57790476D02*
X65653095Y-57742857D01*
X65653095Y-57742857D02*
X65795952Y-57742857D01*
X65795952Y-57742857D02*
X65891190Y-57790476D01*
X65891190Y-57790476D02*
X65938809Y-57838095D01*
X65938809Y-57838095D02*
X65986428Y-57933333D01*
X65986428Y-57933333D02*
X65986428Y-58314285D01*
X65557857Y-57361904D02*
X65510238Y-57314285D01*
X65510238Y-57314285D02*
X65462619Y-57219047D01*
X65462619Y-57219047D02*
X65462619Y-56980952D01*
X65462619Y-56980952D02*
X65510238Y-56885714D01*
X65510238Y-56885714D02*
X65557857Y-56838095D01*
X65557857Y-56838095D02*
X65653095Y-56790476D01*
X65653095Y-56790476D02*
X65748333Y-56790476D01*
X65748333Y-56790476D02*
X65891190Y-56838095D01*
X65891190Y-56838095D02*
X66462619Y-57409523D01*
X66462619Y-57409523D02*
X66462619Y-56790476D01*
X65462619Y-55885714D02*
X65462619Y-56361904D01*
X65462619Y-56361904D02*
X65938809Y-56409523D01*
X65938809Y-56409523D02*
X65891190Y-56361904D01*
X65891190Y-56361904D02*
X65843571Y-56266666D01*
X65843571Y-56266666D02*
X65843571Y-56028571D01*
X65843571Y-56028571D02*
X65891190Y-55933333D01*
X65891190Y-55933333D02*
X65938809Y-55885714D01*
X65938809Y-55885714D02*
X66034047Y-55838095D01*
X66034047Y-55838095D02*
X66272142Y-55838095D01*
X66272142Y-55838095D02*
X66367380Y-55885714D01*
X66367380Y-55885714D02*
X66415000Y-55933333D01*
X66415000Y-55933333D02*
X66462619Y-56028571D01*
X66462619Y-56028571D02*
X66462619Y-56266666D01*
X66462619Y-56266666D02*
X66415000Y-56361904D01*
X66415000Y-56361904D02*
X66367380Y-56409523D01*
%TO.C,U4*%
X91897295Y-46427219D02*
X91897295Y-47236742D01*
X91897295Y-47236742D02*
X91944914Y-47331980D01*
X91944914Y-47331980D02*
X91992533Y-47379600D01*
X91992533Y-47379600D02*
X92087771Y-47427219D01*
X92087771Y-47427219D02*
X92278247Y-47427219D01*
X92278247Y-47427219D02*
X92373485Y-47379600D01*
X92373485Y-47379600D02*
X92421104Y-47331980D01*
X92421104Y-47331980D02*
X92468723Y-47236742D01*
X92468723Y-47236742D02*
X92468723Y-46427219D01*
X93373485Y-46760552D02*
X93373485Y-47427219D01*
X93135390Y-46379600D02*
X92897295Y-47093885D01*
X92897295Y-47093885D02*
X93516342Y-47093885D01*
D10*
%TO.C,IC1*%
X72695800Y-49010800D02*
X71170800Y-49010800D01*
D15*
%TO.C,D9*%
X50985000Y-57575000D02*
X48525000Y-57575000D01*
X48525000Y-59045000D02*
X50985000Y-59045000D01*
X48525000Y-57575000D02*
X48525000Y-59045000D01*
%TO.C,D8*%
X51015000Y-54755000D02*
X48555000Y-54755000D01*
X48555000Y-56225000D02*
X51015000Y-56225000D01*
X48555000Y-54755000D02*
X48555000Y-56225000D01*
%TO.C,D7*%
X48435000Y-48625000D02*
X48435000Y-50095000D01*
X48435000Y-50095000D02*
X50895000Y-50095000D01*
X50895000Y-48625000D02*
X48435000Y-48625000D01*
%TO.C,D6*%
X48445000Y-46815000D02*
X48445000Y-48285000D01*
X48445000Y-48285000D02*
X50905000Y-48285000D01*
X50905000Y-46815000D02*
X48445000Y-46815000D01*
%TO.C,D2*%
X51025000Y-51985000D02*
X48565000Y-51985000D01*
X48565000Y-53455000D02*
X51025000Y-53455000D01*
X48565000Y-51985000D02*
X48565000Y-53455000D01*
%TO.C,L1*%
X76527000Y-68654200D02*
X76527000Y-67054200D01*
X83747000Y-68654200D02*
X83747000Y-67054200D01*
%TO.C,R19*%
X55312224Y-59902500D02*
X54802776Y-59902500D01*
X55312224Y-58857500D02*
X54802776Y-58857500D01*
%TO.C,C20*%
X63581233Y-67930000D02*
X63873767Y-67930000D01*
X63581233Y-68950000D02*
X63873767Y-68950000D01*
%TO.C,U10*%
X71536100Y-61018000D02*
X72336100Y-61018000D01*
X71536100Y-61018000D02*
X70736100Y-61018000D01*
X71536100Y-57898000D02*
X72336100Y-57898000D01*
X71536100Y-57898000D02*
X69736100Y-57898000D01*
%TO.C,R27*%
X63957500Y-54287224D02*
X63957500Y-53777776D01*
X65002500Y-54287224D02*
X65002500Y-53777776D01*
%TO.C,Q1*%
X108335600Y-45036500D02*
X108335600Y-46711500D01*
X108335600Y-45036500D02*
X108335600Y-44386500D01*
X111455600Y-45036500D02*
X111455600Y-45686500D01*
X111455600Y-45036500D02*
X111455600Y-44386500D01*
%TO.C,C4*%
X102242233Y-66139600D02*
X102534767Y-66139600D01*
X102242233Y-67159600D02*
X102534767Y-67159600D01*
%TO.C,R20*%
X84172976Y-73420500D02*
X84682424Y-73420500D01*
X84172976Y-72375500D02*
X84682424Y-72375500D01*
%TO.C,C25*%
X66800000Y-67576233D02*
X66800000Y-67868767D01*
X65780000Y-67576233D02*
X65780000Y-67868767D01*
D11*
%TO.C,U12*%
X64830000Y-74040000D02*
X64830000Y-73515000D01*
X64830000Y-74040000D02*
X64305000Y-74040000D01*
X64830000Y-69740000D02*
X64830000Y-70265000D01*
X64830000Y-69740000D02*
X64305000Y-69740000D01*
X60530000Y-74040000D02*
X61055000Y-74040000D01*
X60530000Y-74040000D02*
X60530000Y-73515000D01*
X60530000Y-69740000D02*
X61055000Y-69740000D01*
D15*
%TO.C,SW1*%
X48925200Y-70210000D02*
X48925200Y-66070000D01*
X49225200Y-70210000D02*
X48925200Y-70210000D01*
X52065200Y-70210000D02*
X51765200Y-70210000D01*
X48925200Y-66070000D02*
X49225200Y-66070000D01*
X51765200Y-66070000D02*
X52065200Y-66070000D01*
X52065200Y-66070000D02*
X52065200Y-70210000D01*
%TO.C,U2*%
X105167000Y-58686600D02*
X105167000Y-57086600D01*
X103367000Y-57086600D02*
X103367000Y-58986600D01*
%TO.C,R8*%
X101267176Y-64526900D02*
X101776624Y-64526900D01*
X101267176Y-65571900D02*
X101776624Y-65571900D01*
%TO.C,C21*%
X79488848Y-72419800D02*
X80911352Y-72419800D01*
X79488848Y-74239800D02*
X80911352Y-74239800D01*
%TO.C,C19*%
X75060000Y-45073848D02*
X75060000Y-45596352D01*
X73590000Y-45073848D02*
X73590000Y-45596352D01*
%TO.C,SW2*%
X48925200Y-64562200D02*
X48925200Y-60422200D01*
X49225200Y-64562200D02*
X48925200Y-64562200D01*
X52065200Y-64562200D02*
X51765200Y-64562200D01*
X48925200Y-60422200D02*
X49225200Y-60422200D01*
X51765200Y-60422200D02*
X52065200Y-60422200D01*
X52065200Y-60422200D02*
X52065200Y-64562200D01*
D14*
%TO.C,U5*%
X54815000Y-70272500D02*
X54815000Y-70422500D01*
X54815000Y-70272500D02*
X54965000Y-70272500D01*
X54815000Y-72972500D02*
X54815000Y-72822500D01*
X54965000Y-72972500D02*
X54815000Y-72972500D01*
X57515000Y-70262500D02*
X57365000Y-70262500D01*
X57515000Y-70272500D02*
X57515000Y-70422500D01*
X57515000Y-72822500D02*
X57515000Y-73072500D01*
D15*
%TO.C,C13*%
X55966833Y-66988700D02*
X56259367Y-66988700D01*
X55966833Y-68008700D02*
X56259367Y-68008700D01*
%TO.C,R26*%
X54132776Y-41427500D02*
X54642224Y-41427500D01*
X54132776Y-42472500D02*
X54642224Y-42472500D01*
%TO.C,D5*%
X77982500Y-61390000D02*
X77982500Y-63390000D01*
X77982500Y-61390000D02*
X81992500Y-61390000D01*
X77982500Y-63390000D02*
X81992500Y-63390000D01*
%TO.C,P1*%
X114427400Y-57091200D02*
X114427400Y-66251200D01*
X112722400Y-57091200D02*
X114427400Y-57091200D01*
X110712400Y-57091200D02*
X108792400Y-57091200D01*
X114427400Y-66251200D02*
X112722400Y-66251200D01*
X108792400Y-66251200D02*
X110712400Y-66251200D01*
%TO.C,R6*%
X81841424Y-49900100D02*
X81331976Y-49900100D01*
X81841424Y-48855100D02*
X81331976Y-48855100D01*
%TO.C,D1*%
X71082800Y-52794200D02*
X69082800Y-52794200D01*
X71082800Y-52794200D02*
X71082800Y-56804200D01*
X69082800Y-52794200D02*
X69082800Y-56804200D01*
%TO.C,C6*%
X110726233Y-54330000D02*
X111018767Y-54330000D01*
X110726233Y-55350000D02*
X111018767Y-55350000D01*
%TO.C,U3*%
X107284200Y-53343200D02*
X107284200Y-52618200D01*
X108009200Y-48123200D02*
X107284200Y-48123200D01*
X108009200Y-53343200D02*
X107284200Y-53343200D01*
X111779200Y-48123200D02*
X112504200Y-48123200D01*
X111779200Y-53343200D02*
X112504200Y-53343200D01*
X112504200Y-48123200D02*
X112504200Y-48848200D01*
X112504200Y-53343200D02*
X112504200Y-52618200D01*
%TO.C,R9*%
X81866824Y-55030900D02*
X81357376Y-55030900D01*
X81866824Y-53985900D02*
X81357376Y-53985900D01*
%TO.C,J3*%
X61120000Y-60700000D02*
X64865000Y-60700000D01*
X61120000Y-61246529D02*
X61120000Y-60700000D01*
X64865000Y-61502470D02*
X64865000Y-60700000D01*
X64865000Y-62920000D02*
X64865000Y-62117530D01*
X61120000Y-62920000D02*
X61120000Y-62373471D01*
X61120000Y-62920000D02*
X64865000Y-62920000D01*
X60360000Y-62920000D02*
X59600000Y-62920000D01*
X59600000Y-62920000D02*
X59600000Y-61810000D01*
%TO.C,R23*%
X55317224Y-61542500D02*
X54807776Y-61542500D01*
X55317224Y-60497500D02*
X54807776Y-60497500D01*
%TO.C,C22*%
X81495000Y-59111252D02*
X81495000Y-58588748D01*
X82965000Y-59111252D02*
X82965000Y-58588748D01*
%TO.C,C23*%
X79475000Y-59111252D02*
X79475000Y-58588748D01*
X80945000Y-59111252D02*
X80945000Y-58588748D01*
D14*
%TO.C,AE1*%
X-6122200Y-36759400D02*
X29877800Y-36759400D01*
X-6122200Y-72759400D02*
X-6122200Y-36759400D01*
X-5122200Y-37759400D02*
X28877800Y-37759400D01*
X-5122200Y-71759400D02*
X-5122200Y-37759400D01*
X28877800Y-37759400D02*
X28877800Y-71759400D01*
X28877800Y-71759400D02*
X-5122200Y-71759400D01*
X29877800Y-36759400D02*
X29877800Y-72759400D01*
X29877800Y-49759400D02*
X30877800Y-49759400D01*
X29877800Y-53759400D02*
X32877800Y-53759400D01*
X29877800Y-54759400D02*
X30877800Y-54759400D01*
X29877800Y-72759400D02*
X-6122200Y-72759400D01*
X30877800Y-49759400D02*
X29877800Y-49759400D01*
X30877800Y-49759400D02*
X30877800Y-54759400D01*
X30877800Y-54759400D02*
X30877800Y-49759400D01*
X30877800Y-54759400D02*
X30877800Y-59759400D01*
X30877800Y-59759400D02*
X29877800Y-59759400D01*
X32877800Y-53759400D02*
X32877800Y-55759400D01*
X32877800Y-55759400D02*
X29877800Y-55759400D01*
D15*
%TO.C,Q4*%
X74960000Y-55762500D02*
X74960000Y-54087500D01*
X74960000Y-55762500D02*
X74960000Y-56412500D01*
X71840000Y-55762500D02*
X71840000Y-55112500D01*
X71840000Y-55762500D02*
X71840000Y-56412500D01*
%TO.C,R11*%
X95502500Y-65767776D02*
X95502500Y-66277224D01*
X94457500Y-65767776D02*
X94457500Y-66277224D01*
%TO.C,R16*%
X66742776Y-39377500D02*
X67252224Y-39377500D01*
X66742776Y-40422500D02*
X67252224Y-40422500D01*
%TO.C,C3*%
X95911000Y-74615600D02*
X100431000Y-74615600D01*
X100431000Y-74615600D02*
X100431000Y-66555600D01*
X95911000Y-66555600D02*
X95911000Y-74615600D01*
%TO.C,C12*%
X55966833Y-68588700D02*
X56259367Y-68588700D01*
X55966833Y-69608700D02*
X56259367Y-69608700D01*
%TO.C,Q8*%
X52796000Y-39291500D02*
X52796000Y-40966500D01*
X52796000Y-39291500D02*
X52796000Y-38641500D01*
X55916000Y-39291500D02*
X55916000Y-39941500D01*
X55916000Y-39291500D02*
X55916000Y-38641500D01*
%TO.C,C14*%
X56270600Y-42545600D02*
X56270600Y-47065600D01*
X56270600Y-47065600D02*
X64330600Y-47065600D01*
X64330600Y-42545600D02*
X56270600Y-42545600D01*
%TO.C,R13*%
X66742776Y-38898500D02*
X67252224Y-38898500D01*
X66742776Y-37853500D02*
X67252224Y-37853500D01*
%TO.C,C8*%
X81757567Y-51411600D02*
X81465033Y-51411600D01*
X81757567Y-50391600D02*
X81465033Y-50391600D01*
%TO.C,C15*%
X73623752Y-53485000D02*
X73101248Y-53485000D01*
X73623752Y-52015000D02*
X73101248Y-52015000D01*
D14*
%TO.C,J2*%
X75960000Y-61230000D02*
X71660000Y-61230000D01*
X75960000Y-65230000D02*
X75960000Y-61230000D01*
X71660000Y-65230000D02*
X71660000Y-61230000D01*
X71660000Y-65230000D02*
X75910000Y-65230000D01*
D15*
%TO.C,R5*%
X111872500Y-45544824D02*
X111872500Y-45035376D01*
X112917500Y-45544824D02*
X112917500Y-45035376D01*
%TO.C,R2*%
X107297776Y-54337500D02*
X107807224Y-54337500D01*
X107297776Y-55382500D02*
X107807224Y-55382500D01*
%TO.C,U9*%
X57313000Y-52206800D02*
X59113000Y-52206800D01*
X59113000Y-48986800D02*
X56163000Y-48986800D01*
%TO.C,C10*%
X82090800Y-45001567D02*
X82090800Y-44709033D01*
X83110800Y-45001567D02*
X83110800Y-44709033D01*
%TO.C,R4*%
X107939100Y-45031576D02*
X107939100Y-45541024D01*
X106894100Y-45031576D02*
X106894100Y-45541024D01*
%TO.C,C17*%
X67270352Y-41886200D02*
X66747848Y-41886200D01*
X67270352Y-43356200D02*
X66747848Y-43356200D01*
%TO.C,R14*%
X63489100Y-50443676D02*
X63489100Y-50953124D01*
X62444100Y-50443676D02*
X62444100Y-50953124D01*
%TO.C,U1*%
X100903600Y-67710000D02*
X106913600Y-67710000D01*
X103153600Y-74530000D02*
X106913600Y-74530000D01*
X106913600Y-67710000D02*
X106913600Y-68970000D01*
X106913600Y-74530000D02*
X106913600Y-73270000D01*
%TO.C,Q3*%
X93779100Y-67893800D02*
X93129100Y-67893800D01*
X93779100Y-67893800D02*
X94429100Y-67893800D01*
X93779100Y-71013800D02*
X93129100Y-71013800D01*
X93779100Y-71013800D02*
X95454100Y-71013800D01*
%TO.C,R15*%
X74897900Y-59191176D02*
X74897900Y-59700624D01*
X73852900Y-59191176D02*
X73852900Y-59700624D01*
%TO.C,C9*%
X81557800Y-45342352D02*
X81557800Y-44819848D01*
X80087800Y-45342352D02*
X80087800Y-44819848D01*
%TO.C,R17*%
X74027500Y-49198624D02*
X74027500Y-48689176D01*
X75072500Y-49198624D02*
X75072500Y-48689176D01*
%TO.C,C26*%
X65711248Y-50515000D02*
X66233752Y-50515000D01*
X65711248Y-51985000D02*
X66233752Y-51985000D01*
%TO.C,R7*%
X81866824Y-52411100D02*
X81357376Y-52411100D01*
X81866824Y-53456100D02*
X81357376Y-53456100D01*
%TO.C,C11*%
X98025833Y-64539400D02*
X98318367Y-64539400D01*
X98025833Y-65559400D02*
X98318367Y-65559400D01*
%TO.C,R21*%
X91022700Y-69343176D02*
X91022700Y-69852624D01*
X89977700Y-69343176D02*
X89977700Y-69852624D01*
%TO.C,C24*%
X63591233Y-67430000D02*
X63883767Y-67430000D01*
X63591233Y-66410000D02*
X63883767Y-66410000D01*
%TO.C,C2*%
X56309700Y-37694200D02*
X56309700Y-42214200D01*
X56309700Y-42214200D02*
X64369700Y-42214200D01*
X64369700Y-37694200D02*
X56309700Y-37694200D01*
%TO.C,R18*%
X58122224Y-48532500D02*
X57612776Y-48532500D01*
X58122224Y-47487500D02*
X57612776Y-47487500D01*
%TO.C,U8*%
X59690000Y-56982000D02*
X63290000Y-56982000D01*
X59690000Y-56982000D02*
X57490000Y-56982000D01*
X59690000Y-53762000D02*
X61890000Y-53762000D01*
X59690000Y-53762000D02*
X57490000Y-53762000D01*
%TO.C,R3*%
X81841424Y-48376100D02*
X81331976Y-48376100D01*
X81841424Y-47331100D02*
X81331976Y-47331100D01*
%TO.C,R1*%
X55292224Y-58392500D02*
X54782776Y-58392500D01*
X55292224Y-57347500D02*
X54782776Y-57347500D01*
%TO.C,R22*%
X91012500Y-65782776D02*
X91012500Y-66292224D01*
X89967500Y-65782776D02*
X89967500Y-66292224D01*
%TO.C,Q2*%
X103382600Y-45011100D02*
X103382600Y-46686100D01*
X103382600Y-45011100D02*
X103382600Y-44361100D01*
X106502600Y-45011100D02*
X106502600Y-45661100D01*
X106502600Y-45011100D02*
X106502600Y-44361100D01*
%TO.C,C7*%
X104976600Y-50777952D02*
X104976600Y-50255448D01*
X103506600Y-50777952D02*
X103506600Y-50255448D01*
D14*
%TO.C,J4*%
X48440000Y-41660000D02*
X48440000Y-45960000D01*
X52440000Y-41660000D02*
X48440000Y-41660000D01*
X52440000Y-45960000D02*
X48440000Y-45960000D01*
X52440000Y-45960000D02*
X52440000Y-41710000D01*
%TO.C,J1*%
X71520000Y-61230000D02*
X67220000Y-61230000D01*
X71520000Y-65230000D02*
X71520000Y-61230000D01*
X67220000Y-65230000D02*
X67220000Y-61230000D01*
X67220000Y-65230000D02*
X71470000Y-65230000D01*
D15*
%TO.C,C5*%
X103452200Y-53980033D02*
X103452200Y-54272567D01*
X104472200Y-53980033D02*
X104472200Y-54272567D01*
%TO.C,U11*%
X84409600Y-67564000D02*
X84409600Y-71014000D01*
X84409600Y-67564000D02*
X84409600Y-65614000D01*
X89529600Y-67564000D02*
X89529600Y-69514000D01*
X89529600Y-67564000D02*
X89529600Y-65614000D01*
%TO.C,C18*%
X60932600Y-50844667D02*
X60932600Y-50552133D01*
X61952600Y-50844667D02*
X61952600Y-50552133D01*
%TO.C,R25*%
X66522500Y-53757776D02*
X66522500Y-54267224D01*
X65477500Y-53757776D02*
X65477500Y-54267224D01*
%TO.C,U4*%
X84136400Y-36992400D02*
X84136400Y-43407400D01*
X84136400Y-36992400D02*
X102376400Y-36992400D01*
X84136400Y-43407400D02*
X83756400Y-43407400D01*
X84136400Y-61952400D02*
X84136400Y-62732400D01*
X84136400Y-62732400D02*
X85136400Y-62732400D01*
X102376400Y-36992400D02*
X102376400Y-43407400D01*
X102376400Y-61952400D02*
X102376400Y-62732400D01*
X102376400Y-62732400D02*
X101376400Y-62732400D01*
%TD*%
M02*
