%TF.GenerationSoftware,KiCad,Pcbnew,7.0.2*%
%TF.CreationDate,2024-04-03T12:52:24+03:00*%
%TF.ProjectId,gps_tracer,6770735f-7472-4616-9365-722e6b696361,rev?*%
%TF.SameCoordinates,Original*%
%TF.FileFunction,Soldermask,Bot*%
%TF.FilePolarity,Negative*%
%FSLAX46Y46*%
G04 Gerber Fmt 4.6, Leading zero omitted, Abs format (unit mm)*
G04 Created by KiCad (PCBNEW 7.0.2) date 2024-04-03 12:52:24*
%MOMM*%
%LPD*%
G01*
G04 APERTURE LIST*
G04 Aperture macros list*
%AMRoundRect*
0 Rectangle with rounded corners*
0 $1 Rounding radius*
0 $2 $3 $4 $5 $6 $7 $8 $9 X,Y pos of 4 corners*
0 Add a 4 corners polygon primitive as box body*
4,1,4,$2,$3,$4,$5,$6,$7,$8,$9,$2,$3,0*
0 Add four circle primitives for the rounded corners*
1,1,$1+$1,$2,$3*
1,1,$1+$1,$4,$5*
1,1,$1+$1,$6,$7*
1,1,$1+$1,$8,$9*
0 Add four rect primitives between the rounded corners*
20,1,$1+$1,$2,$3,$4,$5,0*
20,1,$1+$1,$4,$5,$6,$7,0*
20,1,$1+$1,$6,$7,$8,$9,0*
20,1,$1+$1,$8,$9,$2,$3,0*%
G04 Aperture macros list end*
%ADD10RoundRect,0.375000X-0.375000X0.625000X-0.375000X-0.625000X0.375000X-0.625000X0.375000X0.625000X0*%
%ADD11RoundRect,0.375000X-0.625000X-0.375000X0.625000X-0.375000X0.625000X0.375000X-0.625000X0.375000X0*%
%ADD12RoundRect,0.375000X-0.525000X-0.375000X0.525000X-0.375000X0.525000X0.375000X-0.525000X0.375000X0*%
%ADD13O,1.800000X1.000000*%
%ADD14O,2.100000X1.000000*%
%ADD15C,0.650000*%
%ADD16O,1.000000X1.000000*%
%ADD17R,1.000000X1.000000*%
%ADD18RoundRect,0.250000X0.250000X-0.750000X0.250000X0.750000X-0.250000X0.750000X-0.250000X-0.750000X0*%
%ADD19RoundRect,0.250000X0.750000X0.250000X-0.750000X0.250000X-0.750000X-0.250000X0.750000X-0.250000X0*%
%ADD20RoundRect,0.237500X-0.237500X0.250000X-0.237500X-0.250000X0.237500X-0.250000X0.237500X0.250000X0*%
%ADD21RoundRect,0.237500X0.300000X0.237500X-0.300000X0.237500X-0.300000X-0.237500X0.300000X-0.237500X0*%
%ADD22RoundRect,0.250000X0.337500X0.475000X-0.337500X0.475000X-0.337500X-0.475000X0.337500X-0.475000X0*%
%ADD23RoundRect,0.237500X-0.250000X-0.237500X0.250000X-0.237500X0.250000X0.237500X-0.250000X0.237500X0*%
%ADD24R,1.200000X2.200000*%
%ADD25R,1.200000X1.400000*%
%ADD26R,1.600000X1.400000*%
%ADD27R,0.700000X1.600000*%
%ADD28C,0.900000*%
G04 APERTURE END LIST*
D10*
%TO.C,U6*%
X87325200Y-73075800D03*
X89865200Y-73075800D03*
X92405200Y-73075800D03*
X94945200Y-73075800D03*
%TD*%
D11*
%TO.C,U7*%
X54620000Y-44580000D03*
X54620000Y-47120000D03*
D12*
X54620000Y-49660000D03*
X54620000Y-52200000D03*
X54620000Y-54740000D03*
D11*
X76464000Y-57280000D03*
X76464000Y-54740000D03*
X76464000Y-52200000D03*
X76464000Y-49660000D03*
X76464000Y-47120000D03*
X76464000Y-44580000D03*
%TD*%
D13*
%TO.C,P1*%
X111717400Y-57351200D03*
D14*
X107517400Y-57351200D03*
D13*
X111717400Y-65991200D03*
D14*
X107517400Y-65991200D03*
D15*
X108037400Y-58781200D03*
X108037400Y-64561200D03*
%TD*%
D16*
%TO.C,J3*%
X64170000Y-61810000D03*
X62900000Y-61810000D03*
X61630000Y-61810000D03*
D17*
X60360000Y-61810000D03*
%TD*%
D18*
%TO.C,J2*%
X74440000Y-63030000D03*
X73170000Y-63030000D03*
%TD*%
D19*
%TO.C,J4*%
X50240000Y-43180000D03*
X50240000Y-44450000D03*
%TD*%
D18*
%TO.C,J1*%
X70000000Y-63030000D03*
X68730000Y-63030000D03*
%TD*%
D20*
%TO.C,R10*%
X65667468Y-55576855D03*
X65667468Y-53751855D03*
%TD*%
D21*
%TO.C,C16*%
X63430068Y-53671855D03*
X61705068Y-53671855D03*
%TD*%
D22*
%TO.C,C1*%
X63780068Y-55526055D03*
X61705068Y-55526055D03*
%TD*%
D23*
%TO.C,R12*%
X56575000Y-55500000D03*
X58400000Y-55500000D03*
%TD*%
D20*
%TO.C,R24*%
X67445468Y-55580655D03*
X67445468Y-53755655D03*
%TD*%
D24*
%TO.C,J5*%
X57686868Y-41549655D03*
D25*
X57686868Y-51149655D03*
D26*
X72286868Y-51149655D03*
D24*
X73186868Y-41549655D03*
D27*
X58886868Y-51649655D03*
X59986868Y-51649655D03*
X61086868Y-51649655D03*
X62186868Y-51649655D03*
X63286868Y-51649655D03*
X64386868Y-51649655D03*
X65486868Y-51649655D03*
X66586868Y-51649655D03*
X67686868Y-51649655D03*
D28*
X60486868Y-41149655D03*
X68486868Y-41149655D03*
%TD*%
M02*
