%TF.GenerationSoftware,KiCad,Pcbnew,7.0.2*%
%TF.CreationDate,2024-04-03T12:52:23+03:00*%
%TF.ProjectId,gps_tracer,6770735f-7472-4616-9365-722e6b696361,rev?*%
%TF.SameCoordinates,Original*%
%TF.FileFunction,Copper,L2,Bot*%
%TF.FilePolarity,Positive*%
%FSLAX46Y46*%
G04 Gerber Fmt 4.6, Leading zero omitted, Abs format (unit mm)*
G04 Created by KiCad (PCBNEW 7.0.2) date 2024-04-03 12:52:23*
%MOMM*%
%LPD*%
G01*
G04 APERTURE LIST*
G04 Aperture macros list*
%AMRoundRect*
0 Rectangle with rounded corners*
0 $1 Rounding radius*
0 $2 $3 $4 $5 $6 $7 $8 $9 X,Y pos of 4 corners*
0 Add a 4 corners polygon primitive as box body*
4,1,4,$2,$3,$4,$5,$6,$7,$8,$9,$2,$3,0*
0 Add four circle primitives for the rounded corners*
1,1,$1+$1,$2,$3*
1,1,$1+$1,$4,$5*
1,1,$1+$1,$6,$7*
1,1,$1+$1,$8,$9*
0 Add four rect primitives between the rounded corners*
20,1,$1+$1,$2,$3,$4,$5,0*
20,1,$1+$1,$4,$5,$6,$7,0*
20,1,$1+$1,$6,$7,$8,$9,0*
20,1,$1+$1,$8,$9,$2,$3,0*%
G04 Aperture macros list end*
%TA.AperFunction,ComponentPad*%
%ADD10RoundRect,0.375000X-0.375000X0.625000X-0.375000X-0.625000X0.375000X-0.625000X0.375000X0.625000X0*%
%TD*%
%TA.AperFunction,ComponentPad*%
%ADD11RoundRect,0.375000X-0.625000X-0.375000X0.625000X-0.375000X0.625000X0.375000X-0.625000X0.375000X0*%
%TD*%
%TA.AperFunction,ComponentPad*%
%ADD12RoundRect,0.375000X-0.525000X-0.375000X0.525000X-0.375000X0.525000X0.375000X-0.525000X0.375000X0*%
%TD*%
%TA.AperFunction,ComponentPad*%
%ADD13O,1.800000X1.000000*%
%TD*%
%TA.AperFunction,ComponentPad*%
%ADD14O,2.100000X1.000000*%
%TD*%
%TA.AperFunction,ComponentPad*%
%ADD15O,1.000000X1.000000*%
%TD*%
%TA.AperFunction,ComponentPad*%
%ADD16R,1.000000X1.000000*%
%TD*%
%TA.AperFunction,ComponentPad*%
%ADD17RoundRect,0.250000X0.250000X-0.750000X0.250000X0.750000X-0.250000X0.750000X-0.250000X-0.750000X0*%
%TD*%
%TA.AperFunction,ComponentPad*%
%ADD18RoundRect,0.250000X0.750000X0.250000X-0.750000X0.250000X-0.750000X-0.250000X0.750000X-0.250000X0*%
%TD*%
%TA.AperFunction,HeatsinkPad*%
%ADD19C,0.600000*%
%TD*%
%TA.AperFunction,SMDPad,CuDef*%
%ADD20RoundRect,0.237500X-0.237500X0.250000X-0.237500X-0.250000X0.237500X-0.250000X0.237500X0.250000X0*%
%TD*%
%TA.AperFunction,SMDPad,CuDef*%
%ADD21RoundRect,0.237500X0.300000X0.237500X-0.300000X0.237500X-0.300000X-0.237500X0.300000X-0.237500X0*%
%TD*%
%TA.AperFunction,SMDPad,CuDef*%
%ADD22RoundRect,0.250000X0.337500X0.475000X-0.337500X0.475000X-0.337500X-0.475000X0.337500X-0.475000X0*%
%TD*%
%TA.AperFunction,SMDPad,CuDef*%
%ADD23RoundRect,0.237500X-0.250000X-0.237500X0.250000X-0.237500X0.250000X0.237500X-0.250000X0.237500X0*%
%TD*%
%TA.AperFunction,SMDPad,CuDef*%
%ADD24R,1.200000X2.200000*%
%TD*%
%TA.AperFunction,SMDPad,CuDef*%
%ADD25R,1.200000X1.400000*%
%TD*%
%TA.AperFunction,SMDPad,CuDef*%
%ADD26R,1.600000X1.400000*%
%TD*%
%TA.AperFunction,SMDPad,CuDef*%
%ADD27R,0.700000X1.600000*%
%TD*%
%TA.AperFunction,ViaPad*%
%ADD28C,3.000000*%
%TD*%
%TA.AperFunction,ViaPad*%
%ADD29C,0.800000*%
%TD*%
%TA.AperFunction,Conductor*%
%ADD30C,0.150000*%
%TD*%
%TA.AperFunction,Conductor*%
%ADD31C,0.250000*%
%TD*%
G04 APERTURE END LIST*
D10*
%TO.P,U6,4,GND*%
%TO.N,GND*%
X87325200Y-73075800D03*
%TO.P,U6,3,TX*%
%TO.N,GPS_TX*%
X89865200Y-73075800D03*
%TO.P,U6,2,RX*%
%TO.N,GPS_RX*%
X92405200Y-73075800D03*
%TO.P,U6,1,VCC*%
%TO.N,Net-(Q3-D)*%
X94945200Y-73075800D03*
%TD*%
D11*
%TO.P,U7,1,VCC*%
%TO.N,Net-(Q8-D)*%
X54620000Y-44580000D03*
%TO.P,U7,2,RST*%
%TO.N,RST_GSM*%
X54620000Y-47120000D03*
D12*
%TO.P,U7,3,RXD*%
%TO.N,RXD_GSM*%
X54620000Y-49660000D03*
%TO.P,U7,4,TXD*%
%TO.N,TXD_GSM*%
X54620000Y-52200000D03*
%TO.P,U7,5,GND*%
%TO.N,GND*%
X54620000Y-54740000D03*
D11*
%TO.P,U7,6,SPKM*%
%TO.N,Net-(J2-Pin_1)*%
X76464000Y-57280000D03*
%TO.P,U7,7,SPKN*%
%TO.N,Net-(J2-Pin_2)*%
X76464000Y-54740000D03*
%TO.P,U7,8,MICN*%
%TO.N,Net-(J1-Pin_1)*%
X76464000Y-52200000D03*
%TO.P,U7,9,MICP*%
%TO.N,Net-(J1-Pin_2)*%
X76464000Y-49660000D03*
%TO.P,U7,10,DTR*%
%TO.N,unconnected-(U7-DTR-Pad10)*%
X76464000Y-47120000D03*
%TO.P,U7,11,RING*%
%TO.N,unconnected-(U7-RING-Pad11)*%
X76464000Y-44580000D03*
%TD*%
D13*
%TO.P,P1,S1,SHIELD*%
%TO.N,unconnected-(P1-SHIELD-PadS1)*%
X111717400Y-57351200D03*
D14*
X107517400Y-57351200D03*
D13*
X111717400Y-65991200D03*
D14*
X107517400Y-65991200D03*
%TD*%
D15*
%TO.P,J3,4,Pin_4*%
%TO.N,GND*%
X64170000Y-61810000D03*
%TO.P,J3,3,Pin_3*%
%TO.N,+3.3V*%
X62900000Y-61810000D03*
%TO.P,J3,2,Pin_2*%
%TO.N,SCL*%
X61630000Y-61810000D03*
D16*
%TO.P,J3,1,Pin_1*%
%TO.N,SDA*%
X60360000Y-61810000D03*
%TD*%
D17*
%TO.P,J2,2,Pin_2*%
%TO.N,Net-(J2-Pin_2)*%
X74440000Y-63030000D03*
%TO.P,J2,1,Pin_1*%
%TO.N,Net-(J2-Pin_1)*%
X73170000Y-63030000D03*
%TD*%
D18*
%TO.P,J4,2,Pin_2*%
%TO.N,Net-(IC1-BAT)*%
X50240000Y-43180000D03*
%TO.P,J4,1,Pin_1*%
%TO.N,Net-(J4-Pin_1)*%
X50240000Y-44450000D03*
%TD*%
D17*
%TO.P,J1,2,Pin_2*%
%TO.N,Net-(J1-Pin_2)*%
X70000000Y-63030000D03*
%TO.P,J1,1,Pin_1*%
%TO.N,Net-(J1-Pin_1)*%
X68730000Y-63030000D03*
%TD*%
D19*
%TO.P,U4,39,GND*%
%TO.N,GND*%
X91051400Y-51179900D03*
X91051400Y-52704900D03*
X91813900Y-50417400D03*
X91813900Y-51942400D03*
X91813900Y-53467400D03*
X92576400Y-51179900D03*
X92576400Y-52704900D03*
X93338900Y-50417400D03*
X93338900Y-51942400D03*
X93338900Y-53467400D03*
X94101400Y-51179900D03*
X94101400Y-52704900D03*
%TD*%
D20*
%TO.P,R10,2*%
%TO.N,+3.3V*%
X65667468Y-55576855D03*
%TO.P,R10,1*%
%TO.N,MICROSD_MOSI*%
X65667468Y-53751855D03*
%TD*%
D21*
%TO.P,C16,1*%
%TO.N,+3.3V*%
X63430068Y-53671855D03*
%TO.P,C16,2*%
%TO.N,GND*%
X61705068Y-53671855D03*
%TD*%
D22*
%TO.P,C1,1*%
%TO.N,+3.3V*%
X63780068Y-55526055D03*
%TO.P,C1,2*%
%TO.N,GND*%
X61705068Y-55526055D03*
%TD*%
D23*
%TO.P,R12,1*%
%TO.N,MICROSD_MISO*%
X56575000Y-55500000D03*
%TO.P,R12,2*%
%TO.N,+3.3V*%
X58400000Y-55500000D03*
%TD*%
D20*
%TO.P,R24,2*%
%TO.N,+3.3V*%
X67445468Y-55580655D03*
%TO.P,R24,1*%
%TO.N,MICROSD_CS*%
X67445468Y-53755655D03*
%TD*%
D24*
%TO.P,J5,SH*%
%TO.N,N/C*%
X57686868Y-41549655D03*
D25*
X57686868Y-51149655D03*
D26*
X72286868Y-51149655D03*
D24*
X73186868Y-41549655D03*
D27*
%TO.P,J5,9,DAT2*%
%TO.N,unconnected-(J5-DAT2-Pad9)*%
X58886868Y-51649655D03*
%TO.P,J5,8,DAT3/CD*%
%TO.N,unconnected-(J5-DAT3{slash}CD-Pad8)*%
X59986868Y-51649655D03*
%TO.P,J5,7,CMD*%
%TO.N,MICROSD_MISO*%
X61086868Y-51649655D03*
%TO.P,J5,6,VDD*%
%TO.N,GND*%
X62186868Y-51649655D03*
%TO.P,J5,5,CLK*%
%TO.N,MICROSD_CLK*%
X63286868Y-51649655D03*
%TO.P,J5,4,VSS*%
%TO.N,+3.3V*%
X64386868Y-51649655D03*
%TO.P,J5,3,DAT0*%
%TO.N,MICROSD_MOSI*%
X65486868Y-51649655D03*
%TO.P,J5,2,DAT1*%
%TO.N,MICROSD_CS*%
X66586868Y-51649655D03*
%TO.P,J5,1,SHIELD*%
%TO.N,unconnected-(J5-SHIELD-Pad1)*%
X67686868Y-51649655D03*
%TD*%
D28*
%TO.N,*%
X111100000Y-39050000D03*
X111100000Y-39050000D03*
D29*
%TO.N,GND*%
X55350000Y-38150000D03*
X85050000Y-69000000D03*
X81850000Y-73250000D03*
X80250000Y-57750000D03*
%TO.N,Net-(J2-Pin_2)*%
X77350000Y-58750000D03*
%TO.N,GND*%
X52950000Y-50850000D03*
X53200000Y-62400000D03*
X65300000Y-59700000D03*
%TO.N,+3.3V*%
X60198000Y-69088000D03*
%TO.N,GND*%
X80772000Y-62738000D03*
X74930000Y-70358000D03*
X57658000Y-62484000D03*
X66040000Y-42672000D03*
X53340000Y-38862000D03*
X78994000Y-49784000D03*
X68326000Y-48768000D03*
X71882000Y-49022000D03*
X75450000Y-65750000D03*
X90490000Y-65125000D03*
X95840000Y-60040000D03*
%TO.N,+3.3V*%
X55220000Y-67370000D03*
X60198000Y-65024500D03*
%TO.N,+5V*%
X74325000Y-44297600D03*
%TO.N,GND*%
X63300000Y-66260000D03*
X66310000Y-66790000D03*
%TO.N,MPU5060_INT*%
X72265000Y-67495000D03*
%TO.N,Net-(D1-K)*%
X75550000Y-66820000D03*
%TO.N,+5V*%
X51790000Y-47540000D03*
X65270800Y-48310800D03*
%TO.N,GND*%
X66710000Y-62000000D03*
X59436000Y-57912000D03*
%TO.N,Net-(D1-K)*%
X72450000Y-54954500D03*
%TO.N,+3.3V*%
X83150000Y-54250000D03*
X106620000Y-53590000D03*
X110010000Y-55910000D03*
%TO.N,GND*%
X103910000Y-55000000D03*
X104910000Y-62970000D03*
X103980000Y-61030000D03*
%TO.N,Net-(U12-REGOUT)*%
X70250000Y-69630000D03*
X67400000Y-69630000D03*
%TO.N,GND*%
X110820000Y-49840000D03*
X110790000Y-51520000D03*
X108990000Y-51540000D03*
X108990000Y-49810000D03*
X96740000Y-45570000D03*
X90950000Y-46660500D03*
X96580000Y-50560000D03*
X109150000Y-62550000D03*
X109150000Y-60200000D03*
X111560000Y-63210000D03*
X111560000Y-59500000D03*
X98090000Y-67080000D03*
X100160000Y-63380000D03*
X111820000Y-69820000D03*
X105220000Y-73340000D03*
X105240000Y-68980000D03*
X98490000Y-69780000D03*
X82280000Y-57810000D03*
X77510000Y-61360000D03*
X65730000Y-71400000D03*
X65090000Y-69590000D03*
X56388000Y-65278000D03*
X57000000Y-67540000D03*
X52100000Y-71580000D03*
X51650000Y-68000000D03*
X50780000Y-41170000D03*
X49110000Y-45560000D03*
X49100000Y-51330000D03*
X55030000Y-56690000D03*
X59400000Y-54450000D03*
X64810000Y-56570000D03*
X67780000Y-59690000D03*
X70030000Y-51770000D03*
X72390000Y-52578000D03*
X78200000Y-44510000D03*
X85960000Y-44580000D03*
X70130000Y-43660000D03*
X60590000Y-46350000D03*
X61640000Y-38950000D03*
%TO.N,SCL*%
X70378818Y-55046993D03*
%TO.N,SDA*%
X69380000Y-55010000D03*
%TO.N,MICROSD_CLK*%
X67630500Y-63310000D03*
X62710000Y-57146500D03*
%TO.N,RED_LED*%
X56050000Y-61095500D03*
%TO.N,+5V*%
X70969800Y-56804200D03*
X103962200Y-53263800D03*
%TO.N,BATTERY_VOLTAGE*%
X66416498Y-54664355D03*
%TO.N,Net-(D7-K)*%
X49200000Y-49440000D03*
X67880000Y-39920000D03*
%TO.N,Net-(D6-K)*%
X49896255Y-47054500D03*
X67980000Y-38330000D03*
%TO.N,Net-(IC1-CHRG)*%
X66100000Y-38825500D03*
%TO.N,Net-(IC1-STDBY)*%
X66110000Y-45750000D03*
X66150000Y-40550000D03*
%TO.N,Net-(IC1-CHRG)*%
X66150000Y-46935500D03*
%TO.N,+3.3V*%
X59260498Y-61594500D03*
%TO.N,GSM_POWER_SOURSE*%
X55372000Y-43180000D03*
X52390879Y-46733964D03*
%TO.N,Net-(C11-Pad1)*%
X96670000Y-65060000D03*
X52170000Y-64610000D03*
%TO.N,Net-(C8-Pad1)*%
X52180000Y-65970000D03*
X79579860Y-46819308D03*
%TO.N,MPU5060_INT*%
X86150000Y-50940000D03*
%TO.N,BATTERY_VOLTAGE*%
X86120000Y-52170000D03*
%TO.N,RST_GSM*%
X87330000Y-46660500D03*
X86140000Y-53500000D03*
%TO.N,POWER_OF_GSM*%
X53447944Y-42597944D03*
X88411694Y-46660500D03*
X89670000Y-50570000D03*
X86244647Y-58634647D03*
%TO.N,MICROSD_CLK*%
X85960000Y-61050000D03*
%TO.N,MICROSD_CS*%
X88995500Y-56104500D03*
%TO.N,RXD_GSM*%
X97700000Y-60740000D03*
%TO.N,GPS_TX*%
X100620000Y-59420000D03*
%TO.N,GPS_RX*%
X100527632Y-58344500D03*
%TO.N,TXD_GSM*%
X100640000Y-56070000D03*
%TO.N,RED_LED*%
X100620000Y-54750000D03*
%TO.N,MICROSD_MISO*%
X100590000Y-53450000D03*
%TO.N,SDA*%
X80594500Y-52842280D03*
X100570000Y-50910000D03*
%TO.N,SCL*%
X100500000Y-47130000D03*
X79920000Y-54450500D03*
%TO.N,MICROSD_MOSI*%
X100510000Y-45880000D03*
%TO.N,EN*%
X109860000Y-44610000D03*
X86200000Y-46960000D03*
%TO.N,Net-(Q2-B)*%
X104780000Y-45525500D03*
X111710000Y-47150000D03*
%TO.N,RXD*%
X100560000Y-49650000D03*
X108430000Y-47220000D03*
%TO.N,TXD*%
X100540000Y-48340000D03*
X109907701Y-47157701D03*
%TO.N,Net-(U3-D+)*%
X105540000Y-50194500D03*
X105484555Y-54008078D03*
D28*
%TO.N,*%
X50270000Y-73200000D03*
X111100000Y-73180000D03*
X50240000Y-39030000D03*
%TD*%
D30*
%TO.N,+3.3V*%
X59873500Y-64700000D02*
X60198000Y-65024500D01*
X58096039Y-64700000D02*
X59873500Y-64700000D01*
X57750000Y-65046038D02*
X58096039Y-64700000D01*
X57300000Y-66850000D02*
X57650000Y-66500000D01*
X57650000Y-66500000D02*
X57750000Y-66500000D01*
X55740000Y-66850000D02*
X57300000Y-66850000D01*
X55220000Y-67370000D02*
X55740000Y-66850000D01*
X57750000Y-66500000D02*
X57750000Y-65046038D01*
%TO.N,Net-(U12-REGOUT)*%
X69830000Y-69630000D02*
X70250000Y-69630000D01*
X70250000Y-69630000D02*
X67400000Y-69630000D01*
%TO.N,POWER_OF_GSM*%
X87438896Y-45687702D02*
X88411694Y-46660500D01*
X66430095Y-47610000D02*
X68352393Y-45687702D01*
X57860000Y-47610000D02*
X66430095Y-47610000D01*
X56811868Y-46561868D02*
X57860000Y-47610000D01*
X53540888Y-42505000D02*
X56589595Y-42505000D01*
X53447944Y-42597944D02*
X53540888Y-42505000D01*
X56811868Y-42727273D02*
X56811868Y-46561868D01*
X68352393Y-45687702D02*
X87438896Y-45687702D01*
X56589595Y-42505000D02*
X56811868Y-42727273D01*
D31*
%TO.N,+3.3V*%
X83005000Y-55050000D02*
X83005000Y-54395000D01*
X73964051Y-54230000D02*
X75694051Y-55960000D01*
X83005000Y-54395000D02*
X83150000Y-54250000D01*
X67445468Y-55580655D02*
X68796123Y-54230000D01*
X68796123Y-54230000D02*
X73964051Y-54230000D01*
X75694051Y-55960000D02*
X82095000Y-55960000D01*
X82095000Y-55960000D02*
X83005000Y-55050000D01*
D30*
%TO.N,SCL*%
X70170000Y-60230000D02*
X70170000Y-55255811D01*
X69365000Y-61035000D02*
X70170000Y-60230000D01*
X70170000Y-55255811D02*
X70378818Y-55046993D01*
X62405000Y-61035000D02*
X69365000Y-61035000D01*
X61630000Y-61810000D02*
X62405000Y-61035000D01*
D31*
%TO.N,GND*%
X62186868Y-50186868D02*
X62186868Y-51649655D01*
X62050000Y-50050000D02*
X62186868Y-50186868D01*
X56300000Y-50050000D02*
X62050000Y-50050000D01*
X56100000Y-50250000D02*
X56300000Y-50050000D01*
X56100000Y-52850000D02*
X56100000Y-50250000D01*
X55600000Y-53350000D02*
X56100000Y-52850000D01*
X54700000Y-53350000D02*
X55600000Y-53350000D01*
X54620000Y-53430000D02*
X54700000Y-53350000D01*
X54620000Y-54740000D02*
X54620000Y-53430000D01*
D30*
%TO.N,Net-(J2-Pin_2)*%
X76913240Y-58750000D02*
X74440000Y-61223239D01*
X77350000Y-58750000D02*
X76913240Y-58750000D01*
X74440000Y-61223239D02*
X74440000Y-63030000D01*
D31*
%TO.N,unconnected-(P1-SHIELD-PadS1)*%
X107517400Y-65991200D02*
X111717400Y-65991200D01*
X107517400Y-57351200D02*
X111717400Y-57351200D01*
D30*
%TO.N,MICROSD_MOSI*%
X85970405Y-47685000D02*
X98705000Y-47685000D01*
X66115345Y-49410798D02*
X68786143Y-46740000D01*
X84675405Y-46390000D02*
X85970405Y-47685000D01*
X80979570Y-46390000D02*
X84675405Y-46390000D01*
X65486868Y-51649655D02*
X65486868Y-50453132D01*
X74422000Y-46990000D02*
X74422000Y-47492213D01*
X78855569Y-48514000D02*
X80979570Y-46390000D01*
X74422000Y-47492213D02*
X75443787Y-48514000D01*
X65486868Y-50453132D02*
X66115345Y-49824655D01*
X66115345Y-49824655D02*
X66115345Y-49410798D01*
X68786143Y-46740000D02*
X74172000Y-46740000D01*
X74172000Y-46740000D02*
X74422000Y-46990000D01*
X75443787Y-48514000D02*
X78855569Y-48514000D01*
X98705000Y-47685000D02*
X100510000Y-45880000D01*
%TO.N,GND*%
X59436000Y-54486000D02*
X59436000Y-57912000D01*
D31*
X60476055Y-55526055D02*
X61705068Y-55526055D01*
X59400000Y-54450000D02*
X60476055Y-55526055D01*
D30*
X59400000Y-54450000D02*
X59436000Y-54486000D01*
%TO.N,MICROSD_MISO*%
X56950000Y-53400000D02*
X56575000Y-53775000D01*
X56575000Y-53775000D02*
X56575000Y-55500000D01*
X60714639Y-53400000D02*
X56950000Y-53400000D01*
X61086868Y-53027771D02*
X60714639Y-53400000D01*
X61086868Y-51649655D02*
X61086868Y-53027771D01*
D31*
%TO.N,+3.3V*%
X59260498Y-58761803D02*
X58400000Y-57901305D01*
X58400000Y-57901305D02*
X58400000Y-55500000D01*
X59260498Y-59800000D02*
X59260498Y-61594500D01*
X59260498Y-59800000D02*
X59260498Y-58761803D01*
X59260498Y-59629502D02*
X59260498Y-59800000D01*
D30*
%TO.N,MICROSD_MISO*%
X56575000Y-57595000D02*
X58480000Y-59500000D01*
X56575000Y-55500000D02*
X56575000Y-57595000D01*
X58480000Y-59500000D02*
X58480000Y-62007076D01*
%TO.N,Net-(D7-K)*%
X68655000Y-39145000D02*
X67880000Y-39920000D01*
X68655000Y-38050405D02*
X68655000Y-39145000D01*
X67854596Y-37250000D02*
X68655000Y-38050405D01*
X65188318Y-37250000D02*
X67854596Y-37250000D01*
X64888318Y-37550000D02*
X65188318Y-37250000D01*
X56938000Y-37550000D02*
X64888318Y-37550000D01*
X52070000Y-45465026D02*
X52070000Y-42418000D01*
X49530000Y-46380000D02*
X51155026Y-46380000D01*
X49200000Y-46710000D02*
X49530000Y-46380000D01*
X52070000Y-42418000D02*
X56938000Y-37550000D01*
X49200000Y-49440000D02*
X49200000Y-46710000D01*
X51155026Y-46380000D02*
X52070000Y-45465026D01*
%TO.N,Net-(D6-K)*%
X65333292Y-37600000D02*
X67250000Y-37600000D01*
X67250000Y-37600000D02*
X67980000Y-38330000D01*
X52420000Y-42672000D02*
X57192000Y-37900000D01*
X52420000Y-45610000D02*
X52420000Y-42672000D01*
X50975500Y-47054500D02*
X52420000Y-45610000D01*
X49896255Y-47054500D02*
X50975500Y-47054500D01*
X57192000Y-37900000D02*
X65033292Y-37900000D01*
X65033292Y-37900000D02*
X65333292Y-37600000D01*
%TO.N,Net-(IC1-CHRG)*%
X65477500Y-46935500D02*
X66150000Y-46935500D01*
X64008000Y-45466000D02*
X65477500Y-46935500D01*
X65931526Y-38825500D02*
X64008000Y-40749026D01*
X64008000Y-40749026D02*
X64008000Y-45466000D01*
X66100000Y-38825500D02*
X65931526Y-38825500D01*
%TO.N,Net-(IC1-STDBY)*%
X64800000Y-45750000D02*
X66110000Y-45750000D01*
X64358000Y-45308000D02*
X64800000Y-45750000D01*
X66150000Y-40550000D02*
X64702000Y-40550000D01*
X64702000Y-40550000D02*
X64358000Y-40894000D01*
X64358000Y-40894000D02*
X64358000Y-45308000D01*
D31*
%TO.N,+5V*%
X88220000Y-59700000D02*
X95195000Y-52725000D01*
X84740000Y-59960000D02*
X85000000Y-59700000D01*
X85000000Y-59700000D02*
X88220000Y-59700000D01*
X95195000Y-52725000D02*
X103423400Y-52725000D01*
X103423400Y-52725000D02*
X103962200Y-53263800D01*
X84740000Y-65335686D02*
X84740000Y-59960000D01*
X77220000Y-68820000D02*
X81255686Y-68820000D01*
X81255686Y-68820000D02*
X84740000Y-65335686D01*
D30*
%TO.N,SDA*%
X69820000Y-60085026D02*
X69820000Y-55450000D01*
X69220026Y-60685000D02*
X69820000Y-60085026D01*
X61485000Y-60685000D02*
X69220026Y-60685000D01*
X69820000Y-55450000D02*
X69380000Y-55010000D01*
X60360000Y-61810000D02*
X61485000Y-60685000D01*
%TO.N,+3.3V*%
X60198000Y-65024500D02*
X60198000Y-69088000D01*
D31*
%TO.N,Net-(D1-K)*%
X71930000Y-55474500D02*
X72450000Y-54954500D01*
X71930000Y-63190000D02*
X71930000Y-55474500D01*
D30*
%TO.N,Net-(C8-Pad1)*%
X50790000Y-64580000D02*
X52180000Y-65970000D01*
X50790000Y-50333604D02*
X50790000Y-64580000D01*
X52538604Y-48585000D02*
X50790000Y-50333604D01*
X55640000Y-48585000D02*
X52538604Y-48585000D01*
X56515000Y-49460000D02*
X55640000Y-48585000D01*
X65571169Y-49460000D02*
X56515000Y-49460000D01*
X68641169Y-46390000D02*
X65571169Y-49460000D01*
X74930000Y-46990000D02*
X74330000Y-46390000D01*
X74330000Y-46390000D02*
X68641169Y-46390000D01*
X79579860Y-47294735D02*
X78729594Y-48145000D01*
X78729594Y-48145000D02*
X75569761Y-48145000D01*
X74930000Y-47505239D02*
X74930000Y-46990000D01*
X79579860Y-46819308D02*
X79579860Y-47294735D01*
X75569761Y-48145000D02*
X74930000Y-47505239D01*
%TO.N,MICROSD_CS*%
X67935345Y-53755655D02*
X68326000Y-53365000D01*
X67445468Y-53755655D02*
X67935345Y-53755655D01*
X68326000Y-53365000D02*
X77879906Y-53365000D01*
X77879905Y-53365000D02*
X78043453Y-53528547D01*
X77879906Y-53365000D02*
X78043453Y-53528547D01*
X78043453Y-53528547D02*
X78960000Y-54445095D01*
%TO.N,BATTERY_VOLTAGE*%
X82518298Y-52170000D02*
X86120000Y-52170000D01*
X81084171Y-55475500D02*
X81708298Y-54851373D01*
X77734930Y-53715000D02*
X79495430Y-55475500D01*
X79495430Y-55475500D02*
X81084171Y-55475500D01*
X68698408Y-53715000D02*
X77734930Y-53715000D01*
X81708298Y-54851373D02*
X81708298Y-52980000D01*
X81708298Y-52980000D02*
X82518298Y-52170000D01*
X67749052Y-54664355D02*
X68698408Y-53715000D01*
X66416498Y-54664355D02*
X67749052Y-54664355D01*
%TO.N,GSM_POWER_SOURSE*%
X52390879Y-46733964D02*
X52831380Y-46293463D01*
X52831380Y-46293463D02*
X52831380Y-44449380D01*
X54100761Y-43180000D02*
X52831380Y-44449380D01*
X55372000Y-43180000D02*
X54100761Y-43180000D01*
D31*
%TO.N,+5V*%
X103962200Y-50746995D02*
X103962200Y-53263800D01*
X112435000Y-47450305D02*
X111940305Y-47945000D01*
X110595000Y-43505000D02*
X112435000Y-45345000D01*
X112435000Y-45345000D02*
X112435000Y-47450305D01*
X75117600Y-43505000D02*
X110595000Y-43505000D01*
X74325000Y-44297600D02*
X75117600Y-43505000D01*
X106764195Y-47945000D02*
X103962200Y-50746995D01*
X111940305Y-47945000D02*
X106764195Y-47945000D01*
D30*
%TO.N,RST_GSM*%
X54860000Y-47120000D02*
X54620000Y-47120000D01*
X65426195Y-49110000D02*
X56850000Y-49110000D01*
X56850000Y-49110000D02*
X54860000Y-47120000D01*
X68496195Y-46040000D02*
X65426195Y-49110000D01*
X87330000Y-46660500D02*
X86709500Y-46040000D01*
X86709500Y-46040000D02*
X68496195Y-46040000D01*
%TO.N,MPU5060_INT*%
X86970000Y-50940000D02*
X86150000Y-50940000D01*
X87290000Y-51260000D02*
X86970000Y-50940000D01*
X87290000Y-53880000D02*
X87290000Y-51260000D01*
X86240000Y-54930000D02*
X87290000Y-53880000D01*
X84860000Y-54930000D02*
X86240000Y-54930000D01*
X84340000Y-55450000D02*
X84860000Y-54930000D01*
X84340000Y-65170000D02*
X84340000Y-55450000D01*
X81090000Y-68420000D02*
X84340000Y-65170000D01*
X73190000Y-68420000D02*
X81090000Y-68420000D01*
X72265000Y-67495000D02*
X73190000Y-68420000D01*
D31*
%TO.N,+5V*%
X77220000Y-68820000D02*
X77630000Y-68820000D01*
X72500000Y-68820000D02*
X77220000Y-68820000D01*
D30*
%TO.N,GPS_RX*%
X88180000Y-69315026D02*
X88180000Y-63275532D01*
X90014974Y-71150000D02*
X88180000Y-69315026D01*
X91810000Y-71150000D02*
X90014974Y-71150000D01*
X93111032Y-58344500D02*
X100527632Y-58344500D01*
X92405200Y-71745200D02*
X91810000Y-71150000D01*
X88180000Y-63275532D02*
X93111032Y-58344500D01*
X92405200Y-73075800D02*
X92405200Y-71745200D01*
%TO.N,GPS_TX*%
X89865200Y-71495200D02*
X89865200Y-71990000D01*
X87780000Y-69410000D02*
X89865200Y-71495200D01*
X87780000Y-63180558D02*
X87780000Y-69410000D01*
X93815558Y-57145000D02*
X87780000Y-63180558D01*
X93950000Y-57145000D02*
X93815558Y-57145000D01*
X89865200Y-71990000D02*
X89865200Y-73075800D01*
X93950000Y-57145000D02*
X93855000Y-57145000D01*
X99260000Y-57145000D02*
X93950000Y-57145000D01*
X100297254Y-57145000D02*
X99260000Y-57145000D01*
X100921127Y-57768873D02*
X100822254Y-57670000D01*
X101365000Y-58212746D02*
X100921127Y-57768873D01*
X100921127Y-57768873D02*
X100297254Y-57145000D01*
%TO.N,RXD_GSM*%
X52050000Y-49710000D02*
X54570000Y-49710000D01*
X51140000Y-50620000D02*
X52050000Y-49710000D01*
X51140000Y-62205405D02*
X51140000Y-50620000D01*
X52934595Y-64000000D02*
X51140000Y-62205405D01*
X60760026Y-64000000D02*
X52934595Y-64000000D01*
X61225000Y-64464974D02*
X60760026Y-64000000D01*
X61225000Y-71645696D02*
X61225000Y-64464974D01*
X78620468Y-74000800D02*
X63580102Y-74000800D01*
X87430000Y-65191268D02*
X78620468Y-74000800D01*
X87430000Y-63020000D02*
X87430000Y-65191268D01*
X63580102Y-74000800D02*
X61225000Y-71645696D01*
X89647208Y-60802792D02*
X87430000Y-63020000D01*
X89662792Y-60802792D02*
X89647208Y-60802792D01*
X93670584Y-56795000D02*
X89662792Y-60802792D01*
X100770000Y-56795000D02*
X93670584Y-56795000D01*
X101815000Y-57840000D02*
X100770000Y-56795000D01*
X101815000Y-59250305D02*
X101815000Y-57840000D01*
X100325305Y-60740000D02*
X101815000Y-59250305D01*
X97700000Y-60740000D02*
X100325305Y-60740000D01*
D31*
%TO.N,+5V*%
X71430000Y-67750000D02*
X72500000Y-68820000D01*
X71430000Y-67750000D02*
X71430000Y-57264400D01*
D30*
%TO.N,TXD_GSM*%
X60890000Y-63635000D02*
X59330000Y-63635000D01*
X61575000Y-64320000D02*
X60890000Y-63635000D01*
X61575000Y-71500724D02*
X61575000Y-64320000D01*
X63725078Y-73650800D02*
X61575000Y-71500724D01*
X78475494Y-73650800D02*
X63725078Y-73650800D01*
X87010000Y-65116294D02*
X78475494Y-73650800D01*
X87010000Y-62819188D02*
X87010000Y-65116294D01*
X93759188Y-56070000D02*
X87010000Y-62819188D01*
X100640000Y-56070000D02*
X93759188Y-56070000D01*
%TO.N,RED_LED*%
X56050000Y-62730000D02*
X56050000Y-61095500D01*
X56605000Y-63285000D02*
X56050000Y-62730000D01*
X61080026Y-63285000D02*
X56605000Y-63285000D01*
X61925000Y-71355748D02*
X61925000Y-64129974D01*
X63870052Y-73300800D02*
X61925000Y-71355748D01*
X78330520Y-73300800D02*
X63870052Y-73300800D01*
X86660000Y-64971320D02*
X78330520Y-73300800D01*
X86660000Y-62532792D02*
X86660000Y-64971320D01*
X94442792Y-54750000D02*
X86660000Y-62532792D01*
X100620000Y-54750000D02*
X94442792Y-54750000D01*
X61925000Y-64129974D02*
X61080026Y-63285000D01*
%TO.N,MICROSD_MISO*%
X62275000Y-71210774D02*
X62275000Y-63985000D01*
X62275000Y-63985000D02*
X61655000Y-63365000D01*
X64015026Y-72950800D02*
X62275000Y-71210774D01*
X78185546Y-72950800D02*
X64015026Y-72950800D01*
X86310000Y-64826346D02*
X78185546Y-72950800D01*
X86310000Y-62246396D02*
X86310000Y-64826346D01*
X95090000Y-53466396D02*
X86310000Y-62246396D01*
X95090000Y-53460000D02*
X95090000Y-53466396D01*
X100590000Y-53450000D02*
X100580000Y-53460000D01*
X100580000Y-53460000D02*
X95090000Y-53460000D01*
%TO.N,MICROSD_CLK*%
X63660000Y-63460000D02*
X67480500Y-63460000D01*
X67480500Y-63460000D02*
X67630500Y-63310000D01*
X64160000Y-72600800D02*
X62625000Y-71065800D01*
X78040572Y-72600800D02*
X64160000Y-72600800D01*
X85960000Y-64681372D02*
X78040572Y-72600800D01*
X85960000Y-61050000D02*
X85960000Y-64681372D01*
X62625000Y-71065800D02*
X62625000Y-64495000D01*
X62625000Y-64495000D02*
X63660000Y-63460000D01*
D31*
%TO.N,+5V*%
X71430000Y-57264400D02*
X70969800Y-56804200D01*
D30*
%TO.N,Net-(C11-Pad1)*%
X60875000Y-71795000D02*
X63430800Y-74350800D01*
X60610000Y-64350000D02*
X60875000Y-64615000D01*
X60875000Y-64615000D02*
X60875000Y-71795000D01*
X63430800Y-74350800D02*
X65490000Y-74350800D01*
X52430000Y-64350000D02*
X60610000Y-64350000D01*
X52170000Y-64610000D02*
X52430000Y-64350000D01*
%TO.N,TXD_GSM*%
X53075000Y-63635000D02*
X51490000Y-62050000D01*
X51490000Y-62050000D02*
X51490000Y-53530000D01*
X51625000Y-53395000D02*
X51590000Y-53430000D01*
X51490000Y-53530000D02*
X51625000Y-53395000D01*
X52820000Y-52200000D02*
X51625000Y-53395000D01*
X59330000Y-63635000D02*
X53075000Y-63635000D01*
D31*
%TO.N,GPS_RX*%
X100527632Y-58400064D02*
X100550526Y-58422958D01*
X100527632Y-58344500D02*
X100527632Y-58400064D01*
D30*
%TO.N,+3.3V*%
X62125000Y-62585000D02*
X62900000Y-61810000D01*
X59735000Y-62585000D02*
X62125000Y-62585000D01*
X59260498Y-62110498D02*
X59735000Y-62585000D01*
X59260498Y-61594500D02*
X59260498Y-62110498D01*
%TO.N,TXD_GSM*%
X59330000Y-63635000D02*
X58693710Y-63635000D01*
%TO.N,MICROSD_MISO*%
X61655000Y-63365000D02*
X61225000Y-62935000D01*
X61825000Y-63535000D02*
X61655000Y-63365000D01*
X59407924Y-62935000D02*
X59206462Y-62733538D01*
X61225000Y-62935000D02*
X59407924Y-62935000D01*
X58480000Y-62007076D02*
X59206462Y-62733538D01*
%TO.N,EN*%
X86575000Y-47335000D02*
X86200000Y-46960000D01*
X100745000Y-44610000D02*
X98020000Y-47335000D01*
X98020000Y-47335000D02*
X86575000Y-47335000D01*
X109860000Y-44610000D02*
X100745000Y-44610000D01*
%TO.N,MPU5060_INT*%
X72180000Y-67580000D02*
X72265000Y-67495000D01*
D31*
%TO.N,Net-(D1-K)*%
X71930000Y-64585686D02*
X74164314Y-66820000D01*
X71930000Y-63190000D02*
X71930000Y-64585686D01*
X74164314Y-66820000D02*
X75550000Y-66820000D01*
X71930000Y-63190000D02*
X71930000Y-63460000D01*
D30*
%TO.N,Net-(C11-Pad1)*%
X65490000Y-74350800D02*
X64950800Y-74350800D01*
X85980000Y-74350800D02*
X65490000Y-74350800D01*
X85980000Y-74350800D02*
X95766216Y-74350800D01*
X85390800Y-74350800D02*
X85980000Y-74350800D01*
%TO.N,TXD*%
X109480000Y-46250000D02*
X109907701Y-46677701D01*
X109907701Y-46677701D02*
X109907701Y-47157701D01*
X106660000Y-46250000D02*
X109480000Y-46250000D01*
X104570000Y-48340000D02*
X106660000Y-46250000D01*
X100540000Y-48340000D02*
X104570000Y-48340000D01*
%TO.N,RXD*%
X106330000Y-47220000D02*
X108430000Y-47220000D01*
X103900000Y-49650000D02*
X106330000Y-47220000D01*
X100560000Y-49650000D02*
X103900000Y-49650000D01*
%TO.N,POWER_OF_GSM*%
X87439948Y-58634647D02*
X89670000Y-56404595D01*
X86244647Y-58634647D02*
X87439948Y-58634647D01*
X89670000Y-56404595D02*
X89670000Y-50570000D01*
%TO.N,+5V*%
X52610148Y-47540000D02*
X53115879Y-47034269D01*
X51790000Y-47540000D02*
X52610148Y-47540000D01*
X53115879Y-46634172D02*
X53115879Y-47034269D01*
X57800749Y-48310800D02*
X55534949Y-46045000D01*
X65270800Y-48310800D02*
X57800749Y-48310800D01*
X55534949Y-46045000D02*
X53705051Y-46045000D01*
X53705051Y-46045000D02*
X53115879Y-46634172D01*
%TO.N,MICROSD_CS*%
X87455000Y-49035000D02*
X88995500Y-50575500D01*
X83821396Y-49035000D02*
X87455000Y-49035000D01*
X81358298Y-51498098D02*
X83821396Y-49035000D01*
X81358298Y-54706398D02*
X81358298Y-51498098D01*
X80939196Y-55125500D02*
X81358298Y-54706398D01*
X79640405Y-55125500D02*
X80939196Y-55125500D01*
X88995500Y-50575500D02*
X88995500Y-56104500D01*
X78960000Y-54445095D02*
X79640405Y-55125500D01*
%TO.N,SDA*%
X98245000Y-48585000D02*
X100570000Y-50910000D01*
X83635000Y-48585000D02*
X98245000Y-48585000D01*
X80594500Y-52842280D02*
X80594500Y-51625500D01*
X80594500Y-51625500D02*
X83635000Y-48585000D01*
D31*
%TO.N,+3.3V*%
X60640000Y-58250000D02*
X59260498Y-59629502D01*
X63310000Y-58250000D02*
X60640000Y-58250000D01*
X63780068Y-57779932D02*
X63310000Y-58250000D01*
X63780068Y-55526055D02*
X63780068Y-57779932D01*
D30*
%TO.N,MICROSD_CLK*%
X62677609Y-57114109D02*
X62710000Y-57146500D01*
X62677609Y-54252391D02*
X62677609Y-57114109D01*
X62567568Y-53201360D02*
X62567568Y-54142350D01*
X62567568Y-54142350D02*
X62677609Y-54252391D01*
X63286868Y-52482060D02*
X62567568Y-53201360D01*
X63286868Y-51649655D02*
X63286868Y-52482060D01*
D31*
X62834698Y-57021802D02*
X62710000Y-57146500D01*
%TO.N,+3.3V*%
X106620000Y-55520000D02*
X106620000Y-53590000D01*
X107000000Y-55900000D02*
X106620000Y-55520000D01*
X107010000Y-55910000D02*
X107000000Y-55900000D01*
X110010000Y-55910000D02*
X107010000Y-55910000D01*
%TO.N,MICROSD_CS*%
X88845500Y-56104500D02*
X88995500Y-56104500D01*
D30*
X66586868Y-51649655D02*
X66586868Y-53516868D01*
X66586868Y-53516868D02*
X66825655Y-53755655D01*
X66825655Y-53755655D02*
X67445468Y-53755655D01*
%TO.N,MICROSD_MOSI*%
X65486868Y-53571255D02*
X65667468Y-53751855D01*
X65486868Y-51649655D02*
X65486868Y-53571255D01*
D31*
%TO.N,+3.3V*%
X64386868Y-52715055D02*
X63430068Y-53671855D01*
X64386868Y-51649655D02*
X64386868Y-52715055D01*
D30*
%TO.N,Net-(C11-Pad1)*%
X95766216Y-74350800D02*
X96670000Y-73447016D01*
X96670000Y-73447016D02*
X96670000Y-65060000D01*
D31*
%TO.N,RXD_GSM*%
X54620000Y-49660000D02*
X54570000Y-49710000D01*
D30*
%TO.N,SCL*%
X99495000Y-48135000D02*
X100500000Y-47130000D01*
X83415000Y-48135000D02*
X99495000Y-48135000D01*
X79920000Y-54450500D02*
X79920000Y-51630000D01*
X79920000Y-51630000D02*
X83415000Y-48135000D01*
D31*
%TO.N,RED_LED*%
X100470000Y-54600000D02*
X100620000Y-54750000D01*
%TO.N,GND*%
X61705068Y-53671855D02*
X61705068Y-53181455D01*
X61705068Y-53181455D02*
X62186868Y-52699655D01*
X62186868Y-52699655D02*
X62186868Y-51649655D01*
X61705068Y-53671855D02*
X61705068Y-55526055D01*
D30*
%TO.N,TXD_GSM*%
X54620000Y-52200000D02*
X52820000Y-52200000D01*
D31*
%TO.N,+3.3V*%
X67441668Y-55576855D02*
X67445468Y-55580655D01*
X65667468Y-55576855D02*
X67441668Y-55576855D01*
X65616668Y-55526055D02*
X65667468Y-55576855D01*
X63780068Y-55526055D02*
X65616668Y-55526055D01*
X63430068Y-55176055D02*
X63780068Y-55526055D01*
X63430068Y-53671855D02*
X63430068Y-55176055D01*
D30*
%TO.N,GPS_TX*%
X101365000Y-58675000D02*
X101365000Y-58212746D01*
X100620000Y-59420000D02*
X101365000Y-58675000D01*
%TO.N,Net-(J2-Pin_1)*%
X73170000Y-60574000D02*
X73170000Y-63030000D01*
X76464000Y-57280000D02*
X73170000Y-60574000D01*
%TO.N,Net-(Q2-B)*%
X110085500Y-45525500D02*
X104780000Y-45525500D01*
X111710000Y-47150000D02*
X110085500Y-45525500D01*
D31*
%TO.N,Net-(U3-D+)*%
X105540000Y-53952633D02*
X105484555Y-54008078D01*
D30*
X105540000Y-50194500D02*
X105540000Y-53952633D01*
%TD*%
%TA.AperFunction,Conductor*%
%TO.N,GND*%
G36*
X56822949Y-37029104D02*
G01*
X56868713Y-37081900D01*
X56878668Y-37151057D01*
X56849653Y-37214617D01*
X56815354Y-37236667D01*
X56816223Y-37237908D01*
X56767380Y-37272106D01*
X56758264Y-37277914D01*
X56725545Y-37296805D01*
X56701262Y-37325744D01*
X56693956Y-37333716D01*
X51853714Y-42173958D01*
X51845741Y-42181264D01*
X51816806Y-42205544D01*
X51797914Y-42238264D01*
X51792106Y-42247380D01*
X51769831Y-42279193D01*
X51759597Y-42303899D01*
X51752852Y-42342148D01*
X51750512Y-42352704D01*
X51740735Y-42389191D01*
X51744028Y-42426817D01*
X51744500Y-42437626D01*
X51744500Y-45278837D01*
X51724815Y-45345876D01*
X51708181Y-45366518D01*
X51056519Y-46018181D01*
X50995196Y-46051666D01*
X50968838Y-46054500D01*
X49549616Y-46054500D01*
X49538808Y-46054028D01*
X49501193Y-46050736D01*
X49464716Y-46060510D01*
X49454162Y-46062849D01*
X49415905Y-46069595D01*
X49391190Y-46079834D01*
X49359377Y-46102108D01*
X49350261Y-46107915D01*
X49317545Y-46126804D01*
X49293262Y-46155743D01*
X49285956Y-46163715D01*
X48983714Y-46465958D01*
X48975741Y-46473264D01*
X48946806Y-46497544D01*
X48927914Y-46530264D01*
X48922106Y-46539380D01*
X48899831Y-46571193D01*
X48889597Y-46595899D01*
X48882852Y-46634148D01*
X48880512Y-46644704D01*
X48870735Y-46681191D01*
X48874028Y-46718817D01*
X48874500Y-46729626D01*
X48874500Y-48803501D01*
X48854815Y-48870540D01*
X48832727Y-48896317D01*
X48827760Y-48900716D01*
X48827760Y-48900717D01*
X48809284Y-48917085D01*
X48709516Y-49005471D01*
X48619780Y-49135476D01*
X48563763Y-49283181D01*
X48544721Y-49440000D01*
X48563763Y-49596818D01*
X48619780Y-49744523D01*
X48709515Y-49874528D01*
X48709516Y-49874529D01*
X48709517Y-49874530D01*
X48827760Y-49979283D01*
X48967635Y-50052696D01*
X49121015Y-50090500D01*
X49278985Y-50090500D01*
X49432365Y-50052696D01*
X49572240Y-49979283D01*
X49690483Y-49874530D01*
X49780220Y-49744523D01*
X49836237Y-49596818D01*
X49855278Y-49440000D01*
X49836237Y-49283182D01*
X49780220Y-49135477D01*
X49690483Y-49005470D01*
X49572240Y-48900717D01*
X49572239Y-48900716D01*
X49567273Y-48896317D01*
X49530146Y-48837127D01*
X49525500Y-48803501D01*
X49525500Y-48305065D01*
X49525500Y-47791356D01*
X49545183Y-47724321D01*
X49597987Y-47678566D01*
X49667146Y-47668622D01*
X49679173Y-47670963D01*
X49817270Y-47705000D01*
X49975240Y-47705000D01*
X50128620Y-47667196D01*
X50268495Y-47593783D01*
X50386738Y-47489030D01*
X50425026Y-47433559D01*
X50479309Y-47389570D01*
X50527076Y-47380000D01*
X50955873Y-47380000D01*
X50966680Y-47380471D01*
X51004307Y-47383764D01*
X51024377Y-47385520D01*
X51089445Y-47410973D01*
X51130424Y-47467564D01*
X51136665Y-47523994D01*
X51134721Y-47539998D01*
X51153763Y-47696818D01*
X51209780Y-47844523D01*
X51299515Y-47974528D01*
X51299516Y-47974529D01*
X51299517Y-47974530D01*
X51417760Y-48079283D01*
X51557635Y-48152696D01*
X51711015Y-48190500D01*
X51868985Y-48190500D01*
X52022365Y-48152696D01*
X52162240Y-48079283D01*
X52280483Y-47974530D01*
X52318771Y-47919059D01*
X52373054Y-47875070D01*
X52420821Y-47865500D01*
X52590521Y-47865500D01*
X52601328Y-47865971D01*
X52638955Y-47869264D01*
X52675472Y-47859478D01*
X52685978Y-47857149D01*
X52723193Y-47850588D01*
X52723195Y-47850586D01*
X52724260Y-47850399D01*
X52748947Y-47840173D01*
X52749830Y-47839554D01*
X52749832Y-47839554D01*
X52780773Y-47817887D01*
X52789870Y-47812091D01*
X52822603Y-47793194D01*
X52846896Y-47764241D01*
X52854184Y-47756288D01*
X53157821Y-47452651D01*
X53219142Y-47419168D01*
X53288834Y-47424152D01*
X53344767Y-47466024D01*
X53369184Y-47531488D01*
X53369500Y-47540327D01*
X53369500Y-47555735D01*
X53369500Y-47555760D01*
X53369501Y-47558162D01*
X53369690Y-47560571D01*
X53369691Y-47560583D01*
X53372290Y-47593628D01*
X53416381Y-47745389D01*
X53496830Y-47881421D01*
X53608578Y-47993169D01*
X53668772Y-48028768D01*
X53716456Y-48079837D01*
X53728959Y-48148579D01*
X53702313Y-48213168D01*
X53644978Y-48253098D01*
X53605651Y-48259500D01*
X52558220Y-48259500D01*
X52547412Y-48259028D01*
X52509797Y-48255736D01*
X52473320Y-48265510D01*
X52462766Y-48267849D01*
X52424509Y-48274595D01*
X52399794Y-48284834D01*
X52367981Y-48307108D01*
X52358865Y-48312915D01*
X52326149Y-48331804D01*
X52301866Y-48360743D01*
X52294560Y-48368715D01*
X50573714Y-50089562D01*
X50565741Y-50096868D01*
X50536806Y-50121148D01*
X50517914Y-50153868D01*
X50512106Y-50162984D01*
X50489831Y-50194797D01*
X50479597Y-50219503D01*
X50472852Y-50257752D01*
X50470512Y-50268308D01*
X50460735Y-50304795D01*
X50464028Y-50342421D01*
X50464500Y-50353230D01*
X50464500Y-64560372D01*
X50464028Y-64571180D01*
X50460735Y-64608807D01*
X50470512Y-64645296D01*
X50472853Y-64655852D01*
X50479599Y-64694107D01*
X50489829Y-64718803D01*
X50490446Y-64719684D01*
X50512112Y-64750627D01*
X50517915Y-64759736D01*
X50536806Y-64792455D01*
X50565742Y-64816735D01*
X50573718Y-64824044D01*
X51503137Y-65753463D01*
X51536622Y-65814786D01*
X51538552Y-65856090D01*
X51524721Y-65969998D01*
X51543763Y-66126818D01*
X51599780Y-66274523D01*
X51689515Y-66404528D01*
X51689516Y-66404529D01*
X51689517Y-66404530D01*
X51807760Y-66509283D01*
X51947635Y-66582696D01*
X52101015Y-66620500D01*
X52258985Y-66620500D01*
X52412365Y-66582696D01*
X52552240Y-66509283D01*
X52670483Y-66404530D01*
X52760220Y-66274523D01*
X52816237Y-66126818D01*
X52835278Y-65970000D01*
X52816237Y-65813182D01*
X52760220Y-65665477D01*
X52683066Y-65553699D01*
X52670484Y-65535471D01*
X52670483Y-65535470D01*
X52552240Y-65430717D01*
X52488323Y-65397170D01*
X52438113Y-65348585D01*
X52422139Y-65280566D01*
X52445475Y-65214708D01*
X52488324Y-65177580D01*
X52542240Y-65149283D01*
X52660483Y-65044530D01*
X52750220Y-64914523D01*
X52806237Y-64766818D01*
X52806237Y-64766816D01*
X52810518Y-64755529D01*
X52852696Y-64699826D01*
X52918293Y-64675769D01*
X52926460Y-64675500D01*
X57373300Y-64675500D01*
X57440339Y-64695185D01*
X57486094Y-64747989D01*
X57496038Y-64817147D01*
X57480677Y-64861517D01*
X57477907Y-64866313D01*
X57472107Y-64875416D01*
X57449831Y-64907230D01*
X57439597Y-64931937D01*
X57432852Y-64970186D01*
X57430512Y-64980742D01*
X57420735Y-65017230D01*
X57424028Y-65054859D01*
X57424500Y-65065667D01*
X57424500Y-66213811D01*
X57404815Y-66280850D01*
X57388181Y-66301492D01*
X57201493Y-66488181D01*
X57140170Y-66521666D01*
X57113812Y-66524500D01*
X55759628Y-66524500D01*
X55748820Y-66524028D01*
X55711192Y-66520735D01*
X55674704Y-66530512D01*
X55664148Y-66532852D01*
X55625899Y-66539597D01*
X55601193Y-66549831D01*
X55569380Y-66572106D01*
X55560264Y-66577914D01*
X55527545Y-66596805D01*
X55503262Y-66625744D01*
X55495956Y-66633716D01*
X55437639Y-66692033D01*
X55376316Y-66725518D01*
X55320285Y-66724749D01*
X55298987Y-66719500D01*
X55298985Y-66719500D01*
X55141015Y-66719500D01*
X54987635Y-66757303D01*
X54847761Y-66830716D01*
X54729515Y-66935471D01*
X54639780Y-67065476D01*
X54583763Y-67213181D01*
X54564721Y-67370000D01*
X54583763Y-67526818D01*
X54639780Y-67674523D01*
X54729515Y-67804528D01*
X54729516Y-67804529D01*
X54729517Y-67804530D01*
X54847760Y-67909283D01*
X54987635Y-67982696D01*
X55141015Y-68020500D01*
X55298985Y-68020500D01*
X55452365Y-67982696D01*
X55592240Y-67909283D01*
X55710483Y-67804530D01*
X55800220Y-67674523D01*
X55856237Y-67526818D01*
X55875278Y-67370000D01*
X55868533Y-67314446D01*
X55879994Y-67245523D01*
X55926898Y-67193737D01*
X55991629Y-67175500D01*
X57280373Y-67175500D01*
X57291180Y-67175971D01*
X57328807Y-67179264D01*
X57365324Y-67169478D01*
X57375830Y-67167149D01*
X57413045Y-67160588D01*
X57413047Y-67160586D01*
X57414112Y-67160399D01*
X57438799Y-67150173D01*
X57439682Y-67149554D01*
X57439684Y-67149554D01*
X57470625Y-67127887D01*
X57479722Y-67122091D01*
X57512455Y-67103194D01*
X57536748Y-67074241D01*
X57544035Y-67066289D01*
X57752476Y-66857849D01*
X57797743Y-66829012D01*
X57807392Y-66825500D01*
X57807394Y-66825500D01*
X57824380Y-66819317D01*
X57845241Y-66813727D01*
X57863045Y-66810588D01*
X57878701Y-66801548D01*
X57898275Y-66792421D01*
X57915260Y-66786240D01*
X57929104Y-66774622D01*
X57946796Y-66762233D01*
X57962455Y-66753194D01*
X57962457Y-66753191D01*
X57963504Y-66752587D01*
X58031405Y-66736118D01*
X58097431Y-66758972D01*
X58140619Y-66813895D01*
X58149500Y-66859977D01*
X58149500Y-73846000D01*
X58129815Y-73913039D01*
X58077011Y-73958794D01*
X58025500Y-73970000D01*
X54274500Y-73970000D01*
X54207461Y-73950315D01*
X54161706Y-73897511D01*
X54150500Y-73846000D01*
X54150500Y-73531000D01*
X54150734Y-73325800D01*
X54160000Y-65190000D01*
X54159999Y-65190000D01*
X54159999Y-65189998D01*
X54159460Y-65189459D01*
X54125446Y-65189459D01*
X54125240Y-65189500D01*
X53174760Y-65189500D01*
X53174554Y-65189459D01*
X53149999Y-65189459D01*
X53149900Y-65189500D01*
X53149618Y-65189615D01*
X53149615Y-65189618D01*
X53149459Y-65189999D01*
X53149476Y-65214616D01*
X53149471Y-65214616D01*
X53149499Y-65214759D01*
X53149499Y-65689999D01*
X53140124Y-75065624D01*
X53120372Y-75132644D01*
X53067523Y-75178346D01*
X53016124Y-75189500D01*
X50470185Y-75189500D01*
X50403146Y-75169815D01*
X50357391Y-75117011D01*
X50347447Y-75047853D01*
X50376472Y-74984297D01*
X50435250Y-74946523D01*
X50451703Y-74942885D01*
X50660615Y-74911396D01*
X50911323Y-74834063D01*
X51147704Y-74720228D01*
X51364479Y-74572433D01*
X51364482Y-74572429D01*
X51364485Y-74572428D01*
X51503924Y-74443047D01*
X51556805Y-74393981D01*
X51720386Y-74188857D01*
X51851568Y-73961643D01*
X51947420Y-73717416D01*
X52005802Y-73461630D01*
X52025408Y-73200000D01*
X52005802Y-72938370D01*
X51947420Y-72682584D01*
X51940826Y-72665784D01*
X51851568Y-72438358D01*
X51851568Y-72438357D01*
X51720386Y-72211143D01*
X51556805Y-72006019D01*
X51556801Y-72006015D01*
X51364485Y-71827571D01*
X51308190Y-71789190D01*
X51147704Y-71679772D01*
X50911323Y-71565937D01*
X50660615Y-71488604D01*
X50401182Y-71449500D01*
X50138818Y-71449500D01*
X49879385Y-71488604D01*
X49628677Y-71565937D01*
X49433829Y-71659771D01*
X49392296Y-71679772D01*
X49338583Y-71716393D01*
X49175514Y-71827571D01*
X48983198Y-72006015D01*
X48819613Y-72211143D01*
X48688431Y-72438358D01*
X48592580Y-72682581D01*
X48534937Y-72935127D01*
X48500828Y-72996106D01*
X48439166Y-73028963D01*
X48369529Y-73023267D01*
X48314026Y-72980827D01*
X48290278Y-72915117D01*
X48290047Y-72907765D01*
X48248881Y-44744578D01*
X48989500Y-44744578D01*
X48989501Y-44747872D01*
X48989853Y-44751152D01*
X48989854Y-44751159D01*
X48995909Y-44807483D01*
X49046204Y-44942331D01*
X49132454Y-45057546D01*
X49247669Y-45143796D01*
X49382517Y-45194091D01*
X49442127Y-45200500D01*
X51037872Y-45200499D01*
X51097483Y-45194091D01*
X51232331Y-45143796D01*
X51347546Y-45057546D01*
X51433796Y-44942331D01*
X51484091Y-44807483D01*
X51490500Y-44747873D01*
X51490499Y-44152128D01*
X51484091Y-44092517D01*
X51433796Y-43957669D01*
X51382622Y-43889310D01*
X51358205Y-43823847D01*
X51373056Y-43755574D01*
X51382623Y-43740689D01*
X51433796Y-43672331D01*
X51484091Y-43537483D01*
X51490500Y-43477873D01*
X51490499Y-42882128D01*
X51484091Y-42822517D01*
X51433796Y-42687669D01*
X51347546Y-42572454D01*
X51232331Y-42486204D01*
X51097483Y-42435909D01*
X51037873Y-42429500D01*
X51034550Y-42429500D01*
X49445439Y-42429500D01*
X49445420Y-42429500D01*
X49442128Y-42429501D01*
X49438848Y-42429853D01*
X49438840Y-42429854D01*
X49382515Y-42435909D01*
X49247669Y-42486204D01*
X49132454Y-42572454D01*
X49046204Y-42687668D01*
X48995910Y-42822515D01*
X48995909Y-42822517D01*
X48989500Y-42882127D01*
X48989500Y-42885448D01*
X48989500Y-42885449D01*
X48989500Y-43474560D01*
X48989500Y-43474578D01*
X48989501Y-43477872D01*
X48995909Y-43537483D01*
X49046204Y-43672331D01*
X49097377Y-43740689D01*
X49121794Y-43806154D01*
X49106942Y-43874427D01*
X49097377Y-43889311D01*
X49046204Y-43957668D01*
X48995909Y-44092516D01*
X48990867Y-44139416D01*
X48989500Y-44152127D01*
X48989500Y-44155448D01*
X48989500Y-44155449D01*
X48989500Y-44744560D01*
X48989500Y-44744578D01*
X48248881Y-44744578D01*
X48240614Y-39088502D01*
X48260201Y-39021437D01*
X48312938Y-38975605D01*
X48382082Y-38965560D01*
X48445680Y-38994492D01*
X48483540Y-39053215D01*
X48488267Y-39079057D01*
X48504197Y-39291627D01*
X48562580Y-39547418D01*
X48658431Y-39791641D01*
X48784913Y-40010716D01*
X48789614Y-40018857D01*
X48953195Y-40223981D01*
X48953197Y-40223983D01*
X48953198Y-40223984D01*
X49145514Y-40402428D01*
X49145520Y-40402432D01*
X49145521Y-40402433D01*
X49362296Y-40550228D01*
X49598677Y-40664063D01*
X49849385Y-40741396D01*
X50108818Y-40780500D01*
X50371182Y-40780500D01*
X50630615Y-40741396D01*
X50881323Y-40664063D01*
X51117704Y-40550228D01*
X51334479Y-40402433D01*
X51334482Y-40402429D01*
X51334485Y-40402428D01*
X51419792Y-40323273D01*
X51526805Y-40223981D01*
X51690386Y-40018857D01*
X51821568Y-39791643D01*
X51917420Y-39547416D01*
X51975802Y-39291630D01*
X51995408Y-39030000D01*
X51975802Y-38768370D01*
X51917420Y-38512584D01*
X51821568Y-38268357D01*
X51690386Y-38041143D01*
X51526805Y-37836019D01*
X51503459Y-37814357D01*
X51334485Y-37657571D01*
X51292337Y-37628835D01*
X51117704Y-37509772D01*
X50881323Y-37395937D01*
X50630615Y-37318604D01*
X50371182Y-37279500D01*
X50108818Y-37279500D01*
X50108817Y-37279500D01*
X49862318Y-37316654D01*
X49793094Y-37307181D01*
X49782479Y-37298109D01*
X49738664Y-37348161D01*
X49708704Y-37361998D01*
X49598674Y-37395937D01*
X49370471Y-37505834D01*
X49354934Y-37508392D01*
X49353560Y-37511289D01*
X49330895Y-37531181D01*
X49145518Y-37657568D01*
X49010131Y-37783189D01*
X48947599Y-37814357D01*
X48903288Y-37809516D01*
X48911583Y-37828825D01*
X48900076Y-37897740D01*
X48885424Y-37921000D01*
X48789613Y-38041143D01*
X48732041Y-38140861D01*
X48681474Y-38189077D01*
X48612867Y-38202299D01*
X48548002Y-38176331D01*
X48507474Y-38119417D01*
X48504149Y-38049627D01*
X48511848Y-38027377D01*
X48539865Y-37966006D01*
X48549551Y-37948635D01*
X48605641Y-37864690D01*
X48609441Y-37859321D01*
X48617992Y-37847897D01*
X48625396Y-37838920D01*
X48696631Y-37760380D01*
X48756246Y-37723949D01*
X48811357Y-37725197D01*
X48801862Y-37696505D01*
X48819256Y-37628835D01*
X48833933Y-37608994D01*
X48916469Y-37517993D01*
X48926522Y-37508107D01*
X48975857Y-37464841D01*
X48983282Y-37458822D01*
X49005201Y-37442413D01*
X49013998Y-37436400D01*
X49195535Y-37323443D01*
X49225575Y-37315097D01*
X49233573Y-37302077D01*
X49251145Y-37288841D01*
X49368653Y-37215725D01*
X49379268Y-37209825D01*
X49422898Y-37188309D01*
X49443371Y-37180383D01*
X49637826Y-37124354D01*
X49707691Y-37124708D01*
X49734871Y-37142371D01*
X49739068Y-37127711D01*
X49791560Y-37081598D01*
X49809499Y-37074889D01*
X49954423Y-37033131D01*
X49979899Y-37028601D01*
X50156085Y-37016000D01*
X50191558Y-37013675D01*
X50195361Y-37013487D01*
X50283271Y-37010557D01*
X50287215Y-37010491D01*
X56755908Y-37009430D01*
X56822949Y-37029104D01*
G37*
%TD.AperFunction*%
%TA.AperFunction,Conductor*%
G36*
X67130851Y-37945185D02*
G01*
X67151493Y-37961819D01*
X67303137Y-38113463D01*
X67336622Y-38174786D01*
X67338552Y-38216090D01*
X67324721Y-38329998D01*
X67343763Y-38486818D01*
X67399780Y-38634523D01*
X67489515Y-38764528D01*
X67489516Y-38764529D01*
X67489517Y-38764530D01*
X67607760Y-38869283D01*
X67747635Y-38942696D01*
X67901015Y-38980500D01*
X68059811Y-38980500D01*
X68126850Y-39000185D01*
X68172605Y-39052989D01*
X68182549Y-39122147D01*
X68153524Y-39185703D01*
X68147491Y-39192182D01*
X68097638Y-39242034D01*
X68036315Y-39275518D01*
X67980285Y-39274749D01*
X67958987Y-39269500D01*
X67958985Y-39269500D01*
X67801015Y-39269500D01*
X67647635Y-39307303D01*
X67507761Y-39380716D01*
X67389515Y-39485471D01*
X67299780Y-39615476D01*
X67243763Y-39763181D01*
X67224721Y-39920000D01*
X67243763Y-40076818D01*
X67299780Y-40224523D01*
X67389515Y-40354528D01*
X67389516Y-40354529D01*
X67389517Y-40354530D01*
X67507760Y-40459283D01*
X67608755Y-40512290D01*
X67647635Y-40532696D01*
X67815633Y-40574103D01*
X67815041Y-40576504D01*
X67861633Y-40590185D01*
X67907388Y-40642989D01*
X67917332Y-40712147D01*
X67904390Y-40752124D01*
X67895719Y-40768647D01*
X67827077Y-40899430D01*
X67786368Y-41064599D01*
X67786368Y-41234710D01*
X67827077Y-41399879D01*
X67827078Y-41399880D01*
X67906134Y-41550507D01*
X68018939Y-41677838D01*
X68158938Y-41774473D01*
X68317996Y-41834795D01*
X68444496Y-41850155D01*
X68448245Y-41850155D01*
X68525491Y-41850155D01*
X68529240Y-41850155D01*
X68655740Y-41834795D01*
X68814798Y-41774473D01*
X68954797Y-41677838D01*
X69039587Y-41582128D01*
X69098773Y-41545005D01*
X69168639Y-41545772D01*
X69226999Y-41584189D01*
X69255324Y-41648059D01*
X69256400Y-41664358D01*
X69256400Y-43052400D01*
X74739800Y-43052400D01*
X74806839Y-43072085D01*
X74852594Y-43124889D01*
X74862538Y-43194047D01*
X74833513Y-43257603D01*
X74827481Y-43264081D01*
X74480780Y-43610781D01*
X74419457Y-43644266D01*
X74393099Y-43647100D01*
X74246015Y-43647100D01*
X74092635Y-43684903D01*
X73952761Y-43758316D01*
X73834515Y-43863071D01*
X73744780Y-43993076D01*
X73688763Y-44140781D01*
X73669721Y-44297600D01*
X73688763Y-44454418D01*
X73744780Y-44602123D01*
X73834515Y-44732128D01*
X73834516Y-44732129D01*
X73834517Y-44732130D01*
X73952760Y-44836883D01*
X74092635Y-44910296D01*
X74246015Y-44948100D01*
X74403985Y-44948100D01*
X74557365Y-44910296D01*
X74697240Y-44836883D01*
X74815483Y-44732130D01*
X74905220Y-44602123D01*
X74961237Y-44454418D01*
X74966404Y-44411858D01*
X74994025Y-44347682D01*
X75051959Y-44308625D01*
X75121812Y-44307090D01*
X75181406Y-44343564D01*
X75211820Y-44406466D01*
X75213500Y-44426806D01*
X75213500Y-45015738D01*
X75213500Y-45015763D01*
X75213501Y-45018162D01*
X75213690Y-45020571D01*
X75213691Y-45020583D01*
X75216290Y-45053628D01*
X75259864Y-45203607D01*
X75259665Y-45273476D01*
X75221723Y-45332146D01*
X75158085Y-45360990D01*
X75140788Y-45362202D01*
X68372021Y-45362202D01*
X68361213Y-45361730D01*
X68323585Y-45358437D01*
X68287097Y-45368214D01*
X68276541Y-45370554D01*
X68238292Y-45377299D01*
X68213586Y-45387533D01*
X68181773Y-45409808D01*
X68172657Y-45415616D01*
X68139938Y-45434507D01*
X68115655Y-45463446D01*
X68108349Y-45471418D01*
X66924687Y-46655080D01*
X66863364Y-46688565D01*
X66793672Y-46683581D01*
X66737739Y-46641709D01*
X66734956Y-46637839D01*
X66721551Y-46618418D01*
X66640483Y-46500970D01*
X66546654Y-46417846D01*
X66509528Y-46358657D01*
X66510296Y-46288792D01*
X66546652Y-46232218D01*
X66600483Y-46184530D01*
X66690220Y-46054523D01*
X66746237Y-45906818D01*
X66765278Y-45750000D01*
X66746237Y-45593182D01*
X66690220Y-45445477D01*
X66637857Y-45369616D01*
X66600484Y-45315471D01*
X66593425Y-45309217D01*
X66482240Y-45210717D01*
X66462773Y-45200500D01*
X66342364Y-45137303D01*
X66188985Y-45099500D01*
X66031015Y-45099500D01*
X65877635Y-45137303D01*
X65737761Y-45210716D01*
X65619515Y-45315471D01*
X65588275Y-45360732D01*
X65582788Y-45368682D01*
X65581229Y-45370940D01*
X65526946Y-45414930D01*
X65479179Y-45424500D01*
X64986189Y-45424500D01*
X64919150Y-45404815D01*
X64898508Y-45388181D01*
X64719818Y-45209491D01*
X64686333Y-45148168D01*
X64683500Y-45121819D01*
X64683500Y-41080189D01*
X64703185Y-41013150D01*
X64719819Y-40992507D01*
X64800509Y-40911818D01*
X64861833Y-40878334D01*
X64888190Y-40875500D01*
X65519179Y-40875500D01*
X65586218Y-40895185D01*
X65621229Y-40929060D01*
X65659515Y-40984528D01*
X65659516Y-40984529D01*
X65659517Y-40984530D01*
X65777760Y-41089283D01*
X65917635Y-41162696D01*
X66071015Y-41200500D01*
X66228985Y-41200500D01*
X66382365Y-41162696D01*
X66522240Y-41089283D01*
X66640483Y-40984530D01*
X66730220Y-40854523D01*
X66786237Y-40706818D01*
X66805278Y-40550000D01*
X66786237Y-40393182D01*
X66730220Y-40245477D01*
X66640483Y-40115470D01*
X66522240Y-40010717D01*
X66508994Y-40003764D01*
X66382364Y-39937303D01*
X66228985Y-39899500D01*
X66071015Y-39899500D01*
X65917635Y-39937303D01*
X65777761Y-40010716D01*
X65659515Y-40115471D01*
X65621229Y-40170940D01*
X65566946Y-40214930D01*
X65519179Y-40224500D01*
X65292214Y-40224500D01*
X65225175Y-40204815D01*
X65179420Y-40152011D01*
X65169476Y-40082853D01*
X65198501Y-40019297D01*
X65204533Y-40012819D01*
X65601875Y-39615476D01*
X65747200Y-39470150D01*
X65808521Y-39436667D01*
X65864554Y-39437436D01*
X65867632Y-39438194D01*
X65867635Y-39438196D01*
X66021015Y-39476000D01*
X66021016Y-39476000D01*
X66178985Y-39476000D01*
X66332365Y-39438196D01*
X66472240Y-39364783D01*
X66590483Y-39260030D01*
X66680220Y-39130023D01*
X66736237Y-38982318D01*
X66755278Y-38825500D01*
X66736237Y-38668682D01*
X66680220Y-38520977D01*
X66590483Y-38390970D01*
X66472240Y-38286217D01*
X66425754Y-38261819D01*
X66332364Y-38212803D01*
X66178985Y-38175000D01*
X66021015Y-38175000D01*
X65867635Y-38212803D01*
X65727761Y-38286216D01*
X65609515Y-38390971D01*
X65519780Y-38520976D01*
X65463763Y-38668681D01*
X65446221Y-38813157D01*
X65418599Y-38877335D01*
X65410806Y-38885892D01*
X63791714Y-40504984D01*
X63783741Y-40512290D01*
X63754806Y-40536570D01*
X63735914Y-40569290D01*
X63730106Y-40578406D01*
X63707831Y-40610219D01*
X63697599Y-40634921D01*
X63690853Y-40673175D01*
X63688513Y-40683730D01*
X63678736Y-40720220D01*
X63682027Y-40757842D01*
X63682499Y-40768647D01*
X63682499Y-45446377D01*
X63682027Y-45457182D01*
X63681117Y-45467591D01*
X63678736Y-45494807D01*
X63685858Y-45521387D01*
X63688513Y-45531297D01*
X63690853Y-45541852D01*
X63697599Y-45580107D01*
X63707829Y-45604803D01*
X63708446Y-45605684D01*
X63730112Y-45636627D01*
X63735915Y-45645736D01*
X63754806Y-45678455D01*
X63783742Y-45702735D01*
X63791718Y-45710044D01*
X65154493Y-47072819D01*
X65187978Y-47134142D01*
X65182994Y-47203834D01*
X65141122Y-47259767D01*
X65075658Y-47284184D01*
X65066812Y-47284500D01*
X58046189Y-47284500D01*
X57979150Y-47264815D01*
X57958508Y-47248181D01*
X57173686Y-46463359D01*
X57140201Y-46402036D01*
X57137368Y-46375687D01*
X57137368Y-43024155D01*
X57157053Y-42957116D01*
X57209857Y-42911361D01*
X57261368Y-42900155D01*
X58311543Y-42900155D01*
X58335897Y-42895310D01*
X58384608Y-42885621D01*
X58467469Y-42830256D01*
X58522834Y-42747395D01*
X58537368Y-42674329D01*
X58537368Y-41234710D01*
X59786368Y-41234710D01*
X59827077Y-41399879D01*
X59827078Y-41399880D01*
X59906134Y-41550507D01*
X60018939Y-41677838D01*
X60158938Y-41774473D01*
X60317996Y-41834795D01*
X60444496Y-41850155D01*
X60448245Y-41850155D01*
X60525491Y-41850155D01*
X60529240Y-41850155D01*
X60655740Y-41834795D01*
X60814798Y-41774473D01*
X60954797Y-41677838D01*
X61067602Y-41550507D01*
X61146658Y-41399880D01*
X61187368Y-41234711D01*
X61187368Y-41064599D01*
X61146658Y-40899430D01*
X61067602Y-40748803D01*
X60954797Y-40621472D01*
X60954796Y-40621471D01*
X60954795Y-40621470D01*
X60814798Y-40524837D01*
X60655740Y-40464515D01*
X60532960Y-40449606D01*
X60532948Y-40449605D01*
X60529240Y-40449155D01*
X60444496Y-40449155D01*
X60440788Y-40449605D01*
X60440775Y-40449606D01*
X60317995Y-40464515D01*
X60158937Y-40524837D01*
X60018940Y-40621470D01*
X59906133Y-40748804D01*
X59827077Y-40899430D01*
X59786368Y-41064599D01*
X59786368Y-41234710D01*
X58537368Y-41234710D01*
X58537368Y-40424981D01*
X58522834Y-40351915D01*
X58467469Y-40269054D01*
X58384608Y-40213689D01*
X58384607Y-40213688D01*
X58384606Y-40213688D01*
X58311543Y-40199155D01*
X58311542Y-40199155D01*
X57062194Y-40199155D01*
X57062193Y-40199155D01*
X56989129Y-40213688D01*
X56906267Y-40269054D01*
X56850901Y-40351916D01*
X56836368Y-40424980D01*
X56836368Y-42070214D01*
X56816683Y-42137253D01*
X56763879Y-42183008D01*
X56694721Y-42192952D01*
X56690831Y-42192329D01*
X56665446Y-42187852D01*
X56654891Y-42185512D01*
X56618402Y-42175735D01*
X56580775Y-42179028D01*
X56569967Y-42179500D01*
X54003612Y-42179500D01*
X53936573Y-42159815D01*
X53921386Y-42148316D01*
X53820185Y-42058662D01*
X53820184Y-42058661D01*
X53755265Y-42024588D01*
X53705054Y-41976004D01*
X53689080Y-41907984D01*
X53712416Y-41842127D01*
X53725206Y-41827119D01*
X57290506Y-38261819D01*
X57351830Y-38228334D01*
X57378188Y-38225500D01*
X65013665Y-38225500D01*
X65024472Y-38225971D01*
X65062099Y-38229264D01*
X65098616Y-38219478D01*
X65109122Y-38217149D01*
X65146337Y-38210588D01*
X65146339Y-38210586D01*
X65147404Y-38210399D01*
X65172091Y-38200173D01*
X65172974Y-38199554D01*
X65172976Y-38199554D01*
X65203917Y-38177887D01*
X65213014Y-38172091D01*
X65245747Y-38153194D01*
X65270040Y-38124241D01*
X65277316Y-38116300D01*
X65431800Y-37961817D01*
X65493123Y-37928334D01*
X65519480Y-37925500D01*
X67063812Y-37925500D01*
X67130851Y-37945185D01*
G37*
%TD.AperFunction*%
%TA.AperFunction,Conductor*%
G36*
X113131541Y-43072085D02*
G01*
X113177296Y-43124889D01*
X113188501Y-43176725D01*
X113163257Y-52764411D01*
X113109636Y-73128328D01*
X113109500Y-73128786D01*
X113109500Y-73175946D01*
X113109234Y-73184057D01*
X113104018Y-73263629D01*
X113093857Y-73405699D01*
X113091765Y-73421169D01*
X113081102Y-73474484D01*
X113071182Y-73493399D01*
X113072426Y-73496841D01*
X113070250Y-73528744D01*
X113030320Y-73728392D01*
X113026147Y-73743932D01*
X112995326Y-73834727D01*
X112991357Y-73844919D01*
X112941287Y-73958413D01*
X112896218Y-74011803D01*
X112829438Y-74032352D01*
X112762150Y-74013534D01*
X112715717Y-73961326D01*
X112704881Y-73892301D01*
X112712407Y-73863065D01*
X112777420Y-73697416D01*
X112827767Y-73476831D01*
X112836231Y-73461699D01*
X112835992Y-73461089D01*
X112835857Y-73440900D01*
X112855408Y-73179999D01*
X112835802Y-72918372D01*
X112835059Y-72915117D01*
X112777420Y-72662584D01*
X112768923Y-72640935D01*
X112747579Y-72586550D01*
X112681568Y-72418357D01*
X112550386Y-72191143D01*
X112386805Y-71986019D01*
X112364814Y-71965614D01*
X112194485Y-71807571D01*
X112163110Y-71786180D01*
X111977704Y-71659772D01*
X111741323Y-71545937D01*
X111490615Y-71468604D01*
X111231182Y-71429500D01*
X110968818Y-71429500D01*
X110709385Y-71468604D01*
X110458677Y-71545937D01*
X110222296Y-71659772D01*
X110160641Y-71701808D01*
X110005514Y-71807571D01*
X109813198Y-71986015D01*
X109649613Y-72191143D01*
X109518431Y-72418358D01*
X109422580Y-72662581D01*
X109364197Y-72918372D01*
X109344591Y-73180000D01*
X109364197Y-73441627D01*
X109422580Y-73697418D01*
X109518431Y-73941641D01*
X109643322Y-74157960D01*
X109649614Y-74168857D01*
X109813195Y-74373981D01*
X109813197Y-74373983D01*
X109813198Y-74373984D01*
X110005514Y-74552428D01*
X110005520Y-74552432D01*
X110005521Y-74552433D01*
X110222296Y-74700228D01*
X110458677Y-74814063D01*
X110709385Y-74891396D01*
X110968818Y-74930500D01*
X111174268Y-74930500D01*
X111241307Y-74950185D01*
X111287062Y-75002989D01*
X111297006Y-75072147D01*
X111267981Y-75135703D01*
X111209203Y-75173477D01*
X111189647Y-75177543D01*
X111101702Y-75188535D01*
X111086270Y-75189492D01*
X109905674Y-75188990D01*
X75880000Y-75160000D01*
X74879999Y-75170000D01*
X59293954Y-75179921D01*
X59226902Y-75160279D01*
X59181113Y-75107504D01*
X59169875Y-75056048D01*
X59162900Y-68094500D01*
X59159950Y-65149624D01*
X59179567Y-65082565D01*
X59232326Y-65036757D01*
X59283950Y-65025500D01*
X59432989Y-65025500D01*
X59500028Y-65045185D01*
X59545783Y-65097989D01*
X59556084Y-65134552D01*
X59561763Y-65181318D01*
X59617780Y-65329023D01*
X59707517Y-65459030D01*
X59825760Y-65563783D01*
X59830727Y-65568183D01*
X59867854Y-65627373D01*
X59872500Y-65660999D01*
X59872500Y-68451501D01*
X59852815Y-68518540D01*
X59830727Y-68544317D01*
X59707516Y-68653471D01*
X59617780Y-68783476D01*
X59561763Y-68931181D01*
X59542721Y-69088000D01*
X59561763Y-69244818D01*
X59617780Y-69392523D01*
X59707515Y-69522528D01*
X59707516Y-69522529D01*
X59707517Y-69522530D01*
X59825760Y-69627283D01*
X59965635Y-69700696D01*
X60119015Y-69738500D01*
X60276984Y-69738500D01*
X60276985Y-69738500D01*
X60395825Y-69709209D01*
X60465628Y-69712278D01*
X60522690Y-69752598D01*
X60548895Y-69817368D01*
X60549500Y-69829606D01*
X60549500Y-71775372D01*
X60549028Y-71786180D01*
X60545735Y-71823807D01*
X60555512Y-71860296D01*
X60557853Y-71870852D01*
X60564599Y-71909107D01*
X60574829Y-71933803D01*
X60575446Y-71934684D01*
X60597112Y-71965627D01*
X60602915Y-71974736D01*
X60621806Y-72007455D01*
X60650742Y-72031735D01*
X60658718Y-72039044D01*
X63186750Y-74567076D01*
X63194058Y-74575050D01*
X63218345Y-74603994D01*
X63242394Y-74617879D01*
X63251056Y-74622880D01*
X63260179Y-74628692D01*
X63291116Y-74650354D01*
X63291117Y-74650354D01*
X63291998Y-74650971D01*
X63316691Y-74661200D01*
X63317754Y-74661387D01*
X63317755Y-74661388D01*
X63354943Y-74667945D01*
X63365506Y-74670287D01*
X63401992Y-74680064D01*
X63401992Y-74680063D01*
X63401993Y-74680064D01*
X63439619Y-74676771D01*
X63450427Y-74676300D01*
X64922325Y-74676300D01*
X65461525Y-74676300D01*
X85362325Y-74676300D01*
X85951525Y-74676300D01*
X95746589Y-74676300D01*
X95757396Y-74676771D01*
X95795023Y-74680064D01*
X95831540Y-74670278D01*
X95842046Y-74667949D01*
X95879261Y-74661388D01*
X95879263Y-74661386D01*
X95880328Y-74661199D01*
X95905015Y-74650973D01*
X95905898Y-74650354D01*
X95905900Y-74650354D01*
X95936841Y-74628687D01*
X95945938Y-74622891D01*
X95978671Y-74603994D01*
X96002964Y-74575041D01*
X96010252Y-74567088D01*
X96886290Y-73691050D01*
X96894258Y-73683750D01*
X96923192Y-73659473D01*
X96923192Y-73659472D01*
X96923194Y-73659471D01*
X96942091Y-73626738D01*
X96947887Y-73617641D01*
X96969554Y-73586700D01*
X96969554Y-73586698D01*
X96970173Y-73585815D01*
X96980399Y-73561128D01*
X96980586Y-73560063D01*
X96980588Y-73560061D01*
X96987149Y-73522846D01*
X96989478Y-73512340D01*
X96999264Y-73475823D01*
X96998028Y-73461699D01*
X96995972Y-73438192D01*
X96995500Y-73427385D01*
X96995500Y-66035134D01*
X106213068Y-66035134D01*
X106234400Y-66156111D01*
X106243535Y-66207911D01*
X106312029Y-66366700D01*
X106313023Y-66369004D01*
X106417790Y-66509730D01*
X106552183Y-66622500D01*
X106552184Y-66622500D01*
X106552186Y-66622502D01*
X106708967Y-66701240D01*
X106708968Y-66701240D01*
X106708970Y-66701241D01*
X106879677Y-66741700D01*
X106879679Y-66741700D01*
X108107511Y-66741700D01*
X108111109Y-66741700D01*
X108114692Y-66741281D01*
X108114695Y-66741281D01*
X108164957Y-66735405D01*
X108241655Y-66726441D01*
X108406517Y-66666437D01*
X108553096Y-66570030D01*
X108673492Y-66442418D01*
X108681411Y-66428700D01*
X108731978Y-66380485D01*
X108788799Y-66366700D01*
X110599033Y-66366700D01*
X110666072Y-66386385D01*
X110698496Y-66416652D01*
X110767790Y-66509730D01*
X110902183Y-66622500D01*
X110902184Y-66622500D01*
X110902186Y-66622502D01*
X111058967Y-66701240D01*
X111058968Y-66701240D01*
X111058970Y-66701241D01*
X111229677Y-66741700D01*
X111229679Y-66741700D01*
X112157511Y-66741700D01*
X112161109Y-66741700D01*
X112164692Y-66741281D01*
X112164695Y-66741281D01*
X112214957Y-66735405D01*
X112291655Y-66726441D01*
X112456517Y-66666437D01*
X112603096Y-66570030D01*
X112723492Y-66442418D01*
X112811212Y-66290481D01*
X112861530Y-66122410D01*
X112871731Y-65947265D01*
X112841265Y-65774489D01*
X112771777Y-65613396D01*
X112667010Y-65472670D01*
X112617013Y-65430717D01*
X112532616Y-65359899D01*
X112375829Y-65281158D01*
X112205123Y-65240700D01*
X112205121Y-65240700D01*
X111273691Y-65240700D01*
X111270125Y-65241116D01*
X111270104Y-65241118D01*
X111143146Y-65255958D01*
X110978283Y-65315962D01*
X110831703Y-65412370D01*
X110711309Y-65539980D01*
X110703389Y-65553699D01*
X110652822Y-65601915D01*
X110596001Y-65615700D01*
X108785767Y-65615700D01*
X108718728Y-65596015D01*
X108686304Y-65565748D01*
X108667122Y-65539982D01*
X108617010Y-65472670D01*
X108567013Y-65430717D01*
X108482616Y-65359899D01*
X108460088Y-65348585D01*
X108331789Y-65284151D01*
X108280716Y-65236474D01*
X108263526Y-65168752D01*
X108285678Y-65102487D01*
X108317202Y-65077121D01*
X108314681Y-65073836D01*
X108327631Y-65063898D01*
X108327633Y-65063898D01*
X108447851Y-64971651D01*
X108540098Y-64851433D01*
X108598087Y-64711436D01*
X108617866Y-64561200D01*
X108598087Y-64410964D01*
X108540098Y-64270967D01*
X108447851Y-64150749D01*
X108327633Y-64058502D01*
X108187636Y-64000513D01*
X108128756Y-63992761D01*
X108079139Y-63986229D01*
X108079137Y-63986228D01*
X108075120Y-63985700D01*
X107999680Y-63985700D01*
X107995663Y-63986228D01*
X107995660Y-63986229D01*
X107887164Y-64000513D01*
X107747168Y-64058501D01*
X107626949Y-64150749D01*
X107534701Y-64270968D01*
X107476712Y-64410964D01*
X107456933Y-64561200D01*
X107476712Y-64711435D01*
X107520500Y-64817147D01*
X107534702Y-64851433D01*
X107597286Y-64932993D01*
X107626950Y-64971652D01*
X107687774Y-65018324D01*
X107728977Y-65074752D01*
X107733132Y-65144498D01*
X107698920Y-65205418D01*
X107637202Y-65238171D01*
X107612288Y-65240700D01*
X106923691Y-65240700D01*
X106920125Y-65241116D01*
X106920104Y-65241118D01*
X106793146Y-65255958D01*
X106628283Y-65315962D01*
X106481703Y-65412370D01*
X106361308Y-65539980D01*
X106273588Y-65691918D01*
X106273588Y-65691919D01*
X106223270Y-65859990D01*
X106223269Y-65859992D01*
X106223270Y-65859992D01*
X106213068Y-66035134D01*
X96995500Y-66035134D01*
X96995500Y-65696499D01*
X97015185Y-65629460D01*
X97037273Y-65603683D01*
X97042240Y-65599283D01*
X97160483Y-65494530D01*
X97250220Y-65364523D01*
X97306237Y-65216818D01*
X97325278Y-65060000D01*
X97306237Y-64903182D01*
X97250220Y-64755477D01*
X97191890Y-64670971D01*
X97160484Y-64625471D01*
X97141674Y-64608807D01*
X97042240Y-64520717D01*
X96938877Y-64466467D01*
X96902364Y-64447303D01*
X96748985Y-64409500D01*
X96591015Y-64409500D01*
X96437635Y-64447303D01*
X96297761Y-64520716D01*
X96179515Y-64625471D01*
X96089780Y-64755476D01*
X96033763Y-64903181D01*
X96014721Y-65060000D01*
X96031655Y-65199459D01*
X96033763Y-65216818D01*
X96089780Y-65364523D01*
X96179517Y-65494530D01*
X96297760Y-65599283D01*
X96302727Y-65603683D01*
X96339854Y-65662873D01*
X96344500Y-65696499D01*
X96344500Y-73260827D01*
X96324815Y-73327866D01*
X96308181Y-73348508D01*
X96157380Y-73499309D01*
X96096057Y-73532794D01*
X96026365Y-73527810D01*
X95970432Y-73485938D01*
X95946015Y-73420474D01*
X95945699Y-73411628D01*
X95945699Y-72390061D01*
X95945699Y-72390060D01*
X95945699Y-72387638D01*
X95942909Y-72352173D01*
X95942909Y-72352171D01*
X95898818Y-72200410D01*
X95818369Y-72064378D01*
X95706621Y-71952630D01*
X95570589Y-71872181D01*
X95418829Y-71828091D01*
X95385797Y-71825491D01*
X95385782Y-71825490D01*
X95383363Y-71825300D01*
X95380917Y-71825300D01*
X94509461Y-71825300D01*
X94509435Y-71825300D01*
X94507038Y-71825301D01*
X94504629Y-71825490D01*
X94504616Y-71825491D01*
X94471571Y-71828090D01*
X94319810Y-71872181D01*
X94183778Y-71952630D01*
X94072030Y-72064378D01*
X93991581Y-72200410D01*
X93947491Y-72352170D01*
X93944891Y-72385202D01*
X93944890Y-72385218D01*
X93944700Y-72387637D01*
X93944700Y-72390081D01*
X93944700Y-72390082D01*
X93944700Y-73761538D01*
X93944700Y-73761563D01*
X93944701Y-73763962D01*
X93944890Y-73766371D01*
X93944891Y-73766383D01*
X93947490Y-73799428D01*
X93967036Y-73866705D01*
X93966837Y-73936575D01*
X93928895Y-73995245D01*
X93865256Y-74024088D01*
X93847960Y-74025300D01*
X93502439Y-74025300D01*
X93435400Y-74005615D01*
X93389645Y-73952811D01*
X93379701Y-73883653D01*
X93383363Y-73866705D01*
X93402908Y-73799429D01*
X93402909Y-73799427D01*
X93405700Y-73763963D01*
X93405699Y-72387638D01*
X93402909Y-72352173D01*
X93402909Y-72352171D01*
X93358818Y-72200410D01*
X93278369Y-72064378D01*
X93166621Y-71952630D01*
X93030589Y-71872181D01*
X92878829Y-71828091D01*
X92849290Y-71825766D01*
X92784002Y-71800881D01*
X92742532Y-71744649D01*
X92739246Y-71734242D01*
X92734463Y-71716395D01*
X92734464Y-71716393D01*
X92724682Y-71679889D01*
X92722345Y-71669343D01*
X92715600Y-71631091D01*
X92705371Y-71606398D01*
X92704754Y-71605517D01*
X92704754Y-71605516D01*
X92690413Y-71585035D01*
X92683092Y-71574579D01*
X92677280Y-71565456D01*
X92658394Y-71532744D01*
X92629455Y-71508462D01*
X92621480Y-71501154D01*
X92054043Y-70933717D01*
X92046734Y-70925741D01*
X92022454Y-70896805D01*
X91989736Y-70877915D01*
X91980627Y-70872112D01*
X91949684Y-70850446D01*
X91948803Y-70849829D01*
X91924107Y-70839599D01*
X91885852Y-70832853D01*
X91875296Y-70830512D01*
X91838807Y-70820735D01*
X91801180Y-70824028D01*
X91790372Y-70824500D01*
X90201162Y-70824500D01*
X90134123Y-70804815D01*
X90113481Y-70788181D01*
X88541819Y-69216519D01*
X88508334Y-69155196D01*
X88505500Y-69128838D01*
X88505500Y-63461720D01*
X88525185Y-63394681D01*
X88541819Y-63374039D01*
X93209540Y-58706319D01*
X93270863Y-58672834D01*
X93297221Y-58670000D01*
X99896811Y-58670000D01*
X99963850Y-58689685D01*
X99998860Y-58723559D01*
X100007815Y-58736532D01*
X100037147Y-58779028D01*
X100037148Y-58779029D01*
X100037149Y-58779030D01*
X100100664Y-58835298D01*
X100137789Y-58894486D01*
X100137022Y-58964352D01*
X100120486Y-58998553D01*
X100039780Y-59115476D01*
X99983763Y-59263181D01*
X99964721Y-59419999D01*
X99983763Y-59576818D01*
X100039780Y-59724523D01*
X100129515Y-59854528D01*
X100129516Y-59854529D01*
X100129517Y-59854530D01*
X100247760Y-59959283D01*
X100359511Y-60017935D01*
X100409723Y-60066520D01*
X100425697Y-60134539D01*
X100402361Y-60200397D01*
X100389566Y-60215412D01*
X100226796Y-60378182D01*
X100165476Y-60411666D01*
X100139117Y-60414500D01*
X98330821Y-60414500D01*
X98263782Y-60394815D01*
X98228771Y-60360940D01*
X98190484Y-60305471D01*
X98169839Y-60287181D01*
X98072240Y-60200717D01*
X98058994Y-60193764D01*
X97932364Y-60127303D01*
X97778985Y-60089500D01*
X97621015Y-60089500D01*
X97467635Y-60127303D01*
X97327761Y-60200716D01*
X97209515Y-60305471D01*
X97119780Y-60435476D01*
X97063763Y-60583181D01*
X97044721Y-60739999D01*
X97063763Y-60896818D01*
X97119780Y-61044523D01*
X97209515Y-61174528D01*
X97209516Y-61174529D01*
X97209517Y-61174530D01*
X97327760Y-61279283D01*
X97467635Y-61352696D01*
X97621015Y-61390500D01*
X97778985Y-61390500D01*
X97932365Y-61352696D01*
X98072240Y-61279283D01*
X98190483Y-61174530D01*
X98228771Y-61119059D01*
X98283054Y-61075070D01*
X98330821Y-61065500D01*
X100305678Y-61065500D01*
X100316485Y-61065971D01*
X100354112Y-61069264D01*
X100390629Y-61059478D01*
X100401135Y-61057149D01*
X100438350Y-61050588D01*
X100438352Y-61050586D01*
X100439417Y-61050399D01*
X100464104Y-61040173D01*
X100464987Y-61039554D01*
X100464989Y-61039554D01*
X100495930Y-61017887D01*
X100505027Y-61012091D01*
X100537760Y-60993194D01*
X100562053Y-60964241D01*
X100569341Y-60956288D01*
X102031290Y-59494339D01*
X102039258Y-59487039D01*
X102068192Y-59462762D01*
X102068192Y-59462761D01*
X102068194Y-59462760D01*
X102087091Y-59430027D01*
X102092887Y-59420930D01*
X102114554Y-59389989D01*
X102114554Y-59389987D01*
X102115173Y-59389104D01*
X102125399Y-59364417D01*
X102125586Y-59363352D01*
X102125588Y-59363350D01*
X102132149Y-59326135D01*
X102134478Y-59315629D01*
X102144264Y-59279112D01*
X102143984Y-59275915D01*
X102140972Y-59241481D01*
X102140500Y-59230674D01*
X102140500Y-57859618D01*
X102140972Y-57848810D01*
X102144263Y-57811191D01*
X102134486Y-57774704D01*
X102132144Y-57764140D01*
X102125588Y-57726955D01*
X102125587Y-57726954D01*
X102125400Y-57725891D01*
X102115173Y-57701201D01*
X102114554Y-57700317D01*
X102114554Y-57700316D01*
X102092878Y-57669360D01*
X102087085Y-57660266D01*
X102068194Y-57627545D01*
X102063739Y-57623807D01*
X102039261Y-57603267D01*
X102031286Y-57595959D01*
X101830461Y-57395134D01*
X106213068Y-57395134D01*
X106234400Y-57516111D01*
X106243535Y-57567911D01*
X106300648Y-57700316D01*
X106313023Y-57729004D01*
X106417790Y-57869730D01*
X106552183Y-57982500D01*
X106552184Y-57982500D01*
X106552186Y-57982502D01*
X106708967Y-58061240D01*
X106708968Y-58061240D01*
X106708970Y-58061241D01*
X106879677Y-58101700D01*
X107612288Y-58101700D01*
X107679327Y-58121385D01*
X107725082Y-58174189D01*
X107735026Y-58243347D01*
X107706001Y-58306903D01*
X107687774Y-58324076D01*
X107626950Y-58370747D01*
X107534701Y-58490968D01*
X107476712Y-58630964D01*
X107456933Y-58781199D01*
X107476712Y-58931435D01*
X107534701Y-59071431D01*
X107534702Y-59071433D01*
X107626949Y-59191651D01*
X107747167Y-59283898D01*
X107887164Y-59341887D01*
X107999680Y-59356700D01*
X108003733Y-59356700D01*
X108071067Y-59356700D01*
X108075120Y-59356700D01*
X108187636Y-59341887D01*
X108327633Y-59283898D01*
X108447851Y-59191651D01*
X108540098Y-59071433D01*
X108598087Y-58931436D01*
X108617866Y-58781200D01*
X108613758Y-58750000D01*
X108598087Y-58630964D01*
X108591014Y-58613889D01*
X108540098Y-58490967D01*
X108447851Y-58370749D01*
X108327633Y-58278502D01*
X108327631Y-58278501D01*
X108314681Y-58268564D01*
X108316324Y-58266422D01*
X108280805Y-58237802D01*
X108258738Y-58171508D01*
X108276015Y-58103809D01*
X108327150Y-58056196D01*
X108340250Y-58050556D01*
X108406515Y-58026438D01*
X108408831Y-58024915D01*
X108553096Y-57930030D01*
X108673492Y-57802418D01*
X108681411Y-57788700D01*
X108731978Y-57740485D01*
X108788799Y-57726700D01*
X110599033Y-57726700D01*
X110666072Y-57746385D01*
X110698495Y-57776651D01*
X110749453Y-57845099D01*
X110767790Y-57869730D01*
X110902183Y-57982500D01*
X110902184Y-57982500D01*
X110902186Y-57982502D01*
X111058967Y-58061240D01*
X111058968Y-58061240D01*
X111058970Y-58061241D01*
X111229677Y-58101700D01*
X111229679Y-58101700D01*
X112157511Y-58101700D01*
X112161109Y-58101700D01*
X112164692Y-58101281D01*
X112164695Y-58101281D01*
X112215324Y-58095363D01*
X112291655Y-58086441D01*
X112456517Y-58026437D01*
X112603096Y-57930030D01*
X112723492Y-57802418D01*
X112811212Y-57650481D01*
X112861530Y-57482410D01*
X112871731Y-57307265D01*
X112841265Y-57134489D01*
X112771777Y-56973396D01*
X112667010Y-56832670D01*
X112635671Y-56806373D01*
X112532616Y-56719899D01*
X112381056Y-56643783D01*
X112375833Y-56641160D01*
X112375832Y-56641159D01*
X112375829Y-56641158D01*
X112205123Y-56600700D01*
X112205121Y-56600700D01*
X111273691Y-56600700D01*
X111270125Y-56601116D01*
X111270104Y-56601118D01*
X111143146Y-56615958D01*
X110978283Y-56675962D01*
X110831703Y-56772370D01*
X110711309Y-56899980D01*
X110703389Y-56913699D01*
X110652822Y-56961915D01*
X110596001Y-56975700D01*
X108785767Y-56975700D01*
X108718728Y-56956015D01*
X108686304Y-56925748D01*
X108667122Y-56899982D01*
X108617010Y-56832670D01*
X108585671Y-56806373D01*
X108482616Y-56719899D01*
X108331056Y-56643783D01*
X108325833Y-56641160D01*
X108325832Y-56641159D01*
X108325829Y-56641158D01*
X108155123Y-56600700D01*
X108155121Y-56600700D01*
X106923691Y-56600700D01*
X106920125Y-56601116D01*
X106920104Y-56601118D01*
X106793146Y-56615958D01*
X106628283Y-56675962D01*
X106481703Y-56772370D01*
X106361308Y-56899980D01*
X106273588Y-57051918D01*
X106273588Y-57051919D01*
X106223270Y-57219990D01*
X106223269Y-57219992D01*
X106223270Y-57219992D01*
X106213068Y-57395134D01*
X101830461Y-57395134D01*
X101581826Y-57146499D01*
X101122548Y-56687222D01*
X101089064Y-56625900D01*
X101094048Y-56556209D01*
X101128006Y-56506723D01*
X101130483Y-56504530D01*
X101220220Y-56374523D01*
X101276237Y-56226818D01*
X101295278Y-56070000D01*
X101276237Y-55913182D01*
X101220220Y-55765477D01*
X101166880Y-55688201D01*
X101130484Y-55635471D01*
X101124350Y-55630037D01*
X101012240Y-55530717D01*
X100981428Y-55514545D01*
X100931218Y-55465962D01*
X100915244Y-55397943D01*
X100938580Y-55332085D01*
X100981429Y-55294956D01*
X100992240Y-55289283D01*
X101110483Y-55184530D01*
X101200220Y-55054523D01*
X101256237Y-54906818D01*
X101275278Y-54750000D01*
X101256237Y-54593182D01*
X101200220Y-54445477D01*
X101119176Y-54328064D01*
X101110484Y-54315471D01*
X101110483Y-54315470D01*
X100992240Y-54210717D01*
X100992238Y-54210716D01*
X100992237Y-54210715D01*
X100982918Y-54205824D01*
X100975483Y-54201922D01*
X100925272Y-54153339D01*
X100909297Y-54085320D01*
X100932632Y-54019462D01*
X100953181Y-54001762D01*
X100950970Y-53999266D01*
X100962236Y-53989284D01*
X100962240Y-53989283D01*
X101080483Y-53884530D01*
X101170220Y-53754523D01*
X101226237Y-53606818D01*
X101245278Y-53450000D01*
X101226237Y-53293182D01*
X101216864Y-53268469D01*
X101211498Y-53198809D01*
X101244645Y-53137302D01*
X101305783Y-53103481D01*
X101332807Y-53100500D01*
X103186783Y-53100500D01*
X103253822Y-53120185D01*
X103299577Y-53172989D01*
X103309879Y-53239447D01*
X103306921Y-53263800D01*
X103325963Y-53420618D01*
X103381980Y-53568323D01*
X103471715Y-53698328D01*
X103471716Y-53698329D01*
X103471717Y-53698330D01*
X103589960Y-53803083D01*
X103729835Y-53876496D01*
X103883215Y-53914300D01*
X104041185Y-53914300D01*
X104194565Y-53876496D01*
X104334440Y-53803083D01*
X104452683Y-53698330D01*
X104542420Y-53568323D01*
X104598437Y-53420618D01*
X104617478Y-53263800D01*
X104598437Y-53106982D01*
X104542420Y-52959277D01*
X104489255Y-52882254D01*
X104452682Y-52829268D01*
X104379473Y-52764411D01*
X104342346Y-52705222D01*
X104337700Y-52671596D01*
X104337700Y-50953893D01*
X104357385Y-50886854D01*
X104374015Y-50866216D01*
X104765313Y-50474917D01*
X104826634Y-50441434D01*
X104896325Y-50446418D01*
X104952259Y-50488289D01*
X104955042Y-50492160D01*
X105049515Y-50629028D01*
X105049516Y-50629029D01*
X105049517Y-50629030D01*
X105152074Y-50719887D01*
X105172727Y-50738183D01*
X105209854Y-50797373D01*
X105214500Y-50830999D01*
X105214500Y-53340203D01*
X105194815Y-53407242D01*
X105148127Y-53449999D01*
X105112315Y-53468794D01*
X104994071Y-53573549D01*
X104904335Y-53703554D01*
X104848318Y-53851259D01*
X104829276Y-54008078D01*
X104848318Y-54164896D01*
X104904335Y-54312601D01*
X104994070Y-54442606D01*
X104994071Y-54442607D01*
X104994072Y-54442608D01*
X105112315Y-54547361D01*
X105252190Y-54620774D01*
X105405570Y-54658578D01*
X105563540Y-54658578D01*
X105716920Y-54620774D01*
X105856795Y-54547361D01*
X105975038Y-54442608D01*
X106018450Y-54379713D01*
X106072732Y-54335724D01*
X106142181Y-54328064D01*
X106204746Y-54359167D01*
X106240563Y-54419158D01*
X106244500Y-54450154D01*
X106244500Y-55468196D01*
X106241861Y-55493642D01*
X106239633Y-55504267D01*
X106243548Y-55535676D01*
X106244500Y-55551013D01*
X106244500Y-55551116D01*
X106247918Y-55571602D01*
X106248657Y-55576670D01*
X106256107Y-55636438D01*
X106256185Y-55636682D01*
X106284827Y-55689608D01*
X106287171Y-55694162D01*
X106313634Y-55748292D01*
X106313777Y-55748482D01*
X106319579Y-55753824D01*
X106319581Y-55753826D01*
X106358108Y-55789293D01*
X106361780Y-55792817D01*
X106707850Y-56138887D01*
X106723977Y-56158746D01*
X106729916Y-56167836D01*
X106732969Y-56170212D01*
X106754894Y-56187277D01*
X106766412Y-56197449D01*
X106766482Y-56197519D01*
X106774830Y-56203479D01*
X106783389Y-56209590D01*
X106787494Y-56212650D01*
X106828811Y-56244809D01*
X106828812Y-56244809D01*
X106835043Y-56249659D01*
X106835234Y-56249757D01*
X106842800Y-56252009D01*
X106842801Y-56252010D01*
X106892955Y-56266941D01*
X106897792Y-56268490D01*
X106947340Y-56285500D01*
X106954797Y-56288060D01*
X106955030Y-56288093D01*
X106962909Y-56287767D01*
X106962912Y-56287768D01*
X107015193Y-56285605D01*
X107020316Y-56285500D01*
X109413692Y-56285500D01*
X109480731Y-56305185D01*
X109515743Y-56339062D01*
X109519515Y-56344528D01*
X109519516Y-56344529D01*
X109519517Y-56344530D01*
X109637760Y-56449283D01*
X109777635Y-56522696D01*
X109931015Y-56560500D01*
X110088985Y-56560500D01*
X110242365Y-56522696D01*
X110382240Y-56449283D01*
X110500483Y-56344530D01*
X110590220Y-56214523D01*
X110646237Y-56066818D01*
X110665278Y-55910000D01*
X110646237Y-55753182D01*
X110590220Y-55605477D01*
X110509072Y-55487913D01*
X110500484Y-55475471D01*
X110492052Y-55468001D01*
X110382240Y-55370717D01*
X110356972Y-55357455D01*
X110242364Y-55297303D01*
X110088985Y-55259500D01*
X109931015Y-55259500D01*
X109777635Y-55297303D01*
X109637761Y-55370716D01*
X109519515Y-55475471D01*
X109515743Y-55480938D01*
X109461462Y-55524929D01*
X109413692Y-55534500D01*
X107216899Y-55534500D01*
X107149860Y-55514815D01*
X107129218Y-55498181D01*
X107031818Y-55400781D01*
X106998333Y-55339458D01*
X106995499Y-55313100D01*
X106995499Y-54747147D01*
X106995499Y-54182198D01*
X107015184Y-54115163D01*
X107037269Y-54089390D01*
X107110483Y-54024530D01*
X107200220Y-53894523D01*
X107256237Y-53746818D01*
X107275278Y-53590000D01*
X107256237Y-53433182D01*
X107200220Y-53285477D01*
X107124477Y-53175744D01*
X107110484Y-53155471D01*
X107110483Y-53155470D01*
X106992240Y-53050717D01*
X106963889Y-53035837D01*
X106852364Y-52977303D01*
X106698985Y-52939500D01*
X106541015Y-52939500D01*
X106387635Y-52977303D01*
X106247761Y-53050716D01*
X106129517Y-53155470D01*
X106091550Y-53210475D01*
X106037266Y-53254465D01*
X105967818Y-53262124D01*
X105905253Y-53231020D01*
X105869436Y-53171029D01*
X105865500Y-53140034D01*
X105865500Y-50830999D01*
X105885185Y-50763960D01*
X105907273Y-50738183D01*
X105912240Y-50733783D01*
X106030483Y-50629030D01*
X106120220Y-50499023D01*
X106176237Y-50351318D01*
X106195278Y-50194500D01*
X106176237Y-50037682D01*
X106120220Y-49889977D01*
X106037812Y-49770588D01*
X106030484Y-49759971D01*
X105953832Y-49692064D01*
X105912240Y-49655217D01*
X105846858Y-49620901D01*
X105796647Y-49572317D01*
X105780673Y-49504297D01*
X105804009Y-49438440D01*
X105816798Y-49423432D01*
X106883412Y-48356819D01*
X106944736Y-48323334D01*
X106971094Y-48320500D01*
X111888500Y-48320500D01*
X111913946Y-48323139D01*
X111917745Y-48323935D01*
X111924573Y-48325367D01*
X111954443Y-48321643D01*
X111955982Y-48321452D01*
X111971319Y-48320500D01*
X111971416Y-48320500D01*
X111971419Y-48320500D01*
X111991948Y-48317073D01*
X111996964Y-48316342D01*
X112048931Y-48309866D01*
X112048933Y-48309864D01*
X112056762Y-48308889D01*
X112056971Y-48308822D01*
X112063912Y-48305065D01*
X112063915Y-48305065D01*
X112109971Y-48280140D01*
X112114449Y-48277835D01*
X112161516Y-48254826D01*
X112161517Y-48254824D01*
X112168613Y-48251356D01*
X112168781Y-48251230D01*
X112174129Y-48245419D01*
X112174131Y-48245419D01*
X112209599Y-48206889D01*
X112213100Y-48203240D01*
X112663889Y-47752451D01*
X112683741Y-47736330D01*
X112692836Y-47730389D01*
X112712273Y-47705415D01*
X112722453Y-47693888D01*
X112722519Y-47693823D01*
X112734624Y-47676866D01*
X112737627Y-47672839D01*
X112769809Y-47631494D01*
X112769810Y-47631490D01*
X112774666Y-47625252D01*
X112774753Y-47625084D01*
X112778929Y-47611057D01*
X112791955Y-47567302D01*
X112793486Y-47562523D01*
X112810500Y-47512965D01*
X112810500Y-47512961D01*
X112813059Y-47505507D01*
X112813093Y-47505274D01*
X112812767Y-47497396D01*
X112812768Y-47497394D01*
X112810605Y-47445110D01*
X112810499Y-47439985D01*
X112810499Y-46416613D01*
X112810499Y-45396794D01*
X112813138Y-45371360D01*
X112815367Y-45360732D01*
X112811452Y-45329323D01*
X112810500Y-45313986D01*
X112810500Y-45313887D01*
X112810500Y-45313886D01*
X112807075Y-45293369D01*
X112806341Y-45288325D01*
X112805158Y-45278837D01*
X112799866Y-45236374D01*
X112798891Y-45228550D01*
X112798821Y-45228332D01*
X112795065Y-45221392D01*
X112795065Y-45221390D01*
X112770148Y-45175348D01*
X112767828Y-45170840D01*
X112744826Y-45123789D01*
X112744825Y-45123788D01*
X112741360Y-45116700D01*
X112741225Y-45116519D01*
X112735419Y-45111174D01*
X112696892Y-45075707D01*
X112693219Y-45072182D01*
X110897149Y-43276111D01*
X110881023Y-43256254D01*
X110873163Y-43244224D01*
X110852974Y-43177335D01*
X110872152Y-43110149D01*
X110924610Y-43063997D01*
X110976970Y-43052400D01*
X113064502Y-43052400D01*
X113131541Y-43072085D01*
G37*
%TD.AperFunction*%
%TA.AperFunction,Conductor*%
G36*
X84556256Y-46735185D02*
G01*
X84576898Y-46751819D01*
X85422898Y-47597819D01*
X85456383Y-47659142D01*
X85451399Y-47728834D01*
X85409527Y-47784767D01*
X85344063Y-47809184D01*
X85335217Y-47809500D01*
X83434616Y-47809500D01*
X83423808Y-47809028D01*
X83386193Y-47805736D01*
X83349716Y-47815510D01*
X83339162Y-47817849D01*
X83300905Y-47824595D01*
X83276190Y-47834834D01*
X83244377Y-47857108D01*
X83235261Y-47862915D01*
X83202545Y-47881804D01*
X83178262Y-47910743D01*
X83170956Y-47918715D01*
X79703714Y-51385958D01*
X79695741Y-51393264D01*
X79666806Y-51417544D01*
X79647914Y-51450264D01*
X79642106Y-51459380D01*
X79619831Y-51491193D01*
X79609597Y-51515899D01*
X79602852Y-51554148D01*
X79600512Y-51564704D01*
X79590735Y-51601191D01*
X79594028Y-51638817D01*
X79594500Y-51649626D01*
X79594500Y-53814001D01*
X79574815Y-53881040D01*
X79552727Y-53906817D01*
X79547760Y-53911216D01*
X79547760Y-53911217D01*
X79474897Y-53975767D01*
X79429517Y-54015970D01*
X79335042Y-54152840D01*
X79280759Y-54196830D01*
X79211310Y-54204489D01*
X79148745Y-54173385D01*
X79145311Y-54170080D01*
X78936865Y-53961634D01*
X78253482Y-53278249D01*
X78253481Y-53278248D01*
X78190806Y-53215573D01*
X78123943Y-53148710D01*
X78116634Y-53140734D01*
X78103610Y-53125212D01*
X78092361Y-53111806D01*
X78092360Y-53111805D01*
X78059642Y-53092915D01*
X78050533Y-53087112D01*
X78019590Y-53065446D01*
X78018709Y-53064829D01*
X77994013Y-53054599D01*
X77955758Y-53047853D01*
X77945203Y-53045513D01*
X77909091Y-53035837D01*
X77909090Y-53035837D01*
X77908713Y-53035736D01*
X77908711Y-53035736D01*
X77906015Y-53035971D01*
X77906012Y-53035972D01*
X77871085Y-53039028D01*
X77860277Y-53039500D01*
X77758389Y-53039500D01*
X77691350Y-53019815D01*
X77645595Y-52967011D01*
X77635651Y-52897853D01*
X77651657Y-52852379D01*
X77658042Y-52841582D01*
X77667618Y-52825390D01*
X77711709Y-52673627D01*
X77714500Y-52638163D01*
X77714499Y-51761838D01*
X77711709Y-51726373D01*
X77711709Y-51726371D01*
X77667618Y-51574610D01*
X77587169Y-51438578D01*
X77475421Y-51326830D01*
X77339389Y-51246381D01*
X77187629Y-51202291D01*
X77154597Y-51199691D01*
X77154582Y-51199690D01*
X77152163Y-51199500D01*
X77149717Y-51199500D01*
X75778261Y-51199500D01*
X75778235Y-51199500D01*
X75775838Y-51199501D01*
X75773429Y-51199690D01*
X75773416Y-51199691D01*
X75740371Y-51202290D01*
X75588610Y-51246381D01*
X75452578Y-51326830D01*
X75340830Y-51438578D01*
X75260381Y-51574610D01*
X75216291Y-51726370D01*
X75213691Y-51759402D01*
X75213690Y-51759418D01*
X75213500Y-51761837D01*
X75213500Y-51764281D01*
X75213500Y-51764282D01*
X75213500Y-52635738D01*
X75213500Y-52635763D01*
X75213501Y-52638162D01*
X75213690Y-52640571D01*
X75213691Y-52640583D01*
X75216290Y-52673628D01*
X75260381Y-52825389D01*
X75276343Y-52852379D01*
X75293526Y-52920103D01*
X75271366Y-52986366D01*
X75216900Y-53030129D01*
X75169611Y-53039500D01*
X68345628Y-53039500D01*
X68334820Y-53039028D01*
X68297192Y-53035735D01*
X68260704Y-53045512D01*
X68250148Y-53047852D01*
X68211899Y-53054597D01*
X68187193Y-53064831D01*
X68155380Y-53087106D01*
X68146263Y-53092914D01*
X68103995Y-53117319D01*
X68036095Y-53133794D01*
X67970068Y-53110943D01*
X67967682Y-53109202D01*
X67950957Y-53096682D01*
X67919246Y-53072943D01*
X67787767Y-53023904D01*
X67732928Y-53018008D01*
X67732922Y-53018007D01*
X67729642Y-53017655D01*
X67161294Y-53017655D01*
X67158014Y-53018007D01*
X67158007Y-53018008D01*
X67103166Y-53023904D01*
X67079698Y-53032657D01*
X67010006Y-53037640D01*
X66948684Y-53004153D01*
X66915200Y-52942829D01*
X66912367Y-52916474D01*
X66912367Y-52910992D01*
X66912367Y-52811697D01*
X66932052Y-52744661D01*
X66984856Y-52698906D01*
X67012176Y-52690083D01*
X67012186Y-52690081D01*
X67034608Y-52685621D01*
X67067979Y-52663323D01*
X67134655Y-52642446D01*
X67202035Y-52660931D01*
X67205722Y-52663300D01*
X67239128Y-52685621D01*
X67261550Y-52690081D01*
X67312193Y-52700155D01*
X67312194Y-52700155D01*
X68061543Y-52700155D01*
X68085897Y-52695310D01*
X68134608Y-52685621D01*
X68217469Y-52630256D01*
X68272834Y-52547395D01*
X68287368Y-52474329D01*
X68287368Y-51874329D01*
X71236368Y-51874329D01*
X71250901Y-51947393D01*
X71250901Y-51947394D01*
X71250902Y-51947395D01*
X71306267Y-52030256D01*
X71389128Y-52085621D01*
X71425660Y-52092888D01*
X71462193Y-52100155D01*
X71462194Y-52100155D01*
X73111543Y-52100155D01*
X73135897Y-52095310D01*
X73184608Y-52085621D01*
X73267469Y-52030256D01*
X73322834Y-51947395D01*
X73337368Y-51874329D01*
X73337368Y-50424981D01*
X73333652Y-50406302D01*
X73328939Y-50382606D01*
X73322834Y-50351915D01*
X73267469Y-50269054D01*
X73184608Y-50213689D01*
X73184607Y-50213688D01*
X73184606Y-50213688D01*
X73111543Y-50199155D01*
X73111542Y-50199155D01*
X71462194Y-50199155D01*
X71462193Y-50199155D01*
X71389129Y-50213688D01*
X71306267Y-50269054D01*
X71250901Y-50351916D01*
X71236368Y-50424980D01*
X71236368Y-51874329D01*
X68287368Y-51874329D01*
X68287368Y-50824981D01*
X68272834Y-50751915D01*
X68217469Y-50669054D01*
X68134608Y-50613689D01*
X68134607Y-50613688D01*
X68134606Y-50613688D01*
X68061543Y-50599155D01*
X68061542Y-50599155D01*
X67312194Y-50599155D01*
X67312193Y-50599155D01*
X67239127Y-50613689D01*
X67205755Y-50635987D01*
X67139077Y-50656863D01*
X67071698Y-50638377D01*
X67068013Y-50636009D01*
X67034608Y-50613689D01*
X67034607Y-50613688D01*
X67034606Y-50613688D01*
X66961543Y-50599155D01*
X66961542Y-50599155D01*
X66212194Y-50599155D01*
X66212193Y-50599155D01*
X66139127Y-50613689D01*
X66123643Y-50624035D01*
X66056965Y-50644911D01*
X65989585Y-50626425D01*
X65942897Y-50574444D01*
X65931722Y-50505474D01*
X65959610Y-50441411D01*
X65967063Y-50433261D01*
X66331635Y-50068689D01*
X66339603Y-50061389D01*
X66341426Y-50059860D01*
X66351662Y-50051270D01*
X66368537Y-50037112D01*
X66368537Y-50037111D01*
X66368539Y-50037110D01*
X66387436Y-50004377D01*
X66393232Y-49995280D01*
X66414899Y-49964339D01*
X66414899Y-49964337D01*
X66415518Y-49963454D01*
X66425744Y-49938767D01*
X66425931Y-49937702D01*
X66425933Y-49937700D01*
X66432494Y-49900485D01*
X66434824Y-49889974D01*
X66444609Y-49853462D01*
X66441316Y-49815830D01*
X66440844Y-49805021D01*
X66440844Y-49680112D01*
X66440844Y-49596983D01*
X66460529Y-49529947D01*
X66477158Y-49509310D01*
X68884649Y-47101819D01*
X68945973Y-47068334D01*
X68972331Y-47065500D01*
X73972500Y-47065500D01*
X74039539Y-47085185D01*
X74085294Y-47137989D01*
X74096500Y-47189500D01*
X74096500Y-47472585D01*
X74096028Y-47483393D01*
X74092735Y-47521020D01*
X74102512Y-47557509D01*
X74104853Y-47568065D01*
X74111599Y-47606320D01*
X74121829Y-47631016D01*
X74122446Y-47631897D01*
X74144112Y-47662840D01*
X74149915Y-47671949D01*
X74155166Y-47681044D01*
X74168806Y-47704668D01*
X74195782Y-47727304D01*
X74197742Y-47728948D01*
X74205718Y-47736257D01*
X75199737Y-48730276D01*
X75207045Y-48738250D01*
X75231332Y-48767194D01*
X75261307Y-48784500D01*
X75262365Y-48785111D01*
X75310581Y-48835678D01*
X75323804Y-48904285D01*
X75307097Y-48955619D01*
X75260381Y-49034610D01*
X75216291Y-49186370D01*
X75213691Y-49219402D01*
X75213690Y-49219418D01*
X75213500Y-49221837D01*
X75213500Y-49224281D01*
X75213500Y-49224282D01*
X75213500Y-50095738D01*
X75213500Y-50095763D01*
X75213501Y-50098162D01*
X75213690Y-50100571D01*
X75213691Y-50100583D01*
X75216290Y-50133628D01*
X75260381Y-50285389D01*
X75340830Y-50421421D01*
X75452578Y-50533169D01*
X75452580Y-50533170D01*
X75588610Y-50613618D01*
X75740373Y-50657709D01*
X75775837Y-50660500D01*
X77152162Y-50660499D01*
X77183440Y-50658038D01*
X77187628Y-50657709D01*
X77274748Y-50632398D01*
X77339390Y-50613618D01*
X77475420Y-50533170D01*
X77587170Y-50421420D01*
X77667618Y-50285390D01*
X77711709Y-50133627D01*
X77714500Y-50098163D01*
X77714499Y-49221838D01*
X77711709Y-49186373D01*
X77711709Y-49186371D01*
X77667618Y-49034609D01*
X77662893Y-49026619D01*
X77645712Y-48958895D01*
X77667872Y-48892633D01*
X77722339Y-48848870D01*
X77769626Y-48839500D01*
X78835942Y-48839500D01*
X78846749Y-48839971D01*
X78884376Y-48843264D01*
X78920893Y-48833478D01*
X78931399Y-48831149D01*
X78968614Y-48824588D01*
X78968616Y-48824586D01*
X78969681Y-48824399D01*
X78994368Y-48814173D01*
X78995251Y-48813554D01*
X78995253Y-48813554D01*
X79026194Y-48791887D01*
X79035291Y-48786091D01*
X79068024Y-48767194D01*
X79092317Y-48738241D01*
X79099604Y-48730289D01*
X81078077Y-46751819D01*
X81139401Y-46718334D01*
X81165759Y-46715500D01*
X84489217Y-46715500D01*
X84556256Y-46735185D01*
G37*
%TD.AperFunction*%
%TA.AperFunction,Conductor*%
G36*
X85556218Y-52515185D02*
G01*
X85591229Y-52549060D01*
X85629515Y-52604528D01*
X85629516Y-52604529D01*
X85629517Y-52604530D01*
X85747760Y-52709283D01*
X85747762Y-52709284D01*
X85788094Y-52730452D01*
X85838307Y-52779037D01*
X85854281Y-52847056D01*
X85830946Y-52912913D01*
X85788096Y-52950043D01*
X85767760Y-52960717D01*
X85738808Y-52986366D01*
X85649515Y-53065471D01*
X85559780Y-53195476D01*
X85503763Y-53343181D01*
X85484721Y-53500000D01*
X85503763Y-53656818D01*
X85559780Y-53804523D01*
X85649515Y-53934528D01*
X85649516Y-53934529D01*
X85649517Y-53934530D01*
X85767760Y-54039283D01*
X85907635Y-54112696D01*
X86061015Y-54150500D01*
X86218985Y-54150500D01*
X86238565Y-54145674D01*
X86308367Y-54148742D01*
X86365429Y-54189061D01*
X86391635Y-54253830D01*
X86378665Y-54322485D01*
X86355922Y-54353751D01*
X86141493Y-54568181D01*
X86080170Y-54601666D01*
X86053812Y-54604500D01*
X84879628Y-54604500D01*
X84868820Y-54604028D01*
X84831192Y-54600735D01*
X84794704Y-54610512D01*
X84784148Y-54612852D01*
X84745899Y-54619597D01*
X84721193Y-54629831D01*
X84689380Y-54652106D01*
X84680264Y-54657914D01*
X84647545Y-54676805D01*
X84623262Y-54705744D01*
X84615956Y-54713716D01*
X84123714Y-55205958D01*
X84115741Y-55213264D01*
X84086806Y-55237544D01*
X84067914Y-55270264D01*
X84062106Y-55279380D01*
X84039831Y-55311193D01*
X84029597Y-55335899D01*
X84022852Y-55374148D01*
X84020512Y-55384704D01*
X84010735Y-55421191D01*
X84014028Y-55458817D01*
X84014500Y-55469626D01*
X84014500Y-64983811D01*
X83994815Y-65050850D01*
X83978181Y-65071492D01*
X80991493Y-68058181D01*
X80930170Y-68091666D01*
X80903812Y-68094500D01*
X73376188Y-68094500D01*
X73309149Y-68074815D01*
X73288507Y-68058181D01*
X72941862Y-67711536D01*
X72908377Y-67650213D01*
X72906447Y-67608908D01*
X72916415Y-67526818D01*
X72920278Y-67495000D01*
X72901237Y-67338182D01*
X72845220Y-67190477D01*
X72796290Y-67119590D01*
X72755484Y-67060471D01*
X72661058Y-66976818D01*
X72637240Y-66955717D01*
X72569024Y-66919914D01*
X72497364Y-66882303D01*
X72343985Y-66844500D01*
X72186015Y-66844500D01*
X72032635Y-66882303D01*
X71987125Y-66906189D01*
X71918617Y-66919914D01*
X71853564Y-66894421D01*
X71812620Y-66837805D01*
X71805500Y-66796392D01*
X71805500Y-65291585D01*
X71825185Y-65224546D01*
X71877989Y-65178791D01*
X71947147Y-65168847D01*
X72010703Y-65197872D01*
X72017181Y-65203904D01*
X73862164Y-67048887D01*
X73878291Y-67068746D01*
X73884229Y-67077835D01*
X73909208Y-67097277D01*
X73920726Y-67107449D01*
X73920795Y-67107518D01*
X73937703Y-67119590D01*
X73941808Y-67122650D01*
X73983125Y-67154809D01*
X73983126Y-67154809D01*
X73989357Y-67159659D01*
X73989548Y-67159757D01*
X73997114Y-67162009D01*
X73997115Y-67162010D01*
X74047269Y-67176941D01*
X74052106Y-67178490D01*
X74101654Y-67195500D01*
X74109111Y-67198060D01*
X74109344Y-67198093D01*
X74117223Y-67197767D01*
X74117226Y-67197768D01*
X74169507Y-67195605D01*
X74174630Y-67195500D01*
X74953692Y-67195500D01*
X75020731Y-67215185D01*
X75055743Y-67249062D01*
X75059515Y-67254528D01*
X75059516Y-67254529D01*
X75059517Y-67254530D01*
X75177760Y-67359283D01*
X75317635Y-67432696D01*
X75471015Y-67470500D01*
X75628985Y-67470500D01*
X75782365Y-67432696D01*
X75922240Y-67359283D01*
X76040483Y-67254530D01*
X76130220Y-67124523D01*
X76186237Y-66976818D01*
X76205278Y-66820000D01*
X76186237Y-66663182D01*
X76130220Y-66515477D01*
X76053638Y-66404528D01*
X76040484Y-66385471D01*
X76034856Y-66380485D01*
X75922240Y-66280717D01*
X75887249Y-66262352D01*
X75782364Y-66207303D01*
X75628985Y-66169500D01*
X75471015Y-66169500D01*
X75317635Y-66207303D01*
X75177761Y-66280716D01*
X75059515Y-66385471D01*
X75055743Y-66390938D01*
X75001462Y-66434929D01*
X74953692Y-66444500D01*
X74371213Y-66444500D01*
X74304174Y-66424815D01*
X74283532Y-66408181D01*
X72341819Y-64466467D01*
X72308334Y-64405144D01*
X72305500Y-64378786D01*
X72305500Y-64166856D01*
X72325185Y-64099817D01*
X72377989Y-64054062D01*
X72447147Y-64044118D01*
X72510703Y-64073143D01*
X72528767Y-64092546D01*
X72562452Y-64137544D01*
X72562453Y-64137544D01*
X72562454Y-64137546D01*
X72677669Y-64223796D01*
X72812517Y-64274091D01*
X72872127Y-64280500D01*
X73467872Y-64280499D01*
X73527483Y-64274091D01*
X73662331Y-64223796D01*
X73730689Y-64172622D01*
X73796153Y-64148205D01*
X73864426Y-64163056D01*
X73879309Y-64172621D01*
X73947669Y-64223796D01*
X74082517Y-64274091D01*
X74142127Y-64280500D01*
X74737872Y-64280499D01*
X74797483Y-64274091D01*
X74932331Y-64223796D01*
X75047546Y-64137546D01*
X75133796Y-64022331D01*
X75184091Y-63887483D01*
X75190500Y-63827873D01*
X75190499Y-62232128D01*
X75184091Y-62172517D01*
X75133796Y-62037669D01*
X75047546Y-61922454D01*
X74932331Y-61836204D01*
X74846166Y-61804066D01*
X74790233Y-61762196D01*
X74765816Y-61696731D01*
X74765500Y-61687885D01*
X74765500Y-61409427D01*
X74785185Y-61342388D01*
X74801819Y-61321746D01*
X75800384Y-60323181D01*
X76819150Y-59304414D01*
X76880471Y-59270931D01*
X76950163Y-59275915D01*
X76964455Y-59282301D01*
X77117633Y-59362696D01*
X77271015Y-59400500D01*
X77428985Y-59400500D01*
X77582365Y-59362696D01*
X77722240Y-59289283D01*
X77840483Y-59184530D01*
X77930220Y-59054523D01*
X77986237Y-58906818D01*
X78005278Y-58750000D01*
X77986237Y-58593182D01*
X77930220Y-58445477D01*
X77850597Y-58330123D01*
X77840484Y-58315471D01*
X77823228Y-58300184D01*
X77722240Y-58210717D01*
X77658271Y-58177143D01*
X77608059Y-58128557D01*
X77592085Y-58060538D01*
X77609164Y-58004228D01*
X77667618Y-57905390D01*
X77711709Y-57753627D01*
X77714500Y-57718163D01*
X77714499Y-56841838D01*
X77711709Y-56806373D01*
X77711709Y-56806371D01*
X77667618Y-56654610D01*
X77589560Y-56522621D01*
X77572377Y-56454897D01*
X77594537Y-56388635D01*
X77649003Y-56344871D01*
X77696292Y-56335500D01*
X82043195Y-56335500D01*
X82068641Y-56338139D01*
X82072440Y-56338935D01*
X82079268Y-56340367D01*
X82109138Y-56336643D01*
X82110677Y-56336452D01*
X82126014Y-56335500D01*
X82126111Y-56335500D01*
X82126114Y-56335500D01*
X82146643Y-56332073D01*
X82151659Y-56331342D01*
X82203626Y-56324866D01*
X82203628Y-56324864D01*
X82211457Y-56323889D01*
X82211666Y-56323822D01*
X82218607Y-56320065D01*
X82218610Y-56320065D01*
X82264666Y-56295140D01*
X82269144Y-56292835D01*
X82316211Y-56269826D01*
X82316212Y-56269824D01*
X82323308Y-56266356D01*
X82323476Y-56266230D01*
X82328824Y-56260419D01*
X82328826Y-56260419D01*
X82364294Y-56221889D01*
X82367795Y-56218240D01*
X83233889Y-55352146D01*
X83253741Y-55336025D01*
X83262836Y-55330084D01*
X83282273Y-55305110D01*
X83292453Y-55293583D01*
X83292519Y-55293518D01*
X83304624Y-55276561D01*
X83307627Y-55272534D01*
X83339809Y-55231189D01*
X83339810Y-55231185D01*
X83344666Y-55224947D01*
X83344753Y-55224779D01*
X83347010Y-55217199D01*
X83361955Y-55166997D01*
X83363486Y-55162218D01*
X83380500Y-55112660D01*
X83380500Y-55112656D01*
X83383060Y-55105200D01*
X83383093Y-55104970D01*
X83382767Y-55097091D01*
X83382768Y-55097089D01*
X83380606Y-55044807D01*
X83380500Y-55039684D01*
X83380500Y-54938634D01*
X83400185Y-54871595D01*
X83446872Y-54828839D01*
X83522240Y-54789283D01*
X83640483Y-54684530D01*
X83730220Y-54554523D01*
X83786237Y-54406818D01*
X83805278Y-54250000D01*
X83786237Y-54093182D01*
X83730220Y-53945477D01*
X83648378Y-53826908D01*
X83640484Y-53815471D01*
X83638825Y-53814001D01*
X83522240Y-53710717D01*
X83453782Y-53674787D01*
X83382364Y-53637303D01*
X83228985Y-53599500D01*
X83071015Y-53599500D01*
X82917635Y-53637303D01*
X82777761Y-53710716D01*
X82659515Y-53815471D01*
X82569780Y-53945476D01*
X82513763Y-54093181D01*
X82494721Y-54249999D01*
X82513763Y-54406818D01*
X82569779Y-54554522D01*
X82607550Y-54609242D01*
X82629433Y-54675596D01*
X82629500Y-54679682D01*
X82629500Y-54843100D01*
X82609815Y-54910139D01*
X82593181Y-54930781D01*
X81975781Y-55548181D01*
X81914458Y-55581666D01*
X81888100Y-55584500D01*
X81734859Y-55584500D01*
X81667820Y-55564815D01*
X81622065Y-55512011D01*
X81612121Y-55442853D01*
X81641146Y-55379297D01*
X81647169Y-55372827D01*
X81924599Y-55095396D01*
X81932556Y-55088107D01*
X81961490Y-55063830D01*
X81961490Y-55063829D01*
X81961492Y-55063828D01*
X81980389Y-55031095D01*
X81986185Y-55021998D01*
X82007852Y-54991057D01*
X82007852Y-54991055D01*
X82008471Y-54990172D01*
X82018697Y-54965485D01*
X82018884Y-54964420D01*
X82018886Y-54964418D01*
X82025447Y-54927203D01*
X82027776Y-54916697D01*
X82037562Y-54880180D01*
X82036032Y-54862696D01*
X82034270Y-54842549D01*
X82033798Y-54831742D01*
X82033798Y-53166187D01*
X82053483Y-53099148D01*
X82070112Y-53078511D01*
X82616804Y-52531819D01*
X82678128Y-52498334D01*
X82704486Y-52495500D01*
X85489179Y-52495500D01*
X85556218Y-52515185D01*
G37*
%TD.AperFunction*%
%TA.AperFunction,Conductor*%
G36*
X87373833Y-65810273D02*
G01*
X87429766Y-65852145D01*
X87454183Y-65917609D01*
X87454499Y-65926455D01*
X87454499Y-69390372D01*
X87454027Y-69401178D01*
X87450735Y-69438806D01*
X87460512Y-69475296D01*
X87462853Y-69485852D01*
X87469599Y-69524107D01*
X87479829Y-69548803D01*
X87480446Y-69549684D01*
X87502112Y-69580627D01*
X87507915Y-69589736D01*
X87526806Y-69622455D01*
X87555742Y-69646735D01*
X87563718Y-69654044D01*
X89503381Y-71593707D01*
X89536866Y-71655030D01*
X89539700Y-71681388D01*
X89539700Y-71701809D01*
X89520015Y-71768848D01*
X89467211Y-71814603D01*
X89425426Y-71825427D01*
X89391571Y-71828090D01*
X89239810Y-71872181D01*
X89103778Y-71952630D01*
X88992030Y-72064378D01*
X88911581Y-72200410D01*
X88867491Y-72352170D01*
X88864891Y-72385202D01*
X88864890Y-72385218D01*
X88864700Y-72387637D01*
X88864700Y-72390081D01*
X88864700Y-72390082D01*
X88864700Y-73761538D01*
X88864700Y-73761563D01*
X88864701Y-73763962D01*
X88864890Y-73766371D01*
X88864891Y-73766383D01*
X88867490Y-73799428D01*
X88887036Y-73866705D01*
X88886837Y-73936575D01*
X88848895Y-73995245D01*
X88785256Y-74024088D01*
X88767960Y-74025300D01*
X88679768Y-74025300D01*
X88612729Y-74005615D01*
X88566974Y-73952811D01*
X88557030Y-73883653D01*
X88559433Y-73871374D01*
X88572303Y-73819621D01*
X88575058Y-73778991D01*
X88575200Y-73774800D01*
X88575200Y-73325800D01*
X87700478Y-73325800D01*
X87748825Y-73242060D01*
X87779010Y-73109808D01*
X87768873Y-72974535D01*
X87719313Y-72848259D01*
X87701403Y-72825800D01*
X88575200Y-72825800D01*
X88575200Y-72376799D01*
X88575058Y-72372608D01*
X88572303Y-72331980D01*
X88526368Y-72147278D01*
X88441806Y-71976772D01*
X88322566Y-71828433D01*
X88174227Y-71709193D01*
X88003721Y-71624631D01*
X87819019Y-71578696D01*
X87778391Y-71575941D01*
X87774200Y-71575800D01*
X87575200Y-71575800D01*
X87575200Y-72701610D01*
X87522653Y-72665784D01*
X87393027Y-72625800D01*
X87291476Y-72625800D01*
X87191062Y-72640935D01*
X87075200Y-72696731D01*
X87075200Y-71575800D01*
X86876200Y-71575800D01*
X86872008Y-71575941D01*
X86831380Y-71578696D01*
X86646678Y-71624631D01*
X86476172Y-71709193D01*
X86327833Y-71828433D01*
X86208593Y-71976772D01*
X86124031Y-72147278D01*
X86078096Y-72331980D01*
X86075341Y-72372608D01*
X86075200Y-72376799D01*
X86075200Y-72825800D01*
X86949922Y-72825800D01*
X86901575Y-72909540D01*
X86871390Y-73041792D01*
X86881527Y-73177065D01*
X86931087Y-73303341D01*
X86948997Y-73325800D01*
X86075200Y-73325800D01*
X86075200Y-73774800D01*
X86075341Y-73778991D01*
X86078096Y-73819621D01*
X86090967Y-73871374D01*
X86088043Y-73941183D01*
X86047842Y-73998329D01*
X85983128Y-74024669D01*
X85970632Y-74025300D01*
X79355656Y-74025300D01*
X79288617Y-74005615D01*
X79242862Y-73952811D01*
X79232918Y-73883653D01*
X79261943Y-73820097D01*
X79267975Y-73813619D01*
X81257787Y-71823807D01*
X87242820Y-65838772D01*
X87304141Y-65805289D01*
X87373833Y-65810273D01*
G37*
%TD.AperFunction*%
%TA.AperFunction,Conductor*%
G36*
X55975702Y-49381474D02*
G01*
X55982180Y-49387506D01*
X56270950Y-49676276D01*
X56278258Y-49684250D01*
X56302545Y-49713194D01*
X56326594Y-49727079D01*
X56335256Y-49732080D01*
X56344379Y-49737892D01*
X56375316Y-49759554D01*
X56375317Y-49759554D01*
X56376198Y-49760171D01*
X56400891Y-49770400D01*
X56401954Y-49770587D01*
X56401955Y-49770588D01*
X56439143Y-49777145D01*
X56449701Y-49779485D01*
X56486193Y-49789264D01*
X56523823Y-49785971D01*
X56534630Y-49785500D01*
X65394811Y-49785500D01*
X65461850Y-49805185D01*
X65507605Y-49857989D01*
X65517549Y-49927147D01*
X65488524Y-49990703D01*
X65482492Y-49997181D01*
X65270582Y-50209090D01*
X65262609Y-50216396D01*
X65233674Y-50240676D01*
X65214782Y-50273396D01*
X65208974Y-50282512D01*
X65186699Y-50314325D01*
X65176465Y-50339031D01*
X65169720Y-50377280D01*
X65167380Y-50387836D01*
X65157603Y-50424323D01*
X65160896Y-50461949D01*
X65161368Y-50472758D01*
X65161368Y-50487609D01*
X65141683Y-50554648D01*
X65088879Y-50600403D01*
X65061562Y-50609226D01*
X65039127Y-50613689D01*
X65005755Y-50635987D01*
X64939077Y-50656863D01*
X64871698Y-50638377D01*
X64868013Y-50636009D01*
X64834608Y-50613689D01*
X64834607Y-50613688D01*
X64834606Y-50613688D01*
X64761543Y-50599155D01*
X64761542Y-50599155D01*
X64012194Y-50599155D01*
X64012193Y-50599155D01*
X63939127Y-50613689D01*
X63905755Y-50635987D01*
X63839077Y-50656863D01*
X63771698Y-50638377D01*
X63768013Y-50636009D01*
X63734608Y-50613689D01*
X63734607Y-50613688D01*
X63734606Y-50613688D01*
X63661543Y-50599155D01*
X63661542Y-50599155D01*
X63035994Y-50599155D01*
X62968955Y-50579470D01*
X62936727Y-50549466D01*
X62894057Y-50492466D01*
X62778957Y-50406302D01*
X62644239Y-50356055D01*
X62588000Y-50350009D01*
X62581386Y-50349655D01*
X62436868Y-50349655D01*
X62436868Y-51775655D01*
X62417183Y-51842694D01*
X62364379Y-51888449D01*
X62312868Y-51899655D01*
X62060868Y-51899655D01*
X61993829Y-51879970D01*
X61948074Y-51827166D01*
X61936868Y-51775655D01*
X61936868Y-50349655D01*
X61792350Y-50349655D01*
X61785735Y-50350009D01*
X61729496Y-50356055D01*
X61594778Y-50406302D01*
X61479678Y-50492466D01*
X61437009Y-50549466D01*
X61381075Y-50591337D01*
X61337742Y-50599155D01*
X60712193Y-50599155D01*
X60639127Y-50613689D01*
X60605757Y-50635986D01*
X60539079Y-50656863D01*
X60471700Y-50638377D01*
X60467979Y-50635986D01*
X60434608Y-50613689D01*
X60361543Y-50599155D01*
X60361542Y-50599155D01*
X59612194Y-50599155D01*
X59612193Y-50599155D01*
X59539127Y-50613689D01*
X59505755Y-50635987D01*
X59439077Y-50656863D01*
X59371698Y-50638377D01*
X59368013Y-50636009D01*
X59334608Y-50613689D01*
X59334607Y-50613688D01*
X59334606Y-50613688D01*
X59261543Y-50599155D01*
X59261542Y-50599155D01*
X58661368Y-50599155D01*
X58594329Y-50579470D01*
X58548574Y-50526666D01*
X58537368Y-50475155D01*
X58537368Y-50453940D01*
X58537368Y-50424981D01*
X58522834Y-50351915D01*
X58467469Y-50269054D01*
X58384608Y-50213689D01*
X58384607Y-50213688D01*
X58384606Y-50213688D01*
X58311543Y-50199155D01*
X58311542Y-50199155D01*
X57062194Y-50199155D01*
X57062193Y-50199155D01*
X56989129Y-50213688D01*
X56906267Y-50269054D01*
X56850901Y-50351916D01*
X56836368Y-50424980D01*
X56836368Y-51874329D01*
X56850901Y-51947393D01*
X56850901Y-51947394D01*
X56850902Y-51947395D01*
X56906267Y-52030256D01*
X56989128Y-52085621D01*
X57025660Y-52092888D01*
X57062193Y-52100155D01*
X57062194Y-52100155D01*
X58162368Y-52100155D01*
X58229407Y-52119840D01*
X58275162Y-52172644D01*
X58286368Y-52224155D01*
X58286368Y-52474329D01*
X58300901Y-52547393D01*
X58300901Y-52547394D01*
X58300902Y-52547395D01*
X58356267Y-52630256D01*
X58439128Y-52685621D01*
X58461550Y-52690081D01*
X58512193Y-52700155D01*
X58512194Y-52700155D01*
X59261543Y-52700155D01*
X59285897Y-52695310D01*
X59334608Y-52685621D01*
X59367979Y-52663323D01*
X59434655Y-52642446D01*
X59502035Y-52660931D01*
X59505722Y-52663300D01*
X59539128Y-52685621D01*
X59561550Y-52690081D01*
X59612193Y-52700155D01*
X59612194Y-52700155D01*
X60361543Y-52700155D01*
X60385897Y-52695310D01*
X60434608Y-52685621D01*
X60467979Y-52663323D01*
X60534655Y-52642446D01*
X60602035Y-52660931D01*
X60605722Y-52663300D01*
X60639128Y-52685621D01*
X60661550Y-52690081D01*
X60661560Y-52690083D01*
X60723471Y-52722468D01*
X60758045Y-52783184D01*
X60761368Y-52811700D01*
X60761368Y-52841582D01*
X60741683Y-52908621D01*
X60725053Y-52929258D01*
X60616130Y-53038182D01*
X60554810Y-53071666D01*
X60528451Y-53074500D01*
X56969628Y-53074500D01*
X56958820Y-53074028D01*
X56921192Y-53070735D01*
X56884704Y-53080512D01*
X56874148Y-53082852D01*
X56835899Y-53089597D01*
X56811193Y-53099831D01*
X56779380Y-53122106D01*
X56770264Y-53127914D01*
X56737545Y-53146805D01*
X56713262Y-53175744D01*
X56705956Y-53183716D01*
X56358714Y-53530958D01*
X56350741Y-53538264D01*
X56321806Y-53562544D01*
X56302914Y-53595264D01*
X56297106Y-53604380D01*
X56274831Y-53636193D01*
X56264597Y-53660899D01*
X56257852Y-53699148D01*
X56255512Y-53709704D01*
X56245735Y-53746191D01*
X56249028Y-53783817D01*
X56249500Y-53794626D01*
X56249500Y-54168248D01*
X56229815Y-54235287D01*
X56177011Y-54281042D01*
X56107853Y-54290986D01*
X56044297Y-54261961D01*
X56006523Y-54203183D01*
X56005166Y-54198175D01*
X55971171Y-54061482D01*
X55886606Y-53890972D01*
X55767366Y-53742633D01*
X55619027Y-53623393D01*
X55448521Y-53538831D01*
X55263819Y-53492896D01*
X55223191Y-53490141D01*
X55219000Y-53490000D01*
X54870000Y-53490000D01*
X54870000Y-54365810D01*
X54817453Y-54329984D01*
X54687827Y-54290000D01*
X54586276Y-54290000D01*
X54485862Y-54305135D01*
X54370000Y-54360931D01*
X54370000Y-53490000D01*
X54021000Y-53490000D01*
X54016808Y-53490141D01*
X53976180Y-53492896D01*
X53791478Y-53538831D01*
X53620972Y-53623393D01*
X53472633Y-53742633D01*
X53353393Y-53890972D01*
X53268831Y-54061478D01*
X53222896Y-54246180D01*
X53220141Y-54286808D01*
X53220000Y-54290986D01*
X53220000Y-54490000D01*
X54244722Y-54490000D01*
X54196375Y-54573740D01*
X54166190Y-54705992D01*
X54176327Y-54841265D01*
X54225887Y-54967541D01*
X54243797Y-54990000D01*
X53220000Y-54990000D01*
X53220000Y-55189000D01*
X53220141Y-55193191D01*
X53222896Y-55233819D01*
X53268831Y-55418521D01*
X53353393Y-55589027D01*
X53472633Y-55737366D01*
X53620972Y-55856606D01*
X53791478Y-55941168D01*
X53976180Y-55987103D01*
X54016808Y-55989858D01*
X54021000Y-55990000D01*
X54370000Y-55990000D01*
X54370000Y-55114189D01*
X54422547Y-55150016D01*
X54552173Y-55190000D01*
X54653724Y-55190000D01*
X54754138Y-55174865D01*
X54870000Y-55119068D01*
X54870000Y-55990000D01*
X55219000Y-55990000D01*
X55223191Y-55989858D01*
X55263819Y-55987103D01*
X55448521Y-55941168D01*
X55619024Y-55856607D01*
X55661781Y-55822238D01*
X55726365Y-55795579D01*
X55795109Y-55808069D01*
X55846188Y-55855742D01*
X55855650Y-55875551D01*
X55892286Y-55973775D01*
X55892287Y-55973777D01*
X55892288Y-55973778D01*
X55976384Y-56086116D01*
X56088722Y-56170212D01*
X56168835Y-56200092D01*
X56224767Y-56241962D01*
X56249184Y-56307426D01*
X56249500Y-56316273D01*
X56249500Y-57575372D01*
X56249028Y-57586180D01*
X56245735Y-57623807D01*
X56255512Y-57660296D01*
X56257853Y-57670852D01*
X56264599Y-57709107D01*
X56274829Y-57733803D01*
X56275446Y-57734684D01*
X56297112Y-57765627D01*
X56302915Y-57774736D01*
X56321806Y-57807455D01*
X56350742Y-57831735D01*
X56358718Y-57839044D01*
X58118181Y-59598507D01*
X58151666Y-59659830D01*
X58154500Y-59686188D01*
X58154500Y-61987448D01*
X58154028Y-61998256D01*
X58150735Y-62035883D01*
X58160512Y-62072372D01*
X58162853Y-62082928D01*
X58169599Y-62121183D01*
X58179829Y-62145879D01*
X58180446Y-62146760D01*
X58202112Y-62177703D01*
X58207915Y-62186812D01*
X58226806Y-62219531D01*
X58245764Y-62235439D01*
X58255742Y-62243811D01*
X58263718Y-62251120D01*
X58760416Y-62747819D01*
X58793901Y-62809142D01*
X58788917Y-62878834D01*
X58747045Y-62934767D01*
X58681581Y-62959184D01*
X58672735Y-62959500D01*
X56791188Y-62959500D01*
X56724149Y-62939815D01*
X56703507Y-62923181D01*
X56411818Y-62631492D01*
X56378333Y-62570169D01*
X56375499Y-62543819D01*
X56375499Y-61731998D01*
X56395184Y-61664960D01*
X56417272Y-61639183D01*
X56422236Y-61634784D01*
X56422240Y-61634783D01*
X56540483Y-61530030D01*
X56630220Y-61400023D01*
X56686237Y-61252318D01*
X56705278Y-61095500D01*
X56686237Y-60938682D01*
X56630220Y-60790977D01*
X56585351Y-60725973D01*
X56540484Y-60660971D01*
X56540483Y-60660970D01*
X56422240Y-60556217D01*
X56401232Y-60545191D01*
X56282364Y-60482803D01*
X56128985Y-60445000D01*
X55971015Y-60445000D01*
X55817635Y-60482803D01*
X55677761Y-60556216D01*
X55559515Y-60660971D01*
X55469780Y-60790976D01*
X55413763Y-60938681D01*
X55394721Y-61095500D01*
X55410024Y-61221525D01*
X55413763Y-61252318D01*
X55469780Y-61400023D01*
X55559517Y-61530030D01*
X55654091Y-61613814D01*
X55682727Y-61639183D01*
X55719854Y-61698373D01*
X55724500Y-61731999D01*
X55724500Y-62710372D01*
X55724028Y-62721180D01*
X55720735Y-62758807D01*
X55730512Y-62795296D01*
X55732853Y-62805852D01*
X55739599Y-62844107D01*
X55749829Y-62868803D01*
X55750446Y-62869684D01*
X55772112Y-62900627D01*
X55777915Y-62909736D01*
X55785678Y-62923181D01*
X55796806Y-62942455D01*
X55817119Y-62959500D01*
X55825742Y-62966735D01*
X55833718Y-62974044D01*
X55957493Y-63097819D01*
X55990978Y-63159142D01*
X55985994Y-63228834D01*
X55944122Y-63284767D01*
X55878658Y-63309184D01*
X55869812Y-63309500D01*
X53261189Y-63309500D01*
X53194150Y-63289815D01*
X53173508Y-63273181D01*
X51851819Y-61951492D01*
X51818334Y-61890169D01*
X51815500Y-61863811D01*
X51815500Y-53716188D01*
X51835185Y-53649149D01*
X51851815Y-53628511D01*
X51875298Y-53605029D01*
X51875299Y-53605026D01*
X51889524Y-53590802D01*
X51889526Y-53590798D01*
X52918507Y-52561819D01*
X52979831Y-52528334D01*
X53006189Y-52525500D01*
X53346010Y-52525500D01*
X53413049Y-52545185D01*
X53458804Y-52597989D01*
X53469628Y-52639777D01*
X53472290Y-52673628D01*
X53516381Y-52825389D01*
X53596830Y-52961421D01*
X53708578Y-53073169D01*
X53773908Y-53111805D01*
X53844610Y-53153618D01*
X53996373Y-53197709D01*
X54031837Y-53200500D01*
X55208162Y-53200499D01*
X55239440Y-53198038D01*
X55243628Y-53197709D01*
X55330215Y-53172553D01*
X55395390Y-53153618D01*
X55531420Y-53073170D01*
X55643170Y-52961420D01*
X55723618Y-52825390D01*
X55767709Y-52673627D01*
X55770500Y-52638163D01*
X55770499Y-51761838D01*
X55767709Y-51726373D01*
X55767709Y-51726371D01*
X55723618Y-51574610D01*
X55643169Y-51438578D01*
X55531421Y-51326830D01*
X55395389Y-51246381D01*
X55243629Y-51202291D01*
X55210597Y-51199691D01*
X55210582Y-51199690D01*
X55208163Y-51199500D01*
X55205717Y-51199500D01*
X54034261Y-51199500D01*
X54034235Y-51199500D01*
X54031838Y-51199501D01*
X54029429Y-51199690D01*
X54029416Y-51199691D01*
X53996371Y-51202290D01*
X53844610Y-51246381D01*
X53708578Y-51326830D01*
X53596830Y-51438578D01*
X53516381Y-51574610D01*
X53472291Y-51726370D01*
X53469627Y-51760228D01*
X53444743Y-51825517D01*
X53388513Y-51866988D01*
X53346009Y-51874500D01*
X52839619Y-51874500D01*
X52828812Y-51874028D01*
X52826298Y-51873808D01*
X52791191Y-51870736D01*
X52754710Y-51880511D01*
X52744155Y-51882852D01*
X52732814Y-51884851D01*
X52706955Y-51889412D01*
X52706953Y-51889412D01*
X52705897Y-51889599D01*
X52681192Y-51899832D01*
X52649378Y-51922107D01*
X52640261Y-51927915D01*
X52607545Y-51946804D01*
X52583262Y-51975743D01*
X52575956Y-51983715D01*
X51677181Y-52882491D01*
X51615858Y-52915976D01*
X51546167Y-52910992D01*
X51490233Y-52869120D01*
X51465816Y-52803656D01*
X51465500Y-52794810D01*
X51465500Y-51825517D01*
X51465499Y-50806184D01*
X51485184Y-50739149D01*
X51501813Y-50718512D01*
X52148507Y-50071819D01*
X52209831Y-50038334D01*
X52236189Y-50035500D01*
X53350680Y-50035500D01*
X53417719Y-50055185D01*
X53463474Y-50107989D01*
X53469756Y-50124905D01*
X53516381Y-50285389D01*
X53596830Y-50421421D01*
X53708578Y-50533169D01*
X53708580Y-50533170D01*
X53844610Y-50613618D01*
X53996373Y-50657709D01*
X54031837Y-50660500D01*
X55208162Y-50660499D01*
X55239440Y-50658038D01*
X55243628Y-50657709D01*
X55330748Y-50632398D01*
X55395390Y-50613618D01*
X55531420Y-50533170D01*
X55643170Y-50421420D01*
X55723618Y-50285390D01*
X55767709Y-50133627D01*
X55770500Y-50098163D01*
X55770499Y-49475186D01*
X55790183Y-49408148D01*
X55842987Y-49362393D01*
X55912146Y-49352449D01*
X55975702Y-49381474D01*
G37*
%TD.AperFunction*%
%TA.AperFunction,Conductor*%
G36*
X68656430Y-55003241D02*
G01*
X68712364Y-55045112D01*
X68736193Y-55104476D01*
X68743763Y-55166818D01*
X68799780Y-55314523D01*
X68889515Y-55444528D01*
X68889516Y-55444529D01*
X68889517Y-55444530D01*
X69007760Y-55549283D01*
X69147635Y-55622695D01*
X69147635Y-55622696D01*
X69301015Y-55660500D01*
X69370500Y-55660500D01*
X69437539Y-55680185D01*
X69483294Y-55732989D01*
X69494500Y-55784500D01*
X69494500Y-59898837D01*
X69474815Y-59965876D01*
X69458181Y-59986518D01*
X69121519Y-60323181D01*
X69060196Y-60356666D01*
X69033838Y-60359500D01*
X61504619Y-60359500D01*
X61493812Y-60359028D01*
X61491298Y-60358808D01*
X61456191Y-60355736D01*
X61419710Y-60365511D01*
X61409155Y-60367852D01*
X61398767Y-60369684D01*
X61371955Y-60374412D01*
X61371953Y-60374412D01*
X61370897Y-60374599D01*
X61346192Y-60384832D01*
X61314378Y-60407107D01*
X61305261Y-60412915D01*
X61272545Y-60431804D01*
X61248262Y-60460743D01*
X61240956Y-60468715D01*
X60686493Y-61023181D01*
X60625170Y-61056666D01*
X60598812Y-61059500D01*
X59835326Y-61059500D01*
X59817377Y-61063070D01*
X59784187Y-61069672D01*
X59714596Y-61063443D01*
X59659419Y-61020580D01*
X59636175Y-60954690D01*
X59635997Y-60948088D01*
X59635997Y-59836399D01*
X59655682Y-59769361D01*
X59672311Y-59748724D01*
X60759217Y-58661819D01*
X60820541Y-58628334D01*
X60846899Y-58625500D01*
X63258195Y-58625500D01*
X63283641Y-58628139D01*
X63287440Y-58628935D01*
X63294268Y-58630367D01*
X63324138Y-58626643D01*
X63325677Y-58626452D01*
X63341014Y-58625500D01*
X63341111Y-58625500D01*
X63341114Y-58625500D01*
X63361643Y-58622073D01*
X63366659Y-58621342D01*
X63418626Y-58614866D01*
X63418628Y-58614864D01*
X63426457Y-58613889D01*
X63426666Y-58613822D01*
X63433607Y-58610065D01*
X63433610Y-58610065D01*
X63479666Y-58585140D01*
X63484144Y-58582835D01*
X63531211Y-58559826D01*
X63531212Y-58559824D01*
X63538308Y-58556356D01*
X63538476Y-58556230D01*
X63543824Y-58550419D01*
X63543826Y-58550419D01*
X63579294Y-58511889D01*
X63582795Y-58508240D01*
X64008957Y-58082078D01*
X64028809Y-58065957D01*
X64037904Y-58060016D01*
X64057345Y-58035036D01*
X64067517Y-58023519D01*
X64067588Y-58023449D01*
X64079682Y-58006508D01*
X64082716Y-58002440D01*
X64114877Y-57961121D01*
X64114877Y-57961119D01*
X64119734Y-57954880D01*
X64119821Y-57954711D01*
X64122078Y-57947131D01*
X64137022Y-57896933D01*
X64138559Y-57892134D01*
X64155568Y-57842592D01*
X64155568Y-57842590D01*
X64158130Y-57835128D01*
X64158163Y-57834899D01*
X64155673Y-57774723D01*
X64155567Y-57769596D01*
X64155567Y-57146499D01*
X64155567Y-56607152D01*
X64175252Y-56540117D01*
X64228056Y-56494362D01*
X64236209Y-56490984D01*
X64359899Y-56444851D01*
X64475114Y-56358601D01*
X64561364Y-56243386D01*
X64611659Y-56108538D01*
X64618068Y-56048928D01*
X64618068Y-56025555D01*
X64637753Y-55958516D01*
X64690557Y-55912761D01*
X64742068Y-55901555D01*
X64850896Y-55901555D01*
X64917935Y-55921240D01*
X64963690Y-55974044D01*
X64967072Y-55982208D01*
X64997256Y-56063133D01*
X65081352Y-56175471D01*
X65193690Y-56259567D01*
X65325169Y-56308606D01*
X65383294Y-56314855D01*
X65386604Y-56314855D01*
X65948332Y-56314855D01*
X65951642Y-56314855D01*
X66009767Y-56308606D01*
X66141246Y-56259567D01*
X66253584Y-56175471D01*
X66337680Y-56063133D01*
X66345703Y-56041620D01*
X66348912Y-56033020D01*
X66390784Y-55977087D01*
X66456248Y-55952671D01*
X66465093Y-55952355D01*
X66646426Y-55952355D01*
X66713465Y-55972040D01*
X66759220Y-56024844D01*
X66762603Y-56033011D01*
X66775256Y-56066933D01*
X66859352Y-56179271D01*
X66971690Y-56263367D01*
X67103169Y-56312406D01*
X67161294Y-56318655D01*
X67164604Y-56318655D01*
X67726332Y-56318655D01*
X67729642Y-56318655D01*
X67787767Y-56312406D01*
X67919246Y-56263367D01*
X68031584Y-56179271D01*
X68115680Y-56066933D01*
X68164719Y-55935454D01*
X68170968Y-55877329D01*
X68170968Y-55437553D01*
X68190653Y-55370514D01*
X68207287Y-55349872D01*
X68363968Y-55193191D01*
X68525418Y-55031740D01*
X68586739Y-54998257D01*
X68656430Y-55003241D01*
G37*
%TD.AperFunction*%
%TA.AperFunction,Conductor*%
G36*
X70677124Y-57385242D02*
G01*
X70737435Y-57416896D01*
X70890815Y-57454700D01*
X70930500Y-57454700D01*
X70997539Y-57474385D01*
X71043294Y-57527189D01*
X71054500Y-57578700D01*
X71054500Y-67698196D01*
X71051861Y-67723642D01*
X71049633Y-67734267D01*
X71053548Y-67765676D01*
X71054500Y-67781013D01*
X71054500Y-67781116D01*
X71057918Y-67801602D01*
X71058657Y-67806670D01*
X71066107Y-67866438D01*
X71066185Y-67866682D01*
X71094827Y-67919608D01*
X71097171Y-67924162D01*
X71123634Y-67978292D01*
X71123777Y-67978482D01*
X71129579Y-67983824D01*
X71129581Y-67983826D01*
X71168108Y-68019293D01*
X71171780Y-68022817D01*
X72197850Y-69048887D01*
X72213977Y-69068746D01*
X72219915Y-69077836D01*
X72244893Y-69097277D01*
X72256410Y-69107448D01*
X72256481Y-69107519D01*
X72273397Y-69119597D01*
X72277505Y-69122660D01*
X72325041Y-69159659D01*
X72325232Y-69159756D01*
X72332799Y-69162009D01*
X72332801Y-69162010D01*
X72382974Y-69176947D01*
X72387804Y-69178494D01*
X72437340Y-69195500D01*
X72437342Y-69195500D01*
X72444799Y-69198060D01*
X72445033Y-69198094D01*
X72452909Y-69197768D01*
X72452912Y-69197769D01*
X72503227Y-69195687D01*
X72505207Y-69195606D01*
X72510331Y-69195500D01*
X77157340Y-69195500D01*
X80686184Y-69195500D01*
X80753223Y-69215185D01*
X80798978Y-69267989D01*
X80808922Y-69337147D01*
X80779897Y-69400703D01*
X80773865Y-69407181D01*
X77942065Y-72238981D01*
X77880742Y-72272466D01*
X77854384Y-72275300D01*
X64346188Y-72275300D01*
X64279149Y-72255615D01*
X64258507Y-72238981D01*
X62986819Y-70967293D01*
X62953334Y-70905970D01*
X62950500Y-70879612D01*
X62950500Y-69630000D01*
X66744721Y-69630000D01*
X66763763Y-69786818D01*
X66819780Y-69934523D01*
X66909515Y-70064528D01*
X66909516Y-70064529D01*
X66909517Y-70064530D01*
X67027760Y-70169283D01*
X67167635Y-70242696D01*
X67321015Y-70280500D01*
X67478985Y-70280500D01*
X67632365Y-70242696D01*
X67772240Y-70169283D01*
X67890483Y-70064530D01*
X67928771Y-70009059D01*
X67983054Y-69965070D01*
X68030821Y-69955500D01*
X69619179Y-69955500D01*
X69686218Y-69975185D01*
X69721229Y-70009060D01*
X69759515Y-70064528D01*
X69759516Y-70064529D01*
X69759517Y-70064530D01*
X69877760Y-70169283D01*
X70017635Y-70242696D01*
X70171015Y-70280500D01*
X70328985Y-70280500D01*
X70482365Y-70242696D01*
X70622240Y-70169283D01*
X70740483Y-70064530D01*
X70830220Y-69934523D01*
X70886237Y-69786818D01*
X70905278Y-69630000D01*
X70886237Y-69473182D01*
X70830220Y-69325477D01*
X70754091Y-69215185D01*
X70740484Y-69195471D01*
X70740483Y-69195470D01*
X70622240Y-69090717D01*
X70542541Y-69048887D01*
X70482364Y-69017303D01*
X70328985Y-68979500D01*
X70171015Y-68979500D01*
X70017635Y-69017303D01*
X69877761Y-69090716D01*
X69759515Y-69195471D01*
X69721229Y-69250940D01*
X69666946Y-69294930D01*
X69619179Y-69304500D01*
X68030821Y-69304500D01*
X67963782Y-69284815D01*
X67928771Y-69250940D01*
X67890484Y-69195471D01*
X67890483Y-69195470D01*
X67772240Y-69090717D01*
X67692541Y-69048887D01*
X67632364Y-69017303D01*
X67478985Y-68979500D01*
X67321015Y-68979500D01*
X67167635Y-69017303D01*
X67027761Y-69090716D01*
X66909515Y-69195471D01*
X66819780Y-69325476D01*
X66763763Y-69473181D01*
X66744721Y-69630000D01*
X62950500Y-69630000D01*
X62950500Y-64681188D01*
X62970185Y-64614149D01*
X62986819Y-64593507D01*
X63758507Y-63821819D01*
X63819830Y-63788334D01*
X63846188Y-63785500D01*
X67139236Y-63785500D01*
X67206275Y-63805185D01*
X67221461Y-63816683D01*
X67237810Y-63831166D01*
X67258260Y-63849283D01*
X67398135Y-63922696D01*
X67551515Y-63960500D01*
X67709485Y-63960500D01*
X67877485Y-63919093D01*
X67878462Y-63923057D01*
X67920594Y-63914603D01*
X67985656Y-63940074D01*
X68025933Y-63994794D01*
X68036204Y-64022331D01*
X68122454Y-64137546D01*
X68237669Y-64223796D01*
X68372517Y-64274091D01*
X68432127Y-64280500D01*
X69027872Y-64280499D01*
X69087483Y-64274091D01*
X69222331Y-64223796D01*
X69290689Y-64172622D01*
X69356153Y-64148205D01*
X69424426Y-64163056D01*
X69439309Y-64172621D01*
X69507669Y-64223796D01*
X69642517Y-64274091D01*
X69702127Y-64280500D01*
X70297872Y-64280499D01*
X70357483Y-64274091D01*
X70492331Y-64223796D01*
X70607546Y-64137546D01*
X70693796Y-64022331D01*
X70744091Y-63887483D01*
X70750500Y-63827873D01*
X70750499Y-62232128D01*
X70744091Y-62172517D01*
X70693796Y-62037669D01*
X70607546Y-61922454D01*
X70492331Y-61836204D01*
X70357483Y-61785909D01*
X70297873Y-61779500D01*
X70294550Y-61779500D01*
X69705439Y-61779500D01*
X69705420Y-61779500D01*
X69702128Y-61779501D01*
X69698848Y-61779853D01*
X69698840Y-61779854D01*
X69642515Y-61785909D01*
X69507669Y-61836204D01*
X69439311Y-61887377D01*
X69373846Y-61911794D01*
X69305573Y-61896942D01*
X69290689Y-61887377D01*
X69222331Y-61836204D01*
X69087483Y-61785909D01*
X69031166Y-61779854D01*
X69031165Y-61779853D01*
X69027873Y-61779500D01*
X69024550Y-61779500D01*
X68435439Y-61779500D01*
X68435420Y-61779500D01*
X68432128Y-61779501D01*
X68428848Y-61779853D01*
X68428840Y-61779854D01*
X68372515Y-61785909D01*
X68237669Y-61836204D01*
X68122454Y-61922454D01*
X68036204Y-62037668D01*
X67985910Y-62172515D01*
X67985909Y-62172517D01*
X67979500Y-62232127D01*
X67979500Y-62235449D01*
X67979500Y-62567777D01*
X67959815Y-62634816D01*
X67907011Y-62680571D01*
X67837853Y-62690515D01*
X67825826Y-62688174D01*
X67709486Y-62659500D01*
X67709485Y-62659500D01*
X67551515Y-62659500D01*
X67398135Y-62697303D01*
X67258261Y-62770716D01*
X67140015Y-62875471D01*
X67050279Y-63005476D01*
X67031699Y-63054471D01*
X66989521Y-63110174D01*
X66923924Y-63134231D01*
X66915757Y-63134500D01*
X63679628Y-63134500D01*
X63668820Y-63134028D01*
X63631192Y-63130735D01*
X63594704Y-63140512D01*
X63584148Y-63142852D01*
X63545899Y-63149597D01*
X63521193Y-63159831D01*
X63489380Y-63182106D01*
X63480264Y-63187914D01*
X63447545Y-63206805D01*
X63423262Y-63235744D01*
X63415956Y-63243716D01*
X62777097Y-63882576D01*
X62715774Y-63916061D01*
X62646083Y-63911077D01*
X62590149Y-63869206D01*
X62587204Y-63863144D01*
X62587092Y-63863224D01*
X62552894Y-63814382D01*
X62547083Y-63805261D01*
X62528194Y-63772545D01*
X62499261Y-63748267D01*
X62491286Y-63740959D01*
X62089528Y-63339202D01*
X62089527Y-63339200D01*
X62040142Y-63289815D01*
X61872505Y-63122179D01*
X61839022Y-63060859D01*
X61844006Y-62991167D01*
X61885877Y-62935233D01*
X61951341Y-62910816D01*
X61960188Y-62910500D01*
X62105373Y-62910500D01*
X62116180Y-62910971D01*
X62153807Y-62914264D01*
X62190324Y-62904478D01*
X62200830Y-62902149D01*
X62238045Y-62895588D01*
X62238047Y-62895586D01*
X62239112Y-62895399D01*
X62263799Y-62885173D01*
X62264682Y-62884554D01*
X62264684Y-62884554D01*
X62295625Y-62862887D01*
X62304722Y-62857091D01*
X62337455Y-62838194D01*
X62361748Y-62809241D01*
X62369036Y-62801288D01*
X62596896Y-62573428D01*
X62658217Y-62539945D01*
X62725530Y-62544069D01*
X62731941Y-62546313D01*
X62843980Y-62558936D01*
X62899999Y-62565249D01*
X62899999Y-62565248D01*
X62900000Y-62565249D01*
X63068059Y-62546313D01*
X63227690Y-62490456D01*
X63271820Y-62462726D01*
X63339053Y-62443727D01*
X63405888Y-62464094D01*
X63433642Y-62489054D01*
X63459473Y-62520528D01*
X63611742Y-62645493D01*
X63785463Y-62738349D01*
X63920000Y-62779160D01*
X63920000Y-62017672D01*
X63957871Y-62062805D01*
X64057129Y-62120112D01*
X64141564Y-62135000D01*
X64198436Y-62135000D01*
X64282871Y-62120112D01*
X64382129Y-62062805D01*
X64384483Y-62060000D01*
X64420000Y-62060000D01*
X64420000Y-62779159D01*
X64554536Y-62738349D01*
X64728257Y-62645493D01*
X64880527Y-62520527D01*
X65005493Y-62368257D01*
X65098350Y-62194534D01*
X65139160Y-62060001D01*
X65139160Y-62060000D01*
X64420000Y-62060000D01*
X64384483Y-62060000D01*
X64455801Y-61975007D01*
X64495000Y-61867306D01*
X64495000Y-61752694D01*
X64455801Y-61644993D01*
X64384483Y-61560000D01*
X65139160Y-61560000D01*
X65139160Y-61559999D01*
X65127177Y-61520495D01*
X65126554Y-61450628D01*
X65163802Y-61391516D01*
X65227096Y-61361925D01*
X65245838Y-61360500D01*
X69345373Y-61360500D01*
X69356180Y-61360971D01*
X69393807Y-61364264D01*
X69430324Y-61354478D01*
X69440830Y-61352149D01*
X69478045Y-61345588D01*
X69478047Y-61345586D01*
X69479112Y-61345399D01*
X69503799Y-61335173D01*
X69504682Y-61334554D01*
X69504684Y-61334554D01*
X69535625Y-61312887D01*
X69544722Y-61307091D01*
X69577455Y-61288194D01*
X69601748Y-61259241D01*
X69609036Y-61251288D01*
X70386290Y-60474034D01*
X70394258Y-60466734D01*
X70423192Y-60442457D01*
X70423192Y-60442456D01*
X70423194Y-60442455D01*
X70442091Y-60409722D01*
X70447887Y-60400625D01*
X70469554Y-60369684D01*
X70469554Y-60369682D01*
X70470173Y-60368799D01*
X70480399Y-60344112D01*
X70480586Y-60343047D01*
X70480588Y-60343045D01*
X70487149Y-60305830D01*
X70489478Y-60295324D01*
X70499264Y-60258807D01*
X70495972Y-60221180D01*
X70495500Y-60210372D01*
X70495500Y-57495039D01*
X70515185Y-57428000D01*
X70567989Y-57382245D01*
X70637147Y-57372301D01*
X70677124Y-57385242D01*
G37*
%TD.AperFunction*%
%TA.AperFunction,Conductor*%
G36*
X98125851Y-48930185D02*
G01*
X98146493Y-48946819D01*
X99893137Y-50693463D01*
X99926622Y-50754786D01*
X99928552Y-50796090D01*
X99914721Y-50909998D01*
X99933763Y-51066818D01*
X99989780Y-51214523D01*
X100079515Y-51344528D01*
X100079516Y-51344529D01*
X100079517Y-51344530D01*
X100197760Y-51449283D01*
X100337635Y-51522696D01*
X100491015Y-51560500D01*
X100648985Y-51560500D01*
X100802365Y-51522696D01*
X100942240Y-51449283D01*
X101060483Y-51344530D01*
X101150220Y-51214523D01*
X101206237Y-51066818D01*
X101225278Y-50910000D01*
X101206237Y-50753182D01*
X101150220Y-50605477D01*
X101060483Y-50475470D01*
X101060127Y-50475155D01*
X101003491Y-50424980D01*
X100942240Y-50370717D01*
X100942238Y-50370715D01*
X100939608Y-50368386D01*
X100902481Y-50309197D01*
X100903247Y-50239331D01*
X100939605Y-50182757D01*
X101050483Y-50084530D01*
X101088771Y-50029059D01*
X101143054Y-49985070D01*
X101190821Y-49975500D01*
X103880373Y-49975500D01*
X103891181Y-49975972D01*
X103912257Y-49977816D01*
X103977325Y-50003269D01*
X104018304Y-50059860D01*
X104022182Y-50129622D01*
X103989130Y-50189025D01*
X103733308Y-50444847D01*
X103713454Y-50460971D01*
X103704365Y-50466909D01*
X103684922Y-50491889D01*
X103674763Y-50503393D01*
X103674684Y-50503471D01*
X103674679Y-50503477D01*
X103674680Y-50503477D01*
X103662590Y-50520409D01*
X103659541Y-50524499D01*
X103622554Y-50572019D01*
X103622437Y-50572248D01*
X103605257Y-50629950D01*
X103603695Y-50634826D01*
X103584141Y-50691787D01*
X103584106Y-50692029D01*
X103586594Y-50752186D01*
X103586700Y-50757310D01*
X103586700Y-52223448D01*
X103567015Y-52290487D01*
X103514211Y-52336242D01*
X103467824Y-52347342D01*
X103425962Y-52349073D01*
X103418206Y-52349394D01*
X103413084Y-52349500D01*
X95246804Y-52349500D01*
X95221358Y-52346861D01*
X95210732Y-52344633D01*
X95179323Y-52348548D01*
X95163986Y-52349500D01*
X95163884Y-52349500D01*
X95143381Y-52352920D01*
X95138320Y-52353657D01*
X95078572Y-52361105D01*
X95078308Y-52361190D01*
X95025365Y-52389840D01*
X95020813Y-52392184D01*
X94990078Y-52407210D01*
X94921205Y-52418970D01*
X94856908Y-52391628D01*
X94830622Y-52361782D01*
X94818060Y-52341791D01*
X94101400Y-53058453D01*
X93338900Y-53820953D01*
X92975791Y-54184060D01*
X92984833Y-54189741D01*
X93031125Y-54242075D01*
X93041774Y-54311129D01*
X93013399Y-54374978D01*
X93006543Y-54382417D01*
X88100781Y-59288181D01*
X88039458Y-59321666D01*
X88013100Y-59324500D01*
X86773890Y-59324500D01*
X86706851Y-59304815D01*
X86661096Y-59252011D01*
X86651152Y-59182853D01*
X86680177Y-59119297D01*
X86691664Y-59107684D01*
X86732583Y-59071433D01*
X86735130Y-59069177D01*
X86773418Y-59013706D01*
X86827701Y-58969717D01*
X86875468Y-58960147D01*
X87420321Y-58960147D01*
X87431128Y-58960618D01*
X87468755Y-58963911D01*
X87505272Y-58954125D01*
X87515778Y-58951796D01*
X87552993Y-58945235D01*
X87552995Y-58945233D01*
X87554060Y-58945046D01*
X87578747Y-58934820D01*
X87579630Y-58934201D01*
X87579632Y-58934201D01*
X87610573Y-58912534D01*
X87619670Y-58906738D01*
X87652403Y-58887841D01*
X87676696Y-58858888D01*
X87683984Y-58850935D01*
X89886290Y-56648629D01*
X89894258Y-56641329D01*
X89894460Y-56641160D01*
X89923194Y-56617050D01*
X89942091Y-56584317D01*
X89947887Y-56575220D01*
X89969554Y-56544279D01*
X89969554Y-56544277D01*
X89970173Y-56543394D01*
X89980399Y-56518707D01*
X89980586Y-56517642D01*
X89980588Y-56517640D01*
X89987149Y-56480425D01*
X89989478Y-56469919D01*
X89999264Y-56433402D01*
X89996939Y-56406830D01*
X89995972Y-56395771D01*
X89995500Y-56384964D01*
X89995500Y-54184060D01*
X91450791Y-54184060D01*
X91464596Y-54192735D01*
X91634759Y-54252277D01*
X91813900Y-54272462D01*
X91993040Y-54252277D01*
X92163203Y-54192735D01*
X92177007Y-54184061D01*
X92177007Y-54184060D01*
X91813901Y-53820953D01*
X91813900Y-53820953D01*
X91450791Y-54184060D01*
X89995500Y-54184060D01*
X89995500Y-53421560D01*
X90688291Y-53421560D01*
X90702096Y-53430235D01*
X90872255Y-53489776D01*
X90914880Y-53494578D01*
X90979295Y-53521644D01*
X91018851Y-53579238D01*
X91024219Y-53603914D01*
X91029022Y-53646540D01*
X91088565Y-53816704D01*
X91097238Y-53830508D01*
X91427855Y-53499892D01*
X91713900Y-53499892D01*
X91752097Y-53552465D01*
X91798062Y-53567400D01*
X91829738Y-53567400D01*
X91875703Y-53552465D01*
X91913900Y-53499892D01*
X91913900Y-53467400D01*
X92167453Y-53467400D01*
X92530560Y-53830507D01*
X92562521Y-53826907D01*
X92590287Y-53826908D01*
X92622238Y-53830508D01*
X92952855Y-53499892D01*
X93238900Y-53499892D01*
X93277097Y-53552465D01*
X93323062Y-53567400D01*
X93354738Y-53567400D01*
X93400703Y-53552465D01*
X93438900Y-53499892D01*
X93438900Y-53434908D01*
X93400703Y-53382335D01*
X93354738Y-53367400D01*
X93323062Y-53367400D01*
X93277097Y-53382335D01*
X93238900Y-53434908D01*
X93238900Y-53499892D01*
X92952855Y-53499892D01*
X92985347Y-53467400D01*
X92576400Y-53058453D01*
X92167453Y-53467400D01*
X91913900Y-53467400D01*
X91913900Y-53434908D01*
X91875703Y-53382335D01*
X91829738Y-53367400D01*
X91798062Y-53367400D01*
X91752097Y-53382335D01*
X91713900Y-53434908D01*
X91713900Y-53499892D01*
X91427855Y-53499892D01*
X91460347Y-53467400D01*
X91460347Y-53467399D01*
X91051401Y-53058453D01*
X91051400Y-53058453D01*
X90688291Y-53421560D01*
X89995500Y-53421560D01*
X89995500Y-52704899D01*
X90246337Y-52704899D01*
X90266522Y-52884040D01*
X90326065Y-53054204D01*
X90334738Y-53068008D01*
X90665355Y-52737392D01*
X90951400Y-52737392D01*
X90989597Y-52789965D01*
X91035562Y-52804900D01*
X91067238Y-52804900D01*
X91113203Y-52789965D01*
X91151400Y-52737392D01*
X91151400Y-52704900D01*
X91404953Y-52704900D01*
X91813900Y-53113847D01*
X92190355Y-52737392D01*
X92476400Y-52737392D01*
X92514597Y-52789965D01*
X92560562Y-52804900D01*
X92592238Y-52804900D01*
X92638203Y-52789965D01*
X92676400Y-52737392D01*
X92676400Y-52704900D01*
X92929953Y-52704900D01*
X93338900Y-53113847D01*
X93715355Y-52737392D01*
X94001400Y-52737392D01*
X94039597Y-52789965D01*
X94085562Y-52804900D01*
X94117238Y-52804900D01*
X94163203Y-52789965D01*
X94201400Y-52737392D01*
X94201400Y-52672408D01*
X94163203Y-52619835D01*
X94117238Y-52604900D01*
X94085562Y-52604900D01*
X94039597Y-52619835D01*
X94001400Y-52672408D01*
X94001400Y-52737392D01*
X93715355Y-52737392D01*
X93747847Y-52704900D01*
X93338900Y-52295953D01*
X92929953Y-52704900D01*
X92676400Y-52704900D01*
X92676400Y-52672408D01*
X92638203Y-52619835D01*
X92592238Y-52604900D01*
X92560562Y-52604900D01*
X92514597Y-52619835D01*
X92476400Y-52672408D01*
X92476400Y-52737392D01*
X92190355Y-52737392D01*
X92222847Y-52704900D01*
X91813900Y-52295953D01*
X91404953Y-52704900D01*
X91151400Y-52704900D01*
X91151400Y-52672408D01*
X91113203Y-52619835D01*
X91067238Y-52604900D01*
X91035562Y-52604900D01*
X90989597Y-52619835D01*
X90951400Y-52672408D01*
X90951400Y-52737392D01*
X90665355Y-52737392D01*
X90697847Y-52704900D01*
X90697847Y-52704899D01*
X90334738Y-52341790D01*
X90334738Y-52341791D01*
X90326064Y-52355596D01*
X90266522Y-52525759D01*
X90246337Y-52704899D01*
X89995500Y-52704899D01*
X89995500Y-51988238D01*
X90688290Y-51988238D01*
X91051400Y-52351346D01*
X91051401Y-52351346D01*
X91427854Y-51974892D01*
X91713900Y-51974892D01*
X91752097Y-52027465D01*
X91798062Y-52042400D01*
X91829738Y-52042400D01*
X91875703Y-52027465D01*
X91913900Y-51974892D01*
X91913900Y-51942400D01*
X92167453Y-51942400D01*
X92576400Y-52351347D01*
X92952855Y-51974892D01*
X93238900Y-51974892D01*
X93277097Y-52027465D01*
X93323062Y-52042400D01*
X93354738Y-52042400D01*
X93400703Y-52027465D01*
X93438900Y-51974892D01*
X93438900Y-51942400D01*
X93692453Y-51942400D01*
X94101400Y-52351347D01*
X94101401Y-52351347D01*
X94464508Y-51988238D01*
X94460908Y-51956284D01*
X94460907Y-51928519D01*
X94464507Y-51896560D01*
X94101400Y-51533453D01*
X93692453Y-51942400D01*
X93438900Y-51942400D01*
X93438900Y-51909908D01*
X93400703Y-51857335D01*
X93354738Y-51842400D01*
X93323062Y-51842400D01*
X93277097Y-51857335D01*
X93238900Y-51909908D01*
X93238900Y-51974892D01*
X92952855Y-51974892D01*
X92985347Y-51942400D01*
X92576400Y-51533453D01*
X92167453Y-51942400D01*
X91913900Y-51942400D01*
X91913900Y-51909908D01*
X91875703Y-51857335D01*
X91829738Y-51842400D01*
X91798062Y-51842400D01*
X91752097Y-51857335D01*
X91713900Y-51909908D01*
X91713900Y-51974892D01*
X91427854Y-51974892D01*
X91460347Y-51942399D01*
X91460347Y-51942398D01*
X91051400Y-51533453D01*
X90688290Y-51896561D01*
X90691891Y-51928523D01*
X90691891Y-51956292D01*
X90688290Y-51988238D01*
X89995500Y-51988238D01*
X89995500Y-51206499D01*
X90015185Y-51139460D01*
X90037265Y-51113691D01*
X90041856Y-51109623D01*
X90105086Y-51079896D01*
X90174350Y-51089073D01*
X90227658Y-51134241D01*
X90247311Y-51188546D01*
X90266522Y-51359040D01*
X90326065Y-51529204D01*
X90334738Y-51543008D01*
X90665355Y-51212392D01*
X90951400Y-51212392D01*
X90989597Y-51264965D01*
X91035562Y-51279900D01*
X91067238Y-51279900D01*
X91113203Y-51264965D01*
X91151400Y-51212392D01*
X91151400Y-51179899D01*
X91404952Y-51179899D01*
X91813899Y-51588846D01*
X92190352Y-51212392D01*
X92476400Y-51212392D01*
X92514597Y-51264965D01*
X92560562Y-51279900D01*
X92592238Y-51279900D01*
X92638203Y-51264965D01*
X92676400Y-51212392D01*
X92676400Y-51179900D01*
X92929953Y-51179900D01*
X93338900Y-51588847D01*
X93715355Y-51212392D01*
X94001400Y-51212392D01*
X94039597Y-51264965D01*
X94085562Y-51279900D01*
X94117238Y-51279900D01*
X94163203Y-51264965D01*
X94201400Y-51212392D01*
X94201400Y-51179900D01*
X94454953Y-51179900D01*
X94818060Y-51543007D01*
X94818061Y-51543007D01*
X94826735Y-51529203D01*
X94886277Y-51359040D01*
X94906462Y-51179900D01*
X94886277Y-51000759D01*
X94826735Y-50830596D01*
X94818060Y-50816791D01*
X94454953Y-51179899D01*
X94454953Y-51179900D01*
X94201400Y-51179900D01*
X94201400Y-51147408D01*
X94163203Y-51094835D01*
X94117238Y-51079900D01*
X94085562Y-51079900D01*
X94039597Y-51094835D01*
X94001400Y-51147408D01*
X94001400Y-51212392D01*
X93715355Y-51212392D01*
X93747847Y-51179900D01*
X93338900Y-50770953D01*
X92929953Y-51179900D01*
X92676400Y-51179900D01*
X92676400Y-51147408D01*
X92638203Y-51094835D01*
X92592238Y-51079900D01*
X92560562Y-51079900D01*
X92514597Y-51094835D01*
X92476400Y-51147408D01*
X92476400Y-51212392D01*
X92190352Y-51212392D01*
X92222846Y-51179898D01*
X91813901Y-50770953D01*
X91404952Y-51179899D01*
X91151400Y-51179899D01*
X91151400Y-51147408D01*
X91113203Y-51094835D01*
X91067238Y-51079900D01*
X91035562Y-51079900D01*
X90989597Y-51094835D01*
X90951400Y-51147408D01*
X90951400Y-51212392D01*
X90665355Y-51212392D01*
X90697847Y-51179900D01*
X90697847Y-51179899D01*
X90342273Y-50824325D01*
X90308788Y-50763002D01*
X90306858Y-50721701D01*
X90325278Y-50570000D01*
X90312315Y-50463238D01*
X90688290Y-50463238D01*
X91051399Y-50826347D01*
X91427854Y-50449892D01*
X91713900Y-50449892D01*
X91752097Y-50502465D01*
X91798062Y-50517400D01*
X91829738Y-50517400D01*
X91875703Y-50502465D01*
X91913900Y-50449892D01*
X91913900Y-50417400D01*
X92167453Y-50417400D01*
X92576400Y-50826347D01*
X92952854Y-50449892D01*
X93238900Y-50449892D01*
X93277097Y-50502465D01*
X93323062Y-50517400D01*
X93354738Y-50517400D01*
X93400703Y-50502465D01*
X93438900Y-50449892D01*
X93438900Y-50417400D01*
X93692453Y-50417400D01*
X94101400Y-50826347D01*
X94101401Y-50826347D01*
X94464508Y-50463238D01*
X94450704Y-50454565D01*
X94280540Y-50395022D01*
X94237914Y-50390219D01*
X94173500Y-50363151D01*
X94133946Y-50305556D01*
X94128578Y-50280880D01*
X94123776Y-50238255D01*
X94064235Y-50068096D01*
X94055560Y-50054291D01*
X93692453Y-50417399D01*
X93692453Y-50417400D01*
X93438900Y-50417400D01*
X93438900Y-50384908D01*
X93400703Y-50332335D01*
X93354738Y-50317400D01*
X93323062Y-50317400D01*
X93277097Y-50332335D01*
X93238900Y-50384908D01*
X93238900Y-50449892D01*
X92952854Y-50449892D01*
X92985347Y-50417399D01*
X92622238Y-50054290D01*
X92590292Y-50057891D01*
X92562523Y-50057891D01*
X92530561Y-50054290D01*
X92167453Y-50417399D01*
X92167453Y-50417400D01*
X91913900Y-50417400D01*
X91913900Y-50384908D01*
X91875703Y-50332335D01*
X91829738Y-50317400D01*
X91798062Y-50317400D01*
X91752097Y-50332335D01*
X91713900Y-50384908D01*
X91713900Y-50449892D01*
X91427854Y-50449892D01*
X91460347Y-50417399D01*
X91097238Y-50054290D01*
X91097238Y-50054291D01*
X91088564Y-50068096D01*
X91029022Y-50238259D01*
X91024219Y-50280885D01*
X90997151Y-50345298D01*
X90939556Y-50384852D01*
X90914885Y-50390219D01*
X90872259Y-50395022D01*
X90702096Y-50454564D01*
X90688291Y-50463238D01*
X90688290Y-50463238D01*
X90312315Y-50463238D01*
X90306237Y-50413182D01*
X90250220Y-50265477D01*
X90180657Y-50164697D01*
X90160484Y-50135471D01*
X90144318Y-50121149D01*
X90042240Y-50030717D01*
X89983160Y-49999709D01*
X89902364Y-49957303D01*
X89748985Y-49919500D01*
X89591015Y-49919500D01*
X89437635Y-49957303D01*
X89297758Y-50030718D01*
X89180074Y-50134976D01*
X89116841Y-50164697D01*
X89047578Y-50155513D01*
X89010167Y-50129841D01*
X88581064Y-49700738D01*
X91450790Y-49700738D01*
X91813900Y-50063847D01*
X91813901Y-50063847D01*
X92177008Y-49700738D01*
X92975790Y-49700738D01*
X93338900Y-50063846D01*
X93338901Y-50063846D01*
X93702008Y-49700738D01*
X93688204Y-49692065D01*
X93518040Y-49632522D01*
X93338899Y-49612337D01*
X93159759Y-49632522D01*
X92989596Y-49692064D01*
X92975791Y-49700738D01*
X92975790Y-49700738D01*
X92177008Y-49700738D01*
X92163204Y-49692065D01*
X91993040Y-49632522D01*
X91813900Y-49612337D01*
X91634759Y-49632522D01*
X91464596Y-49692064D01*
X91450791Y-49700738D01*
X91450790Y-49700738D01*
X88581064Y-49700738D01*
X88002507Y-49122181D01*
X87969022Y-49060858D01*
X87974006Y-48991166D01*
X88015878Y-48935233D01*
X88081342Y-48910816D01*
X88090188Y-48910500D01*
X98058812Y-48910500D01*
X98125851Y-48930185D01*
G37*
%TD.AperFunction*%
%TA.AperFunction,Conductor*%
G36*
X61898107Y-53441540D02*
G01*
X61943862Y-53494344D01*
X61955068Y-53545855D01*
X61955068Y-56751054D01*
X61984618Y-56751054D01*
X62051657Y-56770739D01*
X62097412Y-56823543D01*
X62107356Y-56892701D01*
X62100560Y-56919025D01*
X62073763Y-56989681D01*
X62054721Y-57146499D01*
X62063645Y-57219990D01*
X62073763Y-57303318D01*
X62129780Y-57451023D01*
X62219517Y-57581030D01*
X62306043Y-57657685D01*
X62343170Y-57716873D01*
X62342404Y-57786739D01*
X62303986Y-57845099D01*
X62240116Y-57873424D01*
X62223817Y-57874500D01*
X60691803Y-57874500D01*
X60666357Y-57871861D01*
X60655731Y-57869633D01*
X60624324Y-57873548D01*
X60608987Y-57874500D01*
X60608886Y-57874500D01*
X60588359Y-57877924D01*
X60583300Y-57878661D01*
X60523556Y-57886109D01*
X60523316Y-57886186D01*
X60470359Y-57914844D01*
X60465805Y-57917188D01*
X60411721Y-57943628D01*
X60411506Y-57943788D01*
X60370729Y-57988082D01*
X60367183Y-57991777D01*
X59774574Y-58584386D01*
X59713251Y-58617871D01*
X59643559Y-58612887D01*
X59587626Y-58571015D01*
X59575493Y-58551166D01*
X59566858Y-58533503D01*
X59566723Y-58533322D01*
X59541419Y-58510028D01*
X59522390Y-58492510D01*
X59518717Y-58488985D01*
X58811819Y-57782086D01*
X58778334Y-57720763D01*
X58775500Y-57694405D01*
X58775500Y-56297624D01*
X58795185Y-56230585D01*
X58847989Y-56184830D01*
X58856159Y-56181445D01*
X58886278Y-56170212D01*
X58998616Y-56086116D01*
X59082712Y-55973778D01*
X59131751Y-55842299D01*
X59138000Y-55784174D01*
X59138000Y-55776055D01*
X60617569Y-55776055D01*
X60617569Y-56047884D01*
X60617889Y-56054166D01*
X60628061Y-56153750D01*
X60683210Y-56320177D01*
X60775251Y-56469400D01*
X60899222Y-56593371D01*
X61048445Y-56685412D01*
X61214871Y-56740561D01*
X61314458Y-56750735D01*
X61320736Y-56751054D01*
X61455067Y-56751054D01*
X61455068Y-56751053D01*
X61455068Y-55776055D01*
X60617569Y-55776055D01*
X59138000Y-55776055D01*
X59138000Y-55215826D01*
X59131751Y-55157701D01*
X59082712Y-55026222D01*
X58998616Y-54913884D01*
X58886278Y-54829788D01*
X58754799Y-54780749D01*
X58750762Y-54780315D01*
X58699960Y-54774853D01*
X58699954Y-54774852D01*
X58696674Y-54774500D01*
X58103326Y-54774500D01*
X58100046Y-54774852D01*
X58100039Y-54774853D01*
X58045200Y-54780749D01*
X57913722Y-54829788D01*
X57801384Y-54913884D01*
X57717288Y-55026222D01*
X57668249Y-55157700D01*
X57662853Y-55207894D01*
X57662000Y-55215826D01*
X57662000Y-55784174D01*
X57662352Y-55787454D01*
X57662353Y-55787460D01*
X57662929Y-55792817D01*
X57668249Y-55842299D01*
X57717288Y-55973778D01*
X57801384Y-56086116D01*
X57913722Y-56170212D01*
X57943831Y-56181441D01*
X57999765Y-56223312D01*
X58024183Y-56288775D01*
X58024499Y-56297624D01*
X58024499Y-57849501D01*
X58021861Y-57874943D01*
X58019632Y-57885571D01*
X58023548Y-57916981D01*
X58024500Y-57932318D01*
X58024500Y-57932421D01*
X58027918Y-57952907D01*
X58028657Y-57957975D01*
X58036107Y-58017743D01*
X58036185Y-58017987D01*
X58064827Y-58070913D01*
X58067171Y-58075467D01*
X58093634Y-58129597D01*
X58093779Y-58129790D01*
X58138080Y-58170572D01*
X58141779Y-58174121D01*
X58848679Y-58881021D01*
X58882164Y-58942344D01*
X58884998Y-58968702D01*
X58884998Y-59145310D01*
X58865313Y-59212349D01*
X58812509Y-59258104D01*
X58743351Y-59268048D01*
X58679795Y-59239023D01*
X58673317Y-59232991D01*
X56936819Y-57496492D01*
X56903334Y-57435169D01*
X56900500Y-57408811D01*
X56900500Y-56316273D01*
X56920185Y-56249234D01*
X56972989Y-56203479D01*
X56981148Y-56200098D01*
X57061278Y-56170212D01*
X57173616Y-56086116D01*
X57257712Y-55973778D01*
X57306751Y-55842299D01*
X57313000Y-55784174D01*
X57313000Y-55215826D01*
X57306751Y-55157701D01*
X57257712Y-55026222D01*
X57173616Y-54913884D01*
X57061278Y-54829788D01*
X57053477Y-54826878D01*
X56981164Y-54799906D01*
X56925231Y-54758034D01*
X56900815Y-54692570D01*
X56900499Y-54683725D01*
X56900499Y-54345352D01*
X56900499Y-53961183D01*
X56920184Y-53894148D01*
X56936814Y-53873511D01*
X57048507Y-53761818D01*
X57109831Y-53728334D01*
X57136188Y-53725500D01*
X60543569Y-53725500D01*
X60610608Y-53745185D01*
X60656363Y-53797989D01*
X60667569Y-53849500D01*
X60667569Y-53955352D01*
X60667889Y-53961634D01*
X60677886Y-54059505D01*
X60732114Y-54223156D01*
X60830232Y-54382229D01*
X60827894Y-54383670D01*
X60851149Y-54426258D01*
X60846165Y-54495950D01*
X60817664Y-54540297D01*
X60775251Y-54582709D01*
X60683210Y-54731932D01*
X60628061Y-54898358D01*
X60617887Y-54997945D01*
X60617568Y-55004223D01*
X60617568Y-55276055D01*
X61455068Y-55276055D01*
X61455068Y-53545855D01*
X61474753Y-53478816D01*
X61527557Y-53433061D01*
X61579068Y-53421855D01*
X61831068Y-53421855D01*
X61898107Y-53441540D01*
G37*
%TD.AperFunction*%
%TA.AperFunction,Conductor*%
G36*
X109442549Y-43900185D02*
G01*
X109488304Y-43952989D01*
X109498248Y-44022147D01*
X109469223Y-44085703D01*
X109457736Y-44097316D01*
X109369517Y-44175469D01*
X109331229Y-44230940D01*
X109276946Y-44274930D01*
X109229179Y-44284500D01*
X100764628Y-44284500D01*
X100753820Y-44284028D01*
X100716192Y-44280735D01*
X100679704Y-44290512D01*
X100669148Y-44292852D01*
X100630899Y-44299597D01*
X100606193Y-44309831D01*
X100574380Y-44332106D01*
X100565264Y-44337914D01*
X100532545Y-44356805D01*
X100508262Y-44385744D01*
X100500956Y-44393716D01*
X97921493Y-46973181D01*
X97860170Y-47006666D01*
X97833812Y-47009500D01*
X89154691Y-47009500D01*
X89087652Y-46989815D01*
X89041897Y-46937011D01*
X89031953Y-46867853D01*
X89038749Y-46841529D01*
X89038997Y-46840876D01*
X89047931Y-46817318D01*
X89066972Y-46660500D01*
X89047931Y-46503682D01*
X88991914Y-46355977D01*
X88902177Y-46225970D01*
X88783934Y-46121217D01*
X88770688Y-46114265D01*
X88644058Y-46047803D01*
X88490679Y-46010000D01*
X88332709Y-46010000D01*
X88332708Y-46010000D01*
X88311405Y-46015250D01*
X88241603Y-46012179D01*
X88194053Y-45982533D01*
X87682939Y-45471419D01*
X87675630Y-45463443D01*
X87651351Y-45434508D01*
X87651350Y-45434507D01*
X87618632Y-45415617D01*
X87609523Y-45409814D01*
X87578580Y-45388148D01*
X87577699Y-45387531D01*
X87553003Y-45377301D01*
X87514748Y-45370555D01*
X87504192Y-45368214D01*
X87467703Y-45358437D01*
X87430076Y-45361730D01*
X87419268Y-45362202D01*
X77787212Y-45362202D01*
X77720173Y-45342517D01*
X77674418Y-45289713D01*
X77664474Y-45220555D01*
X77668136Y-45203607D01*
X77680188Y-45162123D01*
X77711709Y-45053627D01*
X77714500Y-45018163D01*
X77714499Y-44141838D01*
X77711709Y-44106373D01*
X77711709Y-44106371D01*
X77692164Y-44039095D01*
X77692363Y-43969225D01*
X77730305Y-43910555D01*
X77793944Y-43881712D01*
X77811240Y-43880500D01*
X109375510Y-43880500D01*
X109442549Y-43900185D01*
G37*
%TD.AperFunction*%
%TD*%
%TA.AperFunction,NonConductor*%
G36*
X69199422Y-37027074D02*
G01*
X69245186Y-37079870D01*
X69256400Y-37131400D01*
X69256400Y-40634951D01*
X69236715Y-40701990D01*
X69183911Y-40747745D01*
X69114753Y-40757689D01*
X69051197Y-40728664D01*
X69039590Y-40717184D01*
X68954797Y-40621472D01*
X68954796Y-40621471D01*
X68954795Y-40621470D01*
X68814798Y-40524837D01*
X68655740Y-40464515D01*
X68529240Y-40449155D01*
X68533065Y-40449502D01*
X68467705Y-40425925D01*
X68425233Y-40370446D01*
X68419498Y-40300812D01*
X68438889Y-40255425D01*
X68460220Y-40224523D01*
X68516237Y-40076818D01*
X68535278Y-39920000D01*
X68521446Y-39806087D01*
X68532906Y-39737168D01*
X68556858Y-39703466D01*
X68871290Y-39389034D01*
X68879258Y-39381734D01*
X68880472Y-39380716D01*
X68891317Y-39371615D01*
X68908192Y-39357457D01*
X68908192Y-39357456D01*
X68908194Y-39357455D01*
X68927091Y-39324722D01*
X68932887Y-39315625D01*
X68954554Y-39284684D01*
X68954554Y-39284682D01*
X68955173Y-39283799D01*
X68965400Y-39259108D01*
X68965587Y-39258046D01*
X68965588Y-39258045D01*
X68972146Y-39220851D01*
X68974483Y-39210303D01*
X68984264Y-39173806D01*
X68980972Y-39136175D01*
X68980500Y-39125368D01*
X68980500Y-38070031D01*
X68980972Y-38059223D01*
X68984264Y-38021597D01*
X68974487Y-37985111D01*
X68972145Y-37974548D01*
X68970639Y-37966006D01*
X68965588Y-37937360D01*
X68965587Y-37937359D01*
X68965400Y-37936296D01*
X68955171Y-37911603D01*
X68954554Y-37910722D01*
X68954554Y-37910721D01*
X68932892Y-37879784D01*
X68927080Y-37870661D01*
X68908194Y-37837949D01*
X68879255Y-37813667D01*
X68871280Y-37806359D01*
X68693756Y-37628835D01*
X68284127Y-37219204D01*
X68250643Y-37157883D01*
X68255627Y-37088191D01*
X68297499Y-37032258D01*
X68362963Y-37007841D01*
X68371777Y-37007525D01*
X69132381Y-37007400D01*
X69199422Y-37027074D01*
G37*
%TD.AperFunction*%
%TA.AperFunction,NonConductor*%
G36*
X52950703Y-43026496D02*
G01*
X52951727Y-43027393D01*
X52957458Y-43032471D01*
X52957461Y-43032474D01*
X53075704Y-43137227D01*
X53215579Y-43210640D01*
X53243331Y-43217480D01*
X53318372Y-43235976D01*
X53378753Y-43271132D01*
X53410542Y-43333351D01*
X53403646Y-43402880D01*
X53376379Y-43444054D01*
X52957181Y-43863253D01*
X52895858Y-43896738D01*
X52826167Y-43891754D01*
X52770233Y-43849883D01*
X52745816Y-43784418D01*
X52745500Y-43775572D01*
X52745500Y-43120209D01*
X52765185Y-43053170D01*
X52817989Y-43007415D01*
X52887147Y-42997471D01*
X52950703Y-43026496D01*
G37*
%TD.AperFunction*%
%TA.AperFunction,NonConductor*%
G36*
X109296218Y-44955185D02*
G01*
X109331229Y-44989061D01*
X109342618Y-45005561D01*
X109364501Y-45071915D01*
X109347035Y-45139567D01*
X109295767Y-45187036D01*
X109240568Y-45200000D01*
X105410821Y-45200000D01*
X105343782Y-45180315D01*
X105308771Y-45146439D01*
X105297382Y-45129939D01*
X105275499Y-45063585D01*
X105292965Y-44995933D01*
X105344233Y-44948464D01*
X105399432Y-44935500D01*
X109229179Y-44935500D01*
X109296218Y-44955185D01*
G37*
%TD.AperFunction*%
%TA.AperFunction,NonConductor*%
G36*
X53362083Y-45089735D02*
G01*
X53399857Y-45148513D01*
X53399956Y-45148853D01*
X53416381Y-45205389D01*
X53496830Y-45341421D01*
X53608578Y-45453169D01*
X53681312Y-45496184D01*
X53728996Y-45547253D01*
X53741499Y-45615995D01*
X53714854Y-45680584D01*
X53657518Y-45720514D01*
X53650285Y-45722691D01*
X53639757Y-45725512D01*
X53629199Y-45727852D01*
X53590950Y-45734597D01*
X53566244Y-45744831D01*
X53534431Y-45767106D01*
X53525315Y-45772914D01*
X53492596Y-45791805D01*
X53468313Y-45820744D01*
X53461007Y-45828716D01*
X53368560Y-45921163D01*
X53307239Y-45954648D01*
X53237547Y-45949664D01*
X53181613Y-45907793D01*
X53157196Y-45842329D01*
X53156880Y-45833482D01*
X53156880Y-45183448D01*
X53176565Y-45116409D01*
X53229369Y-45070654D01*
X53298527Y-45060710D01*
X53362083Y-45089735D01*
G37*
%TD.AperFunction*%
%TA.AperFunction,NonConductor*%
G36*
X56429407Y-42850185D02*
G01*
X56475162Y-42902989D01*
X56486368Y-42954500D01*
X56486368Y-46236731D01*
X56466683Y-46303770D01*
X56413879Y-46349525D01*
X56344721Y-46359469D01*
X56281165Y-46330444D01*
X56274687Y-46324412D01*
X55778992Y-45828717D01*
X55771683Y-45820741D01*
X55747403Y-45791805D01*
X55714685Y-45772915D01*
X55705576Y-45767112D01*
X55674633Y-45745446D01*
X55673752Y-45744829D01*
X55649056Y-45734599D01*
X55610801Y-45727853D01*
X55600246Y-45725512D01*
X55589717Y-45722691D01*
X55530056Y-45686328D01*
X55499525Y-45623481D01*
X55507819Y-45554106D01*
X55552303Y-45500227D01*
X55558687Y-45496184D01*
X55631420Y-45453170D01*
X55743170Y-45341420D01*
X55823618Y-45205390D01*
X55867709Y-45053627D01*
X55870500Y-45018163D01*
X55870499Y-44141838D01*
X55867709Y-44106373D01*
X55867709Y-44106371D01*
X55823618Y-43954610D01*
X55757093Y-43842122D01*
X55739910Y-43774398D01*
X55762070Y-43708136D01*
X55781594Y-43686190D01*
X55862483Y-43614530D01*
X55952220Y-43484523D01*
X56008237Y-43336818D01*
X56027278Y-43180000D01*
X56008237Y-43023182D01*
X55998864Y-42998469D01*
X55993498Y-42928809D01*
X56026645Y-42867302D01*
X56087783Y-42833481D01*
X56114807Y-42830500D01*
X56362368Y-42830500D01*
X56429407Y-42850185D01*
G37*
%TD.AperFunction*%
%TA.AperFunction,NonConductor*%
G36*
X65546218Y-46095185D02*
G01*
X65581228Y-46129059D01*
X65619517Y-46184530D01*
X65713344Y-46267653D01*
X65750471Y-46326842D01*
X65749703Y-46396707D01*
X65713342Y-46453285D01*
X65664049Y-46496953D01*
X65600816Y-46526673D01*
X65531552Y-46517488D01*
X65494143Y-46491817D01*
X65289507Y-46287181D01*
X65256022Y-46225858D01*
X65261006Y-46156166D01*
X65302878Y-46100233D01*
X65368342Y-46075816D01*
X65377188Y-46075500D01*
X65479179Y-46075500D01*
X65546218Y-46095185D01*
G37*
%TD.AperFunction*%
%TA.AperFunction,NonConductor*%
G36*
X110455140Y-43900185D02*
G01*
X110475781Y-43916818D01*
X112023182Y-45464219D01*
X112056666Y-45525540D01*
X112059500Y-45551898D01*
X112059500Y-46407900D01*
X112039815Y-46474939D01*
X111987011Y-46520694D01*
X111917853Y-46530638D01*
X111905826Y-46528297D01*
X111788986Y-46499500D01*
X111788985Y-46499500D01*
X111631015Y-46499500D01*
X111631014Y-46499500D01*
X111609711Y-46504750D01*
X111539909Y-46501679D01*
X111492359Y-46472033D01*
X110329543Y-45309217D01*
X110322235Y-45301242D01*
X110288316Y-45260819D01*
X110260303Y-45196811D01*
X110271342Y-45127819D01*
X110301077Y-45088298D01*
X110350483Y-45044530D01*
X110440220Y-44914523D01*
X110496237Y-44766818D01*
X110515278Y-44610000D01*
X110496237Y-44453182D01*
X110440220Y-44305477D01*
X110350483Y-44175470D01*
X110262263Y-44097315D01*
X110225137Y-44038127D01*
X110225903Y-43968261D01*
X110264321Y-43909901D01*
X110328191Y-43881576D01*
X110344490Y-43880500D01*
X110388101Y-43880500D01*
X110455140Y-43900185D01*
G37*
%TD.AperFunction*%
%TA.AperFunction,NonConductor*%
G36*
X85650713Y-46385185D02*
G01*
X85696468Y-46437989D01*
X85706412Y-46507147D01*
X85685723Y-46559941D01*
X85615041Y-46662340D01*
X85560758Y-46706330D01*
X85491310Y-46713989D01*
X85428745Y-46682885D01*
X85425311Y-46679580D01*
X85322912Y-46577181D01*
X85289427Y-46515858D01*
X85294411Y-46446166D01*
X85336283Y-46390233D01*
X85401747Y-46365816D01*
X85410593Y-46365500D01*
X85583674Y-46365500D01*
X85650713Y-46385185D01*
G37*
%TD.AperFunction*%
%TA.AperFunction,NonConductor*%
G36*
X109349925Y-46595185D02*
G01*
X109395680Y-46647989D01*
X109405624Y-46717147D01*
X109384936Y-46769940D01*
X109327480Y-46853177D01*
X109272979Y-46996888D01*
X109230801Y-47052591D01*
X109165204Y-47076648D01*
X109097013Y-47061421D01*
X109047880Y-47011745D01*
X109041095Y-46996888D01*
X109040298Y-46994786D01*
X109010220Y-46915477D01*
X108920483Y-46785470D01*
X108920482Y-46785469D01*
X108911930Y-46773079D01*
X108914870Y-46771049D01*
X108891082Y-46733123D01*
X108891852Y-46663257D01*
X108930271Y-46604899D01*
X108994143Y-46576575D01*
X109010437Y-46575500D01*
X109282886Y-46575500D01*
X109349925Y-46595185D01*
G37*
%TD.AperFunction*%
%TA.AperFunction,NonConductor*%
G36*
X107916602Y-46595185D02*
G01*
X107962357Y-46647989D01*
X107972301Y-46717147D01*
X107947072Y-46772390D01*
X107948070Y-46773079D01*
X107944191Y-46778697D01*
X107943276Y-46780703D01*
X107941725Y-46782270D01*
X107901229Y-46840940D01*
X107846946Y-46884930D01*
X107799179Y-46894500D01*
X106775189Y-46894500D01*
X106708150Y-46874815D01*
X106662395Y-46822011D01*
X106652451Y-46752853D01*
X106681476Y-46689297D01*
X106687508Y-46682819D01*
X106758508Y-46611819D01*
X106819831Y-46578334D01*
X106846189Y-46575500D01*
X107849563Y-46575500D01*
X107916602Y-46595185D01*
G37*
%TD.AperFunction*%
%TA.AperFunction,NonConductor*%
G36*
X109966351Y-45870685D02*
G01*
X109986993Y-45887319D01*
X111033137Y-46933463D01*
X111066622Y-46994786D01*
X111068552Y-47036090D01*
X111054721Y-47149998D01*
X111073763Y-47306818D01*
X111109682Y-47401529D01*
X111115049Y-47471192D01*
X111081901Y-47532699D01*
X111020763Y-47566520D01*
X110993740Y-47569500D01*
X110626882Y-47569500D01*
X110559843Y-47549815D01*
X110514088Y-47497011D01*
X110504144Y-47427853D01*
X110510940Y-47401530D01*
X110543937Y-47314521D01*
X110543936Y-47314521D01*
X110543938Y-47314519D01*
X110562979Y-47157701D01*
X110543938Y-47000883D01*
X110487921Y-46853178D01*
X110398184Y-46723171D01*
X110279941Y-46618418D01*
X110279939Y-46618417D01*
X110279938Y-46618416D01*
X110268518Y-46612422D01*
X110218306Y-46563837D01*
X110208383Y-46539628D01*
X110185593Y-46507080D01*
X110179781Y-46497957D01*
X110160895Y-46465245D01*
X110131956Y-46440963D01*
X110123981Y-46433655D01*
X109753007Y-46062681D01*
X109719522Y-46001358D01*
X109724506Y-45931666D01*
X109766378Y-45875733D01*
X109831842Y-45851316D01*
X109840688Y-45851000D01*
X109899312Y-45851000D01*
X109966351Y-45870685D01*
G37*
%TD.AperFunction*%
%TA.AperFunction,NonConductor*%
G36*
X104227607Y-44955185D02*
G01*
X104273362Y-45007989D01*
X104283306Y-45077147D01*
X104262618Y-45129940D01*
X104199780Y-45220976D01*
X104143763Y-45368681D01*
X104124721Y-45525500D01*
X104143763Y-45682318D01*
X104199780Y-45830023D01*
X104289515Y-45960028D01*
X104289516Y-45960029D01*
X104289517Y-45960030D01*
X104407760Y-46064783D01*
X104547635Y-46138196D01*
X104701015Y-46176000D01*
X104858985Y-46176000D01*
X105012365Y-46138196D01*
X105152240Y-46064783D01*
X105270483Y-45960030D01*
X105308771Y-45904559D01*
X105363054Y-45860570D01*
X105410821Y-45851000D01*
X106299310Y-45851000D01*
X106366349Y-45870685D01*
X106412104Y-45923489D01*
X106422048Y-45992647D01*
X106393023Y-46056203D01*
X106386991Y-46062681D01*
X105906617Y-46543056D01*
X104936709Y-47512965D01*
X104471493Y-47978181D01*
X104410170Y-48011666D01*
X104383812Y-48014500D01*
X101170821Y-48014500D01*
X101103782Y-47994815D01*
X101068771Y-47960940D01*
X101051211Y-47935500D01*
X101030483Y-47905470D01*
X100922826Y-47810095D01*
X100885701Y-47750909D01*
X100886467Y-47681044D01*
X100922828Y-47624466D01*
X100990483Y-47564530D01*
X101080220Y-47434523D01*
X101136237Y-47286818D01*
X101155278Y-47130000D01*
X101136237Y-46973182D01*
X101080220Y-46825477D01*
X100990483Y-46695470D01*
X100975095Y-46681838D01*
X100953255Y-46662489D01*
X100885251Y-46602243D01*
X100848125Y-46543056D01*
X100848891Y-46473190D01*
X100885249Y-46416616D01*
X101000483Y-46314530D01*
X101090220Y-46184523D01*
X101146237Y-46036818D01*
X101165278Y-45880000D01*
X101146237Y-45723182D01*
X101090220Y-45575477D01*
X101000483Y-45445470D01*
X100882240Y-45340717D01*
X100764128Y-45278726D01*
X100713917Y-45230142D01*
X100697943Y-45162123D01*
X100721279Y-45096265D01*
X100734063Y-45081262D01*
X100843509Y-44971816D01*
X100904830Y-44938334D01*
X100931188Y-44935500D01*
X104160568Y-44935500D01*
X104227607Y-44955185D01*
G37*
%TD.AperFunction*%
%TA.AperFunction,NonConductor*%
G36*
X56075702Y-47046525D02*
G01*
X56082180Y-47052557D01*
X57556699Y-48527076D01*
X57564007Y-48535050D01*
X57602348Y-48580742D01*
X57598696Y-48583806D01*
X57617756Y-48603861D01*
X57630866Y-48672490D01*
X57604791Y-48737312D01*
X57547811Y-48777747D01*
X57507447Y-48784500D01*
X57036188Y-48784500D01*
X56969149Y-48764815D01*
X56948507Y-48748181D01*
X55902749Y-47702423D01*
X55869264Y-47641100D01*
X55866812Y-47605011D01*
X55867708Y-47593629D01*
X55867709Y-47593627D01*
X55870500Y-47558163D01*
X55870499Y-47140236D01*
X55890183Y-47073199D01*
X55942987Y-47027444D01*
X56012146Y-47017500D01*
X56075702Y-47046525D01*
G37*
%TD.AperFunction*%
%TA.AperFunction,NonConductor*%
G36*
X104191851Y-48685185D02*
G01*
X104237606Y-48737989D01*
X104247550Y-48807147D01*
X104218525Y-48870703D01*
X104212493Y-48877181D01*
X103801493Y-49288181D01*
X103740170Y-49321666D01*
X103713812Y-49324500D01*
X101190821Y-49324500D01*
X101123782Y-49304815D01*
X101088771Y-49270940D01*
X101050484Y-49215471D01*
X101017639Y-49186373D01*
X100932240Y-49110717D01*
X100910956Y-49099546D01*
X100860745Y-49050961D01*
X100844771Y-48982942D01*
X100868107Y-48917085D01*
X100910957Y-48879956D01*
X100912240Y-48879283D01*
X101030483Y-48774530D01*
X101068771Y-48719059D01*
X101123054Y-48675070D01*
X101170821Y-48665500D01*
X104124812Y-48665500D01*
X104191851Y-48685185D01*
G37*
%TD.AperFunction*%
%TA.AperFunction,NonConductor*%
G36*
X99850024Y-48389586D02*
G01*
X99893214Y-48444507D01*
X99901192Y-48475644D01*
X99903763Y-48496818D01*
X99959780Y-48644523D01*
X100049515Y-48774528D01*
X100049516Y-48774529D01*
X100049517Y-48774530D01*
X100167760Y-48879283D01*
X100189041Y-48890452D01*
X100239254Y-48939037D01*
X100255228Y-49007056D01*
X100231893Y-49072913D01*
X100189047Y-49110041D01*
X100187764Y-49110714D01*
X100187761Y-49110716D01*
X100187760Y-49110717D01*
X100138894Y-49154007D01*
X100069515Y-49215471D01*
X99979780Y-49345476D01*
X99923763Y-49493181D01*
X99920867Y-49517031D01*
X99893244Y-49581209D01*
X99835309Y-49620265D01*
X99765457Y-49621798D01*
X99710090Y-49589764D01*
X98792507Y-48672181D01*
X98759022Y-48610858D01*
X98764006Y-48541166D01*
X98805878Y-48485233D01*
X98871342Y-48460816D01*
X98880188Y-48460500D01*
X99475373Y-48460500D01*
X99486180Y-48460971D01*
X99523807Y-48464264D01*
X99560324Y-48454478D01*
X99570830Y-48452149D01*
X99608045Y-48445588D01*
X99608047Y-48445586D01*
X99609112Y-48445399D01*
X99633799Y-48435173D01*
X99634682Y-48434554D01*
X99634684Y-48434554D01*
X99665625Y-48412887D01*
X99674728Y-48407088D01*
X99707455Y-48388194D01*
X99707456Y-48388192D01*
X99716097Y-48383204D01*
X99783998Y-48366733D01*
X99850024Y-48389586D01*
G37*
%TD.AperFunction*%
%TA.AperFunction,NonConductor*%
G36*
X86850850Y-51285185D02*
G01*
X86871492Y-51301819D01*
X86928180Y-51358507D01*
X86961665Y-51419830D01*
X86964499Y-51446188D01*
X86964499Y-51885678D01*
X86944814Y-51952717D01*
X86892010Y-51998472D01*
X86822852Y-52008416D01*
X86759296Y-51979391D01*
X86724557Y-51929649D01*
X86724130Y-51928523D01*
X86700220Y-51865477D01*
X86610483Y-51735470D01*
X86526539Y-51661103D01*
X86489413Y-51601914D01*
X86490181Y-51532049D01*
X86526539Y-51475473D01*
X86640483Y-51374530D01*
X86678771Y-51319059D01*
X86733054Y-51275070D01*
X86780821Y-51265500D01*
X86783811Y-51265500D01*
X86850850Y-51285185D01*
G37*
%TD.AperFunction*%
%TA.AperFunction,NonConductor*%
G36*
X66102035Y-52660931D02*
G01*
X66105722Y-52663300D01*
X66139128Y-52685621D01*
X66161561Y-52690083D01*
X66223468Y-52722466D01*
X66258043Y-52783181D01*
X66261367Y-52811699D01*
X66261367Y-52935352D01*
X66241682Y-53002391D01*
X66188878Y-53048146D01*
X66119720Y-53058090D01*
X66094037Y-53051535D01*
X66009767Y-53020104D01*
X66007079Y-53019815D01*
X65954928Y-53014208D01*
X65954922Y-53014207D01*
X65951642Y-53013855D01*
X65948332Y-53013855D01*
X65936368Y-53013855D01*
X65869329Y-52994170D01*
X65823574Y-52941366D01*
X65812368Y-52889855D01*
X65812368Y-52811700D01*
X65832053Y-52744661D01*
X65884857Y-52698906D01*
X65912176Y-52690083D01*
X65912186Y-52690081D01*
X65934608Y-52685621D01*
X65967979Y-52663323D01*
X66034655Y-52642446D01*
X66102035Y-52660931D01*
G37*
%TD.AperFunction*%
%TA.AperFunction,NonConductor*%
G36*
X86900522Y-52345816D02*
G01*
X86949655Y-52395492D01*
X86964499Y-52454321D01*
X86964499Y-53162943D01*
X86944814Y-53229982D01*
X86892010Y-53275737D01*
X86822852Y-53285681D01*
X86759296Y-53256656D01*
X86724557Y-53206914D01*
X86720220Y-53195477D01*
X86642481Y-53082852D01*
X86630484Y-53065471D01*
X86622562Y-53058453D01*
X86512240Y-52960717D01*
X86471903Y-52939546D01*
X86421692Y-52890962D01*
X86405718Y-52822942D01*
X86429054Y-52757085D01*
X86471902Y-52719957D01*
X86492240Y-52709283D01*
X86610483Y-52604530D01*
X86700220Y-52474523D01*
X86724557Y-52410350D01*
X86766734Y-52354648D01*
X86832331Y-52330590D01*
X86900522Y-52345816D01*
G37*
%TD.AperFunction*%
%TA.AperFunction,NonConductor*%
G36*
X100033121Y-53805185D02*
G01*
X100068132Y-53839061D01*
X100093971Y-53876496D01*
X100099517Y-53884530D01*
X100217760Y-53989283D01*
X100234516Y-53998077D01*
X100284727Y-54046659D01*
X100300702Y-54114678D01*
X100277368Y-54180536D01*
X100256941Y-54198376D01*
X100259030Y-54200734D01*
X100247762Y-54210715D01*
X100247760Y-54210717D01*
X100194421Y-54257971D01*
X100129515Y-54315471D01*
X100091229Y-54370940D01*
X100036946Y-54414930D01*
X99989179Y-54424500D01*
X94891584Y-54424500D01*
X94824545Y-54404815D01*
X94778790Y-54352011D01*
X94768846Y-54282853D01*
X94797871Y-54219297D01*
X94803903Y-54212819D01*
X95194903Y-53821819D01*
X95256226Y-53788334D01*
X95282584Y-53785500D01*
X99966082Y-53785500D01*
X100033121Y-53805185D01*
G37*
%TD.AperFunction*%
%TA.AperFunction,NonConductor*%
G36*
X80984733Y-53453985D02*
G01*
X81025678Y-53510600D01*
X81032798Y-53552015D01*
X81032798Y-54520210D01*
X81013113Y-54587249D01*
X80996479Y-54607891D01*
X80840689Y-54763681D01*
X80779366Y-54797166D01*
X80753008Y-54800000D01*
X80662807Y-54800000D01*
X80595768Y-54780315D01*
X80550013Y-54727511D01*
X80540069Y-54658353D01*
X80546863Y-54632034D01*
X80556237Y-54607318D01*
X80575278Y-54450500D01*
X80556237Y-54293682D01*
X80500220Y-54145977D01*
X80410483Y-54015970D01*
X80292240Y-53911217D01*
X80292239Y-53911216D01*
X80287273Y-53906817D01*
X80250146Y-53847627D01*
X80245500Y-53814001D01*
X80245500Y-53584502D01*
X80265185Y-53517463D01*
X80317989Y-53471708D01*
X80387147Y-53461764D01*
X80399168Y-53464103D01*
X80515515Y-53492780D01*
X80515516Y-53492780D01*
X80673485Y-53492780D01*
X80826865Y-53454976D01*
X80851171Y-53442218D01*
X80919679Y-53428493D01*
X80984733Y-53453985D01*
G37*
%TD.AperFunction*%
%TA.AperFunction,NonConductor*%
G36*
X77919702Y-54360544D02*
G01*
X77926180Y-54366576D01*
X78932423Y-55372819D01*
X78965908Y-55434142D01*
X78960924Y-55503834D01*
X78919052Y-55559767D01*
X78853588Y-55584184D01*
X78844742Y-55584500D01*
X77755432Y-55584500D01*
X77688393Y-55564815D01*
X77642638Y-55512011D01*
X77632694Y-55442853D01*
X77648700Y-55397379D01*
X77659393Y-55379297D01*
X77667618Y-55365390D01*
X77711709Y-55213627D01*
X77714500Y-55178163D01*
X77714499Y-54454256D01*
X77734183Y-54387218D01*
X77786987Y-54341463D01*
X77856146Y-54331519D01*
X77919702Y-54360544D01*
G37*
%TD.AperFunction*%
%TA.AperFunction,NonConductor*%
G36*
X75183800Y-54060185D02*
G01*
X75229555Y-54112989D01*
X75239499Y-54182147D01*
X75235837Y-54199095D01*
X75216291Y-54266370D01*
X75213691Y-54299402D01*
X75213690Y-54299418D01*
X75213500Y-54301837D01*
X75213500Y-54304282D01*
X75213500Y-54649049D01*
X75193815Y-54716088D01*
X75141011Y-54761843D01*
X75071853Y-54771787D01*
X75008297Y-54742762D01*
X75001819Y-54736730D01*
X74517270Y-54252181D01*
X74483785Y-54190858D01*
X74488769Y-54121166D01*
X74530641Y-54065233D01*
X74596105Y-54040816D01*
X74604951Y-54040500D01*
X75116761Y-54040500D01*
X75183800Y-54060185D01*
G37*
%TD.AperFunction*%
%TA.AperFunction,NonConductor*%
G36*
X100056218Y-55095185D02*
G01*
X100091229Y-55129060D01*
X100129515Y-55184528D01*
X100129516Y-55184529D01*
X100129517Y-55184530D01*
X100247760Y-55289283D01*
X100278569Y-55305453D01*
X100328780Y-55354036D01*
X100344755Y-55422055D01*
X100321420Y-55487913D01*
X100278571Y-55525042D01*
X100267760Y-55530717D01*
X100224379Y-55569149D01*
X100149515Y-55635471D01*
X100123918Y-55672556D01*
X100113120Y-55688201D01*
X100111229Y-55690940D01*
X100056946Y-55734930D01*
X100009179Y-55744500D01*
X94207980Y-55744500D01*
X94140941Y-55724815D01*
X94095186Y-55672011D01*
X94085242Y-55602853D01*
X94114267Y-55539297D01*
X94120299Y-55532819D01*
X94541299Y-55111819D01*
X94602622Y-55078334D01*
X94628980Y-55075500D01*
X99989179Y-55075500D01*
X100056218Y-55095185D01*
G37*
%TD.AperFunction*%
%TA.AperFunction,NonConductor*%
G36*
X100178105Y-57490185D02*
G01*
X100198747Y-57506819D01*
X100260353Y-57568425D01*
X100293838Y-57629748D01*
X100288854Y-57699440D01*
X100246982Y-57755373D01*
X100230299Y-57765902D01*
X100155393Y-57805216D01*
X100037147Y-57909971D01*
X99998861Y-57965440D01*
X99944578Y-58009430D01*
X99896811Y-58019000D01*
X93701246Y-58019000D01*
X93634207Y-57999315D01*
X93588452Y-57946511D01*
X93578508Y-57877353D01*
X93607533Y-57813797D01*
X93613565Y-57807319D01*
X93914065Y-57506819D01*
X93975388Y-57473334D01*
X94001746Y-57470500D01*
X99231525Y-57470500D01*
X100111066Y-57470500D01*
X100178105Y-57490185D01*
G37*
%TD.AperFunction*%
%TA.AperFunction,NonConductor*%
G36*
X87335851Y-49380185D02*
G01*
X87356493Y-49396819D01*
X88633681Y-50674007D01*
X88667166Y-50735330D01*
X88670000Y-50761688D01*
X88670000Y-55468001D01*
X88650315Y-55535040D01*
X88628227Y-55560817D01*
X88623260Y-55565216D01*
X88623260Y-55565217D01*
X88510680Y-55664953D01*
X88505016Y-55669971D01*
X88415280Y-55799976D01*
X88359263Y-55947681D01*
X88340221Y-56104499D01*
X88359263Y-56261318D01*
X88415280Y-56409023D01*
X88505015Y-56539028D01*
X88505016Y-56539029D01*
X88505017Y-56539030D01*
X88623260Y-56643783D01*
X88684571Y-56675962D01*
X88701755Y-56684981D01*
X88751967Y-56733566D01*
X88767941Y-56801586D01*
X88744605Y-56867443D01*
X88731809Y-56882458D01*
X87341441Y-58272828D01*
X87280118Y-58306313D01*
X87253760Y-58309147D01*
X86875468Y-58309147D01*
X86808429Y-58289462D01*
X86773418Y-58255587D01*
X86764969Y-58243347D01*
X86735130Y-58200117D01*
X86616887Y-58095364D01*
X86599886Y-58086441D01*
X86477011Y-58021950D01*
X86323632Y-57984147D01*
X86165662Y-57984147D01*
X86012282Y-58021950D01*
X85872408Y-58095363D01*
X85754162Y-58200118D01*
X85664427Y-58330123D01*
X85608410Y-58477828D01*
X85589368Y-58634646D01*
X85608410Y-58791465D01*
X85664427Y-58939170D01*
X85754164Y-59069177D01*
X85797630Y-59107684D01*
X85834757Y-59166873D01*
X85833990Y-59236739D01*
X85795573Y-59295099D01*
X85731703Y-59323424D01*
X85715404Y-59324500D01*
X85051804Y-59324500D01*
X85026358Y-59321861D01*
X85015732Y-59319633D01*
X84984323Y-59323548D01*
X84968986Y-59324500D01*
X84968884Y-59324500D01*
X84948381Y-59327920D01*
X84943320Y-59328657D01*
X84883572Y-59336105D01*
X84883308Y-59336190D01*
X84848514Y-59355019D01*
X84780186Y-59369613D01*
X84714814Y-59344948D01*
X84673155Y-59288856D01*
X84665500Y-59245963D01*
X84665500Y-55636188D01*
X84685185Y-55569149D01*
X84701819Y-55548507D01*
X84958507Y-55291819D01*
X85019830Y-55258334D01*
X85046188Y-55255500D01*
X86220373Y-55255500D01*
X86231180Y-55255971D01*
X86268807Y-55259264D01*
X86305324Y-55249478D01*
X86315830Y-55247149D01*
X86353045Y-55240588D01*
X86353047Y-55240586D01*
X86354112Y-55240399D01*
X86378799Y-55230173D01*
X86379682Y-55229554D01*
X86379684Y-55229554D01*
X86410625Y-55207887D01*
X86419722Y-55202091D01*
X86452455Y-55183194D01*
X86476748Y-55154241D01*
X86484035Y-55146289D01*
X87506296Y-54124029D01*
X87514249Y-54116741D01*
X87543194Y-54092455D01*
X87562082Y-54059738D01*
X87567881Y-54050635D01*
X87589554Y-54019684D01*
X87589554Y-54019682D01*
X87590173Y-54018799D01*
X87600398Y-53994112D01*
X87600585Y-53993049D01*
X87600588Y-53993045D01*
X87607150Y-53955822D01*
X87609479Y-53945316D01*
X87619263Y-53908807D01*
X87618013Y-53894523D01*
X87615972Y-53871187D01*
X87615500Y-53860380D01*
X87615500Y-51279615D01*
X87615972Y-51268807D01*
X87619263Y-51231194D01*
X87612646Y-51206499D01*
X87609483Y-51194697D01*
X87607144Y-51184140D01*
X87600588Y-51146955D01*
X87600587Y-51146954D01*
X87600400Y-51145891D01*
X87590173Y-51121201D01*
X87589554Y-51120317D01*
X87589554Y-51120316D01*
X87567878Y-51089360D01*
X87562085Y-51080266D01*
X87543194Y-51047545D01*
X87514261Y-51023267D01*
X87506286Y-51015959D01*
X87214043Y-50723717D01*
X87206734Y-50715741D01*
X87187055Y-50692288D01*
X87182455Y-50686806D01*
X87182454Y-50686805D01*
X87149736Y-50667915D01*
X87140627Y-50662112D01*
X87109684Y-50640446D01*
X87108803Y-50639829D01*
X87084107Y-50629599D01*
X87045852Y-50622853D01*
X87035296Y-50620512D01*
X86998807Y-50610735D01*
X86961180Y-50614028D01*
X86950372Y-50614500D01*
X86780821Y-50614500D01*
X86713782Y-50594815D01*
X86678771Y-50560940D01*
X86640484Y-50505471D01*
X86638233Y-50503477D01*
X86522240Y-50400717D01*
X86465081Y-50370717D01*
X86382364Y-50327303D01*
X86228985Y-50289500D01*
X86071015Y-50289500D01*
X85917635Y-50327303D01*
X85777761Y-50400716D01*
X85659515Y-50505471D01*
X85569780Y-50635476D01*
X85513763Y-50783181D01*
X85494721Y-50940000D01*
X85502099Y-51000759D01*
X85513763Y-51096818D01*
X85569780Y-51244523D01*
X85659517Y-51374530D01*
X85731815Y-51438580D01*
X85743459Y-51448895D01*
X85780586Y-51508084D01*
X85779820Y-51577950D01*
X85743460Y-51634525D01*
X85726416Y-51649626D01*
X85629515Y-51735471D01*
X85591229Y-51790940D01*
X85536946Y-51834930D01*
X85489179Y-51844500D01*
X82537926Y-51844500D01*
X82527118Y-51844028D01*
X82489490Y-51840735D01*
X82453002Y-51850512D01*
X82442446Y-51852852D01*
X82404197Y-51859597D01*
X82379491Y-51869831D01*
X82347678Y-51892106D01*
X82338562Y-51897914D01*
X82305843Y-51916805D01*
X82281560Y-51945744D01*
X82274254Y-51953716D01*
X81895479Y-52332492D01*
X81834156Y-52365977D01*
X81764465Y-52360993D01*
X81708531Y-52319122D01*
X81684114Y-52253657D01*
X81683798Y-52244811D01*
X81683798Y-51684286D01*
X81703483Y-51617247D01*
X81720117Y-51596605D01*
X83919903Y-49396819D01*
X83981226Y-49363334D01*
X84007584Y-49360500D01*
X87268812Y-49360500D01*
X87335851Y-49380185D01*
G37*
%TD.AperFunction*%
%TA.AperFunction,NonConductor*%
G36*
X87788247Y-60095185D02*
G01*
X87834002Y-60147989D01*
X87843946Y-60217147D01*
X87814921Y-60280703D01*
X87808889Y-60287181D01*
X86809831Y-61286237D01*
X86748508Y-61319722D01*
X86678816Y-61314738D01*
X86622883Y-61272866D01*
X86598466Y-61207402D01*
X86599053Y-61183619D01*
X86615278Y-61050000D01*
X86615057Y-61048184D01*
X86610482Y-61010500D01*
X86596237Y-60893182D01*
X86540220Y-60745477D01*
X86450483Y-60615470D01*
X86332240Y-60510717D01*
X86279055Y-60482803D01*
X86192364Y-60437303D01*
X86038985Y-60399500D01*
X85881015Y-60399500D01*
X85727635Y-60437303D01*
X85587761Y-60510716D01*
X85469515Y-60615471D01*
X85379779Y-60745476D01*
X85355442Y-60809651D01*
X85313264Y-60865354D01*
X85247667Y-60889411D01*
X85179476Y-60874184D01*
X85130343Y-60824508D01*
X85115500Y-60765680D01*
X85115500Y-60199500D01*
X85135185Y-60132461D01*
X85187989Y-60086706D01*
X85239500Y-60075500D01*
X87721208Y-60075500D01*
X87788247Y-60095185D01*
G37*
%TD.AperFunction*%
%TA.AperFunction,NonConductor*%
G36*
X76683409Y-58300184D02*
G01*
X76729164Y-58352988D01*
X76739108Y-58422146D01*
X76711357Y-58484208D01*
X76676502Y-58525744D01*
X76669196Y-58533716D01*
X74223714Y-60979197D01*
X74215741Y-60986503D01*
X74186806Y-61010783D01*
X74167914Y-61043503D01*
X74162106Y-61052619D01*
X74139831Y-61084432D01*
X74129597Y-61109138D01*
X74122852Y-61147387D01*
X74120512Y-61157943D01*
X74110735Y-61194430D01*
X74114028Y-61232056D01*
X74114500Y-61242865D01*
X74114500Y-61687885D01*
X74094815Y-61754924D01*
X74042011Y-61800679D01*
X74033834Y-61804066D01*
X73947668Y-61836204D01*
X73947669Y-61836204D01*
X73879311Y-61887377D01*
X73813846Y-61911794D01*
X73745573Y-61896942D01*
X73730689Y-61887377D01*
X73662331Y-61836204D01*
X73576166Y-61804066D01*
X73520233Y-61762196D01*
X73495816Y-61696731D01*
X73495500Y-61687885D01*
X73495500Y-60760187D01*
X73515185Y-60693148D01*
X73531814Y-60672511D01*
X75887507Y-58316817D01*
X75948830Y-58283333D01*
X75975188Y-58280499D01*
X76616370Y-58280499D01*
X76683409Y-58300184D01*
G37*
%TD.AperFunction*%
%TA.AperFunction,NonConductor*%
G36*
X73824191Y-54625185D02*
G01*
X73844833Y-54641819D01*
X75391901Y-56188887D01*
X75408028Y-56208746D01*
X75413965Y-56217834D01*
X75413966Y-56217835D01*
X75413967Y-56217836D01*
X75431148Y-56231208D01*
X75471960Y-56287918D01*
X75475635Y-56357691D01*
X75442667Y-56416742D01*
X75340829Y-56518580D01*
X75260381Y-56654610D01*
X75216291Y-56806370D01*
X75213691Y-56839402D01*
X75213690Y-56839418D01*
X75213500Y-56841837D01*
X75213500Y-56844281D01*
X75213500Y-56844282D01*
X75213500Y-57715738D01*
X75213500Y-57715763D01*
X75213501Y-57718162D01*
X75213690Y-57720571D01*
X75213691Y-57720583D01*
X75216290Y-57753628D01*
X75264752Y-57920432D01*
X75261500Y-57921376D01*
X75272416Y-57964427D01*
X75250247Y-58030686D01*
X75236183Y-58047488D01*
X72953714Y-60329958D01*
X72945741Y-60337264D01*
X72916806Y-60361544D01*
X72897914Y-60394264D01*
X72892106Y-60403380D01*
X72869831Y-60435193D01*
X72859597Y-60459899D01*
X72852852Y-60498148D01*
X72850512Y-60508704D01*
X72840735Y-60545191D01*
X72844028Y-60582817D01*
X72844500Y-60593626D01*
X72844500Y-61687885D01*
X72824815Y-61754924D01*
X72772011Y-61800679D01*
X72763834Y-61804066D01*
X72677668Y-61836203D01*
X72677669Y-61836204D01*
X72562453Y-61922454D01*
X72528767Y-61967454D01*
X72472833Y-62009325D01*
X72403141Y-62014309D01*
X72341818Y-61980824D01*
X72308334Y-61919500D01*
X72305500Y-61893143D01*
X72305500Y-55729000D01*
X72325185Y-55661961D01*
X72377989Y-55616206D01*
X72429500Y-55605000D01*
X72528985Y-55605000D01*
X72682365Y-55567196D01*
X72822240Y-55493783D01*
X72940483Y-55389030D01*
X73030220Y-55259023D01*
X73086237Y-55111318D01*
X73105278Y-54954500D01*
X73086237Y-54797682D01*
X73077055Y-54773471D01*
X73071688Y-54703807D01*
X73104836Y-54642301D01*
X73165974Y-54608480D01*
X73192997Y-54605500D01*
X73757152Y-54605500D01*
X73824191Y-54625185D01*
G37*
%TD.AperFunction*%
%TA.AperFunction,NonConductor*%
G36*
X71774042Y-54625185D02*
G01*
X71819797Y-54677989D01*
X71829741Y-54747147D01*
X71822945Y-54773471D01*
X71813763Y-54797681D01*
X71794721Y-54954500D01*
X71800896Y-55005352D01*
X71789435Y-55074275D01*
X71765481Y-55107980D01*
X71701105Y-55172355D01*
X71681250Y-55188478D01*
X71672166Y-55194413D01*
X71652722Y-55219394D01*
X71642563Y-55230898D01*
X71642484Y-55230976D01*
X71642479Y-55230982D01*
X71642480Y-55230982D01*
X71630390Y-55247914D01*
X71627341Y-55252004D01*
X71590354Y-55299524D01*
X71590237Y-55299753D01*
X71573057Y-55357455D01*
X71571495Y-55362331D01*
X71551941Y-55419292D01*
X71551906Y-55419534D01*
X71554394Y-55479691D01*
X71554500Y-55484815D01*
X71554500Y-56177624D01*
X71534815Y-56244663D01*
X71482011Y-56290418D01*
X71412853Y-56300362D01*
X71349297Y-56271337D01*
X71348274Y-56270440D01*
X71346086Y-56268502D01*
X71342040Y-56264917D01*
X71261032Y-56222400D01*
X71202164Y-56191503D01*
X71048785Y-56153700D01*
X70890815Y-56153700D01*
X70737433Y-56191503D01*
X70677126Y-56223156D01*
X70608618Y-56236882D01*
X70543564Y-56211389D01*
X70502620Y-56154774D01*
X70495500Y-56113360D01*
X70495500Y-55785350D01*
X70515185Y-55718311D01*
X70567989Y-55672556D01*
X70589827Y-55664953D01*
X70600117Y-55662416D01*
X70611183Y-55659689D01*
X70751058Y-55586276D01*
X70869301Y-55481523D01*
X70959038Y-55351516D01*
X71015055Y-55203811D01*
X71034096Y-55046993D01*
X71015055Y-54890175D01*
X70970794Y-54773470D01*
X70965428Y-54703808D01*
X70998576Y-54642302D01*
X71059714Y-54608480D01*
X71086737Y-54605500D01*
X71707003Y-54605500D01*
X71774042Y-54625185D01*
G37*
%TD.AperFunction*%
%TA.AperFunction,NonConductor*%
G36*
X51320703Y-62846879D02*
G01*
X51327166Y-62852897D01*
X51783453Y-63309184D01*
X52222088Y-63747819D01*
X52255573Y-63809142D01*
X52250589Y-63878834D01*
X52208717Y-63934767D01*
X52143253Y-63959184D01*
X52134407Y-63959500D01*
X52091015Y-63959500D01*
X51937635Y-63997303D01*
X51797761Y-64070716D01*
X51679515Y-64175471D01*
X51589780Y-64305476D01*
X51533763Y-64453181D01*
X51520039Y-64566203D01*
X51492416Y-64630380D01*
X51434482Y-64669436D01*
X51364629Y-64670971D01*
X51309264Y-64638938D01*
X51151815Y-64481489D01*
X51118333Y-64420170D01*
X51115500Y-64393821D01*
X51115500Y-62940592D01*
X51135185Y-62873552D01*
X51187989Y-62827798D01*
X51257147Y-62817854D01*
X51320703Y-62846879D01*
G37*
%TD.AperFunction*%
%TA.AperFunction,NonConductor*%
G36*
X85320703Y-61240606D02*
G01*
X85355442Y-61290349D01*
X85379779Y-61354522D01*
X85404613Y-61390500D01*
X85469517Y-61484530D01*
X85587760Y-61589283D01*
X85587761Y-61589283D01*
X85592725Y-61593681D01*
X85629852Y-61652870D01*
X85634499Y-61686497D01*
X85634499Y-64495183D01*
X85614814Y-64562222D01*
X85598180Y-64582864D01*
X85327181Y-64853864D01*
X85265858Y-64887349D01*
X85196167Y-64882365D01*
X85140233Y-64840494D01*
X85115816Y-64775029D01*
X85115500Y-64766183D01*
X85115500Y-61334319D01*
X85135185Y-61267280D01*
X85187989Y-61221525D01*
X85257147Y-61211581D01*
X85320703Y-61240606D01*
G37*
%TD.AperFunction*%
%TA.AperFunction,NonConductor*%
G36*
X65002037Y-52660933D02*
G01*
X65005757Y-52663324D01*
X65006838Y-52664046D01*
X65039128Y-52685621D01*
X65061550Y-52690081D01*
X65061560Y-52690083D01*
X65123471Y-52722468D01*
X65158045Y-52783184D01*
X65161368Y-52811700D01*
X65161368Y-53031269D01*
X65141683Y-53098308D01*
X65111679Y-53130535D01*
X65081354Y-53153236D01*
X64997256Y-53265577D01*
X64948217Y-53397055D01*
X64943362Y-53442219D01*
X64941968Y-53455181D01*
X64941968Y-54048529D01*
X64942320Y-54051809D01*
X64942321Y-54051815D01*
X64946769Y-54093182D01*
X64948217Y-54106654D01*
X64997256Y-54238133D01*
X65081352Y-54350471D01*
X65193690Y-54434567D01*
X65325169Y-54483606D01*
X65383294Y-54489855D01*
X65642441Y-54489855D01*
X65709480Y-54509540D01*
X65755235Y-54562344D01*
X65765537Y-54628802D01*
X65761219Y-54664355D01*
X65765537Y-54699908D01*
X65754077Y-54768831D01*
X65707173Y-54820618D01*
X65642441Y-54838855D01*
X65383294Y-54838855D01*
X65380014Y-54839207D01*
X65380007Y-54839208D01*
X65325168Y-54845104D01*
X65193690Y-54894143D01*
X65081351Y-54978239D01*
X64989554Y-55100866D01*
X64933620Y-55142737D01*
X64890287Y-55150555D01*
X64742067Y-55150555D01*
X64675028Y-55130870D01*
X64629273Y-55078066D01*
X64618067Y-55026555D01*
X64618067Y-55006494D01*
X64618067Y-55003183D01*
X64611659Y-54943572D01*
X64561364Y-54808724D01*
X64475114Y-54693509D01*
X64359899Y-54607259D01*
X64225051Y-54556964D01*
X64165441Y-54550555D01*
X64162119Y-54550555D01*
X64060398Y-54550555D01*
X63993359Y-54530870D01*
X63947604Y-54478066D01*
X63937660Y-54408908D01*
X63966685Y-54345352D01*
X63986088Y-54327288D01*
X63992504Y-54322485D01*
X64078684Y-54257971D01*
X64162780Y-54145633D01*
X64211819Y-54014154D01*
X64218068Y-53956029D01*
X64218068Y-53466253D01*
X64237753Y-53399214D01*
X64254383Y-53378576D01*
X64615753Y-53017205D01*
X64635616Y-53001076D01*
X64644704Y-52995139D01*
X64664145Y-52970159D01*
X64674317Y-52958642D01*
X64674388Y-52958572D01*
X64686482Y-52941631D01*
X64689516Y-52937563D01*
X64721677Y-52896244D01*
X64721677Y-52896242D01*
X64726534Y-52890003D01*
X64726621Y-52889834D01*
X64728878Y-52882254D01*
X64743822Y-52832056D01*
X64745371Y-52827223D01*
X64762368Y-52777715D01*
X64762368Y-52777713D01*
X64768301Y-52760431D01*
X64808687Y-52703415D01*
X64816693Y-52697591D01*
X64867979Y-52663324D01*
X64934657Y-52642447D01*
X65002037Y-52660933D01*
G37*
%TD.AperFunction*%
%TA.AperFunction,NonConductor*%
G36*
X53454326Y-48930185D02*
G01*
X53500081Y-48982989D01*
X53510025Y-49052147D01*
X53506363Y-49069095D01*
X53472291Y-49186370D01*
X53469691Y-49219402D01*
X53469690Y-49219418D01*
X53469500Y-49221837D01*
X53469500Y-49224281D01*
X53469500Y-49224282D01*
X53469500Y-49260500D01*
X53449815Y-49327539D01*
X53397011Y-49373294D01*
X53345500Y-49384500D01*
X52498793Y-49384500D01*
X52431754Y-49364815D01*
X52385999Y-49312011D01*
X52376055Y-49242853D01*
X52405080Y-49179297D01*
X52411112Y-49172819D01*
X52637112Y-48946819D01*
X52698435Y-48913334D01*
X52724793Y-48910500D01*
X53387287Y-48910500D01*
X53454326Y-48930185D01*
G37*
%TD.AperFunction*%
%TA.AperFunction,NonConductor*%
G36*
X91690851Y-71495185D02*
G01*
X91711493Y-71511819D01*
X91857849Y-71658175D01*
X91891334Y-71719498D01*
X91886350Y-71789190D01*
X91844478Y-71845123D01*
X91804763Y-71864932D01*
X91779810Y-71872181D01*
X91643778Y-71952630D01*
X91532030Y-72064378D01*
X91451581Y-72200410D01*
X91407491Y-72352170D01*
X91404891Y-72385202D01*
X91404890Y-72385218D01*
X91404700Y-72387637D01*
X91404700Y-72390081D01*
X91404700Y-72390082D01*
X91404700Y-73761538D01*
X91404700Y-73761563D01*
X91404701Y-73763962D01*
X91404890Y-73766371D01*
X91404891Y-73766383D01*
X91407490Y-73799428D01*
X91427036Y-73866705D01*
X91426837Y-73936575D01*
X91388895Y-73995245D01*
X91325256Y-74024088D01*
X91307960Y-74025300D01*
X90962439Y-74025300D01*
X90895400Y-74005615D01*
X90849645Y-73952811D01*
X90839701Y-73883653D01*
X90843363Y-73866705D01*
X90862908Y-73799429D01*
X90862909Y-73799427D01*
X90865700Y-73763963D01*
X90865699Y-72387638D01*
X90862909Y-72352173D01*
X90862909Y-72352171D01*
X90818818Y-72200410D01*
X90738369Y-72064378D01*
X90626621Y-71952630D01*
X90490589Y-71872181D01*
X90338829Y-71828091D01*
X90304969Y-71825426D01*
X90239681Y-71800541D01*
X90198211Y-71744309D01*
X90190700Y-71701808D01*
X90190700Y-71599500D01*
X90210385Y-71532461D01*
X90263189Y-71486706D01*
X90314700Y-71475500D01*
X91623812Y-71475500D01*
X91690851Y-71495185D01*
G37*
%TD.AperFunction*%
%TA.AperFunction,NonConductor*%
G36*
X78943650Y-46385185D02*
G01*
X78989405Y-46437989D01*
X78999349Y-46507147D01*
X78992553Y-46533471D01*
X78943623Y-46662489D01*
X78924581Y-46819308D01*
X78943623Y-46976126D01*
X78999640Y-47123831D01*
X79059688Y-47210826D01*
X79081571Y-47277181D01*
X79064106Y-47344832D01*
X79045319Y-47368947D01*
X78631086Y-47783181D01*
X78569763Y-47816666D01*
X78543405Y-47819500D01*
X77811239Y-47819500D01*
X77744200Y-47799815D01*
X77698445Y-47747011D01*
X77688501Y-47677853D01*
X77692163Y-47660905D01*
X77695105Y-47650778D01*
X77711709Y-47593627D01*
X77714500Y-47558163D01*
X77714499Y-46681838D01*
X77711709Y-46646373D01*
X77711709Y-46646371D01*
X77676185Y-46524095D01*
X77676384Y-46454225D01*
X77714326Y-46395555D01*
X77777965Y-46366712D01*
X77795261Y-46365500D01*
X78876611Y-46365500D01*
X78943650Y-46385185D01*
G37*
%TD.AperFunction*%
%TA.AperFunction,NonConductor*%
G36*
X112712062Y-74193305D02*
G01*
X112743655Y-74255624D01*
X112736541Y-74325131D01*
X112726233Y-74345023D01*
X112693509Y-74396243D01*
X112688281Y-74403794D01*
X112658896Y-74443047D01*
X112652858Y-74450495D01*
X112601090Y-74509525D01*
X112586247Y-74523848D01*
X112570942Y-74536334D01*
X112506553Y-74563460D01*
X112437720Y-74551468D01*
X112386297Y-74504165D01*
X112368612Y-74436571D01*
X112390278Y-74370145D01*
X112395600Y-74362951D01*
X112524793Y-74200948D01*
X112581980Y-74160810D01*
X112651792Y-74157960D01*
X112712062Y-74193305D01*
G37*
%TD.AperFunction*%
M02*
