%TF.GenerationSoftware,KiCad,Pcbnew,7.0.2*%
%TF.CreationDate,2024-04-03T12:52:23+03:00*%
%TF.ProjectId,gps_tracer,6770735f-7472-4616-9365-722e6b696361,rev?*%
%TF.SameCoordinates,Original*%
%TF.FileFunction,Paste,Top*%
%TF.FilePolarity,Positive*%
%FSLAX46Y46*%
G04 Gerber Fmt 4.6, Leading zero omitted, Abs format (unit mm)*
G04 Created by KiCad (PCBNEW 7.0.2) date 2024-04-03 12:52:23*
%MOMM*%
%LPD*%
G01*
G04 APERTURE LIST*
G04 Aperture macros list*
%AMRoundRect*
0 Rectangle with rounded corners*
0 $1 Rounding radius*
0 $2 $3 $4 $5 $6 $7 $8 $9 X,Y pos of 4 corners*
0 Add a 4 corners polygon primitive as box body*
4,1,4,$2,$3,$4,$5,$6,$7,$8,$9,$2,$3,0*
0 Add four circle primitives for the rounded corners*
1,1,$1+$1,$2,$3*
1,1,$1+$1,$4,$5*
1,1,$1+$1,$6,$7*
1,1,$1+$1,$8,$9*
0 Add four rect primitives between the rounded corners*
20,1,$1+$1,$2,$3,$4,$5,0*
20,1,$1+$1,$4,$5,$6,$7,0*
20,1,$1+$1,$6,$7,$8,$9,0*
20,1,$1+$1,$8,$9,$2,$3,0*%
G04 Aperture macros list end*
%ADD10R,1.525000X0.700000*%
%ADD11R,2.513000X3.402000*%
%ADD12RoundRect,0.237500X-0.287500X-0.237500X0.287500X-0.237500X0.287500X0.237500X-0.287500X0.237500X0*%
%ADD13R,7.500000X3.000000*%
%ADD14RoundRect,0.237500X0.250000X0.237500X-0.250000X0.237500X-0.250000X-0.237500X0.250000X-0.237500X0*%
%ADD15RoundRect,0.237500X-0.300000X-0.237500X0.300000X-0.237500X0.300000X0.237500X-0.300000X0.237500X0*%
%ADD16RoundRect,0.150000X-0.512500X-0.150000X0.512500X-0.150000X0.512500X0.150000X-0.512500X0.150000X0*%
%ADD17RoundRect,0.237500X0.237500X-0.250000X0.237500X0.250000X-0.237500X0.250000X-0.237500X-0.250000X0*%
%ADD18RoundRect,0.150000X0.150000X-0.587500X0.150000X0.587500X-0.150000X0.587500X-0.150000X-0.587500X0*%
%ADD19RoundRect,0.237500X-0.250000X-0.237500X0.250000X-0.237500X0.250000X0.237500X-0.250000X0.237500X0*%
%ADD20RoundRect,0.237500X-0.237500X0.300000X-0.237500X-0.300000X0.237500X-0.300000X0.237500X0.300000X0*%
%ADD21RoundRect,0.075000X0.075000X-0.350000X0.075000X0.350000X-0.075000X0.350000X-0.075000X-0.350000X0*%
%ADD22RoundRect,0.075000X-0.350000X-0.075000X0.350000X-0.075000X0.350000X0.075000X-0.350000X0.075000X0*%
%ADD23RoundRect,0.200000X0.800000X-0.200000X0.800000X0.200000X-0.800000X0.200000X-0.800000X-0.200000X0*%
%ADD24R,0.375000X0.500000*%
%ADD25R,0.300000X0.650000*%
%ADD26RoundRect,0.250000X-0.412500X-0.650000X0.412500X-0.650000X0.412500X0.650000X-0.412500X0.650000X0*%
%ADD27RoundRect,0.250000X-0.475000X0.337500X-0.475000X-0.337500X0.475000X-0.337500X0.475000X0.337500X0*%
%ADD28R,0.350000X0.500000*%
%ADD29RoundRect,0.225000X-0.225000X-0.375000X0.225000X-0.375000X0.225000X0.375000X-0.225000X0.375000X0*%
%ADD30R,1.240000X0.600000*%
%ADD31R,1.240000X0.300000*%
%ADD32RoundRect,0.225000X-0.375000X0.225000X-0.375000X-0.225000X0.375000X-0.225000X0.375000X0.225000X0*%
%ADD33RoundRect,0.225000X-0.225000X-0.225000X0.225000X-0.225000X0.225000X0.225000X-0.225000X0.225000X0*%
%ADD34RoundRect,0.062500X-0.337500X-0.062500X0.337500X-0.062500X0.337500X0.062500X-0.337500X0.062500X0*%
%ADD35RoundRect,0.062500X-0.062500X-0.337500X0.062500X-0.337500X0.062500X0.337500X-0.062500X0.337500X0*%
%ADD36RoundRect,0.250000X0.475000X-0.337500X0.475000X0.337500X-0.475000X0.337500X-0.475000X-0.337500X0*%
%ADD37RoundRect,0.150000X-0.150000X0.587500X-0.150000X-0.587500X0.150000X-0.587500X0.150000X0.587500X0*%
%ADD38RoundRect,0.237500X-0.237500X0.250000X-0.237500X-0.250000X0.237500X-0.250000X0.237500X0.250000X0*%
%ADD39RoundRect,0.250000X1.025000X-0.787500X1.025000X0.787500X-1.025000X0.787500X-1.025000X-0.787500X0*%
%ADD40RoundRect,0.250000X-0.787500X-1.025000X0.787500X-1.025000X0.787500X1.025000X-0.787500X1.025000X0*%
%ADD41RoundRect,0.237500X0.300000X0.237500X-0.300000X0.237500X-0.300000X-0.237500X0.300000X-0.237500X0*%
%ADD42RoundRect,0.250000X0.337500X0.475000X-0.337500X0.475000X-0.337500X-0.475000X0.337500X-0.475000X0*%
%ADD43R,1.560000X0.650000*%
%ADD44RoundRect,0.237500X0.237500X-0.300000X0.237500X0.300000X-0.237500X0.300000X-0.237500X-0.300000X0*%
%ADD45R,2.000000X1.500000*%
%ADD46R,2.000000X3.800000*%
%ADD47RoundRect,0.150000X0.587500X0.150000X-0.587500X0.150000X-0.587500X-0.150000X0.587500X-0.150000X0*%
%ADD48RoundRect,0.250000X-0.337500X-0.475000X0.337500X-0.475000X0.337500X0.475000X-0.337500X0.475000X0*%
%ADD49RoundRect,0.100000X0.637500X0.100000X-0.637500X0.100000X-0.637500X-0.100000X0.637500X-0.100000X0*%
%ADD50RoundRect,0.150000X0.150000X-0.675000X0.150000X0.675000X-0.150000X0.675000X-0.150000X-0.675000X0*%
%ADD51R,1.500000X0.900000*%
%ADD52R,0.900000X1.500000*%
%ADD53R,1.050000X1.050000*%
G04 APERTURE END LIST*
D10*
%TO.C,IC1*%
X71932800Y-48310800D03*
X71932800Y-47040800D03*
X71932800Y-45770800D03*
X71932800Y-44500800D03*
X66508800Y-44500800D03*
X66508800Y-45770800D03*
X66508800Y-47040800D03*
X66508800Y-48310800D03*
D11*
X69220800Y-46405800D03*
%TD*%
D12*
%TO.C,D9*%
X49310000Y-58310000D03*
X51060000Y-58310000D03*
%TD*%
%TO.C,D8*%
X49340000Y-55490000D03*
X51090000Y-55490000D03*
%TD*%
%TO.C,D7*%
X50970000Y-49360000D03*
X49220000Y-49360000D03*
%TD*%
%TO.C,D6*%
X50980000Y-47550000D03*
X49230000Y-47550000D03*
%TD*%
%TO.C,D2*%
X49350000Y-52720000D03*
X51100000Y-52720000D03*
%TD*%
D13*
%TO.C,L1*%
X80137000Y-70354200D03*
X80137000Y-65354200D03*
%TD*%
D14*
%TO.C,R19*%
X55970000Y-59380000D03*
X54145000Y-59380000D03*
%TD*%
D15*
%TO.C,C20*%
X62865000Y-68440000D03*
X64590000Y-68440000D03*
%TD*%
D16*
%TO.C,U10*%
X72673600Y-58508000D03*
X72673600Y-59458000D03*
X72673600Y-60408000D03*
X70398600Y-60408000D03*
X70398600Y-59458000D03*
X70398600Y-58508000D03*
%TD*%
D17*
%TO.C,R27*%
X64480000Y-54945000D03*
X64480000Y-53120000D03*
%TD*%
D18*
%TO.C,Q1*%
X108945600Y-45974000D03*
X110845600Y-45974000D03*
X109895600Y-44099000D03*
%TD*%
D15*
%TO.C,C4*%
X101526000Y-66649600D03*
X103251000Y-66649600D03*
%TD*%
D19*
%TO.C,R20*%
X85340200Y-72898000D03*
X83515200Y-72898000D03*
%TD*%
D20*
%TO.C,C25*%
X66290000Y-66860000D03*
X66290000Y-68585000D03*
%TD*%
D21*
%TO.C,U12*%
X61430000Y-69940000D03*
X61930000Y-69940000D03*
X62430000Y-69940000D03*
X62930000Y-69940000D03*
X63430000Y-69940000D03*
X63930000Y-69940000D03*
D22*
X64630000Y-70640000D03*
X64630000Y-71140000D03*
X64630000Y-71640000D03*
X64630000Y-72140000D03*
X64630000Y-72640000D03*
X64630000Y-73140000D03*
D21*
X63930000Y-73840000D03*
X63430000Y-73840000D03*
X62930000Y-73840000D03*
X62430000Y-73840000D03*
X61930000Y-73840000D03*
X61430000Y-73840000D03*
D22*
X60730000Y-73140000D03*
X60730000Y-72640000D03*
X60730000Y-72140000D03*
X60730000Y-71640000D03*
X60730000Y-71140000D03*
X60730000Y-70640000D03*
%TD*%
D23*
%TO.C,SW1*%
X50495200Y-70240000D03*
X50495200Y-66040000D03*
%TD*%
D24*
%TO.C,U2*%
X103729500Y-58736600D03*
D25*
X104267000Y-58811600D03*
D24*
X104804500Y-58736600D03*
X104804500Y-57036600D03*
D25*
X104267000Y-56961600D03*
D24*
X103729500Y-57036600D03*
%TD*%
D19*
%TO.C,R8*%
X100609400Y-65049400D03*
X102434400Y-65049400D03*
%TD*%
D26*
%TO.C,C21*%
X78637600Y-73329800D03*
X81762600Y-73329800D03*
%TD*%
D27*
%TO.C,C19*%
X74325000Y-44297600D03*
X74325000Y-46372600D03*
%TD*%
D23*
%TO.C,SW2*%
X50495200Y-64592200D03*
X50495200Y-60392200D03*
%TD*%
D28*
%TO.C,U5*%
X57140000Y-70597500D03*
X56490000Y-70597500D03*
X55840000Y-70597500D03*
X55190000Y-70597500D03*
X55190000Y-72647500D03*
X55840000Y-72647500D03*
X56490000Y-72647500D03*
X57140000Y-72647500D03*
%TD*%
D15*
%TO.C,C13*%
X55250600Y-67498700D03*
X56975600Y-67498700D03*
%TD*%
D19*
%TO.C,R26*%
X53475000Y-41950000D03*
X55300000Y-41950000D03*
%TD*%
D29*
%TO.C,D5*%
X78692500Y-62390000D03*
X81992500Y-62390000D03*
%TD*%
D30*
%TO.C,P1*%
X106917400Y-64871200D03*
X106917400Y-64071200D03*
D31*
X106917400Y-63421200D03*
X106917400Y-62421200D03*
X106917400Y-60921200D03*
X106917400Y-59921200D03*
D30*
X106917400Y-59271200D03*
X106917400Y-58471200D03*
X106917400Y-58471200D03*
X106917400Y-59271200D03*
D31*
X106917400Y-60421200D03*
X106917400Y-61421200D03*
X106917400Y-61921200D03*
X106917400Y-62921200D03*
D30*
X106917400Y-64071200D03*
X106917400Y-64871200D03*
%TD*%
D14*
%TO.C,R6*%
X82499200Y-49377600D03*
X80674200Y-49377600D03*
%TD*%
D32*
%TO.C,D1*%
X70082800Y-53504200D03*
X70082800Y-56804200D03*
%TD*%
D15*
%TO.C,C6*%
X110010000Y-54840000D03*
X111735000Y-54840000D03*
%TD*%
D33*
%TO.C,U3*%
X108774200Y-49613200D03*
X108774200Y-50733200D03*
X108774200Y-51853200D03*
X109894200Y-49613200D03*
X109894200Y-50733200D03*
X109894200Y-51853200D03*
X111014200Y-49613200D03*
X111014200Y-50733200D03*
X111014200Y-51853200D03*
D34*
X107444200Y-49233200D03*
X107444200Y-49733200D03*
X107444200Y-50233200D03*
X107444200Y-50733200D03*
X107444200Y-51233200D03*
X107444200Y-51733200D03*
X107444200Y-52233200D03*
D35*
X108394200Y-53183200D03*
X108894200Y-53183200D03*
X109394200Y-53183200D03*
X109894200Y-53183200D03*
X110394200Y-53183200D03*
X110894200Y-53183200D03*
X111394200Y-53183200D03*
D34*
X112344200Y-52233200D03*
X112344200Y-51733200D03*
X112344200Y-51233200D03*
X112344200Y-50733200D03*
X112344200Y-50233200D03*
X112344200Y-49733200D03*
X112344200Y-49233200D03*
D35*
X111394200Y-48283200D03*
X110894200Y-48283200D03*
X110394200Y-48283200D03*
X109894200Y-48283200D03*
X109394200Y-48283200D03*
X108894200Y-48283200D03*
X108394200Y-48283200D03*
%TD*%
D14*
%TO.C,R9*%
X82524600Y-54508400D03*
X80699600Y-54508400D03*
%TD*%
%TO.C,R23*%
X55975000Y-61020000D03*
X54150000Y-61020000D03*
%TD*%
D36*
%TO.C,C22*%
X82230000Y-59887500D03*
X82230000Y-57812500D03*
%TD*%
%TO.C,C23*%
X80210000Y-59887500D03*
X80210000Y-57812500D03*
%TD*%
D37*
%TO.C,Q4*%
X74350000Y-54825000D03*
X72450000Y-54825000D03*
X73400000Y-56700000D03*
%TD*%
D38*
%TO.C,R11*%
X94980000Y-65110000D03*
X94980000Y-66935000D03*
%TD*%
D19*
%TO.C,R16*%
X66085000Y-39900000D03*
X67910000Y-39900000D03*
%TD*%
D39*
%TO.C,C3*%
X98171000Y-73318100D03*
X98171000Y-67093100D03*
%TD*%
D15*
%TO.C,C12*%
X55250600Y-69098700D03*
X56975600Y-69098700D03*
%TD*%
D18*
%TO.C,Q8*%
X53406000Y-40229000D03*
X55306000Y-40229000D03*
X54356000Y-38354000D03*
%TD*%
D40*
%TO.C,C14*%
X57568100Y-44805600D03*
X63793100Y-44805600D03*
%TD*%
D19*
%TO.C,R13*%
X67910000Y-38376000D03*
X66085000Y-38376000D03*
%TD*%
D41*
%TO.C,C8*%
X82473800Y-50901600D03*
X80748800Y-50901600D03*
%TD*%
D42*
%TO.C,C15*%
X74400000Y-52750000D03*
X72325000Y-52750000D03*
%TD*%
D17*
%TO.C,R5*%
X112395000Y-46202600D03*
X112395000Y-44377600D03*
%TD*%
D19*
%TO.C,R2*%
X106640000Y-54860000D03*
X108465000Y-54860000D03*
%TD*%
D43*
%TO.C,U9*%
X56863000Y-49646800D03*
X56863000Y-50596800D03*
X56863000Y-51546800D03*
X59563000Y-51546800D03*
X59563000Y-50596800D03*
X59563000Y-49646800D03*
%TD*%
D44*
%TO.C,C10*%
X82600800Y-45717800D03*
X82600800Y-43992800D03*
%TD*%
D38*
%TO.C,R4*%
X107416600Y-44373800D03*
X107416600Y-46198800D03*
%TD*%
D42*
%TO.C,C17*%
X65971600Y-42621200D03*
X68046600Y-42621200D03*
%TD*%
D38*
%TO.C,R14*%
X62966600Y-49785900D03*
X62966600Y-51610900D03*
%TD*%
D45*
%TO.C,U1*%
X101853600Y-68820000D03*
X101853600Y-71120000D03*
D46*
X108153600Y-71120000D03*
D45*
X101853600Y-73420000D03*
%TD*%
D47*
%TO.C,Q3*%
X92841600Y-69453800D03*
X94716600Y-68503800D03*
X94716600Y-70403800D03*
%TD*%
D38*
%TO.C,R15*%
X74375400Y-58533400D03*
X74375400Y-60358400D03*
%TD*%
D36*
%TO.C,C9*%
X80822800Y-44043600D03*
X80822800Y-46118600D03*
%TD*%
D17*
%TO.C,R17*%
X74550000Y-49856400D03*
X74550000Y-48031400D03*
%TD*%
D48*
%TO.C,C26*%
X64935000Y-51250000D03*
X67010000Y-51250000D03*
%TD*%
D14*
%TO.C,R7*%
X80699600Y-52933600D03*
X82524600Y-52933600D03*
%TD*%
D15*
%TO.C,C11*%
X97309600Y-65049400D03*
X99034600Y-65049400D03*
%TD*%
D38*
%TO.C,R21*%
X90500200Y-68685400D03*
X90500200Y-70510400D03*
%TD*%
D15*
%TO.C,C24*%
X64600000Y-66920000D03*
X62875000Y-66920000D03*
%TD*%
D40*
%TO.C,C2*%
X57607200Y-39954200D03*
X63832200Y-39954200D03*
%TD*%
D14*
%TO.C,R18*%
X58780000Y-48010000D03*
X56955000Y-48010000D03*
%TD*%
D49*
%TO.C,U8*%
X62552500Y-56347000D03*
X62552500Y-55697000D03*
X62552500Y-55047000D03*
X62552500Y-54397000D03*
X56827500Y-54397000D03*
X56827500Y-55047000D03*
X56827500Y-55697000D03*
X56827500Y-56347000D03*
%TD*%
D14*
%TO.C,R3*%
X82499200Y-47853600D03*
X80674200Y-47853600D03*
%TD*%
%TO.C,R1*%
X55950000Y-57870000D03*
X54125000Y-57870000D03*
%TD*%
D38*
%TO.C,R22*%
X90490000Y-65125000D03*
X90490000Y-66950000D03*
%TD*%
D18*
%TO.C,Q2*%
X103992600Y-45948600D03*
X105892600Y-45948600D03*
X104942600Y-44073600D03*
%TD*%
D36*
%TO.C,C7*%
X104241600Y-49479200D03*
X104241600Y-51554200D03*
%TD*%
D20*
%TO.C,C5*%
X103962200Y-54988800D03*
X103962200Y-53263800D03*
%TD*%
D50*
%TO.C,U11*%
X85064600Y-70189000D03*
X86334600Y-70189000D03*
X87604600Y-70189000D03*
X88874600Y-70189000D03*
X88874600Y-64939000D03*
X87604600Y-64939000D03*
X86334600Y-64939000D03*
X85064600Y-64939000D03*
%TD*%
D44*
%TO.C,C18*%
X61442600Y-51560900D03*
X61442600Y-49835900D03*
%TD*%
D38*
%TO.C,R25*%
X66000000Y-53100000D03*
X66000000Y-54925000D03*
%TD*%
D51*
%TO.C,U4*%
X84506400Y-44602400D03*
X84506400Y-45872400D03*
X84506400Y-47142400D03*
X84506400Y-48412400D03*
X84506400Y-49682400D03*
X84506400Y-50952400D03*
X84506400Y-52222400D03*
X84506400Y-53492400D03*
X84506400Y-54762400D03*
X84506400Y-56032400D03*
X84506400Y-57302400D03*
X84506400Y-58572400D03*
X84506400Y-59842400D03*
X84506400Y-61112400D03*
D52*
X87546400Y-62362400D03*
X88816400Y-62362400D03*
X90086400Y-62362400D03*
X91356400Y-62362400D03*
X92626400Y-62362400D03*
X93896400Y-62362400D03*
X95166400Y-62362400D03*
X96436400Y-62362400D03*
X97706400Y-62362400D03*
X98976400Y-62362400D03*
D51*
X102006400Y-61112400D03*
X102006400Y-59842400D03*
X102006400Y-58572400D03*
X102006400Y-57302400D03*
X102006400Y-56032400D03*
X102006400Y-54762400D03*
X102006400Y-53492400D03*
X102006400Y-52222400D03*
X102006400Y-50952400D03*
X102006400Y-49682400D03*
X102006400Y-48412400D03*
X102006400Y-47142400D03*
X102006400Y-45872400D03*
X102006400Y-44602400D03*
D53*
X91051400Y-50417400D03*
X91051400Y-51942400D03*
X91051400Y-53467400D03*
X92576400Y-50417400D03*
X92576400Y-51942400D03*
X92576400Y-53467400D03*
X94101400Y-50417400D03*
X94101400Y-51942400D03*
X94101400Y-53467400D03*
%TD*%
M02*
