%TF.GenerationSoftware,KiCad,Pcbnew,7.0.2*%
%TF.CreationDate,2024-04-03T12:52:24+03:00*%
%TF.ProjectId,gps_tracer,6770735f-7472-4616-9365-722e6b696361,rev?*%
%TF.SameCoordinates,Original*%
%TF.FileFunction,Legend,Bot*%
%TF.FilePolarity,Positive*%
%FSLAX46Y46*%
G04 Gerber Fmt 4.6, Leading zero omitted, Abs format (unit mm)*
G04 Created by KiCad (PCBNEW 7.0.2) date 2024-04-03 12:52:24*
%MOMM*%
%LPD*%
G01*
G04 APERTURE LIST*
%ADD10C,0.300000*%
%ADD11C,0.150000*%
%ADD12C,0.200000*%
%ADD13C,0.120000*%
G04 APERTURE END LIST*
D10*
X50902857Y-45765000D02*
X49760000Y-45765000D01*
X50832857Y-41735000D02*
X49690000Y-41735000D01*
X50261428Y-42306428D02*
X50261428Y-41163571D01*
D11*
X52076190Y-44508571D02*
X52028571Y-44365714D01*
X52028571Y-44365714D02*
X51980952Y-44318095D01*
X51980952Y-44318095D02*
X51885714Y-44270476D01*
X51885714Y-44270476D02*
X51742857Y-44270476D01*
X51742857Y-44270476D02*
X51647619Y-44318095D01*
X51647619Y-44318095D02*
X51600000Y-44365714D01*
X51600000Y-44365714D02*
X51552380Y-44460952D01*
X51552380Y-44460952D02*
X51552380Y-44841904D01*
X51552380Y-44841904D02*
X52552380Y-44841904D01*
X52552380Y-44841904D02*
X52552380Y-44508571D01*
X52552380Y-44508571D02*
X52504761Y-44413333D01*
X52504761Y-44413333D02*
X52457142Y-44365714D01*
X52457142Y-44365714D02*
X52361904Y-44318095D01*
X52361904Y-44318095D02*
X52266666Y-44318095D01*
X52266666Y-44318095D02*
X52171428Y-44365714D01*
X52171428Y-44365714D02*
X52123809Y-44413333D01*
X52123809Y-44413333D02*
X52076190Y-44508571D01*
X52076190Y-44508571D02*
X52076190Y-44841904D01*
X51838095Y-43889523D02*
X51838095Y-43413333D01*
X51552380Y-43984761D02*
X52552380Y-43651428D01*
X52552380Y-43651428D02*
X51552380Y-43318095D01*
X52552380Y-43127618D02*
X52552380Y-42556190D01*
X51552380Y-42841904D02*
X52552380Y-42841904D01*
D12*
%TO.C,U6*%
X91792057Y-70304371D02*
X92363485Y-70704371D01*
X91792057Y-70990085D02*
X92992057Y-70990085D01*
X92992057Y-70990085D02*
X92992057Y-70532942D01*
X92992057Y-70532942D02*
X92934914Y-70418657D01*
X92934914Y-70418657D02*
X92877771Y-70361514D01*
X92877771Y-70361514D02*
X92763485Y-70304371D01*
X92763485Y-70304371D02*
X92592057Y-70304371D01*
X92592057Y-70304371D02*
X92477771Y-70361514D01*
X92477771Y-70361514D02*
X92420628Y-70418657D01*
X92420628Y-70418657D02*
X92363485Y-70532942D01*
X92363485Y-70532942D02*
X92363485Y-70990085D01*
X92992057Y-69904371D02*
X91792057Y-69104371D01*
X92992057Y-69104371D02*
X91792057Y-69904371D01*
X95392057Y-71161514D02*
X94192057Y-70761514D01*
X94192057Y-70761514D02*
X95392057Y-70361514D01*
X94306342Y-69275800D02*
X94249200Y-69332943D01*
X94249200Y-69332943D02*
X94192057Y-69504371D01*
X94192057Y-69504371D02*
X94192057Y-69618657D01*
X94192057Y-69618657D02*
X94249200Y-69790086D01*
X94249200Y-69790086D02*
X94363485Y-69904371D01*
X94363485Y-69904371D02*
X94477771Y-69961514D01*
X94477771Y-69961514D02*
X94706342Y-70018657D01*
X94706342Y-70018657D02*
X94877771Y-70018657D01*
X94877771Y-70018657D02*
X95106342Y-69961514D01*
X95106342Y-69961514D02*
X95220628Y-69904371D01*
X95220628Y-69904371D02*
X95334914Y-69790086D01*
X95334914Y-69790086D02*
X95392057Y-69618657D01*
X95392057Y-69618657D02*
X95392057Y-69504371D01*
X95392057Y-69504371D02*
X95334914Y-69332943D01*
X95334914Y-69332943D02*
X95277771Y-69275800D01*
X94306342Y-68075800D02*
X94249200Y-68132943D01*
X94249200Y-68132943D02*
X94192057Y-68304371D01*
X94192057Y-68304371D02*
X94192057Y-68418657D01*
X94192057Y-68418657D02*
X94249200Y-68590086D01*
X94249200Y-68590086D02*
X94363485Y-68704371D01*
X94363485Y-68704371D02*
X94477771Y-68761514D01*
X94477771Y-68761514D02*
X94706342Y-68818657D01*
X94706342Y-68818657D02*
X94877771Y-68818657D01*
X94877771Y-68818657D02*
X95106342Y-68761514D01*
X95106342Y-68761514D02*
X95220628Y-68704371D01*
X95220628Y-68704371D02*
X95334914Y-68590086D01*
X95334914Y-68590086D02*
X95392057Y-68418657D01*
X95392057Y-68418657D02*
X95392057Y-68304371D01*
X95392057Y-68304371D02*
X95334914Y-68132943D01*
X95334914Y-68132943D02*
X95277771Y-68075800D01*
X87934914Y-70261514D02*
X87992057Y-70375800D01*
X87992057Y-70375800D02*
X87992057Y-70547228D01*
X87992057Y-70547228D02*
X87934914Y-70718657D01*
X87934914Y-70718657D02*
X87820628Y-70832942D01*
X87820628Y-70832942D02*
X87706342Y-70890085D01*
X87706342Y-70890085D02*
X87477771Y-70947228D01*
X87477771Y-70947228D02*
X87306342Y-70947228D01*
X87306342Y-70947228D02*
X87077771Y-70890085D01*
X87077771Y-70890085D02*
X86963485Y-70832942D01*
X86963485Y-70832942D02*
X86849200Y-70718657D01*
X86849200Y-70718657D02*
X86792057Y-70547228D01*
X86792057Y-70547228D02*
X86792057Y-70432942D01*
X86792057Y-70432942D02*
X86849200Y-70261514D01*
X86849200Y-70261514D02*
X86906342Y-70204371D01*
X86906342Y-70204371D02*
X87306342Y-70204371D01*
X87306342Y-70204371D02*
X87306342Y-70432942D01*
X86792057Y-69690085D02*
X87992057Y-69690085D01*
X87992057Y-69690085D02*
X86792057Y-69004371D01*
X86792057Y-69004371D02*
X87992057Y-69004371D01*
X86792057Y-68432942D02*
X87992057Y-68432942D01*
X87992057Y-68432942D02*
X87992057Y-68147228D01*
X87992057Y-68147228D02*
X87934914Y-67975799D01*
X87934914Y-67975799D02*
X87820628Y-67861514D01*
X87820628Y-67861514D02*
X87706342Y-67804371D01*
X87706342Y-67804371D02*
X87477771Y-67747228D01*
X87477771Y-67747228D02*
X87306342Y-67747228D01*
X87306342Y-67747228D02*
X87077771Y-67804371D01*
X87077771Y-67804371D02*
X86963485Y-67861514D01*
X86963485Y-67861514D02*
X86849200Y-67975799D01*
X86849200Y-67975799D02*
X86792057Y-68147228D01*
X86792057Y-68147228D02*
X86792057Y-68432942D01*
X90492057Y-71061514D02*
X90492057Y-70375800D01*
X89292057Y-70718657D02*
X90492057Y-70718657D01*
X90492057Y-70090085D02*
X89292057Y-69290085D01*
X90492057Y-69290085D02*
X89292057Y-70090085D01*
%TO.C,U7*%
X52605714Y-54150285D02*
X52720000Y-54093142D01*
X52720000Y-54093142D02*
X52891428Y-54093142D01*
X52891428Y-54093142D02*
X53062857Y-54150285D01*
X53062857Y-54150285D02*
X53177142Y-54264571D01*
X53177142Y-54264571D02*
X53234285Y-54378857D01*
X53234285Y-54378857D02*
X53291428Y-54607428D01*
X53291428Y-54607428D02*
X53291428Y-54778857D01*
X53291428Y-54778857D02*
X53234285Y-55007428D01*
X53234285Y-55007428D02*
X53177142Y-55121714D01*
X53177142Y-55121714D02*
X53062857Y-55236000D01*
X53062857Y-55236000D02*
X52891428Y-55293142D01*
X52891428Y-55293142D02*
X52777142Y-55293142D01*
X52777142Y-55293142D02*
X52605714Y-55236000D01*
X52605714Y-55236000D02*
X52548571Y-55178857D01*
X52548571Y-55178857D02*
X52548571Y-54778857D01*
X52548571Y-54778857D02*
X52777142Y-54778857D01*
X52034285Y-55293142D02*
X52034285Y-54093142D01*
X52034285Y-54093142D02*
X51348571Y-55293142D01*
X51348571Y-55293142D02*
X51348571Y-54093142D01*
X50777142Y-55293142D02*
X50777142Y-54093142D01*
X50777142Y-54093142D02*
X50491428Y-54093142D01*
X50491428Y-54093142D02*
X50319999Y-54150285D01*
X50319999Y-54150285D02*
X50205714Y-54264571D01*
X50205714Y-54264571D02*
X50148571Y-54378857D01*
X50148571Y-54378857D02*
X50091428Y-54607428D01*
X50091428Y-54607428D02*
X50091428Y-54778857D01*
X50091428Y-54778857D02*
X50148571Y-55007428D01*
X50148571Y-55007428D02*
X50205714Y-55121714D01*
X50205714Y-55121714D02*
X50319999Y-55236000D01*
X50319999Y-55236000D02*
X50491428Y-55293142D01*
X50491428Y-55293142D02*
X50777142Y-55293142D01*
X81934285Y-50293142D02*
X81934285Y-49093142D01*
X81934285Y-49093142D02*
X81534285Y-49950285D01*
X81534285Y-49950285D02*
X81134285Y-49093142D01*
X81134285Y-49093142D02*
X81134285Y-50293142D01*
X80562856Y-50293142D02*
X80562856Y-49093142D01*
X79305713Y-50178857D02*
X79362856Y-50236000D01*
X79362856Y-50236000D02*
X79534284Y-50293142D01*
X79534284Y-50293142D02*
X79648570Y-50293142D01*
X79648570Y-50293142D02*
X79819999Y-50236000D01*
X79819999Y-50236000D02*
X79934284Y-50121714D01*
X79934284Y-50121714D02*
X79991427Y-50007428D01*
X79991427Y-50007428D02*
X80048570Y-49778857D01*
X80048570Y-49778857D02*
X80048570Y-49607428D01*
X80048570Y-49607428D02*
X79991427Y-49378857D01*
X79991427Y-49378857D02*
X79934284Y-49264571D01*
X79934284Y-49264571D02*
X79819999Y-49150285D01*
X79819999Y-49150285D02*
X79648570Y-49093142D01*
X79648570Y-49093142D02*
X79534284Y-49093142D01*
X79534284Y-49093142D02*
X79362856Y-49150285D01*
X79362856Y-49150285D02*
X79305713Y-49207428D01*
X78791427Y-50293142D02*
X78791427Y-49093142D01*
X78791427Y-49093142D02*
X78334284Y-49093142D01*
X78334284Y-49093142D02*
X78219999Y-49150285D01*
X78219999Y-49150285D02*
X78162856Y-49207428D01*
X78162856Y-49207428D02*
X78105713Y-49321714D01*
X78105713Y-49321714D02*
X78105713Y-49493142D01*
X78105713Y-49493142D02*
X78162856Y-49607428D01*
X78162856Y-49607428D02*
X78219999Y-49664571D01*
X78219999Y-49664571D02*
X78334284Y-49721714D01*
X78334284Y-49721714D02*
X78791427Y-49721714D01*
X81934285Y-52793142D02*
X81934285Y-51593142D01*
X81934285Y-51593142D02*
X81534285Y-52450285D01*
X81534285Y-52450285D02*
X81134285Y-51593142D01*
X81134285Y-51593142D02*
X81134285Y-52793142D01*
X80562856Y-52793142D02*
X80562856Y-51593142D01*
X79305713Y-52678857D02*
X79362856Y-52736000D01*
X79362856Y-52736000D02*
X79534284Y-52793142D01*
X79534284Y-52793142D02*
X79648570Y-52793142D01*
X79648570Y-52793142D02*
X79819999Y-52736000D01*
X79819999Y-52736000D02*
X79934284Y-52621714D01*
X79934284Y-52621714D02*
X79991427Y-52507428D01*
X79991427Y-52507428D02*
X80048570Y-52278857D01*
X80048570Y-52278857D02*
X80048570Y-52107428D01*
X80048570Y-52107428D02*
X79991427Y-51878857D01*
X79991427Y-51878857D02*
X79934284Y-51764571D01*
X79934284Y-51764571D02*
X79819999Y-51650285D01*
X79819999Y-51650285D02*
X79648570Y-51593142D01*
X79648570Y-51593142D02*
X79534284Y-51593142D01*
X79534284Y-51593142D02*
X79362856Y-51650285D01*
X79362856Y-51650285D02*
X79305713Y-51707428D01*
X78791427Y-52793142D02*
X78791427Y-51593142D01*
X78791427Y-51593142D02*
X78105713Y-52793142D01*
X78105713Y-52793142D02*
X78105713Y-51593142D01*
X82491428Y-57936000D02*
X82320000Y-57993142D01*
X82320000Y-57993142D02*
X82034285Y-57993142D01*
X82034285Y-57993142D02*
X81920000Y-57936000D01*
X81920000Y-57936000D02*
X81862857Y-57878857D01*
X81862857Y-57878857D02*
X81805714Y-57764571D01*
X81805714Y-57764571D02*
X81805714Y-57650285D01*
X81805714Y-57650285D02*
X81862857Y-57536000D01*
X81862857Y-57536000D02*
X81920000Y-57478857D01*
X81920000Y-57478857D02*
X82034285Y-57421714D01*
X82034285Y-57421714D02*
X82262857Y-57364571D01*
X82262857Y-57364571D02*
X82377142Y-57307428D01*
X82377142Y-57307428D02*
X82434285Y-57250285D01*
X82434285Y-57250285D02*
X82491428Y-57136000D01*
X82491428Y-57136000D02*
X82491428Y-57021714D01*
X82491428Y-57021714D02*
X82434285Y-56907428D01*
X82434285Y-56907428D02*
X82377142Y-56850285D01*
X82377142Y-56850285D02*
X82262857Y-56793142D01*
X82262857Y-56793142D02*
X81977142Y-56793142D01*
X81977142Y-56793142D02*
X81805714Y-56850285D01*
X81291428Y-57993142D02*
X81291428Y-56793142D01*
X81291428Y-56793142D02*
X80834285Y-56793142D01*
X80834285Y-56793142D02*
X80720000Y-56850285D01*
X80720000Y-56850285D02*
X80662857Y-56907428D01*
X80662857Y-56907428D02*
X80605714Y-57021714D01*
X80605714Y-57021714D02*
X80605714Y-57193142D01*
X80605714Y-57193142D02*
X80662857Y-57307428D01*
X80662857Y-57307428D02*
X80720000Y-57364571D01*
X80720000Y-57364571D02*
X80834285Y-57421714D01*
X80834285Y-57421714D02*
X81291428Y-57421714D01*
X80091428Y-57993142D02*
X80091428Y-56793142D01*
X79405714Y-57993142D02*
X79920000Y-57307428D01*
X79405714Y-56793142D02*
X80091428Y-57478857D01*
X78891428Y-57993142D02*
X78891428Y-56793142D01*
X78891428Y-56793142D02*
X78491428Y-57650285D01*
X78491428Y-57650285D02*
X78091428Y-56793142D01*
X78091428Y-56793142D02*
X78091428Y-57993142D01*
X52478571Y-47753142D02*
X52878571Y-47181714D01*
X53164285Y-47753142D02*
X53164285Y-46553142D01*
X53164285Y-46553142D02*
X52707142Y-46553142D01*
X52707142Y-46553142D02*
X52592857Y-46610285D01*
X52592857Y-46610285D02*
X52535714Y-46667428D01*
X52535714Y-46667428D02*
X52478571Y-46781714D01*
X52478571Y-46781714D02*
X52478571Y-46953142D01*
X52478571Y-46953142D02*
X52535714Y-47067428D01*
X52535714Y-47067428D02*
X52592857Y-47124571D01*
X52592857Y-47124571D02*
X52707142Y-47181714D01*
X52707142Y-47181714D02*
X53164285Y-47181714D01*
X52021428Y-47696000D02*
X51850000Y-47753142D01*
X51850000Y-47753142D02*
X51564285Y-47753142D01*
X51564285Y-47753142D02*
X51450000Y-47696000D01*
X51450000Y-47696000D02*
X51392857Y-47638857D01*
X51392857Y-47638857D02*
X51335714Y-47524571D01*
X51335714Y-47524571D02*
X51335714Y-47410285D01*
X51335714Y-47410285D02*
X51392857Y-47296000D01*
X51392857Y-47296000D02*
X51450000Y-47238857D01*
X51450000Y-47238857D02*
X51564285Y-47181714D01*
X51564285Y-47181714D02*
X51792857Y-47124571D01*
X51792857Y-47124571D02*
X51907142Y-47067428D01*
X51907142Y-47067428D02*
X51964285Y-47010285D01*
X51964285Y-47010285D02*
X52021428Y-46896000D01*
X52021428Y-46896000D02*
X52021428Y-46781714D01*
X52021428Y-46781714D02*
X51964285Y-46667428D01*
X51964285Y-46667428D02*
X51907142Y-46610285D01*
X51907142Y-46610285D02*
X51792857Y-46553142D01*
X51792857Y-46553142D02*
X51507142Y-46553142D01*
X51507142Y-46553142D02*
X51335714Y-46610285D01*
X50992857Y-46553142D02*
X50307143Y-46553142D01*
X50650000Y-47753142D02*
X50650000Y-46553142D01*
X53205714Y-51493142D02*
X52520000Y-51493142D01*
X52862857Y-52693142D02*
X52862857Y-51493142D01*
X52234285Y-51493142D02*
X51434285Y-52693142D01*
X51434285Y-51493142D02*
X52234285Y-52693142D01*
X50977142Y-52693142D02*
X50977142Y-51493142D01*
X50977142Y-51493142D02*
X50691428Y-51493142D01*
X50691428Y-51493142D02*
X50519999Y-51550285D01*
X50519999Y-51550285D02*
X50405714Y-51664571D01*
X50405714Y-51664571D02*
X50348571Y-51778857D01*
X50348571Y-51778857D02*
X50291428Y-52007428D01*
X50291428Y-52007428D02*
X50291428Y-52178857D01*
X50291428Y-52178857D02*
X50348571Y-52407428D01*
X50348571Y-52407428D02*
X50405714Y-52521714D01*
X50405714Y-52521714D02*
X50519999Y-52636000D01*
X50519999Y-52636000D02*
X50691428Y-52693142D01*
X50691428Y-52693142D02*
X50977142Y-52693142D01*
X54053142Y-40224285D02*
X55253142Y-40624285D01*
X55253142Y-40624285D02*
X54053142Y-41024285D01*
X55138857Y-42109999D02*
X55196000Y-42052856D01*
X55196000Y-42052856D02*
X55253142Y-41881428D01*
X55253142Y-41881428D02*
X55253142Y-41767142D01*
X55253142Y-41767142D02*
X55196000Y-41595713D01*
X55196000Y-41595713D02*
X55081714Y-41481428D01*
X55081714Y-41481428D02*
X54967428Y-41424285D01*
X54967428Y-41424285D02*
X54738857Y-41367142D01*
X54738857Y-41367142D02*
X54567428Y-41367142D01*
X54567428Y-41367142D02*
X54338857Y-41424285D01*
X54338857Y-41424285D02*
X54224571Y-41481428D01*
X54224571Y-41481428D02*
X54110285Y-41595713D01*
X54110285Y-41595713D02*
X54053142Y-41767142D01*
X54053142Y-41767142D02*
X54053142Y-41881428D01*
X54053142Y-41881428D02*
X54110285Y-42052856D01*
X54110285Y-42052856D02*
X54167428Y-42109999D01*
X55138857Y-43309999D02*
X55196000Y-43252856D01*
X55196000Y-43252856D02*
X55253142Y-43081428D01*
X55253142Y-43081428D02*
X55253142Y-42967142D01*
X55253142Y-42967142D02*
X55196000Y-42795713D01*
X55196000Y-42795713D02*
X55081714Y-42681428D01*
X55081714Y-42681428D02*
X54967428Y-42624285D01*
X54967428Y-42624285D02*
X54738857Y-42567142D01*
X54738857Y-42567142D02*
X54567428Y-42567142D01*
X54567428Y-42567142D02*
X54338857Y-42624285D01*
X54338857Y-42624285D02*
X54224571Y-42681428D01*
X54224571Y-42681428D02*
X54110285Y-42795713D01*
X54110285Y-42795713D02*
X54053142Y-42967142D01*
X54053142Y-42967142D02*
X54053142Y-43081428D01*
X54053142Y-43081428D02*
X54110285Y-43252856D01*
X54110285Y-43252856D02*
X54167428Y-43309999D01*
X81048571Y-45193142D02*
X81448571Y-44621714D01*
X81734285Y-45193142D02*
X81734285Y-43993142D01*
X81734285Y-43993142D02*
X81277142Y-43993142D01*
X81277142Y-43993142D02*
X81162857Y-44050285D01*
X81162857Y-44050285D02*
X81105714Y-44107428D01*
X81105714Y-44107428D02*
X81048571Y-44221714D01*
X81048571Y-44221714D02*
X81048571Y-44393142D01*
X81048571Y-44393142D02*
X81105714Y-44507428D01*
X81105714Y-44507428D02*
X81162857Y-44564571D01*
X81162857Y-44564571D02*
X81277142Y-44621714D01*
X81277142Y-44621714D02*
X81734285Y-44621714D01*
X80534285Y-45193142D02*
X80534285Y-43993142D01*
X79962856Y-45193142D02*
X79962856Y-43993142D01*
X79962856Y-43993142D02*
X79277142Y-45193142D01*
X79277142Y-45193142D02*
X79277142Y-43993142D01*
X78077142Y-44050285D02*
X78191428Y-43993142D01*
X78191428Y-43993142D02*
X78362856Y-43993142D01*
X78362856Y-43993142D02*
X78534285Y-44050285D01*
X78534285Y-44050285D02*
X78648570Y-44164571D01*
X78648570Y-44164571D02*
X78705713Y-44278857D01*
X78705713Y-44278857D02*
X78762856Y-44507428D01*
X78762856Y-44507428D02*
X78762856Y-44678857D01*
X78762856Y-44678857D02*
X78705713Y-44907428D01*
X78705713Y-44907428D02*
X78648570Y-45021714D01*
X78648570Y-45021714D02*
X78534285Y-45136000D01*
X78534285Y-45136000D02*
X78362856Y-45193142D01*
X78362856Y-45193142D02*
X78248570Y-45193142D01*
X78248570Y-45193142D02*
X78077142Y-45136000D01*
X78077142Y-45136000D02*
X78019999Y-45078857D01*
X78019999Y-45078857D02*
X78019999Y-44678857D01*
X78019999Y-44678857D02*
X78248570Y-44678857D01*
X52448571Y-50148142D02*
X52848571Y-49576714D01*
X53134285Y-50148142D02*
X53134285Y-48948142D01*
X53134285Y-48948142D02*
X52677142Y-48948142D01*
X52677142Y-48948142D02*
X52562857Y-49005285D01*
X52562857Y-49005285D02*
X52505714Y-49062428D01*
X52505714Y-49062428D02*
X52448571Y-49176714D01*
X52448571Y-49176714D02*
X52448571Y-49348142D01*
X52448571Y-49348142D02*
X52505714Y-49462428D01*
X52505714Y-49462428D02*
X52562857Y-49519571D01*
X52562857Y-49519571D02*
X52677142Y-49576714D01*
X52677142Y-49576714D02*
X53134285Y-49576714D01*
X52048571Y-48948142D02*
X51248571Y-50148142D01*
X51248571Y-48948142D02*
X52048571Y-50148142D01*
X50791428Y-50148142D02*
X50791428Y-48948142D01*
X50791428Y-48948142D02*
X50505714Y-48948142D01*
X50505714Y-48948142D02*
X50334285Y-49005285D01*
X50334285Y-49005285D02*
X50220000Y-49119571D01*
X50220000Y-49119571D02*
X50162857Y-49233857D01*
X50162857Y-49233857D02*
X50105714Y-49462428D01*
X50105714Y-49462428D02*
X50105714Y-49633857D01*
X50105714Y-49633857D02*
X50162857Y-49862428D01*
X50162857Y-49862428D02*
X50220000Y-49976714D01*
X50220000Y-49976714D02*
X50334285Y-50091000D01*
X50334285Y-50091000D02*
X50505714Y-50148142D01*
X50505714Y-50148142D02*
X50791428Y-50148142D01*
X80934285Y-47693142D02*
X80934285Y-46493142D01*
X80934285Y-46493142D02*
X80648571Y-46493142D01*
X80648571Y-46493142D02*
X80477142Y-46550285D01*
X80477142Y-46550285D02*
X80362857Y-46664571D01*
X80362857Y-46664571D02*
X80305714Y-46778857D01*
X80305714Y-46778857D02*
X80248571Y-47007428D01*
X80248571Y-47007428D02*
X80248571Y-47178857D01*
X80248571Y-47178857D02*
X80305714Y-47407428D01*
X80305714Y-47407428D02*
X80362857Y-47521714D01*
X80362857Y-47521714D02*
X80477142Y-47636000D01*
X80477142Y-47636000D02*
X80648571Y-47693142D01*
X80648571Y-47693142D02*
X80934285Y-47693142D01*
X79905714Y-46493142D02*
X79220000Y-46493142D01*
X79562857Y-47693142D02*
X79562857Y-46493142D01*
X78134285Y-47693142D02*
X78534285Y-47121714D01*
X78819999Y-47693142D02*
X78819999Y-46493142D01*
X78819999Y-46493142D02*
X78362856Y-46493142D01*
X78362856Y-46493142D02*
X78248571Y-46550285D01*
X78248571Y-46550285D02*
X78191428Y-46607428D01*
X78191428Y-46607428D02*
X78134285Y-46721714D01*
X78134285Y-46721714D02*
X78134285Y-46893142D01*
X78134285Y-46893142D02*
X78191428Y-47007428D01*
X78191428Y-47007428D02*
X78248571Y-47064571D01*
X78248571Y-47064571D02*
X78362856Y-47121714D01*
X78362856Y-47121714D02*
X78819999Y-47121714D01*
X82391428Y-55236000D02*
X82220000Y-55293142D01*
X82220000Y-55293142D02*
X81934285Y-55293142D01*
X81934285Y-55293142D02*
X81820000Y-55236000D01*
X81820000Y-55236000D02*
X81762857Y-55178857D01*
X81762857Y-55178857D02*
X81705714Y-55064571D01*
X81705714Y-55064571D02*
X81705714Y-54950285D01*
X81705714Y-54950285D02*
X81762857Y-54836000D01*
X81762857Y-54836000D02*
X81820000Y-54778857D01*
X81820000Y-54778857D02*
X81934285Y-54721714D01*
X81934285Y-54721714D02*
X82162857Y-54664571D01*
X82162857Y-54664571D02*
X82277142Y-54607428D01*
X82277142Y-54607428D02*
X82334285Y-54550285D01*
X82334285Y-54550285D02*
X82391428Y-54436000D01*
X82391428Y-54436000D02*
X82391428Y-54321714D01*
X82391428Y-54321714D02*
X82334285Y-54207428D01*
X82334285Y-54207428D02*
X82277142Y-54150285D01*
X82277142Y-54150285D02*
X82162857Y-54093142D01*
X82162857Y-54093142D02*
X81877142Y-54093142D01*
X81877142Y-54093142D02*
X81705714Y-54150285D01*
X81191428Y-55293142D02*
X81191428Y-54093142D01*
X81191428Y-54093142D02*
X80734285Y-54093142D01*
X80734285Y-54093142D02*
X80620000Y-54150285D01*
X80620000Y-54150285D02*
X80562857Y-54207428D01*
X80562857Y-54207428D02*
X80505714Y-54321714D01*
X80505714Y-54321714D02*
X80505714Y-54493142D01*
X80505714Y-54493142D02*
X80562857Y-54607428D01*
X80562857Y-54607428D02*
X80620000Y-54664571D01*
X80620000Y-54664571D02*
X80734285Y-54721714D01*
X80734285Y-54721714D02*
X81191428Y-54721714D01*
X79991428Y-55293142D02*
X79991428Y-54093142D01*
X79305714Y-55293142D02*
X79820000Y-54607428D01*
X79305714Y-54093142D02*
X79991428Y-54778857D01*
X78791428Y-55293142D02*
X78791428Y-54093142D01*
X78791428Y-54093142D02*
X78105714Y-55293142D01*
X78105714Y-55293142D02*
X78105714Y-54093142D01*
D11*
%TO.C,SW1*%
X49688809Y-68838094D02*
X49688809Y-68504761D01*
X50212619Y-68361904D02*
X50212619Y-68838094D01*
X50212619Y-68838094D02*
X49212619Y-68838094D01*
X49212619Y-68838094D02*
X49212619Y-68361904D01*
X50212619Y-67933332D02*
X49212619Y-67933332D01*
X49212619Y-67933332D02*
X50212619Y-67361904D01*
X50212619Y-67361904D02*
X49212619Y-67361904D01*
%TO.C,SW2*%
X49688809Y-63807142D02*
X49736428Y-63664285D01*
X49736428Y-63664285D02*
X49784047Y-63616666D01*
X49784047Y-63616666D02*
X49879285Y-63569047D01*
X49879285Y-63569047D02*
X50022142Y-63569047D01*
X50022142Y-63569047D02*
X50117380Y-63616666D01*
X50117380Y-63616666D02*
X50165000Y-63664285D01*
X50165000Y-63664285D02*
X50212619Y-63759523D01*
X50212619Y-63759523D02*
X50212619Y-64140475D01*
X50212619Y-64140475D02*
X49212619Y-64140475D01*
X49212619Y-64140475D02*
X49212619Y-63807142D01*
X49212619Y-63807142D02*
X49260238Y-63711904D01*
X49260238Y-63711904D02*
X49307857Y-63664285D01*
X49307857Y-63664285D02*
X49403095Y-63616666D01*
X49403095Y-63616666D02*
X49498333Y-63616666D01*
X49498333Y-63616666D02*
X49593571Y-63664285D01*
X49593571Y-63664285D02*
X49641190Y-63711904D01*
X49641190Y-63711904D02*
X49688809Y-63807142D01*
X49688809Y-63807142D02*
X49688809Y-64140475D01*
X49212619Y-62949999D02*
X49212619Y-62759523D01*
X49212619Y-62759523D02*
X49260238Y-62664285D01*
X49260238Y-62664285D02*
X49355476Y-62569047D01*
X49355476Y-62569047D02*
X49545952Y-62521428D01*
X49545952Y-62521428D02*
X49879285Y-62521428D01*
X49879285Y-62521428D02*
X50069761Y-62569047D01*
X50069761Y-62569047D02*
X50165000Y-62664285D01*
X50165000Y-62664285D02*
X50212619Y-62759523D01*
X50212619Y-62759523D02*
X50212619Y-62949999D01*
X50212619Y-62949999D02*
X50165000Y-63045237D01*
X50165000Y-63045237D02*
X50069761Y-63140475D01*
X50069761Y-63140475D02*
X49879285Y-63188094D01*
X49879285Y-63188094D02*
X49545952Y-63188094D01*
X49545952Y-63188094D02*
X49355476Y-63140475D01*
X49355476Y-63140475D02*
X49260238Y-63045237D01*
X49260238Y-63045237D02*
X49212619Y-62949999D01*
X49212619Y-61902380D02*
X49212619Y-61711904D01*
X49212619Y-61711904D02*
X49260238Y-61616666D01*
X49260238Y-61616666D02*
X49355476Y-61521428D01*
X49355476Y-61521428D02*
X49545952Y-61473809D01*
X49545952Y-61473809D02*
X49879285Y-61473809D01*
X49879285Y-61473809D02*
X50069761Y-61521428D01*
X50069761Y-61521428D02*
X50165000Y-61616666D01*
X50165000Y-61616666D02*
X50212619Y-61711904D01*
X50212619Y-61711904D02*
X50212619Y-61902380D01*
X50212619Y-61902380D02*
X50165000Y-61997618D01*
X50165000Y-61997618D02*
X50069761Y-62092856D01*
X50069761Y-62092856D02*
X49879285Y-62140475D01*
X49879285Y-62140475D02*
X49545952Y-62140475D01*
X49545952Y-62140475D02*
X49355476Y-62092856D01*
X49355476Y-62092856D02*
X49260238Y-61997618D01*
X49260238Y-61997618D02*
X49212619Y-61902380D01*
X49212619Y-61188094D02*
X49212619Y-60616666D01*
X50212619Y-60902380D02*
X49212619Y-60902380D01*
%TO.C,U5*%
X56083809Y-67731547D02*
X56131428Y-67874404D01*
X56131428Y-67874404D02*
X56179047Y-67922023D01*
X56179047Y-67922023D02*
X56274285Y-67969642D01*
X56274285Y-67969642D02*
X56417142Y-67969642D01*
X56417142Y-67969642D02*
X56512380Y-67922023D01*
X56512380Y-67922023D02*
X56560000Y-67874404D01*
X56560000Y-67874404D02*
X56607619Y-67779166D01*
X56607619Y-67779166D02*
X56607619Y-67398214D01*
X56607619Y-67398214D02*
X55607619Y-67398214D01*
X55607619Y-67398214D02*
X55607619Y-67731547D01*
X55607619Y-67731547D02*
X55655238Y-67826785D01*
X55655238Y-67826785D02*
X55702857Y-67874404D01*
X55702857Y-67874404D02*
X55798095Y-67922023D01*
X55798095Y-67922023D02*
X55893333Y-67922023D01*
X55893333Y-67922023D02*
X55988571Y-67874404D01*
X55988571Y-67874404D02*
X56036190Y-67826785D01*
X56036190Y-67826785D02*
X56083809Y-67731547D01*
X56083809Y-67731547D02*
X56083809Y-67398214D01*
X56607619Y-68398214D02*
X55607619Y-68398214D01*
X55607619Y-68398214D02*
X56321904Y-68731547D01*
X56321904Y-68731547D02*
X55607619Y-69064880D01*
X55607619Y-69064880D02*
X56607619Y-69064880D01*
X56083809Y-69541071D02*
X56083809Y-69874404D01*
X56607619Y-70017261D02*
X56607619Y-69541071D01*
X56607619Y-69541071D02*
X55607619Y-69541071D01*
X55607619Y-69541071D02*
X55607619Y-70017261D01*
X55702857Y-70398214D02*
X55655238Y-70445833D01*
X55655238Y-70445833D02*
X55607619Y-70541071D01*
X55607619Y-70541071D02*
X55607619Y-70779166D01*
X55607619Y-70779166D02*
X55655238Y-70874404D01*
X55655238Y-70874404D02*
X55702857Y-70922023D01*
X55702857Y-70922023D02*
X55798095Y-70969642D01*
X55798095Y-70969642D02*
X55893333Y-70969642D01*
X55893333Y-70969642D02*
X56036190Y-70922023D01*
X56036190Y-70922023D02*
X56607619Y-70350595D01*
X56607619Y-70350595D02*
X56607619Y-70969642D01*
X56036190Y-71541071D02*
X55988571Y-71445833D01*
X55988571Y-71445833D02*
X55940952Y-71398214D01*
X55940952Y-71398214D02*
X55845714Y-71350595D01*
X55845714Y-71350595D02*
X55798095Y-71350595D01*
X55798095Y-71350595D02*
X55702857Y-71398214D01*
X55702857Y-71398214D02*
X55655238Y-71445833D01*
X55655238Y-71445833D02*
X55607619Y-71541071D01*
X55607619Y-71541071D02*
X55607619Y-71731547D01*
X55607619Y-71731547D02*
X55655238Y-71826785D01*
X55655238Y-71826785D02*
X55702857Y-71874404D01*
X55702857Y-71874404D02*
X55798095Y-71922023D01*
X55798095Y-71922023D02*
X55845714Y-71922023D01*
X55845714Y-71922023D02*
X55940952Y-71874404D01*
X55940952Y-71874404D02*
X55988571Y-71826785D01*
X55988571Y-71826785D02*
X56036190Y-71731547D01*
X56036190Y-71731547D02*
X56036190Y-71541071D01*
X56036190Y-71541071D02*
X56083809Y-71445833D01*
X56083809Y-71445833D02*
X56131428Y-71398214D01*
X56131428Y-71398214D02*
X56226666Y-71350595D01*
X56226666Y-71350595D02*
X56417142Y-71350595D01*
X56417142Y-71350595D02*
X56512380Y-71398214D01*
X56512380Y-71398214D02*
X56560000Y-71445833D01*
X56560000Y-71445833D02*
X56607619Y-71541071D01*
X56607619Y-71541071D02*
X56607619Y-71731547D01*
X56607619Y-71731547D02*
X56560000Y-71826785D01*
X56560000Y-71826785D02*
X56512380Y-71874404D01*
X56512380Y-71874404D02*
X56417142Y-71922023D01*
X56417142Y-71922023D02*
X56226666Y-71922023D01*
X56226666Y-71922023D02*
X56131428Y-71874404D01*
X56131428Y-71874404D02*
X56083809Y-71826785D01*
X56083809Y-71826785D02*
X56036190Y-71731547D01*
X55607619Y-72541071D02*
X55607619Y-72636309D01*
X55607619Y-72636309D02*
X55655238Y-72731547D01*
X55655238Y-72731547D02*
X55702857Y-72779166D01*
X55702857Y-72779166D02*
X55798095Y-72826785D01*
X55798095Y-72826785D02*
X55988571Y-72874404D01*
X55988571Y-72874404D02*
X56226666Y-72874404D01*
X56226666Y-72874404D02*
X56417142Y-72826785D01*
X56417142Y-72826785D02*
X56512380Y-72779166D01*
X56512380Y-72779166D02*
X56560000Y-72731547D01*
X56560000Y-72731547D02*
X56607619Y-72636309D01*
X56607619Y-72636309D02*
X56607619Y-72541071D01*
X56607619Y-72541071D02*
X56560000Y-72445833D01*
X56560000Y-72445833D02*
X56512380Y-72398214D01*
X56512380Y-72398214D02*
X56417142Y-72350595D01*
X56417142Y-72350595D02*
X56226666Y-72302976D01*
X56226666Y-72302976D02*
X55988571Y-72302976D01*
X55988571Y-72302976D02*
X55798095Y-72350595D01*
X55798095Y-72350595D02*
X55702857Y-72398214D01*
X55702857Y-72398214D02*
X55655238Y-72445833D01*
X55655238Y-72445833D02*
X55607619Y-72541071D01*
%TO.C,R10*%
X66130087Y-57169197D02*
X65653896Y-56835864D01*
X66130087Y-56597769D02*
X65130087Y-56597769D01*
X65130087Y-56597769D02*
X65130087Y-56978721D01*
X65130087Y-56978721D02*
X65177706Y-57073959D01*
X65177706Y-57073959D02*
X65225325Y-57121578D01*
X65225325Y-57121578D02*
X65320563Y-57169197D01*
X65320563Y-57169197D02*
X65463420Y-57169197D01*
X65463420Y-57169197D02*
X65558658Y-57121578D01*
X65558658Y-57121578D02*
X65606277Y-57073959D01*
X65606277Y-57073959D02*
X65653896Y-56978721D01*
X65653896Y-56978721D02*
X65653896Y-56597769D01*
X66130087Y-58121578D02*
X66130087Y-57550150D01*
X66130087Y-57835864D02*
X65130087Y-57835864D01*
X65130087Y-57835864D02*
X65272944Y-57740626D01*
X65272944Y-57740626D02*
X65368182Y-57645388D01*
X65368182Y-57645388D02*
X65415801Y-57550150D01*
X65130087Y-58740626D02*
X65130087Y-58835864D01*
X65130087Y-58835864D02*
X65177706Y-58931102D01*
X65177706Y-58931102D02*
X65225325Y-58978721D01*
X65225325Y-58978721D02*
X65320563Y-59026340D01*
X65320563Y-59026340D02*
X65511039Y-59073959D01*
X65511039Y-59073959D02*
X65749134Y-59073959D01*
X65749134Y-59073959D02*
X65939610Y-59026340D01*
X65939610Y-59026340D02*
X66034848Y-58978721D01*
X66034848Y-58978721D02*
X66082468Y-58931102D01*
X66082468Y-58931102D02*
X66130087Y-58835864D01*
X66130087Y-58835864D02*
X66130087Y-58740626D01*
X66130087Y-58740626D02*
X66082468Y-58645388D01*
X66082468Y-58645388D02*
X66034848Y-58597769D01*
X66034848Y-58597769D02*
X65939610Y-58550150D01*
X65939610Y-58550150D02*
X65749134Y-58502531D01*
X65749134Y-58502531D02*
X65511039Y-58502531D01*
X65511039Y-58502531D02*
X65320563Y-58550150D01*
X65320563Y-58550150D02*
X65225325Y-58597769D01*
X65225325Y-58597769D02*
X65177706Y-58645388D01*
X65177706Y-58645388D02*
X65130087Y-58740626D01*
%TO.C,C16*%
X60239725Y-54013835D02*
X60287344Y-54061455D01*
X60287344Y-54061455D02*
X60430201Y-54109074D01*
X60430201Y-54109074D02*
X60525439Y-54109074D01*
X60525439Y-54109074D02*
X60668296Y-54061455D01*
X60668296Y-54061455D02*
X60763534Y-53966216D01*
X60763534Y-53966216D02*
X60811153Y-53870978D01*
X60811153Y-53870978D02*
X60858772Y-53680502D01*
X60858772Y-53680502D02*
X60858772Y-53537645D01*
X60858772Y-53537645D02*
X60811153Y-53347169D01*
X60811153Y-53347169D02*
X60763534Y-53251931D01*
X60763534Y-53251931D02*
X60668296Y-53156693D01*
X60668296Y-53156693D02*
X60525439Y-53109074D01*
X60525439Y-53109074D02*
X60430201Y-53109074D01*
X60430201Y-53109074D02*
X60287344Y-53156693D01*
X60287344Y-53156693D02*
X60239725Y-53204312D01*
X59287344Y-54109074D02*
X59858772Y-54109074D01*
X59573058Y-54109074D02*
X59573058Y-53109074D01*
X59573058Y-53109074D02*
X59668296Y-53251931D01*
X59668296Y-53251931D02*
X59763534Y-53347169D01*
X59763534Y-53347169D02*
X59858772Y-53394788D01*
X58430201Y-53109074D02*
X58620677Y-53109074D01*
X58620677Y-53109074D02*
X58715915Y-53156693D01*
X58715915Y-53156693D02*
X58763534Y-53204312D01*
X58763534Y-53204312D02*
X58858772Y-53347169D01*
X58858772Y-53347169D02*
X58906391Y-53537645D01*
X58906391Y-53537645D02*
X58906391Y-53918597D01*
X58906391Y-53918597D02*
X58858772Y-54013835D01*
X58858772Y-54013835D02*
X58811153Y-54061455D01*
X58811153Y-54061455D02*
X58715915Y-54109074D01*
X58715915Y-54109074D02*
X58525439Y-54109074D01*
X58525439Y-54109074D02*
X58430201Y-54061455D01*
X58430201Y-54061455D02*
X58382582Y-54013835D01*
X58382582Y-54013835D02*
X58334963Y-53918597D01*
X58334963Y-53918597D02*
X58334963Y-53680502D01*
X58334963Y-53680502D02*
X58382582Y-53585264D01*
X58382582Y-53585264D02*
X58430201Y-53537645D01*
X58430201Y-53537645D02*
X58525439Y-53490026D01*
X58525439Y-53490026D02*
X58715915Y-53490026D01*
X58715915Y-53490026D02*
X58811153Y-53537645D01*
X58811153Y-53537645D02*
X58858772Y-53585264D01*
X58858772Y-53585264D02*
X58906391Y-53680502D01*
%TO.C,C1*%
X60216666Y-55918835D02*
X60264285Y-55966455D01*
X60264285Y-55966455D02*
X60407142Y-56014074D01*
X60407142Y-56014074D02*
X60502380Y-56014074D01*
X60502380Y-56014074D02*
X60645237Y-55966455D01*
X60645237Y-55966455D02*
X60740475Y-55871216D01*
X60740475Y-55871216D02*
X60788094Y-55775978D01*
X60788094Y-55775978D02*
X60835713Y-55585502D01*
X60835713Y-55585502D02*
X60835713Y-55442645D01*
X60835713Y-55442645D02*
X60788094Y-55252169D01*
X60788094Y-55252169D02*
X60740475Y-55156931D01*
X60740475Y-55156931D02*
X60645237Y-55061693D01*
X60645237Y-55061693D02*
X60502380Y-55014074D01*
X60502380Y-55014074D02*
X60407142Y-55014074D01*
X60407142Y-55014074D02*
X60264285Y-55061693D01*
X60264285Y-55061693D02*
X60216666Y-55109312D01*
X59264285Y-56014074D02*
X59835713Y-56014074D01*
X59549999Y-56014074D02*
X59549999Y-55014074D01*
X59549999Y-55014074D02*
X59645237Y-55156931D01*
X59645237Y-55156931D02*
X59740475Y-55252169D01*
X59740475Y-55252169D02*
X59835713Y-55299788D01*
%TO.C,R12*%
X58192857Y-57262619D02*
X58526190Y-56786428D01*
X58764285Y-57262619D02*
X58764285Y-56262619D01*
X58764285Y-56262619D02*
X58383333Y-56262619D01*
X58383333Y-56262619D02*
X58288095Y-56310238D01*
X58288095Y-56310238D02*
X58240476Y-56357857D01*
X58240476Y-56357857D02*
X58192857Y-56453095D01*
X58192857Y-56453095D02*
X58192857Y-56595952D01*
X58192857Y-56595952D02*
X58240476Y-56691190D01*
X58240476Y-56691190D02*
X58288095Y-56738809D01*
X58288095Y-56738809D02*
X58383333Y-56786428D01*
X58383333Y-56786428D02*
X58764285Y-56786428D01*
X57240476Y-57262619D02*
X57811904Y-57262619D01*
X57526190Y-57262619D02*
X57526190Y-56262619D01*
X57526190Y-56262619D02*
X57621428Y-56405476D01*
X57621428Y-56405476D02*
X57716666Y-56500714D01*
X57716666Y-56500714D02*
X57811904Y-56548333D01*
X56859523Y-56357857D02*
X56811904Y-56310238D01*
X56811904Y-56310238D02*
X56716666Y-56262619D01*
X56716666Y-56262619D02*
X56478571Y-56262619D01*
X56478571Y-56262619D02*
X56383333Y-56310238D01*
X56383333Y-56310238D02*
X56335714Y-56357857D01*
X56335714Y-56357857D02*
X56288095Y-56453095D01*
X56288095Y-56453095D02*
X56288095Y-56548333D01*
X56288095Y-56548333D02*
X56335714Y-56691190D01*
X56335714Y-56691190D02*
X56907142Y-57262619D01*
X56907142Y-57262619D02*
X56288095Y-57262619D01*
%TO.C,R24*%
X67933487Y-57169197D02*
X67457296Y-56835864D01*
X67933487Y-56597769D02*
X66933487Y-56597769D01*
X66933487Y-56597769D02*
X66933487Y-56978721D01*
X66933487Y-56978721D02*
X66981106Y-57073959D01*
X66981106Y-57073959D02*
X67028725Y-57121578D01*
X67028725Y-57121578D02*
X67123963Y-57169197D01*
X67123963Y-57169197D02*
X67266820Y-57169197D01*
X67266820Y-57169197D02*
X67362058Y-57121578D01*
X67362058Y-57121578D02*
X67409677Y-57073959D01*
X67409677Y-57073959D02*
X67457296Y-56978721D01*
X67457296Y-56978721D02*
X67457296Y-56597769D01*
X67028725Y-57550150D02*
X66981106Y-57597769D01*
X66981106Y-57597769D02*
X66933487Y-57693007D01*
X66933487Y-57693007D02*
X66933487Y-57931102D01*
X66933487Y-57931102D02*
X66981106Y-58026340D01*
X66981106Y-58026340D02*
X67028725Y-58073959D01*
X67028725Y-58073959D02*
X67123963Y-58121578D01*
X67123963Y-58121578D02*
X67219201Y-58121578D01*
X67219201Y-58121578D02*
X67362058Y-58073959D01*
X67362058Y-58073959D02*
X67933487Y-57502531D01*
X67933487Y-57502531D02*
X67933487Y-58121578D01*
X67266820Y-58978721D02*
X67933487Y-58978721D01*
X66885868Y-58740626D02*
X67600153Y-58502531D01*
X67600153Y-58502531D02*
X67600153Y-59121578D01*
%TO.C,J5*%
X64941000Y-44158531D02*
X64941000Y-44615674D01*
X64941000Y-44615674D02*
X64971477Y-44707102D01*
X64971477Y-44707102D02*
X65032429Y-44768055D01*
X65032429Y-44768055D02*
X65123858Y-44798531D01*
X65123858Y-44798531D02*
X65184810Y-44798531D01*
X64331477Y-44158531D02*
X64636239Y-44158531D01*
X64636239Y-44158531D02*
X64666715Y-44463293D01*
X64666715Y-44463293D02*
X64636239Y-44432816D01*
X64636239Y-44432816D02*
X64575286Y-44402340D01*
X64575286Y-44402340D02*
X64422905Y-44402340D01*
X64422905Y-44402340D02*
X64361953Y-44432816D01*
X64361953Y-44432816D02*
X64331477Y-44463293D01*
X64331477Y-44463293D02*
X64301000Y-44524245D01*
X64301000Y-44524245D02*
X64301000Y-44676626D01*
X64301000Y-44676626D02*
X64331477Y-44737578D01*
X64331477Y-44737578D02*
X64361953Y-44768055D01*
X64361953Y-44768055D02*
X64422905Y-44798531D01*
X64422905Y-44798531D02*
X64575286Y-44798531D01*
X64575286Y-44798531D02*
X64636239Y-44768055D01*
X64636239Y-44768055D02*
X64666715Y-44737578D01*
D13*
%TO.C,R10*%
X65144968Y-54409631D02*
X65144968Y-54919079D01*
X66189968Y-54409631D02*
X66189968Y-54919079D01*
%TO.C,C16*%
X62713835Y-54181855D02*
X62421301Y-54181855D01*
X62713835Y-53161855D02*
X62421301Y-53161855D01*
%TO.C,C1*%
X63003820Y-56261055D02*
X62481316Y-56261055D01*
X63003820Y-54791055D02*
X62481316Y-54791055D01*
%TO.C,R12*%
X57232776Y-54977500D02*
X57742224Y-54977500D01*
X57232776Y-56022500D02*
X57742224Y-56022500D01*
%TO.C,R24*%
X66922968Y-54413431D02*
X66922968Y-54922879D01*
X67967968Y-54413431D02*
X67967968Y-54922879D01*
D11*
%TO.C,J5*%
X57971836Y-37149655D02*
X57971836Y-39649655D01*
X57971836Y-37149655D02*
X58986868Y-37149655D01*
X57971836Y-39638727D02*
X57971836Y-40116872D01*
X57971836Y-42877800D02*
X57971836Y-50127800D01*
X58986868Y-37149655D02*
X64486868Y-37149655D01*
X59236868Y-39649655D02*
X57971836Y-39649655D01*
X64486868Y-37149655D02*
X69986868Y-37149655D01*
X64486868Y-38349655D02*
X64486868Y-37149655D01*
X69921836Y-37149655D02*
X72721836Y-37149655D01*
X71221836Y-51627800D02*
X68471836Y-51627800D01*
X71321836Y-39649655D02*
X72721836Y-39649655D01*
X72721836Y-37149655D02*
X72721836Y-39649655D01*
X72721836Y-39649655D02*
X72721836Y-40127800D01*
X72721836Y-42877800D02*
X72721836Y-50127800D01*
%TD*%
M02*
