M48
; DRILL file {KiCad 7.0.2} date Wed Apr  3 12:52:35 2024
; FORMAT={-:-/ absolute / inch / decimal}
; #@! TF.CreationDate,2024-04-03T12:52:35+03:00
; #@! TF.GenerationSoftware,Kicad,Pcbnew,7.0.2
; #@! TF.FileFunction,Plated,1,2,PTH
FMAT,2
INCH
; #@! TA.AperFunction,Plated,PTH,ComponentDrill
T1C0.0079
; #@! TA.AperFunction,Plated,PTH,ViaDrill
T2C0.0157
; #@! TA.AperFunction,Plated,PTH,ComponentDrill
T3C0.0236
; #@! TA.AperFunction,Plated,PTH,ComponentDrill
T4C0.0256
; #@! TA.AperFunction,Plated,PTH,ComponentDrill
T5C0.0315
; #@! TA.AperFunction,Plated,PTH,ComponentDrill
T6C0.0354
; #@! TA.AperFunction,Plated,PTH,ViaDrill
T7C0.0709
%
G90
G05
T1
X3.5847Y-2.015
X3.5847Y-2.075
X3.6147Y-1.9849
X3.6147Y-2.045
X3.6147Y-2.105
X3.6447Y-2.015
X3.6447Y-2.075
X3.6748Y-1.9849
X3.6748Y-2.045
X3.6748Y-2.105
X3.7048Y-2.015
X3.7048Y-2.075
T2
X1.9331Y-2.0209
X1.9335Y-1.7937
X1.937Y-1.9465
X1.9644Y-1.8525
X1.9992Y-1.6209
X2.0335Y-2.6772
X2.039Y-1.8717
X2.0512Y-2.8181
X2.0539Y-2.5437
X2.0543Y-2.5972
X2.0626Y-1.8399
X2.0846Y-2.002
X2.0945Y-2.4567
X2.1Y-1.53
X2.1042Y-1.6771
X2.1665Y-2.2319
X2.174Y-2.6524
X2.1791Y-1.502
X2.18Y-1.7
X2.2067Y-2.4053
X2.22Y-2.57
X2.2441Y-2.6591
X2.27Y-2.46
X2.3331Y-2.425
X2.3386Y-2.1437
X2.34Y-2.28
X2.37Y-2.56
X2.37Y-2.72
X2.3854Y-1.8248
X2.4268Y-1.5335
X2.4689Y-2.2499
X2.4921Y-2.6087
X2.5516Y-2.2272
X2.5626Y-2.7398
X2.5697Y-1.902
X2.5709Y-2.3504
X2.5878Y-2.811
X2.6Y-1.68
X2.6024Y-1.5286
X2.6028Y-1.8012
X2.6043Y-1.5965
X2.6043Y-1.8479
X2.6106Y-2.6295
X2.6148Y-2.1521
X2.6264Y-2.4409
X2.6535Y-2.7413
X2.6626Y-2.4925
X2.6685Y-2.35
X2.6724Y-1.5717
X2.6764Y-1.5091
X2.69Y-1.92
X2.7315Y-2.1657
X2.7571Y-2.0382
X2.761Y-1.7189
X2.7657Y-2.7413
X2.7708Y-2.1672
X2.7941Y-2.2364
X2.83Y-1.93
X2.8451Y-2.6573
X2.85Y-2.07
X2.8524Y-2.1636
X2.9262Y-1.744
X2.95Y-2.77
X2.9705Y-2.5886
X2.9744Y-2.6307
X3.0453Y-2.313
X3.0516Y-2.4157
X3.0787Y-1.7524
X3.11Y-1.96
X3.1331Y-1.8433
X3.1465Y-2.1437
X3.1594Y-2.2736
X3.173Y-2.0804
X3.18Y-2.47
X3.2224Y-2.8839
X3.2394Y-2.276
X3.2736Y-2.1358
X3.3484Y-2.7165
X3.3843Y-1.7551
X3.3843Y-2.4035
X3.3906Y-2.0539
X3.3913Y-2.1063
X3.3917Y-2.0055
X3.3937Y-1.8488
X3.3955Y-2.3085
X3.4382Y-1.837
X3.4808Y-1.837
X3.5038Y-2.2088
X3.5303Y-1.9909
X3.5626Y-2.564
X3.5807Y-1.837
X3.7732Y-2.3638
X3.8024Y-1.9906
X3.8059Y-2.5614
X3.8087Y-1.7941
X3.8465Y-2.3913
X3.8618Y-2.6409
X3.8776Y-2.7472
X3.9433Y-2.4953
X3.9567Y-1.8555
X3.9571Y-1.8063
X3.9578Y-2.297
X3.9583Y-1.9031
X3.9591Y-1.9547
X3.9594Y-2.0043
X3.9602Y-2.1043
X3.9614Y-2.1555
X3.9614Y-2.3394
X3.9622Y-2.2075
X4.0909Y-2.1654
X4.093Y-2.097
X4.0937Y-2.4028
X4.1252Y-1.7923
X4.1303Y-2.4791
X4.1425Y-2.8874
X4.1433Y-2.7157
X4.1529Y-2.1263
X4.1551Y-1.9762
X4.1976Y-2.1098
X4.2689Y-1.8591
X4.2909Y-1.961
X4.2909Y-2.0291
X4.2972Y-2.3701
X4.2972Y-2.4626
X4.3252Y-1.7563
X4.3271Y-1.8566
X4.3311Y-2.2012
X4.3618Y-2.0283
X4.363Y-1.9622
X4.3921Y-2.3425
X4.3921Y-2.4886
X4.398Y-1.8563
X4.4024Y-2.7488
T4
X2.3764Y-2.4335
X2.4264Y-2.4335
X2.4764Y-2.4335
X2.5264Y-2.4335
T5
X1.978Y-1.7
X1.978Y-1.75
X2.7059Y-2.4815
X2.7559Y-2.4815
X2.8807Y-2.4815
X2.9307Y-2.4815
T6
X2.1504Y-1.7551
X2.1504Y-1.8551
X2.1504Y-1.9551
X2.1504Y-2.0551
X2.1504Y-2.1551
X3.0104Y-1.7551
X3.0104Y-1.8551
X3.0104Y-1.9551
X3.0104Y-2.0551
X3.0104Y-2.1551
X3.0104Y-2.2551
X3.438Y-2.877
X3.538Y-2.877
X3.638Y-2.877
X3.738Y-2.877
T7
X1.978Y-1.5366
X1.9791Y-2.8819
X4.374Y-1.5374
X4.374Y-1.5374
X4.374Y-2.8811
T3
G00X4.2113Y-2.2579
M15
G01X4.2546Y-2.2579
M16
G05
G00X4.2113Y-2.5981
M15
G01X4.2546Y-2.5981
M16
G05
G00X4.3826Y-2.2579
M15
G01X4.4141Y-2.2579
M16
G05
G00X4.3826Y-2.5981
M15
G01X4.4141Y-2.5981
M16
G05
T0
M30
